ply
format ascii 1.0
comment VCGLIB generated
element vertex 499
property float x
property float y
property float z
element face 952
property list uchar int vertex_indices
property float quality
end_header
-103.877 -145.392 -70.393 
-117.766 -140.193 -59.9387 
-102.632 -142.384 -69.4122 
-104.444 -141.751 -64.7229 
-103.208 -143.768 -68.9846 
-108.169 -145.544 -69.0413 
-104.028 -148.073 -70.1137 
-106.938 -148.187 -65.2751 
-108.092 -148.974 -67.5494 
-106.581 -148.22 -63.8275 
-105.431 -145.515 -65.0644 
-95.2231 -140.573 -60.0471 
-96.8238 -142.765 -55.082 
-98.9808 -141.129 -58.923 
-108.241 -146.957 -65.4016 
-87.0782 -149.301 -65.1661 
-90.3557 -146.304 -61.6715 
-88.4115 -145.323 -65.0647 
-89.701 -145.063 -67.7174 
-88.4937 -142.612 -65.7362 
-87.9855 -144.224 -67.1576 
-85.4772 -149.809 -65.6607 
-87.3602 -149.068 -66.796 
-113.578 -150.009 -65.384 
-106.34 -150.335 -67.3129 
-108.683 -153.793 -65.3886 
-94.1187 -138.599 -65.8681 
-89.6046 -141.258 -66.5904 
-87.404 -142.168 -62.4941 
-84.847 -145.479 -64.2837 
-72.7599 -143.739 -55.943 
-81.6523 -139.072 -59.7955 
-76.105 -130.971 -46.2859 
-89.1493 -139.389 -63.0646 
-88.3144 -141.105 -61.9574 
-85.7544 -139.063 -60.0311 
-86.3816 -140.219 -58.7298 
-84.9083 -153.864 -64.3492 
-88.5407 -156.233 -53.6006 
-85.7954 -159.125 -51.4925 
-90.3928 -156.632 -51.2137 
-109.205 -153.316 -62.8948 
-110.242 -152.941 -65.3046 
-109.624 -155.317 -64.6418 
-103.108 -139.949 -60.5015 
-96.629 -138.653 -62.7985 
-93.909 -138.183 -61.4156 
-122.322 -151.821 -60.6936 
-85.1778 -154.058 -62.4622 
-94.7244 -137.519 -57.9123 
-84.0756 -142.91 -62.1318 
-112.251 -155.788 -64.0264 
-115.572 -159.543 -62.1349 
-91.4709 -143.183 -61.9269 
-83.0124 -155.675 -63.1629 
-100.899 -140.262 -62.4578 
-101.095 -143.058 -58.9852 
-103.258 -147.016 -59.9198 
-80.6888 -155.443 -61.1207 
-111.737 -155.96 -61.3985 
-98.2597 -138.431 -62.87 
-89.5554 -151.331 -57.4329 
-85.7996 -132.207 -54.1058 
-116.609 -135.759 -54.0618 
-87.0136 -156.183 -57.0745 
-88.3687 -152.023 -55.7001 
-78.4909 -153.179 -59.8777 
-80.2739 -148.833 -60.0363 
-82.8669 -150.771 -62.1269 
-107.12 -151.071 -61.12 
-79.4816 -160.366 -60.1575 
-90.1423 -148.101 -59.3214 
-115.436 -159.431 -59.0108 
-85.7033 -137.214 -59.038 
-81.3763 -145.771 -59.5795 
-106.857 -150.431 -56.9624 
-106.379 -151.447 -53.684 
-106.253 -155.278 -54.8342 
-109.532 -161.054 -43.7771 
-106.47 -154.775 -43.8198 
-109.747 -159.048 -42.7693 
-115.314 -163.746 -49.5769 
-114.948 -164.565 -46.1131 
-113.536 -166.915 -50.4608 
-97.2735 -131.78 -57.1997 
-103.764 -147.64 -55.7068 
-124.681 -158.678 -55.85 
-92.0974 -128.196 -55.1091 
-90.0887 -145.624 -59.3324 
-92.2473 -144.347 -58.7867 
-110.891 -155.595 -60.1497 
-116.302 -161.893 -60.1642 
-93.4638 -136.306 -58.3794 
-78.5224 -162.391 -57.4289 
-76.9585 -165.853 -54.5875 
-80.8616 -162.288 -53.0951 
-84.6578 -172.426 -47.1368 
-82.7181 -172.338 -45.0693 
-87.4586 -182.435 -40.7667 
-94.5433 -143.949 -55.4117 
-106.903 -147.695 -55.9749 
-108.325 -154.574 -56.861 
-76.7015 -156.897 -57.6189 
-82.8861 -136.875 -55.8808 
-104.175 -147.047 -58.3013 
-90.1506 -142.613 -58.973 
-112.624 -158.264 -58.581 
-109.229 -174.612 -54.4195 
-103.93 -174.961 -53.8953 
-112.24 -178.352 -44.421 
-68.7796 -156.44 -54.3894 
-101.063 -174.789 -59.7097 
-96.795 -173.02 -58.749 
-99.4097 -174.942 -58.5538 
-99.8799 -174.879 -56.0567 
-103.154 -176.39 -56.5358 
-87.155 -127.613 -43.0909 
-91.3634 -150.455 -54.2623 
-108.328 -157.273 -55.7217 
-110.615 -160.508 -55.2802 
-111.061 -156.364 -58.0176 
-115.405 -162.869 -57.9235 
-115.911 -166.409 -53.4339 
-101.147 -171.287 -55.6827 
-104.233 -176.367 -58.5241 
-109.505 -170.461 -51.9764 
-115.154 -167.826 -51.7661 
-126.386 -146.273 -55.0815 
-90.6626 -153.049 -51.0956 
-93.1613 -152.341 -51.1602 
-92.4367 -149.562 -52.7092 
-98.199 -170.755 -56.0072 
-96.4288 -172.47 -57.5636 
-84.2271 -159.841 -54.9237 
-99.019 -144.435 -52.4159 
-100.93 -146.066 -54.3906 
-135.095 -147.921 -46.3139 
-114.873 -165.209 -55.114 
-91.1635 -173.996 -53.6855 
-95.6515 -168.116 -53.5933 
-74.306 -158.271 -54.439 
-105.531 -156.696 -50.178 
-108.861 -159.24 -50.2299 
-76.4886 -159.91 -54.9693 
-97.25 -173.468 -55.6944 
-93.1942 -146.622 -53.2419 
-114.616 -164.294 -53.1628 
-98.1718 -177.686 -54.1217 
-100.931 -178.811 -52.843 
-99.6919 -124.759 -57.6051 
-108.888 -156.731 -53.0113 
-115.407 -162.466 -54.129 
-80.1877 -165.485 -50.2621 
-99.6587 -164.249 -51.8264 
-96.2537 -139.715 -52.5231 
-97.9313 -144.408 -50.5205 
-96.5739 -142.59 -48.4522 
-96.8512 -140.645 -49.4576 
-96.3564 -143.589 -53.464 
-93.5172 -143.51 -50.4988 
-103.282 -150.578 -51.442 
-90.8084 -174.68 -50.1066 
-95.0733 -144.888 -50.4332 
-94.9739 -144.449 -48.0711 
-110.636 -159.341 -52.5963 
-112.182 -161.003 -47.4926 
-115.884 -162.72 -51.6053 
-77.9908 -168.322 -54.5161 
-79.1858 -167.765 -49.6683 
-71.8167 -160.716 -51.3395 
-74.5676 -161.777 -52.0871 
-75.4049 -164.68 -51.8101 
-76.576 -169.409 -52.4702 
-66.5452 -134.497 -43.5215 
-114.456 -161.46 -50.2574 
-106.76 -157.051 -46.609 
-92.5321 -168.778 -51.4196 
-104.954 -152.139 -49.9035 
-117.363 -167.167 -47.3386 
-102.898 -186.658 -41.1859 
-102.133 -146.558 -51.0821 
-132.876 -158.938 -23.3395 
-137.637 -149.084 -29.9126 
-137.931 -159.182 -39.3924 
-106.915 -165.851 -48.9619 
-77.5789 -171.23 -50.8478 
-86.5671 -173.045 -51.5083 
-89.534 -170.891 -50.747 
-127.462 -137.584 -38.6842 
-112.992 -129.559 -38.4094 
-87.6087 -159.048 -48.259 
-91.0107 -145.248 -37.6716 
-86.7526 -146.928 -33.4434 
-88.8863 -142.003 -36.0225 
-87.8468 -139.627 -37.5357 
-85.805 -137.185 -36.59 
-85.6611 -137.569 -40.4605 
-81.5017 -172.123 -52.1368 
-109.677 -158.172 -39.8009 
-105.89 -150.794 -38.3088 
-108.376 -159.842 -45.7295 
-86.0599 -161.539 -49.3458 
-94.9961 -164.669 -50.7238 
-96.6385 -166.285 -48.4465 
-105.151 -168.438 -47.5633 
-109.019 -167.705 -49.6421 
-80.9739 -173.028 -49.8167 
-102.634 -152.159 -46.495 
-89.5457 -157.104 -43.9371 
-86.1907 -161.489 -45.8426 
-84.8453 -162.989 -43.2033 
-89.8579 -154.818 -43.3912 
-91.4288 -154.944 -46.3346 
-91.9643 -148.931 -40.0067 
-92.2679 -152.718 -45.7642 
-67.7293 -172.491 -42.5903 
-109.5 -165.188 -49.2584 
-78.5626 -172.044 -46.3478 
-55.9842 -156.326 -42.4618 
-92.8899 -149.625 -46.7261 
-121.285 -175.566 -36.4734 
-91.3364 -167.688 -46.4254 
-87.8542 -168.182 -46.8321 
-95.8159 -143.566 -46.6977 
-86.8454 -157.573 -39.7769 
-87.1219 -158.071 -42.1827 
-85.0402 -159.462 -39.0407 
-81.6721 -163.889 -48.462 
-99.6757 -141.154 -48.4396 
-98.9682 -138.85 -48.8831 
-100.42 -147.573 -46.7167 
-100.077 -146.064 -47.9286 
-101.334 -167.321 -46.2143 
-112.028 -163.511 -41.0662 
-109.722 -163.525 -41.1789 
-110.685 -167.624 -42.9355 
-81.7216 -168.502 -47.3653 
-96.2233 -140.05 -47.2107 
-82.5088 -166.912 -44.4384 
-114.245 -162.787 -45.313 
-115.55 -165.112 -43.3903 
-113.982 -162.8 -42.3683 
-102.168 -144.184 -45.8731 
-97.8118 -164.997 -46.338 
-97.7692 -137.112 -46.5204 
-95.1011 -136.612 -47.0701 
-97.3952 -133.445 -46.5847 
-98.3968 -133.62 -46.0433 
-95.4791 -131.459 -46.9824 
-100.937 -134.307 -46.8829 
-94.4901 -148.511 -45.9637 
-111.376 -167.891 -45.4904 
-100.484 -162.123 -42.8634 
-83.6446 -167.917 -44.0402 
-88.4112 -125.755 -43.0372 
-89.247 -125.725 -41.4504 
-90.3382 -127.664 -41.8425 
-91.9444 -122.192 -43.3015 
-96.8607 -145.21 -46.5043 
-53.5383 -148.889 -40.8054 
-99.0166 -136.82 -43.4543 
-102.52 -135.807 -40.4948 
-102.233 -137.586 -38.6303 
-98.5201 -139.467 -44.1952 
-93.053 -139.853 -41.9445 
-92.521 -142.208 -41.0391 
-94.9225 -138.687 -45.3188 
-109.562 -168.623 -44.7952 
-106.47 -168.733 -43.1896 
-68.4977 -127.409 -32.9086 
-97.696 -132.114 -45.8555 
-94.7247 -144.083 -45.4221 
-93.3122 -164.878 -42.5255 
-95.4932 -160.191 -40.4132 
-87.6712 -167.941 -43.6361 
-100.952 -125.692 -45.8496 
-95.5225 -130.933 -45.0307 
-93.8874 -146.911 -44.4216 
-104.689 -151.292 -41.897 
-109.993 -176.297 -28.0928 
-92.3058 -129.419 -43.8982 
-100.746 -144.803 -43.3219 
-101.88 -145.748 -43.3042 
-85.6984 -165.513 -42.4516 
-88.3124 -165.638 -41.1966 
-77.9286 -177.114 -34.449 
-92.6804 -132.85 -43.0601 
-90.404 -132.223 -42.5329 
-89.6762 -135.562 -42.2083 
-103.324 -144.935 -37.4014 
-107.612 -145.924 -36.5889 
-106.281 -144.04 -33.4225 
-109.919 -144.409 -30.9161 
-110.088 -145.285 -31.4167 
-98.6432 -159.676 -43.7456 
-96.2293 -158.75 -40.8733 
-91.0729 -165.283 -40.1387 
-104.987 -135.713 -40.2876 
-84.3149 -164.01 -41.8887 
-106.909 -160.637 -31.5633 
-104.889 -161.55 -35.1134 
-106.728 -160.635 -34.3417 
-103.797 -165.777 -41.6099 
-85.814 -163.642 -39.6448 
-101.655 -138.581 -40.2992 
-101.238 -160.459 -43.0627 
-102.353 -159.844 -39.8918 
-106.233 -165.409 -40.3504 
-81.489 -148.956 -29.0521 
-77.2102 -149.189 -25.7404 
-79.7709 -147.158 -28.1337 
-82.6685 -143.835 -30.8676 
-77.4974 -143.778 -28.9416 
-79.0089 -129.869 -39.5063 
-79.7536 -131.25 -36.7255 
-76.6956 -126.575 -36.7453 
-103.952 -132.634 -41.2929 
-107.67 -133.095 -40.0826 
-57.0869 -137.744 -35.9006 
-105.542 -162.964 -41.1268 
-85.1468 -133.398 -39.7998 
-87.2803 -131.221 -42.5936 
-87.202 -157.954 -27.9331 
-89.1918 -159.525 -32.1597 
-91.9035 -159.122 -33.2201 
-90.3572 -155.17 -28.6705 
-106.863 -134.883 -34.7974 
-111.277 -136.753 -31.8371 
-105.962 -136.962 -34.4919 
-129.213 -170.006 -29.7979 
-86.9394 -130.011 -39.6104 
-82.2879 -131.751 -39.9076 
-107.534 -136.177 -38.1221 
-89.1899 -154.849 -39.3493 
-100.736 -157.384 -39.2858 
-105.388 -132.479 -38.8453 
-90.2775 -140.577 -40.6492 
-101.91 -141.112 -39.1088 
-111.021 -162.636 -39.4737 
-88.6765 -161.301 -37.7336 
-89.6264 -151.04 -36.2645 
-86.181 -136.821 -38.4319 
-94.2674 -158.564 -38.3171 
-107.909 -162.266 -39.201 
-107.468 -136.461 -36.1774 
-93.9258 -154.051 -30.9461 
-94.773 -156.246 -35.6872 
-82.3379 -129.896 -38.0795 
-84.2602 -130.52 -37.6443 
-81.5904 -132.312 -35.8121 
-106.158 -157.594 -32.1497 
-109.817 -158.243 -28.0295 
-85.3788 -133.42 -38.1737 
-110.071 -134.545 -36.1073 
-109.712 -146.87 -33.3527 
-104.286 -146.069 -37.2472 
-83.3532 -154.04 -34.0736 
-85.8792 -153.671 -36.8607 
-108.893 -155.152 -36.4416 
-109.107 -159.267 -36.983 
-104.545 -160.191 -37.2468 
-101.95 -155.634 -35.442 
-91.9837 -160.399 -35.7585 
-86.9762 -131.234 -39.0015 
-60.9035 -133.326 -30.4492 
-54.3229 -155.664 -31.6309 
-57.1368 -145.729 -28.8042 
-98.3868 -154.166 -34.8143 
-59.2763 -170.7 -34.3307 
-113.41 -134.19 -34.6177 
-84.3936 -157.235 -35.3544 
-83.7264 -125.233 -37.1736 
-104.565 -134.689 -38.6221 
-86.87 -133.256 -36.4359 
-91.6455 -159.015 -36.7724 
-102.591 -156.31 -33.5482 
-86.1342 -159.526 -35.9927 
-106.28 -158.978 -35.3061 
-80.6272 -130.692 -37.4422 
-125.164 -134.516 -36.3713 
-116.48 -135.24 -31.8861 
-112.136 -134.382 -32.9551 
-115.528 -137.038 -35.8028 
-108.289 -134.567 -35.273 
-108.233 -157.157 -34.3324 
-109.614 -151.156 -35.6284 
-109.635 -154.234 -28.957 
-83.27 -133.821 -33.9757 
-105.532 -138.519 -35.2354 
-87.9503 -138.644 -34.5224 
-89.11 -158.535 -34.4996 
-71.8241 -136.437 -34.4222 
-105.831 -140.486 -33.8456 
-96.5462 -180.268 -29.3212 
-78.831 -135.674 -32.0536 
-85.9496 -152.133 -34.7297 
-112.103 -154.293 -26.2899 
-116.175 -151.839 -26.9755 
-113.507 -151.62 -22.0821 
-118.965 -136.436 -35.0449 
-119.207 -137.619 -31.3299 
-84.5896 -157.271 -34.0219 
-111.168 -138.123 -33.7641 
-85.3113 -136.86 -32.8282 
-113.366 -152.146 -31.6974 
-118.898 -144.262 -30.2939 
-123.536 -142.499 -30.7697 
-126.029 -148.649 -29.5503 
-121.238 -146.34 -29.2891 
-101.686 -152.626 -31.0495 
-86.3389 -143.265 -32.7517 
-84.2441 -155.666 -26.14 
-84.2229 -155.803 -28.7499 
-81.8723 -154.015 -29.7199 
-108.366 -137.988 -32.537 
-76.1091 -139.025 -30.9964 
-122.104 -142.202 -29.6183 
-112.896 -137.675 -31.011 
-110.815 -141.835 -30.3429 
-103.089 -158.164 -30.9541 
-81.3153 -151.291 -30.7943 
-83.436 -140.046 -31.0429 
-64.4804 -149.134 -29.9407 
-62.1048 -161.2 -21.7773 
-113.635 -148.496 -29.1339 
-103.824 -157.071 -29.1696 
-114.846 -140.258 -30.4387 
-115.091 -144.434 -29.4225 
-115.29 -145.667 -29.1451 
-79.2989 -153.619 -23.7381 
-82.3365 -154.341 -26.2557 
-82.8009 -152.797 -22.6238 
-87.4185 -151.393 -23.5498 
-87.1883 -153.574 -24.6425 
-88.7576 -150.441 -21.3195 
-91.9282 -149.536 -22.659 
-94.009 -150.698 -19.7348 
-68.9399 -168.453 -24.7805 
-81.5159 -174.905 -25.2803 
-120.705 -162.862 -23.2206 
-112.851 -156.767 -25.2509 
-101.406 -150.615 -27.4848 
-104.264 -153.351 -27.0795 
-95.7473 -151.733 -28.1813 
-91.7156 -153.861 -27.2393 
-118.65 -148.762 -28.0972 
-99.692 -148.981 -25.2878 
-109.903 -156.043 -25.4641 
-120.46 -152.568 -24.1641 
-70.4979 -159.678 -22.6527 
-91.2368 -151.231 -24.7602 
-104.596 -166.449 -18.6212 
-104.715 -149.75 -22.8016 
-104.286 -151.422 -18.4986 
-98.4894 -149.419 -21.2053 
-112.829 -153.036 -23.1902 
-116.671 -153.34 -22.9115 
-111.775 -154.167 -24.7426 
-111.525 -152.267 -23.2148 
-79.8363 -152.368 -19.6069 
-69.7012 -165.155 -22.1638 
-84.3967 -167.231 -16.2805 
-108.129 -152.287 -19.0628 
-70.0254 -165.677 -19.7699 
-71.051 -165.616 -20.2632 
-105.567 -156.236 -18.1272 
-101.484 -154.006 -16.6442 
-102.153 -158.414 -18.7077 
-99.0982 -163.472 -20.317 
-87.3505 -157.211 -15.8624 
-117.03 -167.969 -15.4796 
-109.532 -152.35 -18.2805 
-114.374 -156.593 -19.7446 
-100.456 -151.789 -17.9407 
-82.7151 -167.695 -13.6543 
-108.095 -154.745 -16.6558 
-121.072 -151.533 -41.1446 
-80.2218 -153.116 -48.2946 
-117.015 -153.892 -50.8634 
-118.275 -165.112 -34.8803 
-110.073 -168.652 -33.169 
-112.206 -145.307 -47.5481 
-78.0371 -165.1 -31.4748 
-98.0271 -166.593 -35.3943 
-125.237 -159.22 -41.4556 
-96.4514 -173.521 -41.3493 
-89.9584 -169.964 -32.2452 
-80.1961 -145.293 -42.8036 
-68.9112 -153.616 -37.8571 
-114.214 -149.612 -57.5488 
-82.6063 -134.903 -45.972 
-103.686 -171.639 -36.6433 
-107.486 -138.766 -48.9226 
-79.417 -138.129 -38.2156 
-111.883 -141.426 -39.9651 
-118.948 -143.39 -40.614 
-76.4169 -161.7 -42.49 
-96.4243 -157.621 -26.1595 
-102.383 -166.735 -28.7464 
3 0 1 2 0 
3 1 0 5 0 
3 2 4 0 0 
3 0 4 6 0 
3 5 0 6 0 
3 3 2 1 0 
3 3 1 44 0 
3 1 5 14 0 
3 1 14 23 0 
3 1 23 47 0 
3 63 44 1 10 
3 1 47 127 0 
3 1 127 63 12 
3 4 2 3 0 
3 4 3 10 0 
3 10 3 56 0 
3 3 44 55 0 
3 56 3 55 0 
3 6 4 7 0 
3 4 10 7 0 
3 5 6 8 0 
3 14 5 8 0 
3 6 7 8 0 
3 24 8 7 0 
3 9 7 10 0 
3 24 7 9 0 
3 8 25 14 0 
3 25 8 24 0 
3 57 9 10 0 
3 24 9 41 0 
3 9 69 41 0 
3 9 57 104 0 
3 69 9 85 0 
3 9 100 85 0 
3 9 104 100 0 
3 56 57 10 0 
3 11 12 13 0 
3 12 11 99 0 
3 45 11 13 0 
3 11 26 27 0 
3 26 11 45 0 
3 11 27 53 0 
3 11 53 99 0 
3 13 12 134 0 
3 99 158 12 0 
3 12 155 134 0 
3 12 154 155 0 
3 158 154 12 0 
3 45 13 60 0 
3 55 13 56 0 
3 55 60 13 0 
3 56 13 135 0 
3 134 135 13 0 
3 14 25 23 0 
3 15 16 17 0 
3 16 15 61 0 
3 17 22 15 0 
3 22 37 15 0 
3 48 15 37 0 
3 48 61 15 0 
3 17 16 53 0 
3 16 105 53 0 
3 71 16 61 0 
3 16 71 88 0 
3 16 88 89 0 
3 16 89 105 0 
3 18 17 19 0 
3 17 18 22 0 
3 19 17 34 0 
3 17 27 33 0 
3 17 53 27 0 
3 17 33 34 0 
3 20 18 19 0 
3 20 22 18 0 
3 20 19 29 0 
3 19 28 29 0 
3 34 28 19 0 
3 20 21 22 0 
3 21 20 29 0 
3 22 21 37 0 
3 29 68 21 0 
3 21 54 37 0 
3 21 58 54 0 
3 58 21 68 0 
3 23 25 42 0 
3 23 42 47 0 
3 25 24 41 0 
3 43 25 41 0 
3 42 25 43 0 
3 33 27 26 0 
3 33 26 46 0 
3 26 45 46 0 
3 29 28 50 0 
3 32 31 28 0 
3 50 28 31 0 
3 32 28 36 0 
3 34 36 28 0 
3 29 50 74 0 
3 29 74 68 0 
3 30 31 32 99 
3 31 30 50 0 
3 32 173 30 101 
3 30 74 50 0 
3 66 67 30 0 
3 66 30 110 0 
3 30 67 74 0 
3 30 259 110 106 
3 259 30 173 107 
3 103 32 36 0 
3 32 103 116 109 
3 313 32 116 0 
3 173 32 269 0 
3 269 32 313 0 
3 33 35 34 0 
3 33 73 35 0 
3 46 62 33 115 
3 73 33 62 0 
3 34 35 36 0 
3 36 35 103 0 
3 73 103 35 0 
3 48 37 54 0 
3 38 39 40 0 
3 39 38 133 0 
3 38 40 128 0 
3 64 38 65 0 
3 64 133 38 0 
3 128 65 38 0 
3 39 190 40 0 
3 133 201 39 0 
3 39 201 190 0 
3 128 40 212 0 
3 40 190 208 0 
3 212 40 208 0 
3 43 41 59 0 
3 41 90 59 0 
3 41 69 90 0 
3 42 43 51 0 
3 42 51 47 0 
3 51 43 52 0 
3 43 59 52 0 
3 60 55 44 0 
3 60 44 84 0 
3 84 44 63 142 
3 49 46 45 0 
3 49 45 92 0 
3 87 45 60 145 
3 92 45 87 146 
3 92 46 49 0 
3 62 46 92 148 
3 51 52 47 0 
3 47 52 86 0 
3 136 47 86 151 
3 47 136 127 152 
3 54 70 48 0 
3 61 48 64 0 
3 48 93 64 0 
3 93 48 70 0 
3 52 59 72 0 
3 52 72 91 0 
3 86 52 91 0 
3 53 105 99 0 
3 54 58 70 0 
3 57 56 104 0 
3 56 135 104 0 
3 58 67 66 0 
3 102 58 66 0 
3 58 68 67 0 
3 70 58 102 0 
3 59 106 72 0 
3 59 90 106 0 
3 84 87 60 170 
3 61 64 65 0 
3 117 61 65 0 
3 71 61 117 0 
3 73 62 116 0 
3 87 62 92 175 
3 62 87 254 176 
3 62 254 116 0 
3 84 63 149 178 
3 63 127 188 179 
3 149 63 189 180 
3 63 188 189 181 
3 64 93 133 0 
3 117 65 128 0 
3 66 110 102 0 
3 74 67 68 0 
3 69 85 75 0 
3 101 69 75 0 
3 101 90 69 0 
3 93 70 143 0 
3 102 143 70 0 
3 88 71 145 0 
3 71 117 130 0 
3 145 71 130 0 
3 91 72 121 0 
3 72 106 119 0 
3 72 119 151 0 
3 121 72 151 0 
3 103 73 116 198 
3 75 76 77 0 
3 75 85 76 0 
3 75 77 101 0 
3 77 76 177 0 
3 76 85 160 0 
3 76 160 177 0 
3 101 77 118 0 
3 150 118 77 0 
3 141 142 77 0 
3 77 177 141 0 
3 142 150 77 0 
3 78 79 80 0 
3 79 78 200 0 
3 78 80 241 0 
3 165 200 78 0 
3 239 165 78 0 
3 239 78 241 0 
3 80 79 198 0 
3 200 175 79 0 
3 79 175 207 0 
3 198 79 199 0 
3 79 278 199 0 
3 207 278 79 0 
3 241 80 198 0 
3 81 82 83 0 
3 82 81 239 0 
3 126 81 83 0 
3 146 81 126 0 
3 166 81 146 0 
3 166 174 81 0 
3 174 239 81 0 
3 83 82 216 0 
3 216 82 251 0 
3 82 239 240 0 
3 251 82 240 0 
3 83 125 126 0 
3 205 125 83 0 
3 205 83 216 0 
3 84 149 87 237 
3 180 85 100 0 
3 85 180 160 0 
3 91 122 86 0 
3 122 178 86 0 
3 136 86 183 242 
3 86 178 220 0 
3 183 86 220 244 
3 87 149 257 245 
3 87 255 254 246 
3 87 257 255 247 
3 88 145 89 0 
3 105 89 99 0 
3 99 89 159 0 
3 162 89 145 0 
3 159 89 162 0 
3 90 101 120 0 
3 90 120 106 0 
3 91 121 122 0 
3 93 94 95 0 
3 93 143 94 0 
3 133 93 95 0 
3 95 94 152 0 
3 143 171 94 0 
3 168 152 94 0 
3 94 167 168 0 
3 167 94 172 0 
3 94 171 172 0 
3 133 95 201 0 
3 95 152 227 0 
3 95 227 201 0 
3 96 97 98 0 
3 206 97 96 0 
3 96 98 161 0 
3 161 186 96 0 
3 186 206 96 0 
3 97 285 98 273 
3 217 97 206 0 
3 97 217 285 275 
3 144 98 147 0 
3 144 161 98 0 
3 98 148 147 0 
3 148 98 179 0 
3 179 98 393 280 
3 285 393 98 281 
3 158 99 159 0 
3 135 100 104 0 
3 100 135 180 0 
3 120 101 118 0 
3 110 140 102 0 
3 102 140 143 0 
3 119 106 118 0 
3 120 118 106 0 
3 107 108 109 0 
3 107 115 108 0 
3 126 107 109 0 
3 107 124 115 0 
3 123 124 107 0 
3 125 123 107 0 
3 125 107 126 0 
3 114 109 108 0 
3 114 108 115 0 
3 109 114 148 0 
3 178 126 109 0 
3 109 148 179 0 
3 178 109 220 0 
3 109 179 279 0 
3 220 109 279 0 
3 140 110 169 0 
3 110 218 169 0 
3 110 259 218 307 
3 111 112 113 0 
3 112 111 123 0 
3 111 113 124 0 
3 123 111 124 0 
3 112 114 113 0 
3 112 131 114 0 
3 112 123 131 0 
3 113 114 115 0 
3 113 115 124 0 
3 114 131 132 0 
3 114 132 144 0 
3 144 147 114 0 
3 114 147 148 0 
3 254 256 116 0 
3 256 286 116 0 
3 286 287 116 0 
3 287 321 116 0 
3 313 116 371 0 
3 116 321 330 0 
3 331 116 330 0 
3 116 331 347 0 
3 116 347 371 0 
3 117 128 129 0 
3 129 130 117 0 
3 119 118 150 0 
3 150 164 119 0 
3 119 174 151 0 
3 174 119 164 0 
3 121 137 122 0 
3 137 121 146 0 
3 121 151 146 0 
3 126 122 146 0 
3 122 126 178 0 
3 137 146 122 0 
3 123 125 153 0 
3 131 123 153 0 
3 153 125 184 0 
3 205 184 125 0 
3 127 136 188 346 
3 128 214 129 0 
3 214 128 212 0 
3 130 129 219 0 
3 219 129 214 0 
3 145 130 219 0 
3 139 132 131 0 
3 131 153 139 0 
3 138 132 139 0 
3 132 138 144 0 
3 135 134 180 0 
3 134 155 180 0 
3 136 183 182 358 
3 182 188 136 359 
3 139 176 138 0 
3 144 138 161 0 
3 138 186 161 0 
3 187 138 176 0 
3 186 138 187 0 
3 153 202 139 0 
3 176 139 202 0 
3 170 143 140 0 
3 169 170 140 0 
3 142 141 175 0 
3 177 175 141 0 
3 150 142 164 0 
3 164 142 165 0 
3 142 200 165 0 
3 142 175 200 0 
3 143 170 171 0 
3 162 145 219 0 
3 151 166 146 0 
3 275 149 189 0 
3 257 149 275 0 
3 151 174 166 0 
3 152 168 227 0 
3 204 153 184 0 
3 202 153 203 0 
3 204 203 153 0 
3 154 157 155 0 
3 156 157 154 0 
3 154 158 156 0 
3 155 157 228 0 
3 180 155 231 0 
3 228 231 155 0 
3 156 237 157 0 
3 158 159 156 0 
3 156 159 223 0 
3 237 156 223 0 
3 228 157 229 0 
3 229 157 237 0 
3 159 162 163 0 
3 159 163 271 0 
3 159 265 223 0 
3 271 265 159 0 
3 160 207 177 0 
3 160 180 207 0 
3 162 250 163 0 
3 162 219 250 0 
3 163 250 258 0 
3 163 258 271 0 
3 174 164 165 0 
3 174 165 239 0 
3 168 167 197 0 
3 185 167 172 0 
3 197 167 185 0 
3 197 236 168 0 
3 227 168 238 0 
3 168 236 253 0 
3 253 238 168 0 
3 170 169 215 0 
3 218 215 169 0 
3 170 215 171 0 
3 171 215 172 0 
3 215 185 172 0 
3 173 318 259 421 
3 318 173 269 0 
3 177 207 175 0 
3 187 176 222 0 
3 176 202 221 0 
3 222 176 221 0 
3 393 279 179 427 
3 207 180 230 0 
3 230 180 231 0 
3 181 182 183 0 
3 407 182 181 0 
3 183 329 181 432 
3 279 181 329 433 
3 181 279 470 0 
3 407 181 439 0 
3 470 439 181 0 
3 188 182 379 0 
3 182 407 379 0 
3 183 220 329 439 
3 184 267 204 0 
3 216 184 205 0 
3 216 251 184 0 
3 184 251 267 0 
3 197 185 206 0 
3 206 185 217 0 
3 215 217 185 0 
3 186 187 222 0 
3 197 206 186 0 
3 197 186 222 0 
3 369 189 188 0 
3 379 369 188 0 
3 275 189 335 0 
3 335 189 317 0 
3 317 189 353 0 
3 353 189 369 0 
3 190 201 209 0 
3 208 190 209 0 
3 191 192 193 0 
3 191 340 192 0 
3 193 265 191 0 
3 213 191 265 0 
3 340 191 213 0 
3 193 192 410 0 
3 395 308 192 0 
3 308 410 192 0 
3 340 395 192 0 
3 265 193 194 0 
3 193 389 194 0 
3 389 193 410 0 
3 194 195 196 0 
3 195 194 389 0 
3 194 196 336 0 
3 336 265 194 0 
3 341 196 195 0 
3 341 195 352 0 
3 363 352 195 0 
3 363 195 389 0 
3 336 196 341 0 
3 236 197 222 0 
3 199 358 198 0 
3 241 198 359 0 
3 198 358 359 0 
3 355 199 278 0 
3 355 385 199 0 
3 358 199 385 0 
3 201 227 209 0 
3 202 203 221 0 
3 203 204 232 0 
3 221 203 243 0 
3 203 232 243 0 
3 232 204 268 0 
3 204 267 268 0 
3 207 230 278 0 
3 208 209 210 0 
3 208 210 225 0 
3 208 211 212 0 
3 208 225 211 0 
3 209 238 210 0 
3 227 238 209 0 
3 210 226 225 0 
3 226 210 298 0 
3 238 298 210 0 
3 214 212 211 0 
3 213 214 211 0 
3 213 211 340 0 
3 224 211 225 0 
3 333 211 224 0 
3 340 211 333 0 
3 277 214 213 0 
3 277 213 265 0 
3 219 214 277 0 
3 217 215 285 512 
3 368 215 218 513 
3 285 215 368 514 
3 259 365 218 515 
3 218 365 368 516 
3 250 219 277 0 
3 329 220 279 518 
3 274 222 221 0 
3 272 221 243 0 
3 272 274 221 0 
3 236 222 253 0 
3 222 274 253 0 
3 266 237 223 0 
3 264 223 265 0 
3 223 264 266 0 
3 224 225 226 0 
3 226 357 224 0 
3 333 224 357 0 
3 370 226 298 0 
3 226 356 357 0 
3 226 370 356 0 
3 228 229 263 0 
3 228 242 231 0 
3 242 228 281 0 
3 263 281 228 0 
3 229 237 245 0 
3 245 244 229 0 
3 244 260 229 0 
3 229 260 263 0 
3 231 242 230 0 
3 230 242 282 0 
3 278 230 282 0 
3 243 232 252 0 
3 252 232 302 0 
3 302 232 268 0 
3 233 234 235 0 
3 234 233 338 0 
3 251 233 235 0 
3 240 241 233 0 
3 251 240 233 0 
3 338 233 241 0 
3 235 234 307 0 
3 234 319 307 0 
3 343 319 234 0 
3 343 234 338 0 
3 267 251 235 0 
3 268 267 235 0 
3 307 268 235 0 
3 245 237 266 0 
3 283 238 253 0 
3 298 238 283 0 
3 240 239 241 0 
3 241 359 338 0 
3 242 281 282 0 
3 294 243 252 0 
3 272 243 273 0 
3 243 294 273 0 
3 244 245 246 0 
3 244 246 247 0 
3 244 247 260 0 
3 286 246 245 0 
3 287 245 266 0 
3 286 245 287 0 
3 248 247 246 0 
3 280 248 246 0 
3 246 286 280 0 
3 247 248 249 0 
3 247 249 261 0 
3 247 261 260 0 
3 249 248 270 0 
3 248 276 270 0 
3 248 280 276 0 
3 261 249 297 0 
3 249 270 297 0 
3 250 277 258 0 
3 305 294 252 0 
3 252 302 307 0 
3 305 252 319 0 
3 252 307 319 0 
3 274 284 253 0 
3 283 253 284 0 
3 254 255 256 0 
3 255 257 256 0 
3 257 280 256 0 
3 256 280 286 0 
3 257 275 276 0 
3 280 257 276 0 
3 271 258 277 0 
3 259 318 365 600 
3 260 261 262 0 
3 304 260 262 0 
3 260 304 263 0 
3 261 328 262 0 
3 261 297 344 0 
3 261 344 328 0 
3 304 262 388 0 
3 388 262 328 0 
3 281 263 337 0 
3 263 304 337 0 
3 264 265 336 0 
3 266 264 288 0 
3 341 288 264 0 
3 264 336 341 0 
3 265 271 277 0 
3 287 266 288 0 
3 307 302 268 0 
3 315 269 313 0 
3 314 269 315 0 
3 269 314 391 0 
3 318 269 364 0 
3 364 269 391 0 
3 270 276 275 0 
3 275 316 270 0 
3 270 316 297 0 
3 273 296 272 0 
3 274 272 296 0 
3 273 294 295 0 
3 342 273 295 0 
3 296 273 362 0 
3 342 374 273 0 
3 273 374 362 0 
3 284 274 296 0 
3 275 335 316 0 
3 278 282 355 0 
3 279 393 451 636 
3 279 451 470 0 
3 281 289 282 0 
3 281 337 289 0 
3 282 289 290 0 
3 282 290 355 0 
3 284 303 283 0 
3 283 303 298 0 
3 339 284 296 0 
3 303 284 339 0 
3 285 368 437 646 
3 393 285 438 647 
3 285 437 438 648 
3 287 288 320 0 
3 320 321 287 0 
3 320 288 341 0 
3 290 289 293 0 
3 291 293 289 0 
3 289 392 291 0 
3 337 392 289 0 
3 354 290 293 0 
3 290 354 355 0 
3 291 292 293 0 
3 418 292 291 0 
3 291 392 418 0 
3 293 292 427 0 
3 292 418 427 0 
3 424 354 293 0 
3 293 428 424 0 
3 427 428 293 0 
3 294 334 295 0 
3 294 305 306 0 
3 294 306 334 0 
3 295 334 367 0 
3 346 342 295 0 
3 346 295 367 0 
3 339 296 362 0 
3 316 317 297 0 
3 297 317 332 0 
3 297 332 344 0 
3 303 370 298 0 
3 299 300 301 0 
3 419 300 299 0 
3 299 301 351 0 
3 351 425 299 0 
3 419 299 425 0 
3 300 377 301 0 
3 343 300 360 0 
3 300 343 377 0 
3 375 360 300 0 
3 375 300 419 0 
3 350 351 301 0 
3 377 350 301 0 
3 339 376 303 0 
3 376 370 303 0 
3 304 388 337 0 
3 305 319 306 0 
3 306 319 360 0 
3 334 306 361 0 
3 361 306 360 0 
3 308 309 310 0 
3 309 308 420 0 
3 311 308 310 0 
3 311 410 308 0 
3 395 420 308 0 
3 422 310 309 0 
3 309 356 413 0 
3 356 309 420 0 
3 309 413 430 0 
3 449 422 309 0 
3 430 429 309 0 
3 449 309 429 0 
3 311 310 312 0 
3 422 312 310 0 
3 421 311 312 0 
3 421 410 311 0 
3 415 421 312 0 
3 415 312 422 0 
3 313 314 315 0 
3 313 349 314 0 
3 378 349 313 0 
3 371 378 313 0 
3 314 349 387 0 
3 314 387 394 0 
3 391 314 394 0 
3 317 316 335 0 
3 317 353 332 0 
3 366 318 364 0 
3 365 318 366 0 
3 343 360 319 0 
3 321 320 331 0 
3 331 320 348 0 
3 320 341 352 0 
3 320 352 348 0 
3 330 321 331 0 
3 322 323 324 0 
3 323 322 411 0 
3 322 324 325 0 
3 411 322 325 0 
3 374 324 323 0 
3 323 390 374 0 
3 390 323 412 0 
3 323 411 412 0 
3 325 324 346 0 
3 324 342 346 0 
3 374 342 324 0 
3 345 325 346 0 
3 345 444 325 0 
3 433 411 325 0 
3 444 433 325 0 
3 326 327 328 0 
3 326 381 327 0 
3 372 326 328 0 
3 383 326 372 0 
3 383 381 326 0 
3 328 327 414 0 
3 381 380 327 0 
3 327 380 382 0 
3 382 402 327 0 
3 402 417 327 0 
3 414 327 417 0 
3 344 372 328 0 
3 388 328 414 0 
3 347 331 348 0 
3 353 344 332 0 
3 333 357 340 0 
3 367 334 361 0 
3 392 337 388 0 
3 343 338 359 0 
3 374 339 362 0 
3 376 339 374 0 
3 340 357 395 0 
3 377 343 359 0 
3 344 353 383 0 
3 383 372 344 0 
3 346 367 345 0 
3 345 367 441 0 
3 345 441 443 0 
3 345 443 444 0 
3 347 348 349 0 
3 378 347 349 0 
3 378 371 347 0 
3 349 348 387 0 
3 363 348 352 0 
3 348 363 373 0 
3 348 373 387 0 
3 351 350 440 0 
3 350 377 384 0 
3 384 386 350 0 
3 386 440 350 0 
3 447 425 351 0 
3 351 440 447 0 
3 381 353 369 0 
3 383 353 381 0 
3 355 354 385 0 
3 385 354 404 0 
3 354 424 404 0 
3 357 356 395 0 
3 413 356 370 0 
3 395 356 420 0 
3 359 358 384 0 
3 384 358 386 0 
3 385 404 358 0 
3 404 386 358 0 
3 377 359 384 0 
3 375 361 360 0 
3 409 367 361 0 
3 409 361 375 0 
3 373 363 389 0 
3 364 391 366 0 
3 423 365 366 0 
3 365 423 368 0 
3 366 391 422 0 
3 366 422 423 0 
3 441 367 409 0 
3 368 423 437 0 
3 381 369 379 0 
3 370 376 401 0 
3 413 370 401 0 
3 373 403 387 0 
3 373 389 403 0 
3 376 374 390 0 
3 409 375 425 0 
3 375 419 425 0 
3 376 390 401 0 
3 379 380 381 0 
3 380 379 399 0 
3 400 399 379 0 
3 406 400 379 0 
3 406 379 407 0 
3 380 399 382 0 
3 382 399 400 0 
3 402 382 400 0 
3 386 397 396 0 
3 386 396 440 0 
3 386 404 397 0 
3 387 403 394 0 
3 414 392 388 0 
3 389 410 403 0 
3 390 412 401 0 
3 394 415 391 0 
3 422 391 415 0 
3 392 414 418 0 
3 451 393 438 839 
3 403 421 394 0 
3 415 394 421 0 
3 396 397 398 0 
3 455 396 398 0 
3 396 457 440 0 
3 457 396 455 0 
3 456 398 397 0 
3 404 424 397 0 
3 424 445 397 0 
3 397 445 448 0 
3 397 448 456 0 
3 455 398 458 0 
3 398 456 471 0 
3 471 458 398 0 
3 402 400 417 0 
3 400 406 416 0 
3 416 426 400 0 
3 400 426 417 0 
3 413 401 412 0 
3 421 403 410 0 
3 405 406 407 0 
3 405 416 406 0 
3 405 407 408 0 
3 428 405 408 0 
3 427 416 405 0 
3 427 405 428 0 
3 408 407 445 0 
3 407 439 445 0 
3 428 408 445 0 
3 425 442 409 0 
3 441 409 442 0 
3 412 411 430 0 
3 411 433 430 0 
3 413 412 430 0 
3 417 418 414 0 
3 427 426 416 0 
3 418 417 426 0 
3 418 426 427 0 
3 423 422 449 0 
3 437 423 460 0 
3 423 449 474 0 
3 460 423 463 0 
3 423 474 463 0 
3 424 428 445 0 
3 442 425 447 0 
3 429 430 431 0 
3 429 431 459 0 
3 449 429 459 0 
3 431 430 432 0 
3 432 430 433 0 
3 432 434 431 0 
3 434 459 431 0 
3 433 450 432 0 
3 450 434 432 0 
3 450 433 444 0 
3 434 435 436 0 
3 434 450 435 0 
3 469 434 436 0 
3 459 434 469 0 
3 435 454 436 0 
3 435 443 446 0 
3 443 435 450 0 
3 454 435 446 0 
3 436 454 473 0 
3 469 436 473 0 
3 461 438 437 0 
3 437 460 464 0 
3 461 437 464 0 
3 451 438 461 0 
3 445 439 448 0 
3 456 448 439 0 
3 468 439 451 0 
3 439 470 451 0 
3 456 439 472 0 
3 472 439 468 0 
3 457 447 440 0 
3 441 442 452 0 
3 443 441 446 0 
3 441 452 446 0 
3 457 442 447 0 
3 442 458 452 0 
3 455 442 457 0 
3 458 442 455 0 
3 444 443 450 0 
3 446 452 454 0 
3 459 469 449 0 
3 449 468 461 0 
3 449 461 474 0 
3 449 469 468 0 
3 461 468 451 0 
3 452 453 454 0 
3 453 452 462 0 
3 458 462 452 0 
3 454 453 473 0 
3 453 462 465 0 
3 453 465 466 0 
3 473 453 466 0 
3 471 456 472 0 
3 462 458 471 0 
3 464 460 463 0 
3 461 464 474 0 
3 465 462 475 0 
3 462 471 475 0 
3 464 463 474 0 
3 466 465 467 0 
3 467 465 468 0 
3 465 475 468 0 
3 469 466 467 0 
3 473 466 469 0 
3 467 468 469 0 
3 468 475 472 0 
3 472 475 471 0 
