$MeshFormat
4.1 0 8
$EndMeshFormat
$Entities
0 0 1 1
1 -137.9307098388672 -186.6581115722656 -70.39296722412109 -53.53825378417969 -122.1924514770508 -13.65434551239014 0 0 
1 -137.9307098388672 -186.6581115722656 -70.39296722412109 -53.53825378417969 -122.1924514770508 -13.65434551239014 0 1 1 
$EndEntities
$Nodes
2 499 1 499
2 1 0 476
1
2
3
4
5
6
7
8
9
10
11
12
13
14
15
16
17
18
19
20
21
22
23
24
25
26
27
28
29
30
31
32
33
34
35
36
37
38
39
40
41
42
43
44
45
46
47
48
49
50
51
52
53
54
55
56
57
58
59
60
61
62
63
64
65
66
67
68
69
70
71
72
73
74
75
76
77
78
79
80
81
82
83
84
85
86
87
88
89
90
91
92
93
94
95
96
97
98
99
100
101
102
103
104
105
106
107
108
109
110
111
112
113
114
115
116
117
118
119
120
121
122
123
124
125
126
127
128
129
130
131
132
133
134
135
136
137
138
139
140
141
142
143
144
145
146
147
148
149
150
151
152
153
154
155
156
157
158
159
160
161
162
163
164
165
166
167
168
169
170
171
172
173
174
175
176
177
178
179
180
181
182
183
184
185
186
187
188
189
190
191
192
193
194
195
196
197
198
199
200
201
202
203
204
205
206
207
208
209
210
211
212
213
214
215
216
217
218
219
220
221
222
223
224
225
226
227
228
229
230
231
232
233
234
235
236
237
238
239
240
241
242
243
244
245
246
247
248
249
250
251
252
253
254
255
256
257
258
259
260
261
262
263
264
265
266
267
268
269
270
271
272
273
274
275
276
277
278
279
280
281
282
283
284
285
286
287
288
289
290
291
292
293
294
295
296
297
298
299
300
301
302
303
304
305
306
307
308
309
310
311
312
313
314
315
316
317
318
319
320
321
322
323
324
325
326
327
328
329
330
331
332
333
334
335
336
337
338
339
340
341
342
343
344
345
346
347
348
349
350
351
352
353
354
355
356
357
358
359
360
361
362
363
364
365
366
367
368
369
370
371
372
373
374
375
376
377
378
379
380
381
382
383
384
385
386
387
388
389
390
391
392
393
394
395
396
397
398
399
400
401
402
403
404
405
406
407
408
409
410
411
412
413
414
415
416
417
418
419
420
421
422
423
424
425
426
427
428
429
430
431
432
433
434
435
436
437
438
439
440
441
442
443
444
445
446
447
448
449
450
451
452
453
454
455
456
457
458
459
460
461
462
463
464
465
466
467
468
469
470
471
472
473
474
475
476
-103.8772811889648 -145.3921813964844 -70.39296722412109
-117.7660751342773 -140.1934661865234 -59.93871688842773
-102.6319046020508 -142.384033203125 -69.41223907470703
-104.4439163208008 -141.7514190673828 -64.72293090820312
-103.2075500488281 -143.7684020996094 -68.984619140625
-108.1686706542969 -145.5436248779297 -69.04128265380859
-104.0278396606445 -148.0727844238281 -70.11370086669922
-106.938362121582 -148.1870269775391 -65.27509307861328
-108.0917358398438 -148.9739837646484 -67.54943084716797
-106.5810699462891 -148.2203216552734 -63.8275146484375
-105.4307250976562 -145.5147552490234 -65.06440734863281
-95.22309112548828 -140.5731506347656 -60.04705810546875
-96.82382965087891 -142.7651062011719 -55.08204650878906
-98.98082733154297 -141.1286773681641 -58.9229850769043
-108.2413635253906 -146.9570922851562 -65.40164184570312
-87.07815551757812 -149.30126953125 -65.16613006591797
-90.35572052001953 -146.3043518066406 -61.67145919799805
-88.41145324707031 -145.3230743408203 -65.06474304199219
-89.70100402832031 -145.0626678466797 -67.71738433837891
-88.49365997314453 -142.612060546875 -65.73623657226562
-87.98545837402344 -144.2241516113281 -67.15758514404297
-85.47715759277344 -149.8088226318359 -65.66065979003906
-87.36023712158203 -149.0675048828125 -66.79595184326172
-113.5784149169922 -150.0090942382812 -65.38397979736328
-106.3401870727539 -150.3352203369141 -67.31288909912109
-108.6834869384766 -153.7926635742188 -65.38862609863281
-94.11865234375 -138.5989379882812 -65.86806488037109
-89.60456085205078 -141.2576904296875 -66.59044647216797
-87.40402984619141 -142.1682739257812 -62.49405670166016
-84.84703063964844 -145.4790954589844 -64.28372955322266
-72.75987243652344 -143.7388153076172 -55.94301223754883
-81.65225982666016 -139.0722351074219 -59.7955322265625
-76.10500335693359 -130.970703125 -46.28590774536133
-89.14928436279297 -139.3887786865234 -63.06460952758789
-88.31437683105469 -141.1052551269531 -61.95741271972656
-85.75437927246094 -139.0625305175781 -60.03108978271484
-86.38163757324219 -140.2188720703125 -58.72975158691406
-84.9083251953125 -153.8641662597656 -64.3492431640625
-88.54073333740234 -156.2328338623047 -53.60063552856445
-85.79537963867188 -159.125244140625 -51.49249649047852
-90.39280700683594 -156.6322631835938 -51.21370697021484
-109.2045440673828 -153.3164367675781 -62.89476776123047
-110.2419891357422 -152.9413757324219 -65.3045654296875
-109.6242599487305 -155.3174285888672 -64.64180755615234
-103.1075897216797 -139.9488067626953 -60.50147247314453
-96.62901306152344 -138.6528930664062 -62.79851531982422
-93.90896606445312 -138.1826019287109 -61.41556930541992
-122.3216171264648 -151.8214416503906 -60.693603515625
-85.17775726318359 -154.0577392578125 -62.46223449707031
-94.72439575195312 -137.5188293457031 -57.91231918334961
-84.07557678222656 -142.9100189208984 -62.13177108764648
-112.2514114379883 -155.7878112792969 -64.02635955810547
-115.5718460083008 -159.5430297851562 -62.13490676879883
-91.47086334228516 -143.1825866699219 -61.92685699462891
-83.01239776611328 -155.6745910644531 -63.16292953491211
-100.8993072509766 -140.2619018554688 -62.45783615112305
-101.0945281982422 -143.0578765869141 -58.98521041870117
-103.2578582763672 -147.0163726806641 -59.91984939575195
-80.68883514404297 -155.4431915283203 -61.12069702148438
-111.7374420166016 -155.9599914550781 -61.39853668212891
-98.25969696044922 -138.4312896728516 -62.87002563476562
-89.555419921875 -151.3310241699219 -57.43291854858398
-85.79958343505859 -132.2070465087891 -54.10580825805664
-116.6090927124023 -135.7587890625 -54.06180191040039
-87.01360321044922 -156.1826629638672 -57.0744743347168
-88.36869812011719 -152.0233917236328 -55.70014953613281
-78.49085235595703 -153.1792755126953 -59.87771987915039
-80.27391052246094 -148.8325500488281 -60.03627777099609
-82.86685180664062 -150.7705993652344 -62.12691497802734
-107.1197509765625 -151.0712890625 -61.12004470825195
-79.48164367675781 -160.3662567138672 -60.15748977661133
-90.14228057861328 -148.1013641357422 -59.32142639160156
-115.4359588623047 -159.4307098388672 -59.01082229614258
-85.70333862304688 -137.2139587402344 -59.03800201416016
-81.37628936767578 -145.7709503173828 -59.57953643798828
-106.8572158813477 -150.4314270019531 -56.96243667602539
-106.3787689208984 -151.4474639892578 -53.68399810791016
-106.2530899047852 -155.2782592773438 -54.83415985107422
-109.5322570800781 -161.0538787841797 -43.77713394165039
-106.4704895019531 -154.7746124267578 -43.81977844238281
-109.7465667724609 -159.0477600097656 -42.76925277709961
-115.3136596679688 -163.7464752197266 -49.57694244384766
-114.9478759765625 -164.5654449462891 -46.11307144165039
-113.5359573364258 -166.9146423339844 -50.46078491210938
-97.27352905273438 -131.7796783447266 -57.19971084594727
-103.7636337280273 -147.6400299072266 -55.70680236816406
-124.6808700561523 -158.6783905029297 -55.85004806518555
-92.09742736816406 -128.1962585449219 -55.10913848876953
-90.08865356445312 -145.6244812011719 -59.33237838745117
-92.24734497070312 -144.3469390869141 -58.78670883178711
-110.8914184570312 -155.5954284667969 -60.14969253540039
-116.3022003173828 -161.8925933837891 -60.16418075561523
-93.46382904052734 -136.3056335449219 -58.37935638427734
-78.52243041992188 -162.3910980224609 -57.42891693115234
-76.95851898193359 -165.8528594970703 -54.58754348754883
-80.86157989501953 -162.2880859375 -53.09513092041016
-84.65776824951172 -172.4255676269531 -47.13678741455078
-82.71807861328125 -172.3375701904297 -45.06925201416016
-87.45860290527344 -182.435302734375 -40.76674652099609
-94.54330444335938 -143.9490356445312 -55.41168594360352
-106.9031600952148 -147.6946411132812 -55.97491836547852
-108.3252258300781 -154.5744323730469 -56.8609504699707
-76.70151519775391 -156.8968658447266 -57.61886596679688
-82.88606262207031 -136.8753204345703 -55.88077163696289
-104.1748428344727 -147.0468444824219 -58.30133438110352
-90.15061950683594 -142.6127777099609 -58.97296905517578
-112.6243057250977 -158.2636108398438 -58.58098602294922
-109.2291488647461 -174.6121978759766 -54.41954803466797
-103.9303894042969 -174.9608001708984 -53.89526748657227
-112.2395858764648 -178.3518524169922 -44.42103958129883
-68.77960205078125 -156.43994140625 -54.38937377929688
-101.0634307861328 -174.7885894775391 -59.70967864990234
-96.79503631591797 -173.0198974609375 -58.74904251098633
-99.40966033935547 -174.9417877197266 -58.55379486083984
-99.87986755371094 -174.8793334960938 -56.05672454833984
-103.1542663574219 -176.3896942138672 -56.53581619262695
-87.15504455566406 -127.6128387451172 -43.09091949462891
-91.36342620849609 -150.4546203613281 -54.26226043701172
-108.328254699707 -157.2728881835938 -55.72172546386719
-110.6152648925781 -160.5083465576172 -55.2801628112793
-111.0613632202148 -156.3643341064453 -58.01762390136719
-115.4050827026367 -162.8693084716797 -57.92347717285156
-115.9110107421875 -166.4086608886719 -53.43394088745117
-101.1470260620117 -171.2869873046875 -55.68268585205078
-104.2334671020508 -176.3668060302734 -58.52407073974609
-109.5054244995117 -170.4610443115234 -51.97635269165039
-115.1541366577148 -167.8262023925781 -51.76613998413086
-126.3860626220703 -146.2731475830078 -55.08154296875
-90.66260528564453 -153.0489349365234 -51.09562301635742
-93.16128540039062 -152.3409118652344 -51.16018676757812
-92.43670654296875 -149.5615234375 -52.70915603637695
-98.19900512695312 -170.7546539306641 -56.00716781616211
-96.42877960205078 -172.4704437255859 -57.56356048583984
-84.22709655761719 -159.8411560058594 -54.92365264892578
-99.01900482177734 -144.4347839355469 -52.41591644287109
-100.9301910400391 -146.0656127929688 -54.39061737060547
-135.0945129394531 -147.9205322265625 -46.31390762329102
-114.8731918334961 -165.2092590332031 -55.11398315429688
-91.16346740722656 -173.9956207275391 -53.68553924560547
-95.65151977539062 -168.1159820556641 -53.59331893920898
-74.30599975585938 -158.2709503173828 -54.43904495239258
-105.5313415527344 -156.6961669921875 -50.17804336547852
-108.8612899780273 -159.2400054931641 -50.22989273071289
-76.48859405517578 -159.9097747802734 -54.96932983398438
-97.24996185302734 -173.4683227539062 -55.69435882568359
-93.19417572021484 -146.6217041015625 -53.24185943603516
-114.6155700683594 -164.2942962646484 -53.16276168823242
-98.17177581787109 -177.6855926513672 -54.12168884277344
-100.9310455322266 -178.8105773925781 -52.84297561645508
-99.69185638427734 -124.7593994140625 -57.60509490966797
-108.8879623413086 -156.7305297851562 -53.01125717163086
-115.4069137573242 -162.4661102294922 -54.1290283203125
-80.18769073486328 -165.4851226806641 -50.26210403442383
-99.65874481201172 -164.248779296875 -51.82644271850586
-96.25371551513672 -139.7148742675781 -52.52310562133789
-97.93125915527344 -144.4078216552734 -50.5205192565918
-96.57390594482422 -142.589599609375 -48.45219039916992
-96.85122680664062 -140.6447143554688 -49.45761108398438
-96.35639953613281 -143.5885162353516 -53.46399307250977
-93.51716613769531 -143.51025390625 -50.49877166748047
-103.2822265625 -150.5782928466797 -51.44199752807617
-90.80842590332031 -174.6797637939453 -50.10659790039062
-95.07330322265625 -144.8876495361328 -50.43316650390625
-94.97385406494141 -144.4486694335938 -48.07107925415039
-110.6360778808594 -159.3414001464844 -52.59626007080078
-112.182258605957 -161.0027160644531 -47.49264526367188
-115.8842926025391 -162.7201232910156 -51.60527801513672
-77.99081420898438 -168.3222961425781 -54.51610565185547
-79.18575286865234 -167.7649993896484 -49.66834259033203
-71.81667327880859 -160.7155914306641 -51.33945846557617
-74.56757354736328 -161.7769775390625 -52.08712387084961
-75.40493011474609 -164.6797332763672 -51.81007766723633
-76.57598114013672 -169.4088897705078 -52.47017669677734
-66.545166015625 -134.4973754882812 -43.52145385742188
-114.4558868408203 -161.4602966308594 -50.2574348449707
-106.7599945068359 -157.0509796142578 -46.60897064208984
-92.53208923339844 -168.7776031494141 -51.41963958740234
-104.9535369873047 -152.1394653320312 -49.90348815917969
-117.3632049560547 -167.1667175292969 -47.33859252929688
-102.8979644775391 -186.6581115722656 -41.18589401245117
-102.1326599121094 -146.5581207275391 -51.08206939697266
-132.8759918212891 -158.9375610351562 -23.33949851989746
-137.6368865966797 -149.0835571289062 -29.91262626647949
-137.9307098388672 -159.1815338134766 -39.39241027832031
-106.9149703979492 -165.8513946533203 -48.96186065673828
-77.57891845703125 -171.2295837402344 -50.84782791137695
-86.56712341308594 -173.0453643798828 -51.50827407836914
-89.53401947021484 -170.8909149169922 -50.74702072143555
-127.4620361328125 -137.5841064453125 -38.68415069580078
-112.991828918457 -129.5586700439453 -38.4094123840332
-87.60868072509766 -159.04833984375 -48.25896453857422
-91.01072692871094 -145.2483673095703 -37.67162704467773
-86.75264739990234 -146.9279022216797 -33.44344711303711
-88.88629150390625 -142.0026092529297 -36.02251434326172
-87.84683227539062 -139.6266632080078 -37.53573608398438
-85.80500793457031 -137.1845855712891 -36.59000778198242
-85.66105651855469 -137.569091796875 -40.46046447753906
-81.50173950195312 -172.1234436035156 -52.13677215576172
-109.6766967773438 -158.1717071533203 -39.80086517333984
-105.8903961181641 -150.79443359375 -38.30881118774414
-108.3759536743164 -159.8424835205078 -45.72948455810547
-86.05986785888672 -161.5392608642578 -49.34579849243164
-94.99610900878906 -164.6692199707031 -50.72381591796875
-96.63848876953125 -166.2847137451172 -48.44648361206055
-105.1505889892578 -168.4380340576172 -47.56333160400391
-109.0193634033203 -167.7052459716797 -49.64210891723633
-80.97391510009766 -173.0283355712891 -49.81674194335938
-102.6343383789062 -152.1585235595703 -46.49502563476562
-89.545654296875 -157.1042327880859 -43.93712997436523
-86.19065093994141 -161.4889526367188 -45.84262847900391
-84.84534454345703 -162.9889068603516 -43.20331192016602
-89.85794067382812 -154.8177185058594 -43.39121246337891
-91.42878723144531 -154.9443511962891 -46.33457183837891
-91.96427917480469 -148.9306030273438 -40.00674819946289
-92.26788330078125 -152.7177581787109 -45.76423263549805
-67.72933959960938 -172.4905242919922 -42.59027099609375
-109.5004043579102 -165.1880798339844 -49.25839614868164
-78.56262969970703 -172.0435791015625 -46.34778213500977
-55.98421859741211 -156.3263397216797 -42.46176147460938
-92.88986968994141 -149.6248779296875 -46.72610855102539
-121.2845916748047 -175.5662231445312 -36.47343826293945
-91.33644866943359 -167.6884765625 -46.4254150390625
-87.85416412353516 -168.1819305419922 -46.83213806152344
-95.81594085693359 -143.5659637451172 -46.6977424621582
-86.84540557861328 -157.5732116699219 -39.77686309814453
-87.1219482421875 -158.0714874267578 -42.18265533447266
-85.04019927978516 -159.4623260498047 -39.04071426391602
-81.67213439941406 -163.8889770507812 -48.46203994750977
-99.67573547363281 -141.1537475585938 -48.43957901000977
-98.96815490722656 -138.8499603271484 -48.88313293457031
-100.4202194213867 -147.5727081298828 -46.71674728393555
-100.076774597168 -146.0635375976562 -47.92856216430664
-101.3342208862305 -167.3212738037109 -46.21429443359375
-112.0283279418945 -163.5112915039062 -41.06623077392578
-109.7218856811523 -163.5246124267578 -41.17889022827148
-110.6846694946289 -167.6241912841797 -42.93545913696289
-81.72160339355469 -168.5018463134766 -47.36527633666992
-96.22329711914062 -140.0501556396484 -47.21067810058594
-82.50875854492188 -166.9123077392578 -44.43841552734375
-114.2451705932617 -162.7866821289062 -45.31301879882812
-115.5502166748047 -165.1118927001953 -43.39029693603516
-113.981689453125 -162.8001251220703 -42.36831665039062
-102.1676254272461 -144.1837921142578 -45.87307357788086
-97.81179046630859 -164.9973754882812 -46.33804321289062
-97.76924133300781 -137.1117553710938 -46.52038192749023
-95.10111236572266 -136.6121673583984 -47.0700798034668
-97.39517974853516 -133.4454803466797 -46.58473587036133
-98.39678192138672 -133.6195068359375 -46.04331588745117
-95.4791259765625 -131.4591064453125 -46.98241424560547
-100.9370422363281 -134.3067321777344 -46.88290786743164
-94.49008178710938 -148.5109710693359 -45.96368026733398
-111.3764724731445 -167.8908233642578 -45.49043273925781
-100.4844131469727 -162.1231994628906 -42.86344146728516
-83.64456176757812 -167.9165191650391 -44.0401611328125
-88.41124725341797 -125.7546463012695 -43.03718948364258
-89.24697113037109 -125.7250747680664 -41.45035552978516
-90.33816528320312 -127.6639251708984 -41.84245300292969
-91.94438171386719 -122.1924514770508 -43.30147552490234
-96.86067962646484 -145.2096710205078 -46.50431823730469
-53.53825378417969 -148.8889312744141 -40.80540466308594
-99.01664733886719 -136.8196411132812 -43.45425415039062
-102.5197448730469 -135.80712890625 -40.4947509765625
-102.2329483032227 -137.5864868164062 -38.63032150268555
-98.52014923095703 -139.4667510986328 -44.19522094726562
-93.05298614501953 -139.8531494140625 -41.94453048706055
-92.52102661132812 -142.2077484130859 -41.03908157348633
-94.92245483398438 -138.6867065429688 -45.31875610351562
-109.5618209838867 -168.6233825683594 -44.79521560668945
-106.4695510864258 -168.7332763671875 -43.18964385986328
-68.49773406982422 -127.4086151123047 -32.90855026245117
-97.69600677490234 -132.1144714355469 -45.85553741455078
-94.72470855712891 -144.0828552246094 -45.42213821411133
-93.31215667724609 -164.877685546875 -42.52550888061523
-95.49317932128906 -160.1913757324219 -40.41320419311523
-87.67121887207031 -167.9409637451172 -43.63612365722656
-100.9518737792969 -125.6917953491211 -45.84957885742188
-95.52249145507812 -130.932861328125 -45.03068542480469
-93.88744354248047 -146.9113311767578 -44.42161560058594
-104.6887588500977 -151.2918090820312 -41.89695358276367
-109.9934692382812 -176.2973175048828 -28.09278869628906
-92.30583190917969 -129.4188995361328 -43.89820098876953
-100.7462692260742 -144.8025207519531 -43.32186508178711
-101.8803176879883 -145.7481842041016 -43.30421829223633
-85.69837951660156 -165.5133514404297 -42.45163726806641
-88.31237030029297 -165.6379852294922 -41.1966438293457
-77.92855834960938 -177.1137237548828 -34.44902801513672
-92.68040466308594 -132.8498992919922 -43.06005477905273
-90.40399169921875 -132.2227630615234 -42.53292846679688
-89.67616271972656 -135.561767578125 -42.20829391479492
-103.3237075805664 -144.9347076416016 -37.40144348144531
-107.6124038696289 -145.9243316650391 -36.58889770507812
-106.2814102172852 -144.0395355224609 -33.4224967956543
-109.9190216064453 -144.4091491699219 -30.91611480712891
-110.0875015258789 -145.2851867675781 -31.41668128967285
-98.64321899414062 -159.6759643554688 -43.74560928344727
-96.22934722900391 -158.75048828125 -40.87333297729492
-91.07293701171875 -165.2825622558594 -40.13871765136719
-104.9870147705078 -135.7133178710938 -40.28760147094727
-84.31489562988281 -164.0095825195312 -41.88867950439453
-106.909049987793 -160.6366729736328 -31.56330108642578
-104.8889083862305 -161.5504608154297 -35.11344909667969
-106.7284698486328 -160.6349487304688 -34.34169769287109
-103.7966461181641 -165.7765960693359 -41.60992050170898
-85.81404876708984 -163.6415710449219 -39.64484024047852
-101.6554870605469 -138.5812530517578 -40.29915618896484
-101.2378692626953 -160.4590911865234 -43.062744140625
-102.3531341552734 -159.8442535400391 -39.89176177978516
-106.2331848144531 -165.4087219238281 -40.3503532409668
-81.48899841308594 -148.9562683105469 -29.05207061767578
-77.21019744873047 -149.1891632080078 -25.74037742614746
-79.77085113525391 -147.1576385498047 -28.13370895385742
-82.66847229003906 -143.8347625732422 -30.86761093139648
-77.49735260009766 -143.7776641845703 -28.94159889221191
-79.00891876220703 -129.8690032958984 -39.50634002685547
-79.75360107421875 -131.2496185302734 -36.72552490234375
-76.695556640625 -126.5747909545898 -36.74534606933594
-103.9524688720703 -132.6341552734375 -41.29293441772461
-107.6702423095703 -133.0953674316406 -40.08259963989258
-57.08694839477539 -137.7439727783203 -35.90057754516602
-105.5423889160156 -162.9637603759766 -41.12684631347656
-85.14678955078125 -133.3980865478516 -39.79978942871094
-87.28034973144531 -131.2213897705078 -42.59363174438477
-87.20204925537109 -157.953857421875 -27.93310356140137
-89.19178771972656 -159.5245513916016 -32.1596565246582
-91.90353393554688 -159.1220397949219 -33.22010803222656
-90.35716247558594 -155.1704711914062 -28.6705379486084
-106.8626403808594 -134.8832855224609 -34.79741668701172
-111.2769927978516 -136.7530975341797 -31.83709907531738
-105.9621429443359 -136.9622650146484 -34.491943359375
-129.2132720947266 -170.0058441162109 -29.79791831970215
-86.93941497802734 -130.0106048583984 -39.61043548583984
-82.28788757324219 -131.7509765625 -39.90755081176758
-107.5337524414062 -136.1765899658203 -38.1220817565918
-89.18991088867188 -154.8489990234375 -39.34928131103516
-100.7364807128906 -157.3835601806641 -39.28579330444336
-105.3880081176758 -132.47900390625 -38.84525299072266
-90.27754974365234 -140.5768585205078 -40.64923858642578
-101.9097671508789 -141.1120300292969 -39.10884094238281
-111.020881652832 -162.6363067626953 -39.47367858886719
-88.67646789550781 -161.3008728027344 -37.73355484008789
-89.62639617919922 -151.0397186279297 -36.26449203491211
-86.18104553222656 -136.8213195800781 -38.43191146850586
-94.26737213134766 -158.5640411376953 -38.317138671875
-107.9094467163086 -162.2655334472656 -39.20096588134766
-107.4678421020508 -136.4614105224609 -36.17735290527344
-93.92580413818359 -154.0510711669922 -30.94606399536133
-94.77298736572266 -156.2462615966797 -35.68719482421875
-82.33786010742188 -129.8955383300781 -38.07953643798828
-84.26019287109375 -130.5198669433594 -37.64431762695312
-81.59042358398438 -132.3121337890625 -35.81208801269531
-106.1581420898438 -157.5940704345703 -32.14967346191406
-109.8167266845703 -158.2429351806641 -28.02948570251465
-85.37881469726562 -133.4196014404297 -38.17370986938477
-110.0713500976562 -134.5454864501953 -36.10728454589844
-109.7121658325195 -146.8699035644531 -33.35271453857422
-104.2864837646484 -146.0692443847656 -37.24724197387695
-83.35316467285156 -154.0396423339844 -34.07358932495117
-85.879150390625 -153.6708221435547 -36.86074829101562
-108.8927764892578 -155.1515808105469 -36.44157409667969
-109.1072769165039 -159.2668151855469 -36.98300170898438
-104.5451354980469 -160.1911010742188 -37.24682235717773
-101.9503707885742 -155.6335906982422 -35.44203567504883
-91.98367309570312 -160.3994445800781 -35.75847625732422
-86.97615814208984 -131.2342224121094 -39.00154876708984
-60.90351486206055 -133.3260955810547 -30.4492130279541
-54.32286834716797 -155.6641845703125 -31.63092803955078
-57.13678741455078 -145.7291870117188 -28.80416297912598
-98.38679504394531 -154.1663665771484 -34.81425857543945
-59.27630233764648 -170.6999816894531 -34.33071517944336
-113.4102172851562 -134.1898193359375 -34.61765289306641
-84.39363098144531 -157.2350921630859 -35.35441207885742
-83.72635650634766 -125.2326889038086 -37.17363739013672
-104.5653610229492 -134.6886901855469 -38.62213134765625
-86.8699951171875 -133.2561187744141 -36.43587493896484
-91.64553070068359 -159.0148468017578 -36.77240371704102
-102.5906600952148 -156.310302734375 -33.54822158813477
-86.13421630859375 -159.5256500244141 -35.9926872253418
-106.2798385620117 -158.9779510498047 -35.30612182617188
-80.62718963623047 -130.6917572021484 -37.44222259521484
-125.1640853881836 -134.5159759521484 -36.37133407592773
-116.4803619384766 -135.2395324707031 -31.88614654541016
-112.135986328125 -134.3822631835938 -32.95509719848633
-115.5284118652344 -137.0377044677734 -35.80275726318359
-108.2894744873047 -134.5672912597656 -35.27298355102539
-108.2332077026367 -157.1570281982422 -34.3323860168457
-109.6135101318359 -151.1558074951172 -35.62841415405273
-109.6352386474609 -154.2340087890625 -28.95698356628418
-83.27001953125 -133.8209991455078 -33.97566986083984
-105.5320053100586 -138.5191802978516 -35.23543548583984
-87.95025634765625 -138.6444396972656 -34.52240753173828
-89.10996246337891 -158.5352630615234 -34.49961471557617
-71.82408905029297 -136.4367980957031 -34.42216873168945
-105.8312072753906 -140.4857635498047 -33.84564590454102
-96.54624938964844 -180.2677459716797 -29.32120704650879
-78.83095550537109 -135.6740112304688 -32.05364227294922
-85.94956207275391 -152.1327056884766 -34.72967529296875
-112.1028213500977 -154.2934417724609 -26.2899055480957
-116.1752777099609 -151.8393249511719 -26.97550582885742
-113.5070953369141 -151.619873046875 -22.08213043212891
-118.9647216796875 -136.4359436035156 -35.04486465454102
-119.206672668457 -137.6187591552734 -31.32986259460449
-84.58955383300781 -157.2709503173828 -34.02194976806641
-111.1681823730469 -138.1233978271484 -33.76409530639648
-85.31130981445312 -136.8600463867188 -32.82819747924805
-113.3662643432617 -152.1464080810547 -31.69739151000977
-118.8976669311523 -144.2616424560547 -30.29387664794922
-123.5358734130859 -142.4986114501953 -30.76968765258789
-126.0294647216797 -148.6489562988281 -29.55025863647461
-121.2380218505859 -146.3397827148438 -29.28911972045898
-101.6862182617188 -152.6261749267578 -31.04949378967285
-86.33885955810547 -143.26513671875 -32.75174331665039
-84.24411010742188 -155.6661682128906 -26.13999176025391
-84.22293853759766 -155.8030700683594 -28.74985504150391
-81.87228393554688 -154.0151977539062 -29.71989822387695
-108.366340637207 -137.988037109375 -32.53702926635742
-76.10914611816406 -139.0245666503906 -30.99639129638672
-122.104248046875 -142.2020721435547 -29.61833953857422
-112.8961791992188 -137.6753997802734 -31.01097297668457
-110.8154602050781 -141.835205078125 -30.3429069519043
-103.0893630981445 -158.1642761230469 -30.95407867431641
-81.31526947021484 -151.2910003662109 -30.79433822631836
-83.43603515625 -140.0460968017578 -31.04294204711914
-64.48036956787109 -149.1335906982422 -29.94071960449219
-62.10479736328125 -161.2001495361328 -21.77732276916504
-113.6352233886719 -148.4955444335938 -29.13386726379395
-103.8239288330078 -157.0708770751953 -29.16958618164062
-114.8455200195312 -140.2581024169922 -30.43870735168457
-115.0910339355469 -144.4340972900391 -29.42247772216797
-115.2898101806641 -145.6667327880859 -29.14505386352539
-79.29887390136719 -153.6185455322266 -23.73805809020996
-82.33646392822266 -154.3414611816406 -26.2557258605957
-82.80086517333984 -152.7972717285156 -22.62375450134277
-87.41852569580078 -151.3934631347656 -23.54980659484863
-87.18825531005859 -153.5743408203125 -24.64249038696289
-88.75761413574219 -150.4406585693359 -21.31954765319824
-91.92817687988281 -149.5360717773438 -22.65900230407715
-94.00898742675781 -150.6981811523438 -19.73477363586426
-68.93987274169922 -168.4529724121094 -24.78046607971191
-81.515869140625 -174.9049072265625 -25.28029632568359
-120.7052993774414 -162.8624267578125 -23.22058486938477
-112.8508911132812 -156.7674865722656 -25.25089263916016
-101.4060592651367 -150.6147766113281 -27.4847526550293
-104.2640533447266 -153.3506622314453 -27.07949447631836
-95.74734497070312 -151.7329559326172 -28.18133163452148
-91.71561431884766 -153.8609161376953 -27.23933029174805
-118.6503829956055 -148.7622375488281 -28.0971794128418
-99.69202423095703 -148.9808959960938 -25.28780174255371
-109.9031372070312 -156.0433654785156 -25.46412467956543
-120.4600219726562 -152.5678100585938 -24.1640796661377
-70.49785614013672 -159.6776275634766 -22.65274429321289
-91.23678588867188 -151.2310638427734 -24.76022720336914
-104.5956420898438 -166.4494476318359 -18.62119102478027
-104.7151489257812 -149.7496643066406 -22.80160140991211
-104.2863311767578 -151.4222106933594 -18.49859428405762
-98.48944091796875 -149.4189147949219 -21.20525932312012
-112.8290405273438 -153.0355987548828 -23.19016265869141
-116.6706085205078 -153.3401184082031 -22.91146278381348
-111.7754898071289 -154.1671295166016 -24.74255752563477
-111.5249557495117 -152.2669372558594 -23.21482849121094
-79.83625793457031 -152.3682098388672 -19.60693168640137
-69.701171875 -165.1545867919922 -22.16375541687012
-84.39665985107422 -167.2310485839844 -16.28050422668457
-108.1286849975586 -152.2874603271484 -19.06276321411133
-70.02543640136719 -165.6767578125 -19.76989936828613
-71.05101776123047 -165.6160736083984 -20.2631893157959
-105.5665512084961 -156.2361297607422 -18.1271915435791
-101.484016418457 -154.0061340332031 -16.64421463012695
-102.1530380249023 -158.4139709472656 -18.70765113830566
-99.09824371337891 -163.4715118408203 -20.31702423095703
-87.35053253173828 -157.2107391357422 -15.86243534088135
-117.0302505493164 -167.9686584472656 -15.47956085205078
-109.5324554443359 -152.3498382568359 -18.28046798706055
-114.3735275268555 -156.5926666259766 -19.74459266662598
-100.4563217163086 -151.7890472412109 -17.94071388244629
-82.71511840820312 -167.6945343017578 -13.65434551239014
-108.0951766967773 -154.7449188232422 -16.65581703186035
3 1 0 23
477
478
479
480
481
482
483
484
485
486
487
488
489
490
491
492
493
494
495
496
497
498
499
-121.0722831816615 -151.5328146567886 -41.14464412580555
-80.22176964609176 -153.1159375930303 -48.29464590212456
-117.0154070156245 -153.8918277319028 -50.86343041490017
-118.274513494507 -165.1116218026543 -34.88034529216922
-110.073174110704 -168.6520956978412 -33.16899281276736
-112.2057830802822 -145.3065722879161 -47.54814915443007
-78.03713607048553 -165.0996652242194 -31.47483783968274
-98.02714695397131 -166.5926680323981 -35.39434090480548
-125.2367503742339 -159.2197691997149 -41.45558873199477
-96.45135272658527 -173.5214612558313 -41.3493025850023
-89.95839453133247 -169.9635896684927 -32.24516456284734
-80.19612791632822 -145.2925113142458 -42.80362212433973
-68.91123462708416 -153.6160996048111 -37.85708703914337
-114.2141432043519 -149.6121999375518 -57.54881096206176
-82.60634255060469 -134.9031844801541 -45.97199165991189
-103.6858805011077 -171.638860015937 -36.64334095320802
-107.4863520312289 -138.7661061681279 -48.92261687080403
-79.41699374439975 -138.1294782243587 -38.21555761731258
-111.8831210390683 -141.4261358502599 -39.9650748141862
-118.9480253241378 -143.3897526910908 -40.61403216373049
-76.41687421745819 -161.7001652679714 -42.49001377711726
-96.42428818933097 -157.6209226044508 -26.15946400190604
-102.3825994269173 -166.7350967123114 -28.74637455243703
$EndNodes
$Elements
2 2418 1 2418
2 1 2 952
1 1 2 3 
2 2 1 6 
3 3 5 1 
4 1 5 7 
5 6 1 7 
6 4 3 2 
7 4 2 45 
8 2 6 15 
9 2 15 24 
10 2 24 48 
11 64 45 2 
12 2 48 128 
13 2 128 64 
14 5 3 4 
15 5 4 11 
16 11 4 57 
17 4 45 56 
18 57 4 56 
19 7 5 8 
20 5 11 8 
21 6 7 9 
22 15 6 9 
23 7 8 9 
24 25 9 8 
25 10 8 11 
26 25 8 10 
27 9 26 15 
28 26 9 25 
29 58 10 11 
30 25 10 42 
31 10 70 42 
32 10 58 105 
33 70 10 86 
34 10 101 86 
35 10 105 101 
36 57 58 11 
37 12 13 14 
38 13 12 100 
39 46 12 14 
40 12 27 28 
41 27 12 46 
42 12 28 54 
43 12 54 100 
44 14 13 135 
45 100 159 13 
46 13 156 135 
47 13 155 156 
48 159 155 13 
49 46 14 61 
50 56 14 57 
51 56 61 14 
52 57 14 136 
53 135 136 14 
54 15 26 24 
55 16 17 18 
56 17 16 62 
57 18 23 16 
58 23 38 16 
59 49 16 38 
60 49 62 16 
61 18 17 54 
62 17 106 54 
63 72 17 62 
64 17 72 89 
65 17 89 90 
66 17 90 106 
67 19 18 20 
68 18 19 23 
69 20 18 35 
70 18 28 34 
71 18 54 28 
72 18 34 35 
73 21 19 20 
74 21 23 19 
75 21 20 30 
76 20 29 30 
77 35 29 20 
78 21 22 23 
79 22 21 30 
80 23 22 38 
81 30 69 22 
82 22 55 38 
83 22 59 55 
84 59 22 69 
85 24 26 43 
86 24 43 48 
87 26 25 42 
88 44 26 42 
89 43 26 44 
90 34 28 27 
91 34 27 47 
92 27 46 47 
93 30 29 51 
94 33 32 29 
95 51 29 32 
96 33 29 37 
97 35 37 29 
98 30 51 75 
99 30 75 69 
100 31 32 33 
101 32 31 51 
102 33 174 31 
103 31 75 51 
104 67 68 31 
105 67 31 111 
106 31 68 75 
107 31 260 111 
108 260 31 174 
109 104 33 37 
110 33 104 117 
111 314 33 117 
112 174 33 270 
113 270 33 314 
114 34 36 35 
115 34 74 36 
116 47 63 34 
117 74 34 63 
118 35 36 37 
119 37 36 104 
120 74 104 36 
121 49 38 55 
122 39 40 41 
123 40 39 134 
124 39 41 129 
125 65 39 66 
126 65 134 39 
127 129 66 39 
128 40 191 41 
129 134 202 40 
130 40 202 191 
131 129 41 213 
132 41 191 209 
133 213 41 209 
134 44 42 60 
135 42 91 60 
136 42 70 91 
137 43 44 52 
138 43 52 48 
139 52 44 53 
140 44 60 53 
141 61 56 45 
142 61 45 85 
143 85 45 64 
144 50 47 46 
145 50 46 93 
146 88 46 61 
147 93 46 88 
148 93 47 50 
149 63 47 93 
150 52 53 48 
151 48 53 87 
152 137 48 87 
153 48 137 128 
154 55 71 49 
155 62 49 65 
156 49 94 65 
157 94 49 71 
158 53 60 73 
159 53 73 92 
160 87 53 92 
161 54 106 100 
162 55 59 71 
163 58 57 105 
164 57 136 105 
165 59 68 67 
166 103 59 67 
167 59 69 68 
168 71 59 103 
169 60 107 73 
170 60 91 107 
171 85 88 61 
172 62 65 66 
173 118 62 66 
174 72 62 118 
175 74 63 117 
176 88 63 93 
177 63 88 255 
178 63 255 117 
179 85 64 150 
180 64 128 189 
181 150 64 190 
182 64 189 190 
183 65 94 134 
184 118 66 129 
185 67 111 103 
186 75 68 69 
187 70 86 76 
188 102 70 76 
189 102 91 70 
190 94 71 144 
191 103 144 71 
192 89 72 146 
193 72 118 131 
194 146 72 131 
195 92 73 122 
196 73 107 120 
197 73 120 152 
198 122 73 152 
199 104 74 117 
200 76 77 78 
201 76 86 77 
202 76 78 102 
203 78 77 178 
204 77 86 161 
205 77 161 178 
206 102 78 119 
207 151 119 78 
208 142 143 78 
209 78 178 142 
210 143 151 78 
211 79 80 81 
212 80 79 201 
213 79 81 242 
214 166 201 79 
215 240 166 79 
216 240 79 242 
217 81 80 199 
218 201 176 80 
219 80 176 208 
220 199 80 200 
221 80 279 200 
222 208 279 80 
223 242 81 199 
224 82 83 84 
225 83 82 240 
226 127 82 84 
227 147 82 127 
228 167 82 147 
229 167 175 82 
230 175 240 82 
231 84 83 217 
232 217 83 252 
233 83 240 241 
234 252 83 241 
235 84 126 127 
236 206 126 84 
237 206 84 217 
238 85 150 88 
239 181 86 101 
240 86 181 161 
241 92 123 87 
242 123 179 87 
243 137 87 184 
244 87 179 221 
245 184 87 221 
246 88 150 258 
247 88 256 255 
248 88 258 256 
249 89 146 90 
250 106 90 100 
251 100 90 160 
252 163 90 146 
253 160 90 163 
254 91 102 121 
255 91 121 107 
256 92 122 123 
257 94 95 96 
258 94 144 95 
259 134 94 96 
260 96 95 153 
261 144 172 95 
262 169 153 95 
263 95 168 169 
264 168 95 173 
265 95 172 173 
266 134 96 202 
267 96 153 228 
268 96 228 202 
269 97 98 99 
270 207 98 97 
271 97 99 162 
272 162 187 97 
273 187 207 97 
274 98 286 99 
275 218 98 207 
276 98 218 286 
277 145 99 148 
278 145 162 99 
279 99 149 148 
280 149 99 180 
281 180 99 394 
282 286 394 99 
283 159 100 160 
284 136 101 105 
285 101 136 181 
286 121 102 119 
287 111 141 103 
288 103 141 144 
289 120 107 119 
290 121 119 107 
291 108 109 110 
292 108 116 109 
293 127 108 110 
294 108 125 116 
295 124 125 108 
296 126 124 108 
297 126 108 127 
298 115 110 109 
299 115 109 116 
300 110 115 149 
301 179 127 110 
302 110 149 180 
303 179 110 221 
304 110 180 280 
305 221 110 280 
306 141 111 170 
307 111 219 170 
308 111 260 219 
309 112 113 114 
310 113 112 124 
311 112 114 125 
312 124 112 125 
313 113 115 114 
314 113 132 115 
315 113 124 132 
316 114 115 116 
317 114 116 125 
318 115 132 133 
319 115 133 145 
320 145 148 115 
321 115 148 149 
322 255 257 117 
323 257 287 117 
324 287 288 117 
325 288 322 117 
326 314 117 372 
327 117 322 331 
328 332 117 331 
329 117 332 348 
330 117 348 372 
331 118 129 130 
332 130 131 118 
333 120 119 151 
334 151 165 120 
335 120 175 152 
336 175 120 165 
337 122 138 123 
338 138 122 147 
339 122 152 147 
340 127 123 147 
341 123 127 179 
342 138 147 123 
343 124 126 154 
344 132 124 154 
345 154 126 185 
346 206 185 126 
347 128 137 189 
348 129 215 130 
349 215 129 213 
350 131 130 220 
351 220 130 215 
352 146 131 220 
353 140 133 132 
354 132 154 140 
355 139 133 140 
356 133 139 145 
357 136 135 181 
358 135 156 181 
359 137 184 183 
360 183 189 137 
361 140 177 139 
362 145 139 162 
363 139 187 162 
364 188 139 177 
365 187 139 188 
366 154 203 140 
367 177 140 203 
368 171 144 141 
369 170 171 141 
370 143 142 176 
371 178 176 142 
372 151 143 165 
373 165 143 166 
374 143 201 166 
375 143 176 201 
376 144 171 172 
377 163 146 220 
378 152 167 147 
379 276 150 190 
380 258 150 276 
381 152 175 167 
382 153 169 228 
383 205 154 185 
384 203 154 204 
385 205 204 154 
386 155 158 156 
387 157 158 155 
388 155 159 157 
389 156 158 229 
390 181 156 232 
391 229 232 156 
392 157 238 158 
393 159 160 157 
394 157 160 224 
395 238 157 224 
396 229 158 230 
397 230 158 238 
398 160 163 164 
399 160 164 272 
400 160 266 224 
401 272 266 160 
402 161 208 178 
403 161 181 208 
404 163 251 164 
405 163 220 251 
406 164 251 259 
407 164 259 272 
408 175 165 166 
409 175 166 240 
410 169 168 198 
411 186 168 173 
412 198 168 186 
413 198 237 169 
414 228 169 239 
415 169 237 254 
416 254 239 169 
417 171 170 216 
418 219 216 170 
419 171 216 172 
420 172 216 173 
421 216 186 173 
422 174 319 260 
423 319 174 270 
424 178 208 176 
425 188 177 223 
426 177 203 222 
427 223 177 222 
428 394 280 180 
429 208 181 231 
430 231 181 232 
431 182 183 184 
432 408 183 182 
433 184 330 182 
434 280 182 330 
435 182 280 471 
436 408 182 440 
437 471 440 182 
438 189 183 380 
439 183 408 380 
440 184 221 330 
441 185 268 205 
442 217 185 206 
443 217 252 185 
444 185 252 268 
445 198 186 207 
446 207 186 218 
447 216 218 186 
448 187 188 223 
449 198 207 187 
450 198 187 223 
451 370 190 189 
452 380 370 189 
453 276 190 336 
454 336 190 318 
455 318 190 354 
456 354 190 370 
457 191 202 210 
458 209 191 210 
459 192 193 194 
460 192 341 193 
461 194 266 192 
462 214 192 266 
463 341 192 214 
464 194 193 411 
465 396 309 193 
466 309 411 193 
467 341 396 193 
468 266 194 195 
469 194 390 195 
470 390 194 411 
471 195 196 197 
472 196 195 390 
473 195 197 337 
474 337 266 195 
475 342 197 196 
476 342 196 353 
477 364 353 196 
478 364 196 390 
479 337 197 342 
480 237 198 223 
481 200 359 199 
482 242 199 360 
483 199 359 360 
484 356 200 279 
485 356 386 200 
486 359 200 386 
487 202 228 210 
488 203 204 222 
489 204 205 233 
490 222 204 244 
491 204 233 244 
492 233 205 269 
493 205 268 269 
494 208 231 279 
495 209 210 211 
496 209 211 226 
497 209 212 213 
498 209 226 212 
499 210 239 211 
500 228 239 210 
501 211 227 226 
502 227 211 299 
503 239 299 211 
504 215 213 212 
505 214 215 212 
506 214 212 341 
507 225 212 226 
508 334 212 225 
509 341 212 334 
510 278 215 214 
511 278 214 266 
512 220 215 278 
513 218 216 286 
514 369 216 219 
515 286 216 369 
516 260 366 219 
517 219 366 369 
518 251 220 278 
519 330 221 280 
520 275 223 222 
521 273 222 244 
522 273 275 222 
523 237 223 254 
524 223 275 254 
525 267 238 224 
526 265 224 266 
527 224 265 267 
528 225 226 227 
529 227 358 225 
530 334 225 358 
531 371 227 299 
532 227 357 358 
533 227 371 357 
534 229 230 264 
535 229 243 232 
536 243 229 282 
537 264 282 229 
538 230 238 246 
539 246 245 230 
540 245 261 230 
541 230 261 264 
542 232 243 231 
543 231 243 283 
544 279 231 283 
545 244 233 253 
546 253 233 303 
547 303 233 269 
548 234 235 236 
549 235 234 339 
550 252 234 236 
551 241 242 234 
552 252 241 234 
553 339 234 242 
554 236 235 308 
555 235 320 308 
556 344 320 235 
557 344 235 339 
558 268 252 236 
559 269 268 236 
560 308 269 236 
561 246 238 267 
562 284 239 254 
563 299 239 284 
564 241 240 242 
565 242 360 339 
566 243 282 283 
567 295 244 253 
568 273 244 274 
569 244 295 274 
570 245 246 247 
571 245 247 248 
572 245 248 261 
573 287 247 246 
574 288 246 267 
575 287 246 288 
576 249 248 247 
577 281 249 247 
578 247 287 281 
579 248 249 250 
580 248 250 262 
581 248 262 261 
582 250 249 271 
583 249 277 271 
584 249 281 277 
585 262 250 298 
586 250 271 298 
587 251 278 259 
588 306 295 253 
589 253 303 308 
590 306 253 320 
591 253 308 320 
592 275 285 254 
593 284 254 285 
594 255 256 257 
595 256 258 257 
596 258 281 257 
597 257 281 287 
598 258 276 277 
599 281 258 277 
600 272 259 278 
601 260 319 366 
602 261 262 263 
603 305 261 263 
604 261 305 264 
605 262 329 263 
606 262 298 345 
607 262 345 329 
608 305 263 389 
609 389 263 329 
610 282 264 338 
611 264 305 338 
612 265 266 337 
613 267 265 289 
614 342 289 265 
615 265 337 342 
616 266 272 278 
617 288 267 289 
618 308 303 269 
619 316 270 314 
620 315 270 316 
621 270 315 392 
622 319 270 365 
623 365 270 392 
624 271 277 276 
625 276 317 271 
626 271 317 298 
627 274 297 273 
628 275 273 297 
629 274 295 296 
630 343 274 296 
631 297 274 363 
632 343 375 274 
633 274 375 363 
634 285 275 297 
635 276 336 317 
636 279 283 356 
637 280 394 452 
638 280 452 471 
639 282 290 283 
640 282 338 290 
641 283 290 291 
642 283 291 356 
643 285 304 284 
644 284 304 299 
645 340 285 297 
646 304 285 340 
647 286 369 438 
648 394 286 439 
649 286 438 439 
650 288 289 321 
651 321 322 288 
652 321 289 342 
653 291 290 294 
654 292 294 290 
655 290 393 292 
656 338 393 290 
657 355 291 294 
658 291 355 356 
659 292 293 294 
660 419 293 292 
661 292 393 419 
662 294 293 428 
663 293 419 428 
664 425 355 294 
665 294 429 425 
666 428 429 294 
667 295 335 296 
668 295 306 307 
669 295 307 335 
670 296 335 368 
671 347 343 296 
672 347 296 368 
673 340 297 363 
674 317 318 298 
675 298 318 333 
676 298 333 345 
677 304 371 299 
678 300 301 302 
679 420 301 300 
680 300 302 352 
681 352 426 300 
682 420 300 426 
683 301 378 302 
684 344 301 361 
685 301 344 378 
686 376 361 301 
687 376 301 420 
688 351 352 302 
689 378 351 302 
690 340 377 304 
691 377 371 304 
692 305 389 338 
693 306 320 307 
694 307 320 361 
695 335 307 362 
696 362 307 361 
697 309 310 311 
698 310 309 421 
699 312 309 311 
700 312 411 309 
701 396 421 309 
702 423 311 310 
703 310 357 414 
704 357 310 421 
705 310 414 431 
706 450 423 310 
707 431 430 310 
708 450 310 430 
709 312 311 313 
710 423 313 311 
711 422 312 313 
712 422 411 312 
713 416 422 313 
714 416 313 423 
715 314 315 316 
716 314 350 315 
717 379 350 314 
718 372 379 314 
719 315 350 388 
720 315 388 395 
721 392 315 395 
722 318 317 336 
723 318 354 333 
724 367 319 365 
725 366 319 367 
726 344 361 320 
727 322 321 332 
728 332 321 349 
729 321 342 353 
730 321 353 349 
731 331 322 332 
732 323 324 325 
733 324 323 412 
734 323 325 326 
735 412 323 326 
736 375 325 324 
737 324 391 375 
738 391 324 413 
739 324 412 413 
740 326 325 347 
741 325 343 347 
742 375 343 325 
743 346 326 347 
744 346 445 326 
745 434 412 326 
746 445 434 326 
747 327 328 329 
748 327 382 328 
749 373 327 329 
750 384 327 373 
751 384 382 327 
752 329 328 415 
753 382 381 328 
754 328 381 383 
755 383 403 328 
756 403 418 328 
757 415 328 418 
758 345 373 329 
759 389 329 415 
760 348 332 349 
761 354 345 333 
762 334 358 341 
763 368 335 362 
764 393 338 389 
765 344 339 360 
766 375 340 363 
767 377 340 375 
768 341 358 396 
769 378 344 360 
770 345 354 384 
771 384 373 345 
772 347 368 346 
773 346 368 442 
774 346 442 444 
775 346 444 445 
776 348 349 350 
777 379 348 350 
778 379 372 348 
779 350 349 388 
780 364 349 353 
781 349 364 374 
782 349 374 388 
783 352 351 441 
784 351 378 385 
785 385 387 351 
786 387 441 351 
787 448 426 352 
788 352 441 448 
789 382 354 370 
790 384 354 382 
791 356 355 386 
792 386 355 405 
793 355 425 405 
794 358 357 396 
795 414 357 371 
796 396 357 421 
797 360 359 385 
798 385 359 387 
799 386 405 359 
800 405 387 359 
801 378 360 385 
802 376 362 361 
803 410 368 362 
804 410 362 376 
805 374 364 390 
806 365 392 367 
807 424 366 367 
808 366 424 369 
809 367 392 423 
810 367 423 424 
811 442 368 410 
812 369 424 438 
813 382 370 380 
814 371 377 402 
815 414 371 402 
816 374 404 388 
817 374 390 404 
818 377 375 391 
819 410 376 426 
820 376 420 426 
821 377 391 402 
822 380 381 382 
823 381 380 400 
824 401 400 380 
825 407 401 380 
826 407 380 408 
827 381 400 383 
828 383 400 401 
829 403 383 401 
830 387 398 397 
831 387 397 441 
832 387 405 398 
833 388 404 395 
834 415 393 389 
835 390 411 404 
836 391 413 402 
837 395 416 392 
838 423 392 416 
839 393 415 419 
840 452 394 439 
841 404 422 395 
842 416 395 422 
843 397 398 399 
844 456 397 399 
845 397 458 441 
846 458 397 456 
847 457 399 398 
848 405 425 398 
849 425 446 398 
850 398 446 449 
851 398 449 457 
852 456 399 459 
853 399 457 472 
854 472 459 399 
855 403 401 418 
856 401 407 417 
857 417 427 401 
858 401 427 418 
859 414 402 413 
860 422 404 411 
861 406 407 408 
862 406 417 407 
863 406 408 409 
864 429 406 409 
865 428 417 406 
866 428 406 429 
867 409 408 446 
868 408 440 446 
869 429 409 446 
870 426 443 410 
871 442 410 443 
872 413 412 431 
873 412 434 431 
874 414 413 431 
875 418 419 415 
876 428 427 417 
877 419 418 427 
878 419 427 428 
879 424 423 450 
880 438 424 461 
881 424 450 475 
882 461 424 464 
883 424 475 464 
884 425 429 446 
885 443 426 448 
886 430 431 432 
887 430 432 460 
888 450 430 460 
889 432 431 433 
890 433 431 434 
891 433 435 432 
892 435 460 432 
893 434 451 433 
894 451 435 433 
895 451 434 445 
896 435 436 437 
897 435 451 436 
898 470 435 437 
899 460 435 470 
900 436 455 437 
901 436 444 447 
902 444 436 451 
903 455 436 447 
904 437 455 474 
905 470 437 474 
906 462 439 438 
907 438 461 465 
908 462 438 465 
909 452 439 462 
910 446 440 449 
911 457 449 440 
912 469 440 452 
913 440 471 452 
914 457 440 473 
915 473 440 469 
916 458 448 441 
917 442 443 453 
918 444 442 447 
919 442 453 447 
920 458 443 448 
921 443 459 453 
922 456 443 458 
923 459 443 456 
924 445 444 451 
925 447 453 455 
926 460 470 450 
927 450 469 462 
928 450 462 475 
929 450 470 469 
930 462 469 452 
931 453 454 455 
932 454 453 463 
933 459 463 453 
934 455 454 474 
935 454 463 466 
936 454 466 467 
937 474 454 467 
938 472 457 473 
939 463 459 472 
940 465 461 464 
941 462 465 475 
942 466 463 476 
943 463 472 476 
944 465 464 475 
945 467 466 468 
946 468 466 469 
947 466 476 469 
948 470 467 468 
949 474 467 470 
950 468 469 470 
951 469 476 473 
952 473 476 472 
3 1 4 1466
953 66 68 75 478 
954 81 176 166 479 
955 364 374 196 353 
956 341 212 358 334 
957 78 143 142 151 
958 162 145 99 486 
959 470 450 469 412 
960 338 305 243 495 
961 176 178 151 479 
962 77 151 178 479 
963 337 197 195 488 
964 209 211 210 226 
965 71 59 49 94 
966 81 166 240 477 
967 354 383 318 495 
968 93 155 50 106 
969 358 212 214 488 
970 450 469 412 483 
971 71 144 59 94 
972 178 208 243 279 
973 100 50 155 106 
974 405 199 359 360 
975 333 354 318 495 
976 80 178 176 482 
977 289 104 322 491 
978 143 176 151 479 
979 71 144 103 59 
980 318 276 317 493 
981 405 425 355 429 
982 383 64 495 496 
983 143 166 176 479 
984 339 360 242 480 
985 301 376 420 484 
986 96 134 40 478 
987 358 225 334 212 
988 266 337 214 278 
989 81 176 201 166 
990 81 240 242 477 
991 81 199 80 477 
992 59 144 103 134 
993 151 176 142 178 
994 67 68 66 478 
995 96 144 134 478 
996 250 317 276 493 
997 343 363 325 484 
998 289 104 74 322 
999 358 478 212 488 
1000 144 103 134 478 
1001 338 243 283 495 
1002 358 227 225 478 
1003 80 200 279 482 
1004 80 386 200 482 
1005 387 385 441 405 
1006 254 284 285 487 
1007 405 441 398 480 
1008 376 347 420 484 
1009 80 199 386 477 
1010 13 14 135 155 
1011 214 341 358 488 
1012 355 405 429 496 
1013 192 341 214 488 
1014 81 166 477 479 
1015 192 194 193 488 
1016 427 417 406 428 
1017 413 431 412 483 
1018 318 298 333 495 
1019 144 141 103 478 
1020 389 333 338 495 
1021 405 355 386 496 
1022 143 151 165 479 
1023 308 307 320 361 
1024 243 178 279 482 
1025 67 134 103 478 
1026 360 359 405 385 
1027 155 160 100 106 
1028 297 275 285 487 
1029 146 37 160 75 
1030 178 479 176 482 
1031 350 314 332 379 
1032 341 192 193 488 
1033 233 269 205 486 
1034 386 355 495 496 
1035 266 337 192 214 
1036 431 413 414 483 
1037 308 307 253 320 
1038 272 278 164 160 
1039 377 402 324 483 
1040 166 143 165 479 
1041 160 266 278 337 
1042 80 477 386 482 
1043 450 462 469 483 
1044 227 226 225 478 
1045 226 210 191 478 
1046 386 355 291 495 
1047 463 458 456 443 
1048 178 243 181 482 
1049 242 199 81 477 
1050 175 152 167 479 
1051 406 429 405 496 
1052 199 200 386 359 
1053 178 77 479 482 
1054 254 285 275 487 
1055 107 165 121 479 
1056 236 234 241 480 
1057 160 90 100 106 
1058 165 151 121 479 
1059 386 291 482 495 
1060 451 434 435 437 
1061 31 488 478 489 
1062 285 284 304 487 
1063 230 155 247 246 
1064 249 248 250 247 
1065 405 386 477 496 
1066 302 352 385 360 
1067 4 1 3 5 
1068 75 478 31 488 
1069 165 175 166 479 
1070 136 57 101 493 
1071 357 227 358 478 
1072 135 57 136 493 
1073 49 94 59 65 
1074 477 482 128 496 
1075 445 451 444 437 
1076 101 136 105 57 
1077 386 291 200 482 
1078 210 228 202 478 
1079 303 269 233 486 
1080 488 491 197 494 
1081 283 243 482 495 
1082 411 194 195 488 
1083 228 210 211 478 
1084 371 414 402 483 
1085 211 210 226 478 
1086 482 495 64 496 
1087 107 60 73 490 
1088 343 325 347 484 
1089 279 178 80 482 
1090 227 211 226 478 
1091 268 236 110 269 
1092 243 305 264 493 
1093 149 205 269 486 
1094 261 250 305 262 
1095 110 115 205 149 
1096 151 102 121 490 
1097 151 77 102 490 
1098 426 352 300 499 
1099 283 243 279 482 
1100 181 136 101 493 
1101 301 308 303 484 
1102 383 189 64 496 
1103 75 488 31 491 
1104 264 229 243 493 
1105 151 479 77 490 
1106 297 486 275 487 
1107 411 193 194 488 
1108 44 52 53 60 
1109 59 71 49 55 
1110 1 4 3 2 
1111 303 233 484 486 
1112 275 98 254 487 
1113 176 201 166 143 
1114 336 318 276 317 
1115 190 493 318 495 
1116 250 276 150 493 
1117 136 181 135 493 
1118 279 200 291 482 
1119 357 310 414 489 
1120 387 385 351 441 
1121 264 305 261 493 
1122 158 238 160 246 
1123 338 283 290 495 
1124 195 488 197 494 
1125 74 104 117 322 
1126 358 357 478 488 
1127 229 135 181 493 
1128 165 107 121 120 
1129 432 435 433 434 
1130 4 1 5 11 
1131 143 176 142 151 
1132 430 414 310 489 
1133 412 470 430 432 
1134 110 205 268 269 
1135 402 414 413 483 
1136 283 279 291 482 
1137 355 294 495 496 
1138 389 345 333 495 
1139 266 160 265 337 
1140 243 493 482 495 
1141 388 196 353 350 
1142 31 174 488 489 
1143 115 205 124 109 
1144 483 489 216 497 
1145 204 162 177 222 
1146 298 271 250 317 
1147 80 208 178 279 
1148 283 482 291 495 
1149 294 428 427 496 
1150 406 428 429 496 
1151 392 488 174 489 
1152 64 128 482 496 
1153 120 107 121 119 
1154 362 368 376 347 
1155 101 77 482 490 
1156 357 478 488 489 
1157 341 212 214 358 
1158 261 305 250 493 
1159 160 155 158 246 
1160 250 85 230 493 
1161 423 174 319 489 
1162 31 491 488 494 
1163 107 479 121 490 
1164 199 200 80 386 
1165 366 319 423 367 
1166 233 244 484 486 
1167 289 322 321 197 
1168 408 477 189 496 
1169 205 110 149 269 
1170 269 110 486 492 
1171 369 483 438 489 
1172 208 181 161 178 
1173 363 325 484 487 
1174 273 484 244 486 
1175 230 247 245 246 
1176 305 389 263 298 
1177 283 291 290 495 
1178 69 75 66 68 
1179 243 229 181 493 
1180 120 151 119 121 
1181 479 482 77 490 
1182 110 236 268 252 
1183 151 121 479 490 
1184 318 493 298 495 
1185 189 477 128 496 
1186 304 371 377 483 
1187 411 195 196 494 
1188 222 162 275 486 
1189 170 219 489 497 
1190 261 250 245 230 
1191 450 464 475 465 
1192 31 478 111 489 
1193 312 411 422 494 
1194 356 283 279 291 
1195 420 484 347 499 
1196 243 181 482 493 
1197 411 488 195 494 
1198 313 488 416 489 
1199 90 163 146 160 
1200 216 489 219 497 
1201 408 409 446 477 
1202 465 438 462 483 
1203 421 357 488 489 
1204 160 155 37 106 
1205 146 37 106 160 
1206 196 195 197 494 
1207 312 488 411 494 
1208 470 450 412 430 
1209 275 222 223 162 
1210 101 482 2 490 
1211 218 239 483 497 
1212 369 216 483 489 
1213 110 149 269 486 
1214 253 273 274 484 
1215 269 236 110 492 
1216 386 356 291 355 
1217 250 305 262 493 
1218 274 363 343 484 
1219 31 75 68 478 
1220 107 73 479 490 
1221 383 64 190 495 
1222 242 480 477 485 
1223 265 160 224 267 
1224 50 14 13 155 
1225 301 484 420 499 
1226 307 253 274 484 
1227 102 121 119 151 
1228 423 392 174 489 
1229 160 238 267 246 
1230 242 241 480 485 
1231 357 478 489 497 
1232 160 265 224 266 
1233 263 261 305 262 
1234 482 493 64 495 
1235 243 283 282 338 
1236 377 483 324 487 
1237 394 487 484 499 
1238 181 101 482 493 
1239 300 352 480 481 
1240 275 486 99 487 
1241 463 458 443 448 
1242 10 58 11 105 
1243 242 477 240 485 
1244 407 408 189 496 
1245 370 189 190 383 
1246 123 122 92 87 
1247 430 470 460 432 
1248 297 484 486 487 
1249 325 347 484 499 
1250 155 13 50 100 
1251 63 246 249 88 
1252 386 356 200 291 
1253 403 401 427 418 
1254 148 99 145 486 
1255 162 97 275 486 
1256 258 277 249 281 
1257 383 190 318 495 
1258 477 479 128 482 
1259 425 405 446 429 
1260 99 98 275 487 
1261 274 297 363 484 
1262 380 408 183 189 
1263 293 292 294 291 
1264 120 151 121 165 
1265 400 383 401 496 
1266 174 488 392 494 
1267 260 423 319 489 
1268 174 31 260 489 
1269 63 249 281 88 
1270 134 59 67 103 
1271 440 398 441 480 
1272 31 488 174 494 
1273 273 297 484 486 
1274 393 389 291 495 
1275 465 461 438 483 
1276 258 281 249 88 
1277 324 413 402 391 
1278 153 228 169 497 
1279 422 411 196 494 
1280 219 260 111 489 
1281 299 371 304 483 
1282 273 244 222 486 
1283 64 189 128 496 
1284 45 101 57 493 
1285 478 170 489 497 
1286 368 362 335 347 
1287 247 85 250 249 
1288 291 292 393 403 
1289 274 273 297 484 
1290 64 482 101 493 
1291 105 45 4 101 
1292 459 463 443 453 
1293 245 250 247 230 
1294 221 330 480 485 
1295 463 456 472 459 
1296 85 64 45 493 
1297 297 363 484 487 
1298 155 158 230 229 
1299 228 478 211 497 
1300 250 150 85 493 
1301 443 463 448 466 
1302 368 335 296 347 
1303 105 57 45 101 
1304 392 416 488 489 
1305 170 216 219 497 
1306 268 205 110 126 
1307 31 111 260 489 
1308 252 268 126 206 
1309 419 393 292 403 
1310 305 298 262 493 
1311 406 427 428 496 
1312 232 243 229 181 
1313 236 308 235 481 
1314 297 340 363 487 
1315 452 439 469 462 
1316 443 453 463 466 
1317 14 50 85 155 
1318 162 222 204 486 
1319 106 89 146 90 
1320 377 340 304 487 
1321 369 219 216 489 
1322 393 403 389 495 
1323 228 239 169 497 
1324 247 85 155 230 
1325 126 268 205 206 
1326 134 67 59 65 
1327 267 160 224 238 
1328 175 479 167 485 
1329 298 318 317 493 
1330 356 279 200 291 
1331 463 453 454 466 
1332 275 97 99 486 
1333 189 190 383 64 
1334 345 389 403 495 
1335 236 234 480 481 
1336 211 478 227 497 
1337 64 101 45 493 
1338 221 236 241 480 
1339 151 78 102 77 
1340 383 354 403 495 
1341 96 228 171 478 
1342 77 76 102 490 
1343 160 90 106 146 
1344 260 319 174 489 
1345 360 480 339 481 
1346 98 99 275 97 
1347 311 423 310 489 
1348 158 155 135 229 
1349 206 126 252 84 
1350 79 81 166 240 
1351 394 486 484 487 
1352 2 15 101 490 
1353 111 478 170 489 
1354 383 354 318 190 
1355 402 377 371 483 
1356 155 157 160 158 
1357 137 189 408 477 
1358 31 68 67 478 
1359 363 324 325 487 
1360 408 184 137 477 
1361 76 101 70 490 
1362 339 242 234 480 
1363 169 218 172 497 
1364 366 219 369 489 
1365 393 291 403 495 
1366 393 389 290 291 
1367 42 60 91 490 
1368 241 252 234 236 
1369 204 244 233 486 
1370 59 144 134 94 
1371 77 101 76 490 
1372 221 184 330 485 
1373 469 462 439 483 
1374 303 269 486 492 
1375 171 144 96 478 
1376 294 355 425 429 
1377 230 158 155 246 
1378 45 230 85 493 
1379 204 222 244 486 
1380 361 308 344 320 
1381 444 451 436 437 
1382 434 470 435 437 
1383 204 205 154 124 
1384 250 262 298 493 
1385 82 175 167 485 
1386 392 319 423 174 
1387 304 483 377 487 
1388 100 12 50 106 
1389 438 424 369 489 
1390 353 350 196 494 
1391 377 324 340 487 
1392 243 229 264 282 
1393 377 375 340 391 
1394 252 268 110 126 
1395 444 442 346 498 
1396 85 247 155 246 
1397 242 240 241 485 
1398 236 241 110 221 
1399 470 450 430 460 
1400 171 141 144 478 
1401 124 114 112 113 
1402 431 432 433 434 
1403 412 470 432 434 
1404 424 366 369 489 
1405 40 134 96 202 
1406 407 400 401 496 
1407 85 247 250 230 
1408 70 86 101 76 
1409 407 406 408 496 
1410 369 216 438 483 
1411 176 80 81 201 
1412 406 401 427 496 
1413 162 223 275 97 
1414 64 493 190 495 
1415 231 243 232 181 
1416 441 352 440 480 
1417 301 308 484 492 
1418 162 177 222 188 
1419 73 60 48 490 
1420 416 488 312 494 
1421 239 299 483 497 
1422 308 361 344 301 
1423 474 455 443 453 
1424 241 234 242 480 
1425 169 239 218 497 
1426 258 249 276 88 
1427 396 421 357 488 
1428 85 247 246 249 
1429 301 344 308 481 
1430 350 353 332 494 
1431 167 123 179 87 
1432 33 491 31 494 
1433 309 312 311 488 
1434 447 455 444 436 
1435 394 484 492 499 
1436 241 240 83 485 
1437 274 244 253 295 
1438 403 419 393 415 
1439 149 180 99 486 
1440 236 481 110 492 
1441 436 455 444 437 
1442 179 82 167 485 
1443 420 426 300 499 
1444 388 395 404 494 
1445 298 317 250 493 
1446 180 486 110 492 
1447 358 396 357 488 
1448 171 172 216 497 
1449 128 189 137 477 
1450 359 385 387 405 
1451 218 483 216 497 
1452 388 404 196 494 
1453 205 109 110 126 
1454 303 484 308 492 
1455 326 325 323 498 
1456 248 262 250 261 
1457 340 324 363 487 
1458 424 423 366 489 
1459 128 479 477 485 
1460 336 276 318 190 
1461 444 445 437 498 
1462 338 389 290 393 
1463 375 274 363 343 
1464 66 49 62 69 
1465 150 64 85 493 
1466 82 240 175 485 
1467 232 229 156 181 
1468 484 486 394 492 
1469 148 149 99 486 
1470 82 83 240 485 
1471 205 185 126 206 
1472 440 480 352 481 
1473 301 302 344 481 
1474 311 313 423 489 
1475 196 350 388 494 
1476 101 64 2 482 
1477 438 216 286 483 
1478 339 480 234 481 
1479 162 222 223 188 
1480 404 422 196 494 
1481 219 111 170 489 
1482 211 228 239 210 
1483 197 322 321 491 
1484 137 477 184 485 
1485 274 244 273 253 
1486 162 204 145 486 
1487 406 407 417 401 
1488 152 123 167 87 
1489 301 300 302 481 
1490 450 414 430 489 
1491 455 443 442 498 
1492 321 332 353 494 
1493 86 77 161 101 
1494 108 110 126 127 
1495 110 180 149 486 
1496 53 48 73 60 
1497 367 392 365 319 
1498 239 228 211 497 
1499 286 218 98 483 
1500 169 172 218 186 
1501 86 70 101 10 
1502 414 450 483 489 
1503 394 99 486 487 
1504 444 437 455 498 
1505 161 181 86 101 
1506 217 252 83 84 
1507 350 353 388 349 
1508 435 433 434 451 
1509 404 411 390 196 
1510 131 130 129 220 
1511 111 31 141 478 
1512 128 477 137 485 
1513 303 486 484 492 
1514 289 322 197 491 
1515 395 422 404 494 
1516 450 465 462 483 
1517 367 392 319 423 
1518 394 286 99 487 
1519 64 2 45 101 
1520 196 411 390 195 
1521 180 394 486 492 
1522 249 246 85 88 
1523 258 277 276 249 
1524 312 416 313 488 
1525 407 401 406 496 
1526 158 238 157 160 
1527 404 411 196 422 
1528 422 416 312 494 
1529 79 81 240 242 
1530 152 87 167 479 
1531 137 183 408 189 
1532 463 476 448 466 
1533 438 439 462 483 
1534 353 374 388 349 
1535 440 182 408 480 
1536 438 369 286 216 
1537 461 465 450 483 
1538 135 156 155 158 
1539 122 123 152 87 
1540 31 174 33 494 
1541 427 406 417 401 
1542 153 171 96 228 
1543 252 217 206 84 
1544 76 70 102 490 
1545 162 99 97 486 
1546 321 353 342 494 
1547 144 96 134 94 
1548 218 286 216 483 
1549 12 50 13 100 
1550 102 70 91 490 
1551 394 99 180 486 
1552 2 24 15 490 
1553 327 382 384 328 
1554 100 54 12 106 
1555 208 176 80 178 
1556 91 121 102 490 
1557 109 108 110 126 
1558 135 156 158 229 
1559 42 70 24 490 
1560 407 189 400 496 
1561 393 389 403 415 
1562 352 351 302 385 
1563 179 167 87 485 
1564 299 211 227 497 
1565 408 183 137 184 
1566 423 219 366 489 
1567 158 230 238 246 
1568 160 157 224 238 
1569 343 375 325 363 
1570 172 169 173 186 
1571 286 98 99 487 
1572 73 48 479 490 
1573 172 153 169 497 
1574 392 488 416 494 
1575 91 70 42 490 
1576 342 353 196 494 
1577 89 75 30 51 
1578 171 478 228 497 
1579 136 14 57 135 
1580 412 430 431 432 
1581 185 252 206 268 
1582 137 184 87 485 
1583 221 236 480 481 
1584 135 156 229 181 
1585 210 209 226 191 
1586 435 432 470 434 
1587 123 82 167 179 
1588 23 22 16 38 
1589 15 26 9 8 
1590 79 81 201 166 
1591 353 374 196 388 
1592 307 295 335 296 
1593 172 218 216 497 
1594 128 479 48 490 
1595 443 455 474 498 
1596 221 110 236 481 
1597 394 439 286 487 
1598 64 128 2 482 
1599 312 313 311 488 
1600 155 159 13 100 
1601 177 223 222 188 
1602 110 241 179 221 
1603 197 321 342 494 
1604 319 366 423 260 
1605 276 150 258 88 
1606 160 146 220 163 
1607 296 307 253 274 
1608 432 470 460 435 
1609 185 252 217 206 
1610 50 13 14 12 
1611 450 430 310 489 
1612 111 141 170 478 
1613 368 347 346 498 
1614 440 330 182 480 
1615 340 377 391 324 
1616 215 129 130 220 
1617 141 31 111 103 
1618 455 437 474 498 
1619 260 219 423 489 
1620 221 330 440 480 
1621 152 73 122 87 
1622 48 53 52 60 
1623 301 481 308 492 
1624 159 155 160 100 
1625 301 300 481 499 
1626 73 87 152 479 
1627 8 26 9 25 
1628 418 415 403 328 
1629 290 292 393 291 
1630 172 218 186 216 
1631 379 372 314 348 
1632 443 426 410 498 
1633 332 321 322 491 
1634 239 211 299 497 
1635 13 156 155 135 
1636 322 289 321 288 
1637 303 308 269 492 
1638 423 424 366 367 
1639 298 389 345 333 
1640 186 173 172 216 
1641 263 345 389 329 
1642 301 492 484 499 
1643 171 216 170 497 
1644 301 420 300 499 
1645 76 102 78 77 
1646 180 110 280 492 
1647 436 451 435 437 
1648 124 109 205 126 
1649 164 259 278 272 
1650 307 306 253 320 
1651 194 390 411 195 
1652 440 280 480 481 
1653 372 314 348 117 
1654 241 83 179 485 
1655 349 350 353 332 
1656 270 314 174 392 
1657 203 222 204 177 
1658 250 271 276 317 
1659 251 259 278 164 
1660 442 443 410 498 
1661 150 276 249 88 
1662 24 2 48 490 
1663 33 270 314 174 
1664 344 301 378 302 
1665 180 280 394 492 
1666 404 196 374 388 
1667 469 498 487 499 
1668 310 423 450 489 
1669 416 422 395 494 
1670 450 423 424 489 
1671 109 124 108 126 
1672 380 407 400 401 
1673 82 179 83 485 
1674 2 128 48 490 
1675 440 280 221 480 
1676 160 159 157 155 
1677 394 492 280 499 
1678 426 443 468 498 
1679 34 18 35 54 
1680 374 196 404 390 
1681 197 342 196 494 
1682 439 438 286 483 
1683 440 471 280 481 
1684 183 408 182 184 
1685 53 92 73 87 
1686 50 12 47 106 
1687 49 66 62 65 
1688 376 410 368 362 
1689 475 450 465 462 
1690 394 280 452 499 
1691 197 342 321 289 
1692 250 247 248 245 
1693 73 92 122 87 
1694 332 348 314 117 
1695 61 14 50 85 
1696 418 415 419 403 
1697 31 67 111 103 
1698 110 481 280 492 
1699 315 314 392 494 
1700 237 169 207 198 
1701 93 50 47 106 
1702 330 221 440 280 
1703 96 144 95 94 
1704 290 282 283 338 
1705 474 437 468 498 
1706 33 392 314 494 
1707 185 205 268 206 
1708 87 167 479 485 
1709 420 498 426 499 
1710 366 423 260 219 
1711 253 295 296 274 
1712 19 21 18 23 
1713 170 141 171 478 
1714 301 481 492 499 
1715 162 139 177 188 
1716 83 252 241 179 
1717 33 314 332 494 
1718 33 332 491 494 
1719 443 474 468 498 
1720 18 20 30 21 
1721 418 419 427 403 
1722 469 468 470 437 
1723 207 97 237 198 
1724 446 405 425 398 
1725 445 346 326 498 
1726 85 150 249 88 
1727 344 378 360 302 
1728 263 345 298 389 
1729 167 147 123 152 
1730 54 35 34 106 
1731 95 144 96 172 
1732 204 203 177 140 
1733 439 483 286 487 
1734 119 78 102 151 
1735 221 480 280 481 
1736 445 444 346 498 
1737 392 395 315 494 
1738 252 83 84 179 
1739 277 271 276 249 
1740 33 174 392 494 
1741 431 310 430 414 
1742 455 474 454 453 
1743 469 437 470 498 
1744 403 384 354 328 
1745 457 398 397 441 
1746 331 332 322 117 
1747 400 189 407 380 
1748 432 431 412 434 
1749 377 391 324 402 
1750 147 82 167 123 
1751 314 33 332 117 
1752 354 383 370 190 
1753 468 437 469 498 
1754 459 399 456 472 
1755 248 261 250 245 
1756 324 375 363 325 
1757 320 344 235 308 
1758 280 492 481 499 
1759 153 95 96 172 
1760 171 170 478 497 
1761 221 280 110 481 
1762 422 416 313 312 
1763 314 392 33 174 
1764 48 87 73 479 
1765 86 76 77 101 
1766 50 14 46 12 
1767 7 9 8 6 
1768 73 48 53 87 
1769 140 145 133 139 
1770 345 384 354 403 
1771 153 96 171 172 
1772 466 454 467 468 
1773 28 18 34 54 
1774 5 8 1 7 
1775 237 254 223 97 
1776 34 35 37 106 
1777 203 204 154 140 
1778 45 14 61 85 
1779 254 275 223 97 
1780 187 97 207 198 
1781 90 17 106 89 
1782 118 131 130 129 
1783 473 440 457 441 
1784 456 397 458 441 
1785 349 353 321 332 
1786 348 350 349 332 
1787 275 254 98 97 
1788 49 22 16 69 
1789 469 426 498 499 
1790 474 467 454 468 
1791 198 168 169 186 
1792 370 383 354 403 
1793 153 169 95 172 
1794 17 30 29 89 
1795 426 468 469 498 
1796 95 168 173 169 
1797 45 14 56 61 
1798 83 82 84 179 
1799 35 18 20 29 
1800 397 456 457 441 
1801 374 353 364 349 
1802 47 12 46 27 
1803 395 392 416 494 
1804 21 18 20 19 
1805 188 162 139 187 
1806 49 16 22 38 
1807 382 354 384 328 
1808 50 46 14 61 
1809 379 350 348 332 
1810 57 56 4 45 
1811 385 302 360 378 
1812 169 207 198 186 
1813 262 305 263 298 
1814 123 127 82 179 
1815 30 51 29 89 
1816 18 30 29 17 
1817 97 237 98 207 
1818 144 171 96 172 
1819 132 145 133 140 
1820 36 34 35 37 
1821 169 218 207 186 
1822 168 173 169 186 
1823 254 237 98 97 
1824 1 8 6 7 
1825 354 382 403 328 
1826 302 385 351 378 
1827 127 84 82 179 
1828 169 173 95 172 
1829 1 8 11 6 
1830 147 127 82 123 
1831 12 46 50 47 
1832 36 34 37 74 
1833 473 457 456 441 
1834 450 464 461 424 
1835 57 14 56 45 
1836 17 106 89 29 
1837 9 15 8 6 
1838 20 30 29 18 
1839 11 8 15 6 
1840 115 109 124 116 
1841 348 314 379 332 
1842 382 370 354 403 
1843 35 29 37 106 
1844 464 450 461 465 
1845 104 36 37 74 
1846 133 115 145 132 
1847 10 8 15 11 
1848 43 44 26 42 
1849 132 145 124 115 
1850 5 8 11 1 
1851 110 115 109 205 
1852 182 280 330 440 
1853 380 408 189 407 
1854 476 469 473 466 
1855 446 440 398 449 
1856 463 456 459 443 
1857 182 280 440 471 
1858 385 351 441 352 
1859 450 464 424 475 
1860 434 451 445 437 
1861 374 364 196 390 
1862 266 160 278 272 
1863 131 118 66 129 
1864 65 94 59 134 
1865 290 294 292 291 
1866 80 79 81 201 
1867 39 66 129 478 
1868 469 323 412 483 
1869 192 214 337 488 
1870 75 160 478 488 
1871 220 478 160 488 
1872 357 421 310 489 
1873 33 104 37 491 
1874 189 383 400 496 
1875 22 21 18 30 
1876 18 21 22 23 
1877 22 16 18 23 
1878 221 87 485 179 
1879 485 87 221 184 
1880 361 376 307 362 
1881 361 307 376 301 
1882 441 352 360 385 
1883 360 352 441 480 
1884 360 405 441 385 
1885 441 405 360 480 
1886 161 178 101 77 
1887 161 101 178 181 
1888 482 101 178 77 
1889 482 178 101 181 
1890 126 154 205 124 
1891 126 205 154 185 
1892 400 189 370 383 
1893 400 370 189 380 
1894 225 478 212 358 
1895 212 478 225 226 
1896 103 478 31 67 
1897 31 478 103 141 
1898 252 241 110 236 
1899 110 241 252 179 
1900 202 191 478 40 
1901 202 478 191 210 
1902 220 478 215 129 
1903 399 397 457 398 
1904 399 457 397 456 
1905 319 270 392 365 
1906 319 392 270 174 
1907 414 431 450 430 
1908 414 450 431 483 
1909 412 450 431 430 
1910 412 431 450 483 
1911 326 347 498 346 
1912 326 498 347 325 
1913 115 205 145 124 
1914 204 145 205 124 
1915 204 205 145 233 
1916 247 281 246 249 
1917 247 246 281 287 
1918 63 246 281 249 
1919 63 281 246 287 
1920 405 199 386 359 
1921 405 386 199 477 
1922 25 42 8 26 
1923 25 8 42 10 
1924 341 396 488 193 
1925 488 396 341 358 
1926 209 226 478 212 
1927 478 226 209 191 
1928 223 198 97 187 
1929 223 97 198 237 
1930 235 234 481 339 
1931 481 234 235 236 
1932 308 301 307 361 
1933 289 160 265 267 
1934 440 441 469 352 
1935 440 469 441 473 
1936 466 441 469 473 
1937 253 484 244 273 
1938 495 305 333 338 
1939 495 333 305 298 
1940 389 333 305 338 
1941 389 305 333 298 
1942 487 284 483 254 
1943 487 483 284 304 
1944 299 284 483 304 
1945 176 482 477 80 
1946 477 482 176 479 
1947 477 81 176 80 
1948 176 81 477 479 
1949 443 426 466 448 
1950 443 466 426 468 
1951 440 446 480 408 
1952 440 480 446 398 
1953 405 446 480 398 
1954 230 14 85 155 
1955 230 85 14 45 
1956 429 496 294 355 
1957 294 496 429 428 
1958 478 215 488 220 
1959 478 488 215 212 
1960 214 215 488 212 
1961 279 243 231 208 
1962 279 231 243 283 
1963 375 324 340 391 
1964 375 340 324 363 
1965 40 41 129 39 
1966 129 41 40 191 
1967 129 478 40 39 
1968 40 478 129 191 
1969 493 305 495 243 
1970 493 495 305 298 
1971 360 242 405 199 
1972 360 405 242 480 
1973 477 405 242 199 
1974 477 242 405 480 
1975 347 376 498 368 
1976 347 498 376 420 
1977 410 498 376 368 
1978 401 403 496 383 
1979 401 496 403 427 
1980 495 496 403 383 
1981 123 122 147 138 
1982 123 147 122 152 
1983 400 380 382 370 
1984 400 382 380 381 
1985 328 382 383 381 
1986 383 400 382 370 
1987 383 382 400 381 
1988 163 160 251 220 
1989 163 251 160 164 
1990 278 251 160 220 
1991 278 160 251 164 
1992 146 106 75 89 
1993 146 75 106 37 
1994 75 106 51 89 
1995 75 51 106 37 
1996 51 106 29 89 
1997 51 29 106 37 
1998 233 253 484 244 
1999 233 484 253 303 
2000 314 270 315 392 
2001 314 315 270 316 
2002 239 483 284 254 
2003 284 483 239 299 
2004 104 322 33 117 
2005 104 33 322 491 
2006 332 33 322 117 
2007 332 322 33 491 
2008 91 490 107 121 
2009 107 490 91 60 
2010 229 155 14 230 
2011 229 14 155 135 
2012 57 14 229 135 
2013 493 57 229 135 
2014 439 452 487 394 
2015 439 487 452 469 
2016 499 487 452 394 
2017 499 452 487 469 
2018 357 227 497 371 
2019 357 497 227 478 
2020 396 309 488 193 
2021 488 309 396 421 
2022 28 34 12 54 
2023 106 34 12 47 
2024 106 12 34 54 
2025 498 434 326 445 
2026 446 477 480 408 
2027 480 477 446 405 
2028 11 4 101 105 
2029 11 10 101 15 
2030 101 10 11 105 
2031 481 302 480 300 
2032 481 480 302 360 
2033 352 480 302 300 
2034 352 302 480 360 
2035 442 455 453 443 
2036 442 453 455 447 
2037 202 96 478 228 
2038 202 478 96 40 
2039 291 292 419 293 
2040 419 292 291 403 
2041 290 495 389 338 
2042 389 495 290 291 
2043 360 481 344 302 
2044 344 481 360 339 
2045 126 84 110 252 
2046 126 110 84 127 
2047 179 110 84 252 
2048 179 84 110 127 
2049 263 262 345 329 
2050 263 345 262 298 
2051 498 434 437 470 
2052 498 437 434 445 
2053 414 489 497 357 
2054 497 489 414 483 
2055 497 371 414 357 
2056 414 371 497 483 
2057 235 481 344 339 
2058 344 481 235 308 
2059 120 107 175 165 
2060 479 175 107 165 
2061 485 330 182 184 
2062 485 182 330 480 
2063 408 485 182 184 
2064 408 182 485 480 
2065 477 485 408 184 
2066 477 408 485 480 
2067 495 291 294 355 
2068 264 493 230 229 
2069 466 453 468 443 
2070 466 468 453 454 
2071 474 468 453 443 
2072 474 453 468 454 
2073 483 98 487 254 
2074 483 487 98 286 
2075 261 230 493 250 
2076 493 230 261 264 
2077 495 345 354 403 
2078 495 354 345 333 
2079 499 325 487 484 
2080 499 487 325 498 
2081 499 481 352 300 
2082 67 66 59 65 
2083 67 59 66 68 
2084 69 66 59 68 
2085 398 440 457 449 
2086 398 457 440 441 
2087 489 488 311 313 
2088 78 178 151 142 
2089 151 178 78 77 
2090 241 221 485 179 
2091 241 485 221 480 
2092 249 276 250 271 
2093 73 120 175 152 
2094 175 120 73 107 
2095 175 479 73 152 
2096 73 479 175 107 
2097 489 416 423 392 
2098 489 423 416 313 
2099 275 273 486 297 
2100 275 486 273 222 
2101 2 101 4 45 
2102 190 493 276 318 
2103 264 338 243 282 
2104 243 338 264 305 
2105 494 321 491 197 
2106 494 491 321 332 
2107 256 257 88 255 
2108 442 455 444 447 
2109 442 444 455 498 
2110 154 132 204 124 
2111 154 204 132 140 
2112 145 204 132 124 
2113 145 132 204 140 
2114 88 155 246 85 
2115 61 50 88 85 
2116 50 155 88 85 
2117 50 88 155 93 
2118 488 309 489 311 
2119 488 489 309 421 
2120 310 489 309 311 
2121 310 309 489 421 
2122 181 208 243 178 
2123 181 243 208 231 
2124 492 236 308 269 
2125 492 308 236 481 
2126 296 343 307 274 
2127 484 307 343 274 
2128 340 285 487 297 
2129 340 487 285 304 
2130 307 295 253 306 
2131 253 295 307 296 
2132 497 153 171 172 
2133 497 171 153 228 
2134 169 254 218 239 
2135 483 218 254 239 
2136 483 254 218 98 
2137 124 113 115 114 
2138 115 113 124 132 
2139 258 257 88 256 
2140 258 88 257 281 
2141 145 486 233 148 
2142 233 486 145 204 
2143 62 16 69 49 
2144 34 27 12 47 
2145 34 12 27 28 
2146 426 376 498 420 
2147 498 376 426 410 
2148 4 105 57 45 
2149 150 250 249 276 
2150 249 250 150 85 
2151 474 468 470 467 
2152 474 470 468 437 
2153 461 483 489 438 
2154 489 483 461 450 
2155 489 424 461 438 
2156 461 424 489 450 
2157 223 187 162 188 
2158 162 187 223 97 
2159 476 472 456 473 
2160 476 456 472 463 
2161 458 456 476 463 
2162 448 458 476 463 
2163 469 499 352 426 
2164 46 50 88 61 
2165 46 88 50 93 
2166 42 15 70 10 
2167 42 70 15 24 
2168 490 15 70 24 
2169 139 140 162 177 
2170 139 162 140 145 
2171 204 162 140 177 
2172 204 140 162 145 
2173 42 8 15 10 
2174 116 108 124 125 
2175 116 124 108 109 
2176 18 35 17 29 
2177 18 17 35 54 
2178 106 17 35 29 
2179 106 35 17 54 
2180 403 382 383 328 
2181 403 383 382 370 
2182 190 150 493 64 
2183 190 493 150 276 
2184 63 74 47 34 
2185 47 74 63 93 
2186 137 48 485 87 
2187 137 485 48 128 
2188 479 485 48 87 
2189 479 48 485 128 
2190 368 442 498 346 
2191 498 442 368 410 
2192 398 387 441 405 
2193 398 441 387 397 
2194 457 472 456 399 
2195 457 456 472 473 
2196 411 309 488 312 
2197 411 488 309 193 
2198 265 342 197 289 
2199 265 197 342 337 
2200 478 75 146 160 
2201 146 220 478 160 
2202 314 350 494 315 
2203 314 494 350 332 
2204 266 195 192 337 
2205 266 192 195 194 
2206 488 192 195 337 
2207 488 195 192 194 
2208 62 17 69 16 
2209 278 160 488 220 
2210 488 160 278 337 
2211 278 214 488 337 
2212 74 322 288 289 
2213 74 288 322 117 
2214 207 237 218 169 
2215 207 218 237 98 
2216 254 218 237 169 
2217 254 237 218 98 
2218 481 440 499 352 
2219 469 499 440 352 
2220 469 440 499 452 
2221 43 48 42 24 
2222 490 42 48 24 
2223 490 48 42 60 
2224 41 209 129 213 
2225 41 129 209 191 
2226 478 209 129 191 
2227 388 315 494 350 
2228 388 494 315 395 
2229 478 39 134 40 
2230 299 371 497 227 
2231 299 497 371 483 
2232 483 469 487 439 
2233 491 37 289 104 
2234 74 289 37 104 
2235 406 408 477 409 
2236 477 408 406 496 
2237 308 253 301 303 
2238 308 301 253 307 
2239 484 301 253 303 
2240 484 253 301 307 
2241 458 476 441 448 
2242 466 476 441 473 
2243 466 441 476 448 
2244 62 69 75 66 
2245 146 89 131 72 
2246 131 89 118 72 
2247 496 386 482 495 
2248 496 482 386 477 
2249 499 347 498 325 
2250 499 498 347 420 
2251 479 477 175 166 
2252 479 175 477 485 
2253 240 175 477 166 
2254 240 477 175 485 
2255 498 487 323 469 
2256 483 323 487 469 
2257 483 487 323 324 
2258 11 105 57 4 
2259 57 105 11 58 
2260 215 278 488 220 
2261 215 488 278 214 
2262 490 128 482 2 
2263 490 482 128 479 
2264 325 323 487 324 
2265 325 487 323 498 
2266 373 327 345 329 
2267 373 345 327 384 
2268 441 456 476 458 
2269 441 476 456 473 
2270 129 131 478 66 
2271 129 478 131 220 
2272 146 131 478 220 
2273 31 51 33 32 
2274 29 51 33 37 
2275 29 33 51 32 
2276 65 67 478 134 
2277 478 67 65 66 
2278 478 39 65 134 
2279 65 39 478 66 
2280 18 22 69 16 
2281 69 22 18 30 
2282 69 17 18 16 
2283 18 17 69 30 
2284 307 484 376 301 
2285 149 205 148 115 
2286 145 148 205 115 
2287 145 205 148 233 
2288 124 114 125 112 
2289 116 114 124 115 
2290 116 124 114 125 
2291 426 466 469 468 
2292 441 469 448 466 
2293 441 448 469 352 
2294 426 448 469 466 
2295 426 469 448 352 
2296 14 229 45 57 
2297 14 45 229 230 
2298 493 45 229 57 
2299 493 229 45 230 
2300 326 412 498 323 
2301 326 498 412 434 
2302 469 498 412 323 
2303 470 498 412 469 
2304 412 498 470 434 
2305 2 6 11 15 
2306 2 101 11 4 
2307 11 101 2 15 
2308 495 419 291 403 
2309 427 496 495 294 
2310 495 496 427 403 
2311 495 427 419 403 
2312 483 412 324 323 
2313 66 59 49 69 
2314 66 49 59 65 
2315 88 63 257 281 
2316 287 63 257 117 
2317 287 257 63 281 
2318 307 343 376 484 
2319 347 376 343 484 
2320 15 70 101 490 
2321 15 101 70 10 
2322 42 24 26 43 
2323 49 59 22 69 
2324 37 34 47 74 
2325 47 34 37 106 
2326 37 47 93 74 
2327 93 47 37 106 
2328 37 93 155 74 
2329 155 93 37 106 
2330 265 160 197 337 
2331 488 197 160 337 
2332 289 160 197 265 
2333 30 75 62 69 
2334 62 17 30 69 
2335 329 389 403 345 
2336 403 389 329 415 
2337 329 328 403 415 
2338 384 403 327 328 
2339 384 327 403 345 
2340 329 327 403 328 
2341 329 403 327 345 
2342 440 499 471 481 
2343 440 471 499 452 
2344 280 471 499 481 
2345 280 499 471 452 
2346 48 42 52 43 
2347 48 52 42 60 
2348 44 52 42 43 
2349 44 42 52 60 
2350 209 129 212 478 
2351 209 212 129 213 
2352 215 212 129 478 
2353 215 129 212 213 
2354 37 289 197 491 
2355 37 197 289 160 
2356 488 37 197 491 
2357 488 197 37 160 
2358 75 37 488 491 
2359 75 488 37 160 
2360 405 477 406 496 
2361 477 409 405 406 
2362 477 405 409 446 
2363 429 405 409 406 
2364 429 409 405 446 
2365 307 343 347 376 
2366 307 362 347 335 
2367 347 362 307 376 
2368 246 287 74 63 
2369 246 74 287 288 
2370 117 74 287 63 
2371 117 287 74 288 
2372 428 427 293 294 
2373 428 293 427 419 
2374 291 293 495 294 
2375 291 495 293 419 
2376 293 427 495 294 
2377 293 495 427 419 
2378 347 296 307 335 
2379 307 296 347 343 
2380 63 255 257 117 
2381 63 257 255 88 
2382 1 2 11 4 
2383 1 11 2 6 
2384 413 483 324 402 
2385 413 324 483 412 
2386 15 42 26 8 
2387 15 26 42 24 
2388 55 49 22 38 
2389 55 22 49 59 
2390 289 74 246 288 
2391 246 267 289 288 
2392 289 267 246 160 
2393 289 37 246 74 
2394 289 246 37 160 
2395 155 246 37 74 
2396 155 37 246 160 
2397 89 131 75 146 
2398 478 75 131 146 
2399 478 131 75 66 
2400 118 131 75 89 
2401 75 131 118 66 
2402 118 62 75 66 
2403 72 118 75 89 
2404 72 75 118 62 
2405 51 33 75 31 
2406 51 75 33 37 
2407 491 75 33 31 
2408 491 33 75 37 
2409 205 148 486 149 
2410 205 486 148 233 
2411 246 88 93 155 
2412 93 88 246 63 
2413 93 74 246 155 
2414 246 74 93 63 
2415 62 17 75 30 
2416 62 75 17 72 
2417 89 75 17 30 
2418 89 17 75 72 
$EndElements
