ply
format ascii 1.0
comment VCGLIB generated
element vertex 483
property float x
property float y
property float z
element face 876
property list uchar int vertex_indices
property float quality
end_header
-113.348 -141.121 -54.9834 
-115.037 -141.309 -54.8924 
-114.389 -140.707 -54.8747 
-114.562 -139.853 -54.5909 
-116.621 -141.684 -54.5796 
-117.325 -138.619 -54.0583 
-117.792 -139.27 -54.2995 
-119.206 -139.35 -54.0148 
-120.247 -136.883 -52.3847 
-119.805 -134.798 -52.5887 
-119.975 -136.296 -52.9387 
-118.081 -136.019 -53.2386 
-119.861 -133.277 -51.8601 
-119 -132.794 -51.2192 
-119.259 -133.676 -52.3583 
-117.836 -134.355 -52.318 
-111.367 -143.352 -56.059 
-111.794 -144.546 -55.3271 
-112.902 -144.3 -55.0138 
-115.527 -144.451 -53.905 
-113.73 -145.128 -54.4991 
-115.799 -145.176 -54.0115 
-116.385 -144.369 -53.6555 
-118.025 -145.058 -53.78 
-117.939 -144.305 -53.2578 
-117.706 -143.988 -54.5273 
-118.748 -140.473 -54.2381 
-119.872 -141.542 -53.4123 
-120.415 -139.872 -53.4426 
-120.549 -138.356 -53.1418 
-119.787 -137.014 -53.1896 
-119.253 -138.31 -53.8716 
-111.726 -141.814 -55.5685 
-110.764 -142.532 -55.9731 
-112.304 -142.756 -55.7592 
-110.673 -140.888 -54.7845 
-111.857 -141.072 -54.9941 
-121.186 -144.59 -48.1481 
-121.231 -142.921 -49.5008 
-121.015 -144.391 -49.8304 
-121.008 -144.014 -50.9121 
-121.044 -143.24 -51.7114 
-117.037 -133.98 -51.2785 
-115.114 -135.361 -51.7631 
-114.366 -134.481 -47.8512 
-114.629 -133.936 -48.8279 
-115.806 -133.298 -48.7478 
-109.073 -143.571 -56.1177 
-109.414 -144.276 -55.574 
-110.956 -145.249 -55.1117 
-119.784 -145.567 -44.811 
-120.566 -145.1 -43.9219 
-120.889 -145.294 -45.8744 
-108.174 -142.729 -56.0139 
-109.865 -141.517 -55.3944 
-107.146 -143.401 -56.0153 
-108.039 -143.935 -56.1184 
-108.016 -144.851 -55.5421 
-112.132 -137.45 -50.7964 
-113.418 -137.869 -52.1136 
-113.175 -136.725 -50.7192 
-106.332 -143.627 -55.1329 
-106.854 -144.607 -55.242 
-106.141 -143.26 -56.0623 
-121.089 -144.663 -44.7939 
-120.838 -143.938 -43.5993 
-117.953 -143.373 -42.0483 
-119.263 -143.02 -42.2258 
-119.202 -143.56 -42.1161 
-119.757 -145.341 -42.4571 
-120.671 -144.579 -42.7228 
-109.379 -139.96 -53.859 
-111.023 -139.871 -53.7483 
-112.618 -139.154 -53.1968 
-114.403 -137.643 -52.4452 
-115.577 -136.242 -52.9038 
-114.445 -136.172 -51.373 
-114.704 -134.574 -50.5587 
-110.646 -141.583 -55.2208 
-113.138 -140.272 -54.5335 
-113.599 -138.722 -53.1124 
-114.183 -143.29 -54.9321 
-113.711 -141.743 -55.0803 
-107.09 -142.211 -55.278 
-106.523 -142.814 -55.105 
-108.111 -140.735 -54.6323 
-110.367 -139.515 -53.0571 
-110.183 -138.878 -52.2137 
-110.775 -138.223 -51.1573 
-109.196 -138.643 -52.1398 
-105.852 -140.795 -53.7887 
-107.645 -139.608 -53.483 
-105.674 -140.116 -52.863 
-106.065 -142.725 -54.0377 
-105.856 -143.338 -54.0495 
-110.204 -142.374 -41.6246 
-109.588 -142.805 -42.0142 
-108.319 -141.628 -41.7789 
-107.644 -142.25 -42.3549 
-106.311 -140.818 -42.9692 
-107.693 -140.579 -42.3937 
-106.747 -141.642 -42.8068 
-105.195 -144.074 -49.6207 
-106.537 -145.408 -49.2895 
-105.166 -143.913 -50.711 
-115.155 -142.584 -54.6367 
-105.579 -141.752 -54.3183 
-105.568 -141.761 -51.6494 
-105.354 -141.314 -54.2186 
-105.335 -141.273 -52.0202 
-105.147 -140.206 -51.5499 
-105.219 -139.794 -49.7484 
-105.204 -139.501 -50.3969 
-104.822 -139.15 -48.6826 
-104.981 -139.061 -50.4778 
-104.733 -138.465 -49.7198 
-110.408 -136.841 -46.9158 
-108.667 -137.578 -45.9713 
-109.399 -137.475 -47.0901 
-107.131 -137.847 -49.9907 
-105.12 -137.946 -48.2666 
-106.615 -138.154 -50.2816 
-105.737 -139.131 -51.8079 
-120.39 -144.077 -42.3663 
-114.919 -138.611 -53.9436 
-117.071 -137.784 -53.9059 
-116.561 -136.978 -53.5346 
-117.506 -135.1 -52.7472 
-106.061 -141.856 -54.8933 
-105.92 -145.057 -54.5319 
-105.14 -143.933 -53.5205 
-115.854 -145.424 -44.7284 
-115.725 -144.819 -43.733 
-117.355 -144.849 -43.6388 
-108.069 -145.532 -54.7134 
-117.576 -145.532 -45.3374 
-118.159 -145.347 -43.9482 
-115.317 -138.987 -54.2801 
-116.348 -140.297 -54.5938 
-117.222 -142.253 -54.2854 
-115.588 -143.247 -54.1952 
-118.586 -144.676 -52.9185 
-118.375 -144.859 -42.2887 
-118.931 -144.013 -42.6803 
-119.744 -145.307 -51.9631 
-118.263 -145.456 -52.084 
-119.595 -145.405 -50.3016 
-120.391 -144.682 -50.337 
-120.151 -145.315 -49.7716 
-117.469 -140.664 -54.3451 
-106.221 -145.495 -53.183 
-120.429 -145.434 -48.5506 
-120.836 -145.113 -49.1944 
-118.423 -141.613 -54.1655 
-118.893 -142.862 -53.4354 
-106.431 -142.672 -52.8352 
-105.695 -143.025 -52.4398 
-105.895 -142.333 -52.2466 
-105.157 -141.248 -51.0817 
-105.174 -140.459 -49.5364 
-104.75 -138.506 -47.4675 
-104.457 -138.303 -49.41 
-105.241 -137.851 -46.2933 
-107.478 -137.941 -44.3593 
-108.183 -137.85 -44.3151 
-108.601 -137.848 -43.7497 
-109.066 -138.539 -42.9545 
-108.014 -138.924 -42.867 
-106.883 -138.889 -43.5295 
-105.981 -139.557 -43.8186 
-116.662 -143.203 -54.0019 
-119.461 -143.984 -53.3662 
-118.357 -145.318 -42.7913 
-118.747 -136.933 -53.5191 
-107.828 -139.245 -53.1529 
-109.465 -139.156 -53.0418 
-119.158 -143.552 -53.3468 
-114.947 -145.833 -52.5161 
-117.865 -145.306 -53.6868 
-109.024 -138.183 -50.999 
-110.062 -138.056 -50.4634 
-111.055 -137.165 -49.1102 
-112.441 -136.838 -50.0178 
-111.676 -136.821 -48.7787 
-120.664 -141.167 -52.7323 
-119.575 -142.728 -52.9383 
-120.004 -143.302 -52.9725 
-120.628 -139.281 -52.5978 
-109.57 -146.04 -52.79 
-111.252 -145.965 -51.211 
-112.407 -146.005 -53.0339 
-121.007 -138.525 -52.3167 
-121.152 -141.164 -51.8091 
-121.214 -137.222 -51.3544 
-105.216 -143.659 -52.0991 
-120.442 -142.953 -52.7077 
-107.405 -138.978 -52.326 
-111.02 -137.446 -50.2308 
-109.616 -137.53 -48.3386 
-106.806 -138.175 -51.0614 
-109.372 -138.144 -49.2933 
-111.418 -138.526 -52.0707 
-120.425 -143.991 -52.2735 
-116.494 -144.276 -43.6089 
-106.818 -145.526 -51.3688 
-113.856 -145.535 -43.0033 
-112.027 -145.488 -41.8291 
-113.174 -145.176 -41.1652 
-115.629 -145.259 -43.7652 
-114.188 -144.389 -42.6539 
-115.911 -142.594 -42.5492 
-115.267 -142.792 -42.2798 
-115.392 -140.779 -41.7702 
-118.309 -140.016 -42.5387 
-117.631 -140.915 -42.483 
-117.544 -139.588 -42.405 
-119.842 -141.489 -42.8211 
-118.593 -140.926 -42.6205 
-119.079 -140.334 -43.1113 
-119.988 -140.426 -43.2476 
-120.681 -141.245 -43.6558 
-119.461 -139.252 -43.9647 
-105.15 -144.661 -51.9545 
-120.588 -134.067 -51.3224 
-120.911 -135.227 -51.7061 
-121.135 -134.229 -50.9768 
-105.184 -143.006 -51.2328 
-105.213 -141.716 -50.9955 
-120.476 -133.565 -51.7364 
-120.252 -132.446 -51.1962 
-105.13 -143.141 -49.4315 
-121.166 -132.932 -50.4337 
-105.432 -138.58 -50.8289 
-108.721 -137.592 -48.1262 
-116.547 -133.548 -48.5568 
-116.184 -133.701 -47.8332 
-116.953 -134.491 -46.9728 
-116.764 -132.769 -49.7096 
-113.701 -136.128 -50.3934 
-108.193 -137.849 -48.9464 
-107.781 -138.143 -50.3524 
-111.015 -136.722 -48.3456 
-111.8 -136.367 -47.9954 
-105.809 -141.855 -49.4986 
-119.047 -133.6 -48.492 
-119.653 -132.899 -48.8326 
-120.122 -133.79 -47.5716 
-119.337 -133.868 -47.7607 
-119.813 -134.373 -47.3665 
-119.295 -136.662 -45.8173 
-118.081 -136.651 -44.485 
-118.633 -135.521 -46.6265 
-114.063 -134.835 -49.3992 
-118.449 -132.66 -49.8652 
-115.46 -133.479 -49.6427 
-105.197 -141.577 -48.2292 
-120.881 -132.478 -49.3114 
-105.545 -140.86 -49.5737 
-105.429 -141.275 -49.243 
-118.171 -132.829 -49.0242 
-113.232 -135.345 -48.9028 
-118.357 -134.342 -47.7743 
-115.308 -134.786 -46.1199 
-116.708 -135.483 -44.9564 
-113.679 -134.758 -47.1491 
-104.354 -138.291 -47.4894 
-121.256 -133.692 -48.9168 
-109.307 -145.754 -46.0849 
-111.536 -145.893 -47.8697 
-110.936 -136.297 -46.1194 
-110.409 -136.927 -44.5623 
-105.6 -145.218 -48.6057 
-105.035 -144.727 -48.1273 
-109.55 -145.641 -43.3121 
-110.543 -145.345 -41.0357 
-120.507 -135.159 -47.6599 
-120.98 -136.326 -47.8752 
-120.315 -136.07 -47.1663 
-121.139 -138.156 -47.531 
-121.239 -135.745 -48.7026 
-105.205 -138.313 -45.4821 
-104.654 -138.497 -46.5764 
-120.961 -134.903 -48.3502 
-112.581 -135.6 -46.1272 
-110.578 -137.527 -42.4561 
-112.07 -136.915 -42.4019 
-112.446 -137.321 -41.8479 
-105.185 -143.997 -42.5202 
-105.165 -143.462 -42.2245 
-105.852 -143.844 -41.5874 
-105.85 -142.677 -42.3564 
-105.706 -142.327 -43.048 
-105.595 -141.737 -43.4862 
-104.968 -142.082 -45.0023 
-105.244 -141.148 -44.0262 
-105.156 -140.278 -44.516 
-111.551 -144.879 -41.3848 
-110.2 -137.003 -43.3938 
-104.867 -139.191 -47.1155 
-105.118 -139.559 -46.7534 
-104.568 -138.973 -45.1504 
-105.256 -139.533 -44.9941 
-105.1 -140.353 -46.3529 
-105.105 -144.567 -45.2824 
-105.161 -143.959 -44.0834 
-110.611 -144.943 -41.0803 
-119.611 -135.09 -46.8823 
-112.63 -135.505 -44.5674 
-113.715 -134.846 -45.4975 
-107.498 -145.509 -43.7895 
-108.41 -145.122 -43.0137 
-114.929 -134.515 -46.9253 
-120.317 -137.146 -46.3193 
-120.662 -137.903 -46.3343 
-120.906 -138.621 -46.2145 
-120.443 -139.18 -45.4758 
-121.008 -139.675 -46.6609 
-120.688 -139.867 -45.5886 
-120.993 -141.233 -45.5883 
-120.571 -140.109 -44.3136 
-121.051 -141.055 -44.5503 
-108.381 -144.899 -42.207 
-108.987 -145.344 -40.6543 
-108.458 -144.894 -40.6006 
-109.733 -145.013 -40.3278 
-114.53 -134.556 -45.7703 
-104.511 -138.876 -46.3472 
-105.158 -143.139 -43.579 
-120.17 -135.996 -46.6958 
-111.335 -136.35 -44.6968 
-120.141 -137.53 -45.3815 
-119.988 -138.558 -44.6958 
-120.72 -142.093 -44.77 
-121.128 -142.928 -45.1604 
-107.49 -145.176 -42.1035 
-106.008 -138.174 -44.9013 
-120.313 -138.928 -44.74 
-105.86 -145.454 -45.8379 
-106.428 -145.33 -43.9155 
-114.941 -134.912 -44.9129 
-117.484 -136.903 -43.8188 
-117.89 -138.763 -42.8458 
-115.991 -138.043 -42.3054 
-115.443 -139.418 -42.1212 
-107.107 -144.294 -42.0597 
-108.096 -143.785 -41.7618 
-106.876 -143.709 -41.7083 
-107.268 -143.467 -41.4994 
-107.413 -142.9 -42.2966 
-109.432 -143.487 -42.0618 
-114.11 -134.837 -44.087 
-121.065 -142.275 -42.5263 
-120.658 -143.162 -42.3342 
-106.631 -145.342 -42.6789 
-116.022 -136.016 -43.7175 
-113.195 -136.128 -43.0693 
-114.546 -135.875 -43.1502 
-120.5 -139.627 -43.7276 
-120.995 -141.994 -43.9272 
-105.651 -139.948 -44.32 
-120.441 -142.08 -42.0545 
-118.931 -141.852 -42.1846 
-106.08 -144.477 -41.9919 
-116.283 -136.818 -42.8427 
-111.704 -136.91 -43.4475 
-106.811 -142.693 -42.7304 
-121.191 -143.735 -44.3243 
-114.254 -136.198 -42.6055 
-112.284 -136.459 -42.8209 
-117.334 -142.87 -42.641 
-118.193 -142.07 -42.607 
-117.552 -144.345 -42.595 
-110.505 -138.742 -42.2537 
-109.825 -140.958 -41.7086 
-111.827 -138.962 -41.7086 
-114.374 -141.855 -41.6952 
-111.497 -141.974 -41.6846 
-110.587 -140.664 -41.5678 
-116.663 -143.478 -42.9676 
-117.678 -143.681 -41.7346 
-113.724 -136.585 -42.1577 
-111.471 -138.219 -41.6641 
-113.907 -139.84 -41.7061 
-111.411 -143.967 -41.97 
-112.121 -142.923 -41.9926 
-113.191 -144.059 -42.3675 
-114.89 -137.862 -41.8639 
-108.675 -144.268 -42.7892 
-109.056 -144.349 -42.1005 
-109.816 -144.284 -41.7266 
-108.946 -144.521 -40.9267 
-113.934 -137.634 -41.7041 
-114.473 -138.932 -41.9891 
-112.207 -145.374 -54.8012 
-111.26 -145.827 -54.0732 
-113.469 -145.451 -54.3036 
-121.275 -136.115 -48.887 
-121.454 -133.759 -49.5509 
-121.381 -136.727 -49.9209 
-107.405 -145.612 -46.144 
-107.524 -145.641 -48.0467 
-105.628 -145.466 -47.2611 
-116.778 -145.757 -47.6846 
-117.85 -145.802 -49.0859 
-107.826 -145.745 -54.0403 
-109.948 -146.01 -53.4518 
-109.723 -145.611 -54.7626 
-113.096 -145.829 -47.2787 
-115.286 -145.597 -45.4813 
-114.485 -145.558 -44.4879 
-110.713 -145.677 -44.1068 
-114.208 -145.92 -50.4682 
-119.183 -145.513 -50.1941 
-116.145 -145.842 -51.4087 
-121.341 -141.346 -50.433 
-121.355 -140.154 -49.2535 
-106.836 -145.572 -45.0678 
-119.365 -145.676 -45.9599 
-108.867 -145.824 -50.9786 
-104.765 -143.823 -47.1868 
-104.849 -144.202 -45.7855 
-105.017 -145.107 -47.2272 
-107.253 -145.82 -53.1428 
-107.794 -145.68 -50.5906 
-121.439 -135.014 -50.3532 
-117.09 -145.613 -46.0987 
-121.269 -138.936 -48.1197 
-121.128 -140.689 -47.2749 
-121.087 -142.178 -45.9711 
-121.168 -142.852 -48.2688 
-121.196 -144.61 -47.848 
-113.933 -145.683 -53.5556 
-111.538 -145.611 -42.8763 
-121.32 -138.567 -51.0832 
-105.159 -140.241 -48.8561 
-105.277 -139.587 -49.2039 
-105.055 -141.623 -46.5816 
-105.298 -145.406 -46.6303 
-121.229 -144.884 -46.3884 
-121.043 -145.338 -47.7473 
-116.034 -140.094 -48.0257 
-111.769 -141.328 -47.152 
-114.297 -138.464 -45.375 
-109.004 -141.712 -51.0122 
-108.74 -141.036 -45.7305 
-114.931 -141.327 -51.6001 
-116.475 -136.879 -49.0242 
-117.962 -140.329 -51.1109 
-117.792 -142.372 -45.6309 
-108.056 -140.505 -48.3227 
-112.592 -140.332 -49.9131 
-114.556 -141.753 -45.4378 
-111.238 -143.012 -52.804 
-118.401 -142.81 -48.5346 
-111.342 -139.575 -44.6655 
-113.404 -141.747 -52.417 
-118.625 -143.451 -51.021 
-118.655 -139.708 -47.1762 
-114.885 -143.286 -48.6878 
-118.766 -137.663 -47.9608 
-118.787 -135.637 -50.1706 
-114.317 -138.052 -48.9957 
-108.795 -142.895 -53.5927 
-107.507 -143.462 -44.9777 
-116.542 -139.951 -44.9193 
-118.933 -138.358 -50.4502 
-119.115 -142.777 -44.0807 
-107.401 -143.38 -50.9074 
-106.971 -139.701 -45.7948 
-107.75 -143.168 -47.725 
-111.001 -142.217 -44.5363 
-113.863 -144.416 -52.3276 
-113.062 -138.491 -43.4593 
-119.013 -136.039 -48.5813 
-119.16 -140.936 -44.9569 
-116.606 -140.893 -44.2995 
-115.932 -137.115 -46.6322 
-108.804 -142.11 -43.654 
-107.147 -140.35 -51.0075 
-111.099 -139.356 -48.2494 
-111.332 -143.095 -49.6031 
-116.035 -138.684 -50.7778 
-114.869 -137.747 -43.6404 
3 0 1 2 0 
3 1 0 82 0 
3 36 0 2 0 
3 36 32 0 0 
3 32 82 0 0 
3 2 1 3 0 
3 3 1 4 0 
3 4 1 105 0 
3 1 82 105 0 
3 2 3 79 0 
3 36 2 79 0 
3 138 3 4 0 
3 79 3 124 0 
3 137 124 3 0 
3 137 3 138 0 
3 4 105 139 0 
3 149 138 4 0 
3 149 4 139 0 
3 5 6 7 0 
3 5 137 6 0 
3 125 5 7 0 
3 125 124 5 0 
3 137 5 124 0 
3 7 6 26 0 
3 6 149 26 0 
3 6 137 149 0 
3 28 7 26 0 
3 7 28 29 0 
3 7 29 31 0 
3 31 125 7 0 
3 8 9 10 0 
3 224 9 8 0 
3 10 30 8 0 
3 30 29 8 0 
3 191 8 29 0 
3 193 8 191 0 
3 8 193 224 0 
3 11 10 9 0 
3 127 11 9 0 
3 9 14 15 0 
3 14 9 223 0 
3 127 9 15 0 
3 223 9 224 0 
3 10 11 173 0 
3 173 30 10 0 
3 127 126 11 0 
3 126 173 11 0 
3 12 13 14 0 
3 13 12 229 0 
3 228 12 14 0 
3 229 12 228 0 
3 13 15 14 0 
3 13 42 15 0 
3 42 13 237 0 
3 253 13 229 0 
3 237 13 253 0 
3 228 14 223 0 
3 15 42 43 0 
3 43 127 15 0 
3 16 17 18 0 
3 48 17 16 0 
3 34 16 18 0 
3 32 33 16 0 
3 32 16 34 0 
3 33 47 16 0 
3 16 47 48 0 
3 18 17 20 0 
3 17 49 20 0 
3 17 48 49 0 
3 18 20 19 0 
3 81 18 19 0 
3 34 18 82 0 
3 81 82 18 0 
3 19 20 21 0 
3 19 21 22 0 
3 19 22 25 0 
3 170 19 25 0 
3 81 19 140 0 
3 170 140 19 0 
3 21 20 177 0 
3 49 393 20 0 
3 20 431 177 0 
3 20 393 395 0 
3 431 20 395 0 
3 21 23 22 0 
3 23 21 178 0 
3 21 177 178 0 
3 22 23 24 0 
3 22 24 25 0 
3 24 23 141 0 
3 23 178 141 0 
3 171 25 24 0 
3 171 24 141 0 
3 176 170 25 0 
3 25 171 176 0 
3 26 27 28 0 
3 26 153 27 0 
3 153 26 149 0 
3 28 27 184 0 
3 153 154 27 0 
3 185 27 154 0 
3 184 27 185 0 
3 29 28 187 0 
3 28 184 187 0 
3 29 30 31 0 
3 29 187 191 0 
3 30 173 31 0 
3 125 31 173 0 
3 78 33 32 0 
3 32 34 82 0 
3 35 32 36 0 
3 78 32 35 0 
3 33 53 47 0 
3 33 54 53 0 
3 54 33 78 0 
3 71 35 36 0 
3 54 78 35 0 
3 85 54 35 0 
3 85 35 71 0 
3 71 36 72 0 
3 36 73 72 0 
3 73 36 79 0 
3 37 38 39 0 
3 37 430 38 0 
3 39 152 37 0 
3 152 439 37 0 
3 37 439 430 0 
3 39 38 40 0 
3 41 40 38 0 
3 192 41 38 0 
3 38 414 192 0 
3 414 38 415 0 
3 415 38 429 0 
3 38 430 429 0 
3 40 147 39 0 
3 147 152 39 0 
3 41 202 40 0 
3 40 144 147 0 
3 202 144 40 0 
3 192 195 41 0 
3 195 202 41 0 
3 43 42 237 0 
3 74 75 43 0 
3 74 43 76 0 
3 43 75 127 0 
3 76 43 77 0 
3 237 77 43 0 
3 44 45 46 0 
3 252 45 44 0 
3 46 311 44 0 
3 260 252 44 0 
3 260 44 264 0 
3 325 264 44 0 
3 44 311 325 0 
3 254 46 45 0 
3 252 77 45 0 
3 45 77 254 0 
3 46 234 235 0 
3 46 237 234 0 
3 46 235 311 0 
3 254 237 46 0 
3 47 57 48 0 
3 53 56 47 0 
3 47 56 57 0 
3 48 57 49 0 
3 57 134 49 0 
3 134 406 49 0 
3 393 49 406 0 
3 50 51 52 0 
3 51 50 70 0 
3 52 417 50 0 
3 69 70 50 0 
3 50 136 69 0 
3 135 136 50 0 
3 50 417 135 0 
3 64 52 51 0 
3 64 51 65 0 
3 51 70 65 0 
3 64 438 52 0 
3 417 52 439 0 
3 52 438 439 0 
3 85 53 54 0 
3 53 55 56 0 
3 83 55 53 0 
3 85 83 53 0 
3 61 56 55 0 
3 55 63 61 0 
3 63 55 84 0 
3 83 84 55 0 
3 62 57 56 0 
3 61 62 56 0 
3 62 134 57 0 
3 58 59 60 0 
3 201 59 58 0 
3 58 60 182 0 
3 88 58 197 0 
3 88 201 58 0 
3 197 58 182 0 
3 60 59 76 0 
3 59 73 80 0 
3 201 73 59 0 
3 59 74 76 0 
3 80 74 59 0 
3 60 76 238 0 
3 60 238 182 0 
3 61 94 62 0 
3 61 63 93 0 
3 61 93 94 0 
3 62 94 129 0 
3 62 129 134 0 
3 93 63 84 0 
3 65 366 64 0 
3 366 438 64 0 
3 65 70 352 0 
3 351 65 352 0 
3 351 366 65 0 
3 66 67 68 0 
3 66 370 67 0 
3 66 68 143 0 
3 143 371 66 0 
3 369 370 66 0 
3 379 369 66 0 
3 66 371 379 0 
3 68 67 123 0 
3 123 67 352 0 
3 67 360 352 0 
3 361 360 67 0 
3 370 361 67 0 
3 143 68 123 0 
3 69 123 70 0 
3 123 69 142 0 
3 136 172 69 0 
3 172 142 69 0 
3 123 352 70 0 
3 71 72 86 0 
3 85 71 91 0 
3 175 71 86 0 
3 91 71 174 0 
3 174 71 175 0 
3 72 73 201 0 
3 72 201 86 0 
3 73 79 80 0 
3 75 74 124 0 
3 74 80 124 0 
3 124 126 75 0 
3 75 126 127 0 
3 238 76 77 0 
3 237 254 77 0 
3 238 77 252 0 
3 79 124 80 0 
3 81 105 82 0 
3 105 81 140 0 
3 84 83 128 0 
3 128 83 85 0 
3 93 84 106 0 
3 84 128 106 0 
3 90 85 91 0 
3 90 128 85 0 
3 175 86 87 0 
3 87 86 201 0 
3 87 88 89 0 
3 87 201 88 0 
3 89 174 87 0 
3 174 175 87 0 
3 89 88 179 0 
3 179 88 180 0 
3 180 88 197 0 
3 196 174 89 0 
3 199 89 179 0 
3 196 89 199 0 
3 90 91 92 0 
3 109 90 92 0 
3 108 90 109 0 
3 90 108 128 0 
3 174 92 91 0 
3 109 92 110 0 
3 122 110 92 0 
3 92 174 122 0 
3 94 93 155 0 
3 93 106 157 0 
3 93 157 155 0 
3 129 94 130 0 
3 94 156 130 0 
3 94 155 156 0 
3 95 96 97 0 
3 96 95 384 0 
3 97 373 95 0 
3 373 377 95 0 
3 95 377 376 0 
3 376 384 95 0 
3 97 96 98 0 
3 98 96 349 0 
3 383 349 96 0 
3 96 384 383 0 
3 100 97 98 0 
3 97 100 373 0 
3 365 100 98 0 
3 98 349 348 0 
3 365 98 348 0 
3 99 100 101 0 
3 168 100 99 0 
3 292 99 101 0 
3 168 99 169 0 
3 169 99 294 0 
3 294 99 292 0 
3 365 101 100 0 
3 168 167 100 0 
3 100 167 373 0 
3 290 291 101 0 
3 101 365 290 0 
3 291 292 101 0 
3 102 103 104 0 
3 102 271 103 0 
3 102 104 230 0 
3 102 230 272 0 
3 271 102 272 0 
3 204 104 103 0 
3 103 423 204 0 
3 271 401 103 0 
3 103 401 400 0 
3 423 103 400 0 
3 222 104 204 0 
3 222 226 104 0 
3 226 230 104 0 
3 140 139 105 0 
3 107 106 108 0 
3 157 106 107 0 
3 106 128 108 0 
3 107 108 109 0 
3 109 158 107 0 
3 107 227 157 0 
3 227 107 158 0 
3 109 110 158 0 
3 111 110 112 0 
3 159 110 111 0 
3 122 112 110 0 
3 158 110 159 0 
3 112 435 111 0 
3 111 434 159 0 
3 434 111 435 0 
3 122 114 112 0 
3 114 435 112 0 
3 113 114 115 0 
3 113 435 114 0 
3 113 115 160 0 
3 113 160 298 0 
3 298 435 113 0 
3 232 115 114 0 
3 122 232 114 0 
3 115 121 161 0 
3 115 232 121 0 
3 160 115 161 0 
3 116 117 118 0 
3 117 116 269 0 
3 118 241 116 0 
3 241 242 116 0 
3 242 269 116 0 
3 117 233 118 0 
3 164 239 117 0 
3 164 117 297 0 
3 239 233 117 0 
3 117 269 270 0 
3 297 117 270 0 
3 233 198 118 0 
3 118 198 241 0 
3 119 120 121 0 
3 162 120 119 0 
3 121 240 119 0 
3 162 119 239 0 
3 240 239 119 0 
3 161 121 120 0 
3 265 161 120 0 
3 162 265 120 0 
3 232 199 121 0 
3 199 240 121 0 
3 122 174 196 0 
3 122 196 232 0 
3 123 142 143 0 
3 124 125 126 0 
3 173 126 125 0 
3 129 130 150 0 
3 134 129 150 0 
3 222 150 130 0 
3 156 194 130 0 
3 130 194 222 0 
3 131 132 133 0 
3 131 208 132 0 
3 135 131 133 0 
3 135 425 131 0 
3 131 205 208 0 
3 131 409 205 0 
3 409 131 408 0 
3 131 425 408 0 
3 132 203 133 0 
3 211 203 132 0 
3 132 208 209 0 
3 209 211 132 0 
3 135 133 136 0 
3 136 133 172 0 
3 133 371 172 0 
3 133 203 371 0 
3 150 404 134 0 
3 134 404 406 0 
3 425 135 417 0 
3 137 138 149 0 
3 139 140 170 0 
3 153 149 139 0 
3 153 139 154 0 
3 139 170 154 0 
3 144 141 145 0 
3 144 171 141 0 
3 141 178 145 0 
3 142 371 143 0 
3 172 371 142 0 
3 144 145 146 0 
3 147 144 146 0 
3 171 144 202 0 
3 145 412 146 0 
3 177 145 178 0 
3 177 413 145 0 
3 412 145 413 0 
3 147 146 148 0 
3 146 151 148 0 
3 146 412 151 0 
3 147 148 152 0 
3 148 151 152 0 
3 150 222 204 0 
3 204 422 150 0 
3 404 150 422 0 
3 151 439 152 0 
3 417 151 412 0 
3 439 151 417 0 
3 170 176 154 0 
3 186 154 176 0 
3 154 186 185 0 
3 156 155 157 0 
3 226 156 157 0 
3 156 226 194 0 
3 226 157 227 0 
3 257 158 159 0 
3 227 158 258 0 
3 158 257 258 0 
3 258 159 255 0 
3 159 434 255 0 
3 159 258 257 0 
3 160 161 265 0 
3 281 160 265 0 
3 298 160 281 0 
3 163 162 164 0 
3 335 162 163 0 
3 162 239 164 0 
3 265 162 281 0 
3 162 280 281 0 
3 280 162 335 0 
3 163 164 165 0 
3 163 165 166 0 
3 166 167 163 0 
3 168 163 167 0 
3 168 335 163 0 
3 164 297 165 0 
3 166 165 284 0 
3 165 297 284 0 
3 167 166 373 0 
3 372 166 284 0 
3 166 372 373 0 
3 335 168 169 0 
3 294 359 169 0 
3 301 300 169 0 
3 300 335 169 0 
3 301 169 359 0 
3 186 176 171 0 
3 186 171 202 0 
3 177 190 411 0 
3 190 177 431 0 
3 413 177 411 0 
3 200 179 180 0 
3 199 179 240 0 
3 240 179 200 0 
3 180 197 198 0 
3 180 198 200 0 
3 181 182 183 0 
3 197 182 181 0 
3 181 183 241 0 
3 198 197 181 0 
3 198 181 241 0 
3 183 182 260 0 
3 182 238 260 0 
3 241 183 242 0 
3 242 183 264 0 
3 264 183 260 0 
3 185 195 184 0 
3 187 184 191 0 
3 184 192 191 0 
3 184 195 192 0 
3 185 186 195 0 
3 186 202 195 0 
3 188 189 190 0 
3 418 189 188 0 
3 190 405 188 0 
3 405 422 188 0 
3 188 423 418 0 
3 188 422 423 0 
3 190 189 411 0 
3 267 268 189 503 
3 418 267 189 504 
3 411 189 268 505 
3 394 405 190 0 
3 394 190 431 0 
3 191 192 193 0 
3 192 433 193 0 
3 433 192 414 0 
3 224 193 225 0 
3 193 424 225 0 
3 424 193 433 0 
3 194 226 222 0 
3 199 232 196 0 
3 198 233 200 0 
3 233 239 200 0 
3 239 240 200 0 
3 203 211 210 0 
3 378 203 210 0 
3 371 203 379 0 
3 203 378 379 0 
3 422 204 423 0 
3 205 206 207 0 
3 205 432 206 0 
3 205 207 208 0 
3 432 205 409 0 
3 206 296 207 0 
3 273 274 206 0 
3 206 432 273 0 
3 206 274 296 0 
3 208 207 209 0 
3 209 207 385 0 
3 296 385 207 0 
3 375 211 209 0 
3 209 385 375 0 
3 210 211 212 0 
3 212 214 210 0 
3 214 369 210 0 
3 369 378 210 0 
3 375 212 211 0 
3 214 212 343 0 
3 382 343 212 0 
3 375 382 212 0 
3 213 214 215 0 
3 214 213 370 0 
3 341 213 215 0 
3 213 218 217 0 
3 370 213 217 0 
3 341 218 213 0 
3 343 215 214 0 
3 369 214 370 0 
3 341 215 342 0 
3 342 215 343 0 
3 216 217 218 0 
3 361 217 216 0 
3 216 218 219 0 
3 216 219 220 0 
3 216 220 360 0 
3 216 360 361 0 
3 370 217 361 0 
3 219 218 221 0 
3 341 221 218 0 
3 319 220 219 0 
3 221 357 219 0 
3 357 319 219 0 
3 319 320 220 0 
3 332 220 320 0 
3 332 358 220 0 
3 358 351 220 0 
3 351 360 220 0 
3 221 331 336 0 
3 331 221 341 0 
3 221 336 357 0 
3 223 224 225 0 
3 228 223 225 0 
3 228 225 231 0 
3 225 424 231 0 
3 226 227 230 0 
3 230 227 243 0 
3 227 258 243 0 
3 229 228 231 0 
3 231 256 229 0 
3 253 229 256 0 
3 230 243 255 0 
3 436 230 255 0 
3 230 419 272 0 
3 230 436 419 0 
3 266 256 231 0 
3 231 397 266 0 
3 397 231 424 0 
3 236 235 234 0 
3 261 236 234 0 
3 234 237 259 0 
3 259 244 234 0 
3 234 244 261 0 
3 235 236 311 0 
3 251 236 261 0 
3 251 263 236 0 
3 262 236 263 0 
3 311 236 262 0 
3 253 259 237 0 
3 260 238 252 0 
3 242 264 283 0 
3 242 283 269 0 
3 243 258 255 0 
3 244 245 246 0 
3 259 245 244 0 
3 244 246 247 0 
3 244 247 261 0 
3 245 256 246 0 
3 253 256 245 0 
3 253 245 259 0 
3 248 247 246 0 
3 246 282 248 0 
3 246 256 266 0 
3 246 266 282 0 
3 306 247 248 0 
3 261 247 306 0 
3 248 282 275 0 
3 306 248 275 0 
3 249 250 251 0 
3 249 331 250 0 
3 251 328 249 0 
3 249 328 312 0 
3 249 312 330 0 
3 330 331 249 0 
3 250 263 251 0 
3 340 263 250 0 
3 250 331 340 0 
3 261 306 251 0 
3 306 328 251 0 
3 436 255 434 0 
3 339 262 263 0 
3 311 262 325 0 
3 325 262 339 0 
3 263 354 339 0 
3 354 263 340 0 
3 264 307 283 0 
3 307 264 308 0 
3 308 264 325 0 
3 282 266 279 0 
3 266 397 279 0 
3 268 267 273 0 
3 399 273 267 0 
3 399 267 400 0 
3 418 400 267 0 
3 410 268 273 0 
3 268 402 403 649 
3 402 268 407 650 
3 403 411 268 651 
3 407 268 410 0 
3 269 329 270 0 
3 307 269 283 0 
3 269 307 329 0 
3 270 364 297 0 
3 270 329 364 0 
3 421 271 272 0 
3 401 271 437 0 
3 271 421 437 0 
3 421 272 419 0 
3 273 322 274 0 
3 273 309 310 0 
3 273 399 309 0 
3 273 310 321 0 
3 273 321 323 0 
3 322 273 323 0 
3 410 273 432 0 
3 274 305 296 0 
3 305 274 324 0 
3 274 322 324 0 
3 275 276 277 0 
3 275 282 276 0 
3 306 275 277 0 
3 276 312 277 0 
3 278 276 279 0 
3 313 276 278 0 
3 282 279 276 0 
3 276 313 312 0 
3 306 277 328 0 
3 277 312 328 0 
3 279 396 278 0 
3 313 278 314 0 
3 316 314 278 0 
3 278 426 316 0 
3 426 278 396 0 
3 396 279 397 0 
3 281 280 326 0 
3 326 280 300 0 
3 300 280 335 0 
3 298 281 326 0 
3 284 285 286 0 
3 284 297 285 0 
3 284 286 381 0 
3 284 381 372 0 
3 285 368 286 0 
3 297 364 285 0 
3 368 285 364 0 
3 368 380 286 0 
3 380 391 286 0 
3 286 391 381 0 
3 287 288 289 0 
3 287 327 288 0 
3 289 362 287 0 
3 304 327 287 0 
3 304 287 338 0 
3 338 287 353 0 
3 362 353 287 0 
3 288 290 289 0 
3 290 288 291 0 
3 327 291 288 0 
3 290 346 289 0 
3 289 346 344 0 
3 289 344 362 0 
3 365 346 290 0 
3 327 292 291 0 
3 292 293 294 0 
3 293 292 327 0 
3 294 293 295 0 
3 293 302 295 0 
3 293 436 302 0 
3 303 293 304 0 
3 303 420 293 0 
3 293 327 304 0 
3 419 293 420 0 
3 436 293 419 0 
3 295 359 294 0 
3 302 301 295 0 
3 359 295 301 0 
3 305 383 296 0 
3 383 385 296 0 
3 299 298 300 0 
3 299 435 298 0 
3 298 326 300 0 
3 299 300 301 0 
3 299 301 302 0 
3 302 435 299 0 
3 302 434 435 0 
3 434 302 436 0 
3 338 303 304 0 
3 337 303 338 0 
3 337 437 303 0 
3 420 303 421 0 
3 421 303 437 0 
3 305 324 390 0 
3 383 305 389 0 
3 390 389 305 0 
3 307 308 350 0 
3 329 307 355 0 
3 355 307 350 0 
3 325 339 308 0 
3 308 339 350 0 
3 309 334 310 0 
3 309 353 334 0 
3 337 338 309 0 
3 309 416 337 0 
3 338 353 309 0 
3 416 309 399 0 
3 334 321 310 0 
3 312 313 330 0 
3 331 313 314 0 
3 331 330 313 0 
3 315 314 316 0 
3 314 315 336 0 
3 336 331 314 0 
3 315 316 317 0 
3 315 317 357 0 
3 336 315 357 0 
3 317 316 318 0 
3 316 427 318 0 
3 427 316 426 0 
3 319 317 318 0 
3 357 317 319 0 
3 318 320 319 0 
3 318 332 320 0 
3 332 318 333 0 
3 318 428 333 0 
3 428 318 427 0 
3 321 390 323 0 
3 321 334 344 0 
3 344 387 321 0 
3 388 321 387 0 
3 321 388 390 0 
3 322 323 324 0 
3 324 323 390 0 
3 368 329 355 0 
3 329 368 364 0 
3 340 331 341 0 
3 332 333 358 0 
3 358 333 351 0 
3 333 366 351 0 
3 438 366 333 0 
3 333 428 430 0 
3 430 438 333 0 
3 334 362 344 0 
3 353 362 334 0 
3 401 337 416 0 
3 337 401 437 0 
3 350 339 354 0 
3 363 340 341 0 
3 363 354 340 0 
3 342 363 341 0 
3 343 386 342 0 
3 386 363 342 0 
3 392 343 382 0 
3 343 392 386 0 
3 345 344 346 0 
3 387 344 345 0 
3 345 346 347 0 
3 348 345 347 0 
3 345 348 349 0 
3 349 388 345 0 
3 388 387 345 0 
3 347 346 365 0 
3 365 348 347 0 
3 389 349 383 0 
3 389 388 349 0 
3 354 356 350 0 
3 355 350 356 0 
3 360 351 352 0 
3 367 356 354 0 
3 354 363 367 0 
3 367 355 356 0 
3 380 355 367 0 
3 368 355 380 0 
3 363 386 367 0 
3 380 367 386 0 
3 379 378 369 0 
3 373 372 377 0 
3 372 374 377 0 
3 372 381 374 0 
3 374 375 376 0 
3 375 374 382 0 
3 377 374 376 0 
3 381 382 374 0 
3 375 384 376 0 
3 384 375 385 0 
3 380 386 391 0 
3 381 391 382 0 
3 391 392 382 0 
3 383 384 385 0 
3 392 391 386 0 
3 390 388 389 0 
3 393 394 395 0 
3 393 406 394 0 
3 394 431 395 0 
3 406 405 394 0 
3 396 397 398 0 
3 426 396 398 0 
3 398 397 424 0 
3 414 415 398 0 
3 433 414 398 0 
3 415 426 398 0 
3 424 433 398 0 
3 400 401 399 0 
3 401 416 399 0 
3 418 423 400 0 
3 402 417 403 0 
3 402 407 408 0 
3 425 402 408 0 
3 402 425 417 0 
3 403 413 411 0 
3 412 413 403 0 
3 412 403 417 0 
3 404 405 406 0 
3 405 404 422 0 
3 408 407 409 0 
3 409 407 410 0 
3 409 410 432 0 
3 426 415 427 0 
3 429 427 415 0 
3 419 420 421 0 
3 429 428 427 0 
3 428 429 430 0 
3 430 439 438 0 
