$MeshFormat
4.1 0 8
$EndMeshFormat
$Entities
0 0 1 1
1 -121.4536514282227 -146.0399932861328 -56.11842346191406 -104.3544998168945 -132.4457702636719 -40.32784271240234 0 0 
1 -121.4536514282227 -146.0399932861328 -56.11842346191406 -104.3544998168945 -132.4457702636719 -40.32784271240234 0 1 1 
$EndEntities
$Nodes
2 483 1 483
2 1 0 440
1
2
3
4
5
6
7
8
9
10
11
12
13
14
15
16
17
18
19
20
21
22
23
24
25
26
27
28
29
30
31
32
33
34
35
36
37
38
39
40
41
42
43
44
45
46
47
48
49
50
51
52
53
54
55
56
57
58
59
60
61
62
63
64
65
66
67
68
69
70
71
72
73
74
75
76
77
78
79
80
81
82
83
84
85
86
87
88
89
90
91
92
93
94
95
96
97
98
99
100
101
102
103
104
105
106
107
108
109
110
111
112
113
114
115
116
117
118
119
120
121
122
123
124
125
126
127
128
129
130
131
132
133
134
135
136
137
138
139
140
141
142
143
144
145
146
147
148
149
150
151
152
153
154
155
156
157
158
159
160
161
162
163
164
165
166
167
168
169
170
171
172
173
174
175
176
177
178
179
180
181
182
183
184
185
186
187
188
189
190
191
192
193
194
195
196
197
198
199
200
201
202
203
204
205
206
207
208
209
210
211
212
213
214
215
216
217
218
219
220
221
222
223
224
225
226
227
228
229
230
231
232
233
234
235
236
237
238
239
240
241
242
243
244
245
246
247
248
249
250
251
252
253
254
255
256
257
258
259
260
261
262
263
264
265
266
267
268
269
270
271
272
273
274
275
276
277
278
279
280
281
282
283
284
285
286
287
288
289
290
291
292
293
294
295
296
297
298
299
300
301
302
303
304
305
306
307
308
309
310
311
312
313
314
315
316
317
318
319
320
321
322
323
324
325
326
327
328
329
330
331
332
333
334
335
336
337
338
339
340
341
342
343
344
345
346
347
348
349
350
351
352
353
354
355
356
357
358
359
360
361
362
363
364
365
366
367
368
369
370
371
372
373
374
375
376
377
378
379
380
381
382
383
384
385
386
387
388
389
390
391
392
393
394
395
396
397
398
399
400
401
402
403
404
405
406
407
408
409
410
411
412
413
414
415
416
417
418
419
420
421
422
423
424
425
426
427
428
429
430
431
432
433
434
435
436
437
438
439
440
-113.3481597900391 -141.1211853027344 -54.98342514038086
-115.0372695922852 -141.3094482421875 -54.89237976074219
-114.3891906738281 -140.7066345214844 -54.87465667724609
-114.5620040893555 -139.852783203125 -54.59091949462891
-116.6211853027344 -141.6837768554688 -54.57964706420898
-117.3246307373047 -138.6192779541016 -54.05834579467773
-117.7919158935547 -139.2700958251953 -54.29951095581055
-119.2059097290039 -139.3501281738281 -54.01475143432617
-120.246940612793 -136.8833160400391 -52.38468170166016
-119.8045501708984 -134.7982177734375 -52.58871078491211
-119.9751510620117 -136.2962341308594 -52.93874740600586
-118.080680847168 -136.0190734863281 -53.23863220214844
-119.86083984375 -133.2772064208984 -51.86013031005859
-119.0004272460938 -132.7940063476562 -51.21920394897461
-119.2588577270508 -133.6757202148438 -52.35829162597656
-117.8359069824219 -134.3551177978516 -52.31797790527344
-111.3667678833008 -143.3521270751953 -56.05901718139648
-111.7939224243164 -144.5456237792969 -55.32712554931641
-112.9015884399414 -144.2996215820312 -55.01383209228516
-115.5268325805664 -144.451171875 -53.90502166748047
-113.7295303344727 -145.1280975341797 -54.49908065795898
-115.7991104125977 -145.1756134033203 -54.01154327392578
-116.3852996826172 -144.3691864013672 -53.65545272827148
-118.0252456665039 -145.0578918457031 -53.77997589111328
-117.9390869140625 -144.3051300048828 -53.25775146484375
-117.7057571411133 -143.9884948730469 -54.52729034423828
-118.7483596801758 -140.4725189208984 -54.23809814453125
-119.8724822998047 -141.5420532226562 -53.41233825683594
-120.4151306152344 -139.8715515136719 -53.44258880615234
-120.5489883422852 -138.3562469482422 -53.14182281494141
-119.7867279052734 -137.0143737792969 -53.18962478637695
-119.2530822753906 -138.3101501464844 -53.87158966064453
-111.7255325317383 -141.8141937255859 -55.56852340698242
-110.7638244628906 -142.5319519042969 -55.97306442260742
-112.3044662475586 -142.7558898925781 -55.75920486450195
-110.6726913452148 -140.8879852294922 -54.78445053100586
-111.8574752807617 -141.072021484375 -54.99410629272461
-121.1858825683594 -144.5896148681641 -48.14810943603516
-121.2307052612305 -142.9207305908203 -49.50075531005859
-121.0145111083984 -144.3910827636719 -49.83041763305664
-121.0084686279297 -144.0137176513672 -50.91213989257812
-121.0442810058594 -143.2404937744141 -51.71136856079102
-117.0367431640625 -133.9798583984375 -51.27846908569336
-115.1139602661133 -135.3610992431641 -51.76309967041016
-114.3659896850586 -134.4808044433594 -47.85116577148438
-114.6290435791016 -133.9357757568359 -48.8278923034668
-115.8061141967773 -133.2984924316406 -48.74775314331055
-109.0733871459961 -143.5713653564453 -56.11766052246094
-109.4140548706055 -144.2756195068359 -55.57395172119141
-110.9564666748047 -145.2491455078125 -55.11166763305664
-119.7835464477539 -145.5672454833984 -44.8110466003418
-120.5663909912109 -145.0995635986328 -43.92189788818359
-120.8894805908203 -145.2938842773438 -45.87441635131836
-108.1739501953125 -142.7292633056641 -56.01393508911133
-109.865348815918 -141.5172271728516 -55.39439010620117
-107.1455383300781 -143.4014129638672 -56.01527404785156
-108.0387420654297 -143.9346771240234 -56.11842346191406
-108.0161437988281 -144.8508911132812 -55.54207611083984
-112.1317825317383 -137.4500732421875 -50.79635238647461
-113.418083190918 -137.8692321777344 -52.11362075805664
-113.1746444702148 -136.724853515625 -50.71917343139648
-106.3316421508789 -143.6270294189453 -55.13294219970703
-106.8544387817383 -144.607177734375 -55.24196624755859
-106.1410980224609 -143.2602996826172 -56.06228637695312
-121.0885696411133 -144.6630249023438 -44.79392242431641
-120.8375015258789 -143.9375610351562 -43.59931945800781
-117.9525146484375 -143.3734741210938 -42.04832077026367
-119.2633895874023 -143.0195007324219 -42.22578811645508
-119.2020263671875 -143.5599060058594 -42.11614227294922
-119.7571716308594 -145.3409271240234 -42.45710754394531
-120.6708984375 -144.5791320800781 -42.72275543212891
-109.3794326782227 -139.9604949951172 -53.85900115966797
-111.0227737426758 -139.8709564208984 -53.74825286865234
-112.6184997558594 -139.1542358398438 -53.19677352905273
-114.4031219482422 -137.6429595947266 -52.44520950317383
-115.5770797729492 -136.2416839599609 -52.90383911132812
-114.4451446533203 -136.1722412109375 -51.37304306030273
-114.7041168212891 -134.573974609375 -50.55873107910156
-110.6462249755859 -141.5825500488281 -55.2208137512207
-113.1382827758789 -140.2716064453125 -54.53354644775391
-113.5985717773438 -138.7219085693359 -53.11235427856445
-114.1825485229492 -143.2902526855469 -54.93208694458008
-113.7108001708984 -141.7429809570312 -55.08032608032227
-107.0903930664062 -142.2114105224609 -55.27804565429688
-106.5229721069336 -142.8143005371094 -55.10496139526367
-108.1107635498047 -140.7350921630859 -54.63232803344727
-110.3668975830078 -139.515380859375 -53.05714797973633
-110.1832580566406 -138.8781890869141 -52.21367263793945
-110.7752914428711 -138.2227783203125 -51.15728759765625
-109.1963729858398 -138.6433868408203 -52.13983917236328
-105.8517990112305 -140.7951507568359 -53.78874969482422
-107.6445236206055 -139.6081848144531 -53.48302841186523
-105.6742630004883 -140.1162567138672 -52.86301803588867
-106.0651473999023 -142.7250061035156 -54.03768920898438
-105.8557281494141 -143.3378753662109 -54.04949569702148
-110.2040100097656 -142.3742065429688 -41.62464904785156
-109.5875015258789 -142.8047637939453 -42.01422882080078
-108.3186264038086 -141.6283111572266 -41.77890014648438
-107.6437759399414 -142.2496032714844 -42.35488891601562
-106.3109359741211 -140.8177337646484 -42.96919631958008
-107.6928253173828 -140.5791168212891 -42.39373397827148
-106.7473068237305 -141.6423034667969 -42.80676651000977
-105.1948013305664 -144.073974609375 -49.62070846557617
-106.5370941162109 -145.4082489013672 -49.28954696655273
-105.1663970947266 -143.9130249023438 -50.71102523803711
-115.1552505493164 -142.5838623046875 -54.63672256469727
-105.5792236328125 -141.7518768310547 -54.31828308105469
-105.5682678222656 -141.7608947753906 -51.64936065673828
-105.3542251586914 -141.314453125 -54.21855163574219
-105.3352203369141 -141.2734375 -52.02019500732422
-105.1471481323242 -140.2055969238281 -51.54994964599609
-105.2186508178711 -139.7941284179688 -49.74840545654297
-105.2036590576172 -139.5008697509766 -50.39692306518555
-104.8224792480469 -139.1501770019531 -48.68264389038086
-104.9811325073242 -139.0607299804688 -50.47777938842773
-104.7333297729492 -138.4653625488281 -49.71980285644531
-110.4081192016602 -136.8414916992188 -46.915771484375
-108.6665344238281 -137.5783386230469 -45.97125244140625
-109.3989105224609 -137.4745025634766 -47.09012985229492
-107.130859375 -137.8466339111328 -49.99074935913086
-105.1196746826172 -137.9462890625 -48.26658630371094
-106.6149597167969 -138.1540069580078 -50.28157806396484
-105.7371063232422 -139.1313171386719 -51.80791473388672
-120.3904495239258 -144.0765228271484 -42.36626052856445
-114.918815612793 -138.6111602783203 -53.9435920715332
-117.0707397460938 -137.7842864990234 -53.90588760375977
-116.5612335205078 -136.9775848388672 -53.53460311889648
-117.5056762695312 -135.0999450683594 -52.74720764160156
-106.0612030029297 -141.8564300537109 -54.89332962036133
-105.9198150634766 -145.0565185546875 -54.5318603515625
-105.1404190063477 -143.9326019287109 -53.52048110961914
-115.8543472290039 -145.4237823486328 -44.72841644287109
-115.7246856689453 -144.81884765625 -43.73300552368164
-117.3554763793945 -144.8491516113281 -43.6387939453125
-108.0691986083984 -145.5317230224609 -54.71338653564453
-117.5755767822266 -145.5317535400391 -45.33735275268555
-118.158821105957 -145.3474731445312 -43.94816970825195
-115.3172836303711 -138.9874877929688 -54.28012466430664
-116.3484954833984 -140.2965850830078 -54.59381484985352
-117.222053527832 -142.2533569335938 -54.2853889465332
-115.5878601074219 -143.2468414306641 -54.19516372680664
-118.5862045288086 -144.6758117675781 -52.91846466064453
-118.3745422363281 -144.8594970703125 -42.28872299194336
-118.9314193725586 -144.0127868652344 -42.68026351928711
-119.7440414428711 -145.3069763183594 -51.96311187744141
-118.2632827758789 -145.4563293457031 -52.08403015136719
-119.594841003418 -145.4053497314453 -50.30159759521484
-120.390510559082 -144.6821594238281 -50.3370246887207
-120.1508865356445 -145.3148651123047 -49.77159881591797
-117.4688339233398 -140.6640014648438 -54.34505844116211
-106.2213287353516 -145.4945068359375 -53.18300247192383
-120.4285888671875 -145.4337463378906 -48.55055236816406
-120.8361587524414 -145.1134948730469 -49.19437408447266
-118.4233932495117 -141.6125640869141 -54.16549682617188
-118.8930358886719 -142.8617706298828 -53.43539428710938
-106.4307708740234 -142.6719665527344 -52.83518981933594
-105.6946029663086 -143.0248413085938 -52.4398078918457
-105.8946380615234 -142.3329467773438 -52.24655532836914
-105.1569747924805 -141.2477569580078 -51.08171463012695
-105.1735916137695 -140.4585571289062 -49.53642654418945
-104.7503814697266 -138.5064392089844 -47.46746063232422
-104.4568634033203 -138.3030395507812 -49.40999984741211
-105.2409820556641 -137.8505096435547 -46.29326248168945
-107.4783935546875 -137.9407653808594 -44.35927963256836
-108.1828384399414 -137.850341796875 -44.31510543823242
-108.6014022827148 -137.8480987548828 -43.74972152709961
-109.0663070678711 -138.5392913818359 -42.9544792175293
-108.013786315918 -138.9236450195312 -42.86704254150391
-106.8832702636719 -138.8890075683594 -43.52949905395508
-105.9807510375977 -139.5565643310547 -43.81861877441406
-116.6623306274414 -143.2025451660156 -54.00186538696289
-119.4609832763672 -143.9836730957031 -53.36618041992188
-118.357177734375 -145.31787109375 -42.7912712097168
-118.7470855712891 -136.9327239990234 -53.51914596557617
-107.8276519775391 -139.2454223632812 -53.15293121337891
-109.4646911621094 -139.1558837890625 -53.04178237915039
-119.1582794189453 -143.5523834228516 -53.34678268432617
-114.9467620849609 -145.8330841064453 -52.51605987548828
-117.8645477294922 -145.3064422607422 -53.68679809570312
-109.0244827270508 -138.1829681396484 -50.99900817871094
-110.0618667602539 -138.0562286376953 -50.46344757080078
-111.0549697875977 -137.1648864746094 -49.11016845703125
-112.4410018920898 -136.8382568359375 -50.01779556274414
-111.6763153076172 -136.8212432861328 -48.77870941162109
-120.6636352539062 -141.1665191650391 -52.73232269287109
-119.5752258300781 -142.7275543212891 -52.93827056884766
-120.0041046142578 -143.3016357421875 -52.97246170043945
-120.6283645629883 -139.2813110351562 -52.59777069091797
-109.5696411132812 -146.0399932861328 -52.79000473022461
-111.2522354125977 -145.9645233154297 -51.21104049682617
-112.4071044921875 -146.0046997070312 -53.03387069702148
-121.007453918457 -138.5253448486328 -52.3166618347168
-121.1518249511719 -141.1639404296875 -51.80908966064453
-121.2140960693359 -137.2219390869141 -51.35443115234375
-105.2155914306641 -143.6594696044922 -52.09906768798828
-120.4420776367188 -142.9527282714844 -52.70773315429688
-107.4050827026367 -138.9776153564453 -52.32600021362305
-111.0202102661133 -137.4459381103516 -50.23075103759766
-109.6160430908203 -137.5296630859375 -48.33857727050781
-106.8061828613281 -138.1746368408203 -51.06141662597656
-109.3717803955078 -138.1437683105469 -49.29325485229492
-111.4177780151367 -138.5257110595703 -52.07073974609375
-120.4251251220703 -143.9911499023438 -52.27345657348633
-116.4940872192383 -144.2757568359375 -43.6088752746582
-106.8177337646484 -145.5262908935547 -51.36877822875977
-113.8557891845703 -145.5353546142578 -43.00330352783203
-112.0269927978516 -145.4882659912109 -41.8290901184082
-113.1736755371094 -145.1759948730469 -41.16518020629883
-115.6293716430664 -145.2593078613281 -43.76524353027344
-114.1881637573242 -144.3894348144531 -42.65385055541992
-115.9112167358398 -142.5942687988281 -42.54917907714844
-115.2669296264648 -142.7917022705078 -42.27983856201172
-115.391731262207 -140.778564453125 -41.77022552490234
-118.3088455200195 -140.0159149169922 -42.53865432739258
-117.6308898925781 -140.9152984619141 -42.4830436706543
-117.5437164306641 -139.5878753662109 -42.40501022338867
-119.8416290283203 -141.4888458251953 -42.82112884521484
-118.5931243896484 -140.9263916015625 -42.62053680419922
-119.079475402832 -140.3340148925781 -43.1113395690918
-119.9881973266602 -140.4255981445312 -43.24760437011719
-120.6806869506836 -141.2448272705078 -43.65575790405273
-119.4610748291016 -139.2521209716797 -43.96467971801758
-105.1497039794922 -144.6612243652344 -51.95446395874023
-120.5884628295898 -134.0671997070312 -51.32240676879883
-120.9106979370117 -135.2272644042969 -51.70610809326172
-121.1354751586914 -134.2292022705078 -50.97675704956055
-105.1844635009766 -143.0061798095703 -51.23281097412109
-105.2127151489258 -141.7155456542969 -50.99547576904297
-120.4762344360352 -133.5647430419922 -51.73639678955078
-120.2518310546875 -132.4457702636719 -51.19621658325195
-105.1302108764648 -143.1409912109375 -49.43154907226562
-121.1658782958984 -132.9324645996094 -50.43373107910156
-105.4318695068359 -138.5797882080078 -50.82889175415039
-108.7209167480469 -137.5917205810547 -48.126220703125
-116.5469436645508 -133.5475921630859 -48.55678939819336
-116.1837692260742 -133.7008056640625 -47.8332405090332
-116.9531555175781 -134.4912872314453 -46.97275924682617
-116.7635269165039 -132.7689971923828 -49.70955276489258
-113.7005615234375 -136.1278076171875 -50.39335250854492
-108.1928939819336 -137.8490295410156 -48.94637298583984
-107.7810516357422 -138.1433868408203 -50.35243606567383
-111.0153579711914 -136.721923828125 -48.3455696105957
-111.8004913330078 -136.3668670654297 -47.99539947509766
-105.8089981079102 -141.8554992675781 -49.49861526489258
-119.0473556518555 -133.5996551513672 -48.49196243286133
-119.6534805297852 -132.8993988037109 -48.8326416015625
-120.1220245361328 -133.7897644042969 -47.57156372070312
-119.3367309570312 -133.8680725097656 -47.76072311401367
-119.8132705688477 -134.3731231689453 -47.36652755737305
-119.2954025268555 -136.66162109375 -45.81732177734375
-118.0805892944336 -136.6511535644531 -44.48498153686523
-118.6332550048828 -135.5213470458984 -46.6264762878418
-114.0629119873047 -134.8350830078125 -49.39923858642578
-118.4491577148438 -132.6597747802734 -49.86523818969727
-115.4602661132812 -133.4788055419922 -49.64272689819336
-105.1974639892578 -141.5769805908203 -48.22923278808594
-120.8813552856445 -132.4782562255859 -49.31135559082031
-105.5446929931641 -140.8603668212891 -49.57365798950195
-105.4286499023438 -141.2751159667969 -49.24301910400391
-118.1710433959961 -132.8294372558594 -49.02417373657227
-113.2317657470703 -135.3451690673828 -48.90275192260742
-118.3573226928711 -134.3419342041016 -47.7742805480957
-115.3082885742188 -134.7863922119141 -46.11994171142578
-116.7079467773438 -135.4831848144531 -44.95644760131836
-113.6791763305664 -134.7576904296875 -47.14907073974609
-104.3544998168945 -138.2909851074219 -47.48940277099609
-121.2559661865234 -133.6922607421875 -48.91679382324219
-109.3072052001953 -145.7535858154297 -46.08486175537109
-111.5356903076172 -145.8933410644531 -47.86967849731445
-110.9358596801758 -136.2965240478516 -46.11943817138672
-110.4086837768555 -136.9271392822266 -44.562255859375
-105.5999221801758 -145.2179412841797 -48.605712890625
-105.0354232788086 -144.7269287109375 -48.12730026245117
-109.5498733520508 -145.6412811279297 -43.31209945678711
-110.5425643920898 -145.3449249267578 -41.03567504882812
-120.5074081420898 -135.1587066650391 -47.65987014770508
-120.9795532226562 -136.3256988525391 -47.87522506713867
-120.314697265625 -136.0699615478516 -47.16630554199219
-121.1389770507812 -138.1557006835938 -47.53099822998047
-121.2385482788086 -135.7447204589844 -48.70261764526367
-105.2053070068359 -138.3129577636719 -45.48208236694336
-104.6543121337891 -138.4974365234375 -46.57636642456055
-120.9609222412109 -134.9032135009766 -48.35018157958984
-112.5812454223633 -135.5995635986328 -46.12720489501953
-110.5779037475586 -137.5265502929688 -42.4560546875
-112.0695648193359 -136.9148712158203 -42.4018669128418
-112.4455947875977 -137.3208923339844 -41.84793090820312
-105.1848831176758 -143.997314453125 -42.52021408081055
-105.1647872924805 -143.4617156982422 -42.2244873046875
-105.8516159057617 -143.8440246582031 -41.58735656738281
-105.8498077392578 -142.6766510009766 -42.35637664794922
-105.7062225341797 -142.3267059326172 -43.04795074462891
-105.5948104858398 -141.7367858886719 -43.48620223999023
-104.9683456420898 -142.0824737548828 -45.0023307800293
-105.2441329956055 -141.1475677490234 -44.02622985839844
-105.1560211181641 -140.2783966064453 -44.51604843139648
-111.5512466430664 -144.8789367675781 -41.38478851318359
-110.1996841430664 -137.0025939941406 -43.39382553100586
-104.8666915893555 -139.1908264160156 -47.11551666259766
-105.1181640625 -139.5591430664062 -46.75342559814453
-104.5678176879883 -138.9729156494141 -45.15040969848633
-105.2561569213867 -139.5331115722656 -44.99409103393555
-105.0999069213867 -140.3531951904297 -46.35289764404297
-105.1047973632812 -144.5665283203125 -45.28235244750977
-105.1612930297852 -143.9586029052734 -44.08343887329102
-110.6106033325195 -144.9430847167969 -41.08030700683594
-119.6108856201172 -135.0896606445312 -46.88227844238281
-112.6297225952148 -135.5047912597656 -44.56744384765625
-113.7151184082031 -134.8456268310547 -45.49753570556641
-107.4982452392578 -145.5090026855469 -43.78945159912109
-108.4100875854492 -145.1219940185547 -43.01372146606445
-114.9290313720703 -134.5146789550781 -46.92532348632812
-120.316780090332 -137.1458740234375 -46.31929397583008
-120.6617431640625 -137.9029541015625 -46.33429718017578
-120.9055099487305 -138.6213531494141 -46.21452331542969
-120.4430465698242 -139.1796417236328 -45.47582244873047
-121.0078659057617 -139.6754455566406 -46.66089248657227
-120.6877899169922 -139.8667907714844 -45.58856201171875
-120.9933853149414 -141.2326812744141 -45.58834838867188
-120.5708312988281 -140.1085662841797 -44.31359481811523
-121.0511627197266 -141.054931640625 -44.55027389526367
-108.3806838989258 -144.8991088867188 -42.20696640014648
-108.9866256713867 -145.3443145751953 -40.65431594848633
-108.4576797485352 -144.8938446044922 -40.60058212280273
-109.7329864501953 -145.0133972167969 -40.32784271240234
-114.5295715332031 -134.5558013916016 -45.77031326293945
-104.5110855102539 -138.8755798339844 -46.34723663330078
-105.1576309204102 -143.1385192871094 -43.5789794921875
-120.1695175170898 -135.9960632324219 -46.69581604003906
-111.3351745605469 -136.3500823974609 -44.69681930541992
-120.1413879394531 -137.5304870605469 -45.38154983520508
-119.9875183105469 -138.5579986572266 -44.69577407836914
-120.720458984375 -142.0931701660156 -44.76996994018555
-121.1279907226562 -142.9281921386719 -45.16036605834961
-107.489860534668 -145.1764526367188 -42.10345077514648
-106.0075607299805 -138.1739044189453 -44.90126419067383
-120.313117980957 -138.9279022216797 -44.73995971679688
-105.8595504760742 -145.4543914794922 -45.83789443969727
-106.4281234741211 -145.3300323486328 -43.91545867919922
-114.9411163330078 -134.9120330810547 -44.91288375854492
-117.4842910766602 -136.9027862548828 -43.81884384155273
-117.8895950317383 -138.7629089355469 -42.84579086303711
-115.9914779663086 -138.0434875488281 -42.30540466308594
-115.4427185058594 -139.4178619384766 -42.12121200561523
-107.1071395874023 -144.2935943603516 -42.05970764160156
-108.0956420898438 -143.7849273681641 -41.76179885864258
-106.8755950927734 -143.7088012695312 -41.70829772949219
-107.2678146362305 -143.4673004150391 -41.49937438964844
-107.4133224487305 -142.9003753662109 -42.29664611816406
-109.431770324707 -143.4868316650391 -42.06179809570312
-114.1097869873047 -134.8369140625 -44.08697891235352
-121.0648345947266 -142.2751007080078 -42.52627563476562
-120.6581497192383 -143.161865234375 -42.33418273925781
-106.6312408447266 -145.3418884277344 -42.67886352539062
-116.0223541259766 -136.0160675048828 -43.71745300292969
-113.1948852539062 -136.1284027099609 -43.06931686401367
-114.5456848144531 -135.874755859375 -43.15019226074219
-120.5000915527344 -139.6269836425781 -43.72762680053711
-120.9951934814453 -141.9939422607422 -43.92716979980469
-105.6505432128906 -139.9475402832031 -44.32001113891602
-120.4406967163086 -142.0797119140625 -42.05454254150391
-118.9309310913086 -141.8516693115234 -42.1845703125
-106.0800094604492 -144.4769439697266 -41.99187850952148
-116.2827682495117 -136.8183746337891 -42.84265899658203
-111.7036056518555 -136.9098510742188 -43.44747924804688
-106.8109130859375 -142.6934661865234 -42.73035430908203
-121.1910095214844 -143.735107421875 -44.32431411743164
-114.2538070678711 -136.1976013183594 -42.60551452636719
-112.2840270996094 -136.4590454101562 -42.82094955444336
-117.3342056274414 -142.8698425292969 -42.64100646972656
-118.1930313110352 -142.0697021484375 -42.60697555541992
-117.5518798828125 -144.3453674316406 -42.59500503540039
-110.5047302246094 -138.7419586181641 -42.25374984741211
-109.8247528076172 -140.9580383300781 -41.70855331420898
-111.8270263671875 -138.9621734619141 -41.70858383178711
-114.3741149902344 -141.8545227050781 -41.6952018737793
-111.4973297119141 -141.973876953125 -41.68456649780273
-110.5869903564453 -140.6640167236328 -41.56780242919922
-116.6629638671875 -143.4776611328125 -42.96763229370117
-117.6779479980469 -143.6812438964844 -41.73456573486328
-113.7241668701172 -136.5846405029297 -42.15774154663086
-111.4711532592773 -138.2187805175781 -41.66409301757812
-113.9067764282227 -139.8396453857422 -41.70613098144531
-111.4108276367188 -143.966552734375 -41.97000122070312
-112.1208038330078 -142.9227142333984 -41.99258041381836
-113.1911239624023 -144.0590515136719 -42.36749267578125
-114.8896255493164 -137.8624420166016 -41.86387252807617
-108.6748428344727 -144.2676239013672 -42.78918075561523
-109.0557479858398 -144.3485260009766 -42.10045623779297
-109.8158416748047 -144.2835388183594 -41.72663497924805
-108.9457473754883 -144.5209197998047 -40.92667388916016
-113.9337310791016 -137.6339569091797 -41.70409774780273
-114.4726943969727 -138.9318084716797 -41.98912048339844
-112.2070770263672 -145.3737335205078 -54.80124664306641
-111.2601852416992 -145.8267822265625 -54.07321548461914
-113.4685592651367 -145.4511108398438 -54.30361938476562
-121.2746047973633 -136.1147155761719 -48.886962890625
-121.4536514282227 -133.7586059570312 -49.55087280273438
-121.380973815918 -136.7271270751953 -49.92094039916992
-107.4047698974609 -145.6116943359375 -46.1440315246582
-107.5239486694336 -145.6410369873047 -48.04670715332031
-105.6277389526367 -145.4655609130859 -47.2611083984375
-116.7784805297852 -145.7574005126953 -47.68460083007812
-117.8498077392578 -145.8016815185547 -49.08587265014648
-107.826171875 -145.7450866699219 -54.04029846191406
-109.9477920532227 -146.0104675292969 -53.45177459716797
-109.7233352661133 -145.6111602783203 -54.76258850097656
-113.0958709716797 -145.8292846679688 -47.27865982055664
-115.2863235473633 -145.5970306396484 -45.48133850097656
-114.4854736328125 -145.5579681396484 -44.48794174194336
-110.7127685546875 -145.6771392822266 -44.10675430297852
-114.2084884643555 -145.9198760986328 -50.46818161010742
-119.1834564208984 -145.5133056640625 -50.19411468505859
-116.1448287963867 -145.8421783447266 -51.40874099731445
-121.34130859375 -141.3459167480469 -50.43304443359375
-121.3550033569336 -140.1544494628906 -49.25345230102539
-106.8358764648438 -145.5720672607422 -45.06778335571289
-119.3652801513672 -145.6757049560547 -45.95990753173828
-108.8673324584961 -145.82421875 -50.97856140136719
-104.7652359008789 -143.8232421875 -47.18677520751953
-104.8493270874023 -144.2018432617188 -45.78554534912109
-105.0173645019531 -145.1072540283203 -47.22722244262695
-107.2529296875 -145.8204650878906 -53.14279556274414
-107.7943954467773 -145.6797943115234 -50.59062576293945
-121.4389953613281 -135.0136871337891 -50.35319137573242
-117.0895462036133 -145.6128082275391 -46.09872436523438
-121.2693786621094 -138.9361419677734 -48.11974716186523
-121.1279067993164 -140.6885375976562 -47.2749137878418
-121.086540222168 -142.177734375 -45.97114562988281
-121.1682205200195 -142.8516235351562 -48.268798828125
-121.1962814331055 -144.6103515625 -47.84804916381836
-113.9326095581055 -145.6828308105469 -53.55556869506836
-111.5382537841797 -145.6110534667969 -42.87625122070312
-121.3203277587891 -138.5665588378906 -51.08323287963867
-105.1589889526367 -140.2407836914062 -48.85610198974609
-105.2772827148438 -139.5868530273438 -49.20390701293945
-105.0554580688477 -141.6234436035156 -46.58156967163086
-105.2977828979492 -145.4060211181641 -46.63025665283203
-121.2285690307617 -144.8842163085938 -46.38836669921875
-121.0431518554688 -145.3379058837891 -47.74727249145508
3 1 0 43
441
442
443
444
445
446
447
448
449
450
451
452
453
454
455
456
457
458
459
460
461
462
463
464
465
466
467
468
469
470
471
472
473
474
475
476
477
478
479
480
481
482
483
-116.0336472410369 -140.0940997971891 -48.0256623274857
-111.7690264655003 -141.3284084421792 -47.15196046752885
-114.2973313427696 -138.4636934654906 -45.37499263231486
-109.0036471897304 -141.711863662172 -51.01224189930935
-108.7403129807126 -141.0363389021232 -45.73052695861085
-114.9314860491532 -141.32709774866 -51.60010661984115
-116.475325574173 -136.8790688173138 -49.02420818561436
-117.9618628282905 -140.3289930634666 -51.11086696386295
-117.7917172961546 -142.3720454747517 -45.63088067724981
-108.0558092341998 -140.5046203444114 -48.32268376727372
-112.5918464259103 -140.3315871144122 -49.91314648186167
-114.5564461488348 -141.7525972201513 -45.43780494191785
-111.2375643054279 -143.0124468659748 -52.8039907506066
-118.4005313515859 -142.8103678933374 -48.53458892509925
-111.3419092538284 -139.5750349138336 -44.66553305181949
-113.4044289091458 -141.7465841194595 -52.41695860981007
-118.6245726975083 -143.4507345918122 -51.02097917190812
-118.6550591986299 -139.7078720758904 -47.17621196222426
-114.885382603074 -143.2857620494762 -48.68779091558766
-118.7661900621799 -137.6632511898062 -47.96081822970605
-118.786906521773 -135.6368209025105 -50.17064814286196
-114.3167055463431 -138.0523554674631 -48.99566191599114
-108.7953254421633 -142.8949624013432 -53.59265096384145
-107.5071870624769 -143.4622392586645 -44.97773542898904
-116.5418989175344 -139.950817121138 -44.91934343664833
-118.9328934286311 -138.3581199391467 -50.45017454126516
-119.1145906701019 -142.7771373132852 -44.08072710327752
-107.4011424902056 -143.3800981148877 -50.90742247531096
-106.9712710649798 -139.701267493806 -45.79483435276224
-107.7500194941811 -143.1684630626818 -47.72498258298344
-111.0008854497288 -142.2174987044954 -44.5363141815016
-113.862595404018 -144.415943986995 -52.32763053126197
-113.0624151513609 -138.4905331582493 -43.45930671063174
-119.0130794833383 -136.0393459678072 -48.58132286393437
-119.1599626118144 -140.9359802489056 -44.9569081824883
-116.6058041395719 -140.8925988340585 -44.29949403812275
-115.9319096749958 -137.114690700176 -46.63224062802432
-108.8037518575373 -142.1097409064224 -43.65403657152644
-107.1465986216525 -140.3503523997326 -51.00752771149889
-111.0993865888855 -139.3559356179734 -48.24943865868192
-111.3320332413779 -143.0951388228053 -49.60311662372603
-116.0350502249185 -138.6844240269412 -50.77777931124562
-114.8690116789193 -137.7468681717424 -43.64035957155183
$EndNodes
$Elements
2 2342 1 2342
2 1 2 876
1 1 2 3 
2 2 1 83 
3 37 1 3 
4 37 33 1 
5 33 83 1 
6 3 2 4 
7 4 2 5 
8 5 2 106 
9 2 83 106 
10 3 4 80 
11 37 3 80 
12 139 4 5 
13 80 4 125 
14 138 125 4 
15 138 4 139 
16 5 106 140 
17 150 139 5 
18 150 5 140 
19 6 7 8 
20 6 138 7 
21 126 6 8 
22 126 125 6 
23 138 6 125 
24 8 7 27 
25 7 150 27 
26 7 138 150 
27 29 8 27 
28 8 29 30 
29 8 30 32 
30 32 126 8 
31 9 10 11 
32 225 10 9 
33 11 31 9 
34 31 30 9 
35 192 9 30 
36 194 9 192 
37 9 194 225 
38 12 11 10 
39 128 12 10 
40 10 15 16 
41 15 10 224 
42 128 10 16 
43 224 10 225 
44 11 12 174 
45 174 31 11 
46 128 127 12 
47 127 174 12 
48 13 14 15 
49 14 13 230 
50 229 13 15 
51 230 13 229 
52 14 16 15 
53 14 43 16 
54 43 14 238 
55 254 14 230 
56 238 14 254 
57 229 15 224 
58 16 43 44 
59 44 128 16 
60 17 18 19 
61 49 18 17 
62 35 17 19 
63 33 34 17 
64 33 17 35 
65 34 48 17 
66 17 48 49 
67 19 18 21 
68 18 50 21 
69 18 49 50 
70 19 21 20 
71 82 19 20 
72 35 19 83 
73 82 83 19 
74 20 21 22 
75 20 22 23 
76 20 23 26 
77 171 20 26 
78 82 20 141 
79 171 141 20 
80 22 21 178 
81 50 394 21 
82 21 432 178 
83 21 394 396 
84 432 21 396 
85 22 24 23 
86 24 22 179 
87 22 178 179 
88 23 24 25 
89 23 25 26 
90 25 24 142 
91 24 179 142 
92 172 26 25 
93 172 25 142 
94 177 171 26 
95 26 172 177 
96 27 28 29 
97 27 154 28 
98 154 27 150 
99 29 28 185 
100 154 155 28 
101 186 28 155 
102 185 28 186 
103 30 29 188 
104 29 185 188 
105 30 31 32 
106 30 188 192 
107 31 174 32 
108 126 32 174 
109 79 34 33 
110 33 35 83 
111 36 33 37 
112 79 33 36 
113 34 54 48 
114 34 55 54 
115 55 34 79 
116 72 36 37 
117 55 79 36 
118 86 55 36 
119 86 36 72 
120 72 37 73 
121 37 74 73 
122 74 37 80 
123 38 39 40 
124 38 431 39 
125 40 153 38 
126 153 440 38 
127 38 440 431 
128 40 39 41 
129 42 41 39 
130 193 42 39 
131 39 415 193 
132 415 39 416 
133 416 39 430 
134 39 431 430 
135 41 148 40 
136 148 153 40 
137 42 203 41 
138 41 145 148 
139 203 145 41 
140 193 196 42 
141 196 203 42 
142 44 43 238 
143 75 76 44 
144 75 44 77 
145 44 76 128 
146 77 44 78 
147 238 78 44 
148 45 46 47 
149 253 46 45 
150 47 312 45 
151 261 253 45 
152 261 45 265 
153 326 265 45 
154 45 312 326 
155 255 47 46 
156 253 78 46 
157 46 78 255 
158 47 235 236 
159 47 238 235 
160 47 236 312 
161 255 238 47 
162 48 58 49 
163 54 57 48 
164 48 57 58 
165 49 58 50 
166 58 135 50 
167 135 407 50 
168 394 50 407 
169 51 52 53 
170 52 51 71 
171 53 418 51 
172 70 71 51 
173 51 137 70 
174 136 137 51 
175 51 418 136 
176 65 53 52 
177 65 52 66 
178 52 71 66 
179 65 439 53 
180 418 53 440 
181 53 439 440 
182 86 54 55 
183 54 56 57 
184 84 56 54 
185 86 84 54 
186 62 57 56 
187 56 64 62 
188 64 56 85 
189 84 85 56 
190 63 58 57 
191 62 63 57 
192 63 135 58 
193 59 60 61 
194 202 60 59 
195 59 61 183 
196 89 59 198 
197 89 202 59 
198 198 59 183 
199 61 60 77 
200 60 74 81 
201 202 74 60 
202 60 75 77 
203 81 75 60 
204 61 77 239 
205 61 239 183 
206 62 95 63 
207 62 64 94 
208 62 94 95 
209 63 95 130 
210 63 130 135 
211 94 64 85 
212 66 367 65 
213 367 439 65 
214 66 71 353 
215 352 66 353 
216 352 367 66 
217 67 68 69 
218 67 371 68 
219 67 69 144 
220 144 372 67 
221 370 371 67 
222 380 370 67 
223 67 372 380 
224 69 68 124 
225 124 68 353 
226 68 361 353 
227 362 361 68 
228 371 362 68 
229 144 69 124 
230 70 124 71 
231 124 70 143 
232 137 173 70 
233 173 143 70 
234 124 353 71 
235 72 73 87 
236 86 72 92 
237 176 72 87 
238 92 72 175 
239 175 72 176 
240 73 74 202 
241 73 202 87 
242 74 80 81 
243 76 75 125 
244 75 81 125 
245 125 127 76 
246 76 127 128 
247 239 77 78 
248 238 255 78 
249 239 78 253 
250 80 125 81 
251 82 106 83 
252 106 82 141 
253 85 84 129 
254 129 84 86 
255 94 85 107 
256 85 129 107 
257 91 86 92 
258 91 129 86 
259 176 87 88 
260 88 87 202 
261 88 89 90 
262 88 202 89 
263 90 175 88 
264 175 176 88 
265 90 89 180 
266 180 89 181 
267 181 89 198 
268 197 175 90 
269 200 90 180 
270 197 90 200 
271 91 92 93 
272 110 91 93 
273 109 91 110 
274 91 109 129 
275 175 93 92 
276 110 93 111 
277 123 111 93 
278 93 175 123 
279 95 94 156 
280 94 107 158 
281 94 158 156 
282 130 95 131 
283 95 157 131 
284 95 156 157 
285 96 97 98 
286 97 96 385 
287 98 374 96 
288 374 378 96 
289 96 378 377 
290 377 385 96 
291 98 97 99 
292 99 97 350 
293 384 350 97 
294 97 385 384 
295 101 98 99 
296 98 101 374 
297 366 101 99 
298 99 350 349 
299 366 99 349 
300 100 101 102 
301 169 101 100 
302 293 100 102 
303 169 100 170 
304 170 100 295 
305 295 100 293 
306 366 102 101 
307 169 168 101 
308 101 168 374 
309 291 292 102 
310 102 366 291 
311 292 293 102 
312 103 104 105 
313 103 272 104 
314 103 105 231 
315 103 231 273 
316 272 103 273 
317 205 105 104 
318 104 424 205 
319 272 402 104 
320 104 402 401 
321 424 104 401 
322 223 105 205 
323 223 227 105 
324 227 231 105 
325 141 140 106 
326 108 107 109 
327 158 107 108 
328 107 129 109 
329 108 109 110 
330 110 159 108 
331 108 228 158 
332 228 108 159 
333 110 111 159 
334 112 111 113 
335 160 111 112 
336 123 113 111 
337 159 111 160 
338 113 436 112 
339 112 435 160 
340 435 112 436 
341 123 115 113 
342 115 436 113 
343 114 115 116 
344 114 436 115 
345 114 116 161 
346 114 161 299 
347 299 436 114 
348 233 116 115 
349 123 233 115 
350 116 122 162 
351 116 233 122 
352 161 116 162 
353 117 118 119 
354 118 117 270 
355 119 242 117 
356 242 243 117 
357 243 270 117 
358 118 234 119 
359 165 240 118 
360 165 118 298 
361 240 234 118 
362 118 270 271 
363 298 118 271 
364 234 199 119 
365 119 199 242 
366 120 121 122 
367 163 121 120 
368 122 241 120 
369 163 120 240 
370 241 240 120 
371 162 122 121 
372 266 162 121 
373 163 266 121 
374 233 200 122 
375 200 241 122 
376 123 175 197 
377 123 197 233 
378 124 143 144 
379 125 126 127 
380 174 127 126 
381 130 131 151 
382 135 130 151 
383 223 151 131 
384 157 195 131 
385 131 195 223 
386 132 133 134 
387 132 209 133 
388 136 132 134 
389 136 426 132 
390 132 206 209 
391 132 410 206 
392 410 132 409 
393 132 426 409 
394 133 204 134 
395 212 204 133 
396 133 209 210 
397 210 212 133 
398 136 134 137 
399 137 134 173 
400 134 372 173 
401 134 204 372 
402 151 405 135 
403 135 405 407 
404 426 136 418 
405 138 139 150 
406 140 141 171 
407 154 150 140 
408 154 140 155 
409 140 171 155 
410 145 142 146 
411 145 172 142 
412 142 179 146 
413 143 372 144 
414 173 372 143 
415 145 146 147 
416 148 145 147 
417 172 145 203 
418 146 413 147 
419 178 146 179 
420 178 414 146 
421 413 146 414 
422 148 147 149 
423 147 152 149 
424 147 413 152 
425 148 149 153 
426 149 152 153 
427 151 223 205 
428 205 423 151 
429 405 151 423 
430 152 440 153 
431 418 152 413 
432 440 152 418 
433 171 177 155 
434 187 155 177 
435 155 187 186 
436 157 156 158 
437 227 157 158 
438 157 227 195 
439 227 158 228 
440 258 159 160 
441 228 159 259 
442 159 258 259 
443 259 160 256 
444 160 435 256 
445 160 259 258 
446 161 162 266 
447 282 161 266 
448 299 161 282 
449 164 163 165 
450 336 163 164 
451 163 240 165 
452 266 163 282 
453 163 281 282 
454 281 163 336 
455 164 165 166 
456 164 166 167 
457 167 168 164 
458 169 164 168 
459 169 336 164 
460 165 298 166 
461 167 166 285 
462 166 298 285 
463 168 167 374 
464 373 167 285 
465 167 373 374 
466 336 169 170 
467 295 360 170 
468 302 301 170 
469 301 336 170 
470 302 170 360 
471 187 177 172 
472 187 172 203 
473 178 191 412 
474 191 178 432 
475 414 178 412 
476 201 180 181 
477 200 180 241 
478 241 180 201 
479 181 198 199 
480 181 199 201 
481 182 183 184 
482 198 183 182 
483 182 184 242 
484 199 198 182 
485 199 182 242 
486 184 183 261 
487 183 239 261 
488 242 184 243 
489 243 184 265 
490 265 184 261 
491 186 196 185 
492 188 185 192 
493 185 193 192 
494 185 196 193 
495 186 187 196 
496 187 203 196 
497 189 190 191 
498 419 190 189 
499 191 406 189 
500 406 423 189 
501 189 424 419 
502 189 423 424 
503 191 190 412 
504 268 269 190 
505 419 268 190 
506 412 190 269 
507 395 406 191 
508 395 191 432 
509 192 193 194 
510 193 434 194 
511 434 193 415 
512 225 194 226 
513 194 425 226 
514 425 194 434 
515 195 227 223 
516 200 233 197 
517 199 234 201 
518 234 240 201 
519 240 241 201 
520 204 212 211 
521 379 204 211 
522 372 204 380 
523 204 379 380 
524 423 205 424 
525 206 207 208 
526 206 433 207 
527 206 208 209 
528 433 206 410 
529 207 297 208 
530 274 275 207 
531 207 433 274 
532 207 275 297 
533 209 208 210 
534 210 208 386 
535 297 386 208 
536 376 212 210 
537 210 386 376 
538 211 212 213 
539 213 215 211 
540 215 370 211 
541 370 379 211 
542 376 213 212 
543 215 213 344 
544 383 344 213 
545 376 383 213 
546 214 215 216 
547 215 214 371 
548 342 214 216 
549 214 219 218 
550 371 214 218 
551 342 219 214 
552 344 216 215 
553 370 215 371 
554 342 216 343 
555 343 216 344 
556 217 218 219 
557 362 218 217 
558 217 219 220 
559 217 220 221 
560 217 221 361 
561 217 361 362 
562 371 218 362 
563 220 219 222 
564 342 222 219 
565 320 221 220 
566 222 358 220 
567 358 320 220 
568 320 321 221 
569 333 221 321 
570 333 359 221 
571 359 352 221 
572 352 361 221 
573 222 332 337 
574 332 222 342 
575 222 337 358 
576 224 225 226 
577 229 224 226 
578 229 226 232 
579 226 425 232 
580 227 228 231 
581 231 228 244 
582 228 259 244 
583 230 229 232 
584 232 257 230 
585 254 230 257 
586 231 244 256 
587 437 231 256 
588 231 420 273 
589 231 437 420 
590 267 257 232 
591 232 398 267 
592 398 232 425 
593 237 236 235 
594 262 237 235 
595 235 238 260 
596 260 245 235 
597 235 245 262 
598 236 237 312 
599 252 237 262 
600 252 264 237 
601 263 237 264 
602 312 237 263 
603 254 260 238 
604 261 239 253 
605 243 265 284 
606 243 284 270 
607 244 259 256 
608 245 246 247 
609 260 246 245 
610 245 247 248 
611 245 248 262 
612 246 257 247 
613 254 257 246 
614 254 246 260 
615 249 248 247 
616 247 283 249 
617 247 257 267 
618 247 267 283 
619 307 248 249 
620 262 248 307 
621 249 283 276 
622 307 249 276 
623 250 251 252 
624 250 332 251 
625 252 329 250 
626 250 329 313 
627 250 313 331 
628 331 332 250 
629 251 264 252 
630 341 264 251 
631 251 332 341 
632 262 307 252 
633 307 329 252 
634 437 256 435 
635 340 263 264 
636 312 263 326 
637 326 263 340 
638 264 355 340 
639 355 264 341 
640 265 308 284 
641 308 265 309 
642 309 265 326 
643 283 267 280 
644 267 398 280 
645 269 268 274 
646 400 274 268 
647 400 268 401 
648 419 401 268 
649 411 269 274 
650 269 403 404 
651 403 269 408 
652 404 412 269 
653 408 269 411 
654 270 330 271 
655 308 270 284 
656 270 308 330 
657 271 365 298 
658 271 330 365 
659 422 272 273 
660 402 272 438 
661 272 422 438 
662 422 273 420 
663 274 323 275 
664 274 310 311 
665 274 400 310 
666 274 311 322 
667 274 322 324 
668 323 274 324 
669 411 274 433 
670 275 306 297 
671 306 275 325 
672 275 323 325 
673 276 277 278 
674 276 283 277 
675 307 276 278 
676 277 313 278 
677 279 277 280 
678 314 277 279 
679 283 280 277 
680 277 314 313 
681 307 278 329 
682 278 313 329 
683 280 397 279 
684 314 279 315 
685 317 315 279 
686 279 427 317 
687 427 279 397 
688 397 280 398 
689 282 281 327 
690 327 281 301 
691 301 281 336 
692 299 282 327 
693 285 286 287 
694 285 298 286 
695 285 287 382 
696 285 382 373 
697 286 369 287 
698 298 365 286 
699 369 286 365 
700 369 381 287 
701 381 392 287 
702 287 392 382 
703 288 289 290 
704 288 328 289 
705 290 363 288 
706 305 328 288 
707 305 288 339 
708 339 288 354 
709 363 354 288 
710 289 291 290 
711 291 289 292 
712 328 292 289 
713 291 347 290 
714 290 347 345 
715 290 345 363 
716 366 347 291 
717 328 293 292 
718 293 294 295 
719 294 293 328 
720 295 294 296 
721 294 303 296 
722 294 437 303 
723 304 294 305 
724 304 421 294 
725 294 328 305 
726 420 294 421 
727 437 294 420 
728 296 360 295 
729 303 302 296 
730 360 296 302 
731 306 384 297 
732 384 386 297 
733 300 299 301 
734 300 436 299 
735 299 327 301 
736 300 301 302 
737 300 302 303 
738 303 436 300 
739 303 435 436 
740 435 303 437 
741 339 304 305 
742 338 304 339 
743 338 438 304 
744 421 304 422 
745 422 304 438 
746 306 325 391 
747 384 306 390 
748 391 390 306 
749 308 309 351 
750 330 308 356 
751 356 308 351 
752 326 340 309 
753 309 340 351 
754 310 335 311 
755 310 354 335 
756 338 339 310 
757 310 417 338 
758 339 354 310 
759 417 310 400 
760 335 322 311 
761 313 314 331 
762 332 314 315 
763 332 331 314 
764 316 315 317 
765 315 316 337 
766 337 332 315 
767 316 317 318 
768 316 318 358 
769 337 316 358 
770 318 317 319 
771 317 428 319 
772 428 317 427 
773 320 318 319 
774 358 318 320 
775 319 321 320 
776 319 333 321 
777 333 319 334 
778 319 429 334 
779 429 319 428 
780 322 391 324 
781 322 335 345 
782 345 388 322 
783 389 322 388 
784 322 389 391 
785 323 324 325 
786 325 324 391 
787 369 330 356 
788 330 369 365 
789 341 332 342 
790 333 334 359 
791 359 334 352 
792 334 367 352 
793 439 367 334 
794 334 429 431 
795 431 439 334 
796 335 363 345 
797 354 363 335 
798 402 338 417 
799 338 402 438 
800 351 340 355 
801 364 341 342 
802 364 355 341 
803 343 364 342 
804 344 387 343 
805 387 364 343 
806 393 344 383 
807 344 393 387 
808 346 345 347 
809 388 345 346 
810 346 347 348 
811 349 346 348 
812 346 349 350 
813 350 389 346 
814 389 388 346 
815 348 347 366 
816 366 349 348 
817 390 350 384 
818 390 389 350 
819 355 357 351 
820 356 351 357 
821 361 352 353 
822 368 357 355 
823 355 364 368 
824 368 356 357 
825 381 356 368 
826 369 356 381 
827 364 387 368 
828 381 368 387 
829 380 379 370 
830 374 373 378 
831 373 375 378 
832 373 382 375 
833 375 376 377 
834 376 375 383 
835 378 375 377 
836 382 383 375 
837 376 385 377 
838 385 376 386 
839 381 387 392 
840 382 392 383 
841 392 393 383 
842 384 385 386 
843 393 392 387 
844 391 389 390 
845 394 395 396 
846 394 407 395 
847 395 432 396 
848 407 406 395 
849 397 398 399 
850 427 397 399 
851 399 398 425 
852 415 416 399 
853 434 415 399 
854 416 427 399 
855 425 434 399 
856 401 402 400 
857 402 417 400 
858 419 424 401 
859 403 418 404 
860 403 408 409 
861 426 403 409 
862 403 426 418 
863 404 414 412 
864 413 414 404 
865 413 404 418 
866 405 406 407 
867 406 405 423 
868 409 408 410 
869 410 408 411 
870 410 411 433 
871 427 416 428 
872 430 428 416 
873 420 421 422 
874 430 429 428 
875 429 430 431 
876 431 440 439 
3 1 4 1466
877 295 100 360 469 
878 23 171 25 457 
879 23 446 171 457 
880 243 443 462 480 
881 243 117 455 480 
882 442 462 443 480 
883 243 455 443 480 
884 296 295 360 469 
885 284 462 443 477 
886 293 100 295 445 
887 23 414 446 457 
888 119 445 455 480 
889 73 87 451 453 
890 309 340 443 483 
891 464 471 388 478 
892 128 461 12 482 
893 344 452 443 473 
894 442 450 445 470 
895 441 443 442 462 
896 8 6 126 448 
897 461 466 12 482 
898 243 443 284 462 
899 426 449 409 459 
900 383 455 452 473 
901 241 201 180 479 
902 127 128 12 482 
903 309 443 340 477 
904 447 461 128 482 
905 250 458 460 477 
906 293 445 295 464 
907 284 243 270 443 
908 309 284 443 477 
909 140 154 155 448 
910 171 446 140 448 
911 409 449 452 459 
912 171 448 140 457 
913 87 88 202 451 
914 86 156 92 463 
915 295 445 100 469 
916 442 443 441 452 
917 344 393 473 483 
918 251 465 458 477 
919 250 251 458 477 
920 330 365 356 473 
921 181 444 201 480 
922 127 12 466 482 
923 140 448 155 457 
924 204 449 379 476 
925 452 455 443 473 
926 383 344 393 473 
927 442 451 462 480 
928 119 450 445 480 
929 443 452 344 465 
930 73 451 74 456 
931 443 455 442 480 
932 210 209 206 208 
933 76 447 128 482 
934 371 218 214 476 
935 156 444 92 463 
936 116 161 121 114 
937 174 127 12 466 
938 31 9 30 466 
939 76 128 127 482 
940 444 451 87 453 
941 250 458 331 460 
942 87 444 88 451 
943 441 442 451 462 
944 132 449 204 452 
945 344 465 452 476 
946 447 466 461 482 
947 446 448 171 457 
948 73 453 451 456 
949 414 446 457 459 
950 119 445 118 455 
951 344 383 452 473 
952 344 473 443 483 
953 31 30 32 466 
954 414 23 446 472 
955 241 450 201 479 
956 119 455 117 480 
957 446 454 448 457 
958 314 331 458 460 
959 253 45 46 447 
960 62 85 56 463 
961 171 140 155 457 
962 441 448 446 454 
963 174 12 9 466 
964 6 448 150 482 
965 201 444 450 480 
966 255 46 235 447 
967 92 444 156 479 
968 132 409 449 452 
969 119 234 450 480 
970 12 461 9 466 
971 214 215 371 476 
972 27 28 154 448 
973 442 452 408 471 
974 132 409 426 449 
975 166 167 285 298 
976 134 144 372 467 
977 213 344 452 476 
978 32 174 31 466 
979 167 455 445 478 
980 330 443 270 455 
981 60 446 451 482 
982 441 452 449 459 
983 309 443 308 483 
984 81 60 446 451 
985 180 201 181 444 
986 386 452 385 471 
987 447 462 45 477 
988 286 287 382 285 
989 27 29 28 448 
990 101 100 102 478 
991 60 451 462 482 
992 379 370 449 467 
993 88 444 89 451 
994 450 470 442 481 
995 234 201 450 480 
996 340 477 443 483 
997 144 370 372 467 
998 386 410 452 471 
999 201 444 180 479 
1000 332 331 250 458 
1001 31 174 9 466 
1002 183 451 59 480 
1003 442 455 445 480 
1004 443 455 330 473 
1005 140 150 154 448 
1006 170 360 100 469 
1007 284 265 462 477 
1008 126 127 174 466 
1009 81 446 60 482 
1010 6 126 448 482 
1011 443 477 465 483 
1012 449 458 429 475 
1013 253 447 239 462 
1014 253 239 261 462 
1015 60 59 61 462 
1016 151 156 205 157 
1017 293 328 292 464 
1018 416 458 448 466 
1019 137 136 51 467 
1020 376 452 455 471 
1021 175 88 176 444 
1022 441 462 451 482 
1023 455 471 445 478 
1024 62 56 57 463 
1025 60 451 59 462 
1026 443 452 442 455 
1027 309 284 308 443 
1028 454 457 446 459 
1029 204 452 449 476 
1030 88 89 202 451 
1031 443 465 344 483 
1032 379 204 134 467 
1033 379 449 204 467 
1034 52 65 66 467 
1035 183 59 451 462 
1036 126 174 32 466 
1037 121 162 116 122 
1038 441 451 446 482 
1039 447 262 461 474 
1040 416 454 448 458 
1041 268 445 464 470 
1042 140 446 150 448 
1043 379 134 370 467 
1044 443 473 356 483 
1045 442 445 268 470 
1046 334 65 51 467 
1047 340 355 477 483 
1048 222 458 332 465 
1049 293 295 294 464 
1050 156 463 423 468 
1051 193 192 194 466 
1052 388 464 411 471 
1053 344 383 213 452 
1054 448 458 441 466 
1055 312 237 236 447 
1056 376 452 383 455 
1057 441 454 446 459 
1058 101 100 445 469 
1059 201 450 444 479 
1060 458 465 222 475 
1061 217 353 359 467 
1062 235 43 447 461 
1063 218 467 217 475 
1064 62 63 95 463 
1065 448 454 441 458 
1066 79 453 34 463 
1067 410 408 452 471 
1068 126 127 466 482 
1069 14 13 15 224 
1070 401 470 468 481 
1071 126 32 448 466 
1072 183 462 451 480 
1073 234 199 201 480 
1074 251 332 458 465 
1075 213 452 211 476 
1076 376 383 375 455 
1077 235 447 262 461 
1078 449 452 441 465 
1079 376 385 452 471 
1080 416 428 454 458 
1081 243 284 265 462 
1082 134 372 370 467 
1083 370 379 449 476 
1084 136 132 426 449 
1085 445 450 442 480 
1086 294 295 296 469 
1087 167 374 455 478 
1088 132 204 133 452 
1089 441 458 465 477 
1090 244 450 468 470 
1091 156 94 95 463 
1092 378 373 374 455 
1093 72 87 73 453 
1094 261 265 45 462 
1095 365 330 455 473 
1096 250 251 332 458 
1097 52 66 144 467 
1098 357 355 340 483 
1099 441 443 462 477 
1100 410 210 386 452 
1101 427 460 458 466 
1102 205 195 151 157 
1103 136 204 132 449 
1104 81 60 75 482 
1105 442 480 450 481 
1106 388 471 350 478 
1107 81 451 446 456 
1108 374 471 455 478 
1109 376 455 377 471 
1110 204 449 134 467 
1111 51 52 144 467 
1112 92 156 86 91 
1113 441 446 448 482 
1114 443 441 452 465 
1115 28 185 186 448 
1116 68 353 217 467 
1117 11 9 12 461 
1118 119 199 234 480 
1119 446 459 414 472 
1120 371 475 218 476 
1121 5 150 140 446 
1122 376 377 385 471 
1123 94 85 62 463 
1124 450 480 444 481 
1125 316 458 222 475 
1126 330 308 443 473 
1127 205 157 156 468 
1128 441 460 458 477 
1129 243 462 184 480 
1130 101 445 100 478 
1131 101 169 100 469 
1132 184 265 261 462 
1133 441 465 443 477 
1134 452 465 449 476 
1135 268 445 442 471 
1136 170 100 169 469 
1137 458 460 441 466 
1138 401 468 424 481 
1139 60 202 59 451 
1140 315 317 279 458 
1141 61 462 77 482 
1142 64 62 94 85 
1143 219 222 465 475 
1144 327 299 281 282 
1145 373 167 374 455 
1146 441 449 454 459 
1147 414 457 454 459 
1148 126 466 448 482 
1149 155 448 186 457 
1150 235 260 43 461 
1151 268 464 445 471 
1152 45 462 265 477 
1153 467 475 371 476 
1154 449 441 458 465 
1155 8 126 32 448 
1156 265 284 309 477 
1157 465 477 341 483 
1158 81 74 60 451 
1159 378 455 374 471 
1160 243 265 184 462 
1161 442 441 451 459 
1162 125 446 81 482 
1163 51 65 52 467 
1164 444 470 450 481 
1165 312 447 45 477 
1166 55 79 34 463 
1167 262 447 237 474 
1168 367 66 65 467 
1169 61 239 77 462 
1170 408 452 442 459 
1171 163 336 164 469 
1172 144 137 51 467 
1173 447 441 460 466 
1174 34 79 33 453 
1175 151 205 156 423 
1176 76 44 128 447 
1177 5 139 150 446 
1178 449 454 429 458 
1179 82 106 141 456 
1180 134 204 136 449 
1181 239 447 77 462 
1182 371 467 218 475 
1183 442 452 441 459 
1184 468 470 444 481 
1185 218 217 219 475 
1186 446 456 451 459 
1187 319 429 428 475 
1188 423 463 189 468 
1189 218 475 219 476 
1190 29 185 28 448 
1191 182 184 183 480 
1192 430 416 428 454 
1193 244 444 450 479 
1194 237 235 236 447 
1195 86 92 72 463 
1196 166 271 118 455 
1197 81 74 451 456 
1198 334 431 418 439 
1199 78 239 253 447 
1200 446 451 441 459 
1201 36 453 79 463 
1202 38 153 40 454 
1203 194 225 226 461 
1204 62 57 63 463 
1205 449 475 467 476 
1206 316 317 315 458 
1207 188 30 192 466 
1208 428 429 454 458 
1209 235 237 262 447 
1210 235 245 260 461 
1211 252 237 447 474 
1212 356 443 308 473 
1213 370 372 134 379 
1214 144 134 137 467 
1215 246 398 224 245 
1216 315 279 314 458 
1217 198 59 451 480 
1218 8 29 27 448 
1219 447 441 466 482 
1220 445 471 464 478 
1221 377 455 378 471 
1222 447 460 441 477 
1223 5 106 2 456 
1224 27 154 150 448 
1225 388 311 274 464 
1226 94 62 95 463 
1227 366 292 328 464 
1228 4 139 5 446 
1229 8 188 29 448 
1230 157 151 156 95 
1231 441 454 449 458 
1232 386 376 385 452 
1233 243 242 117 480 
1234 237 447 312 477 
1235 74 80 37 456 
1236 125 81 75 482 
1237 205 195 223 151 
1238 198 59 89 451 
1239 210 133 212 452 
1240 371 217 218 467 
1241 36 79 55 463 
1242 244 450 444 468 
1243 188 185 29 448 
1244 11 12 10 461 
1245 72 444 87 453 
1246 385 384 386 471 
1247 429 458 428 475 
1248 252 447 237 477 
1249 101 445 168 469 
1250 137 71 70 144 
1251 442 455 452 471 
1252 121 114 299 436 
1253 357 308 356 483 
1254 349 388 366 345 
1255 76 44 447 482 
1256 205 156 423 468 
1257 442 470 268 481 
1258 158 156 468 479 
1259 219 475 465 476 
1260 251 341 465 477 
1261 9 192 30 466 
1262 89 59 202 451 
1263 244 468 444 479 
1264 447 460 252 474 
1265 33 35 17 453 
1266 241 122 450 479 
1267 82 453 83 456 
1268 444 480 451 481 
1269 15 224 10 461 
1270 195 157 205 468 
1271 353 66 359 467 
1272 202 60 74 451 
1273 235 262 245 461 
1274 299 121 436 450 
1275 168 445 101 478 
1276 54 57 56 463 
1277 141 456 446 472 
1278 168 167 445 478 
1279 83 453 1 456 
1280 37 453 73 456 
1281 349 366 388 478 
1282 445 455 442 471 
1283 283 461 245 474 
1284 409 452 408 459 
1285 183 184 462 480 
1286 383 375 455 473 
1287 254 43 260 461 
1288 77 462 447 482 
1289 88 87 176 444 
1290 366 99 101 478 
1291 427 458 416 466 
1292 14 224 15 461 
1293 101 168 169 469 
1294 404 403 269 459 
1295 72 453 36 463 
1296 252 460 447 477 
1297 7 150 6 448 
1298 92 444 72 463 
1299 250 460 252 477 
1300 308 443 356 483 
1301 183 61 59 462 
1302 138 139 4 446 
1303 198 451 89 480 
1304 299 436 300 450 
1305 146 178 23 414 
1306 77 447 44 482 
1307 90 88 175 444 
1308 91 156 86 94 
1309 456 459 446 472 
1310 14 232 224 246 
1311 77 239 78 447 
1312 244 450 258 479 
1313 166 167 271 455 
1314 448 466 441 482 
1315 430 39 416 454 
1316 437 256 231 470 
1317 219 465 214 476 
1318 430 428 429 454 
1319 6 8 7 448 
1320 424 205 423 468 
1321 264 340 355 477 
1322 214 218 219 476 
1323 411 350 388 471 
1324 68 144 66 467 
1325 195 151 157 131 
1326 181 198 89 480 
1327 74 37 73 456 
1328 366 102 464 478 
1329 353 68 66 467 
1330 376 213 383 452 
1331 444 453 72 463 
1332 101 102 366 478 
1333 441 462 447 477 
1334 37 1 453 456 
1335 409 410 408 452 
1336 245 398 224 461 
1337 66 333 359 467 
1338 94 84 85 463 
1339 149 153 152 454 
1340 136 426 418 449 
1341 72 176 87 444 
1342 125 126 6 482 
1343 437 450 445 469 
1344 418 136 449 467 
1345 435 256 259 160 
1346 75 127 125 482 
1347 406 407 453 463 
1348 252 262 237 474 
1349 341 477 355 483 
1350 410 411 408 471 
1351 151 157 131 95 
1352 366 464 388 478 
1353 35 83 19 453 
1354 428 427 317 458 
1355 435 303 436 450 
1356 12 9 11 174 
1357 445 437 464 470 
1358 451 459 456 481 
1359 314 458 279 460 
1360 449 465 458 475 
1361 271 330 270 455 
1362 305 366 328 464 
1363 104 468 401 470 
1364 328 293 294 464 
1365 367 65 334 467 
1366 444 468 450 470 
1367 11 10 9 461 
1368 343 344 465 483 
1369 406 405 407 463 
1370 219 222 342 465 
1371 376 375 377 455 
1372 444 463 156 468 
1373 453 456 82 472 
1374 305 339 366 464 
1375 426 409 403 459 
1376 410 386 206 433 
1377 63 95 151 130 
1378 125 127 126 482 
1379 217 467 221 475 
1380 377 375 378 455 
1381 112 258 436 479 
1382 451 456 453 481 
1383 424 423 189 468 
1384 269 412 404 459 
1385 216 343 344 465 
1386 384 97 350 471 
1387 27 7 8 448 
1388 370 211 379 476 
1389 398 224 232 246 
1390 82 19 83 453 
1391 237 312 263 477 
1392 302 336 281 469 
1393 451 453 444 481 
1394 36 55 86 463 
1395 250 252 251 477 
1396 445 450 437 470 
1397 332 222 316 458 
1398 82 456 141 472 
1399 342 214 219 465 
1400 261 239 183 462 
1401 459 472 456 481 
1402 274 311 310 464 
1403 103 468 104 470 
1404 220 217 221 475 
1405 316 318 458 475 
1406 50 453 407 463 
1407 186 448 193 457 
1408 9 10 225 461 
1409 427 279 317 458 
1410 27 150 7 448 
1411 217 362 68 467 
1412 296 303 294 469 
1413 359 333 221 467 
1414 410 133 210 452 
1415 441 447 462 482 
1416 221 467 333 475 
1417 216 342 343 465 
1418 436 258 450 479 
1419 324 274 391 322 
1420 235 47 46 255 
1421 242 199 119 480 
1422 384 350 411 471 
1423 176 72 175 444 
1424 424 401 104 468 
1425 34 33 17 453 
1426 444 468 156 479 
1427 283 245 248 474 
1428 92 175 444 479 
1429 271 365 330 455 
1430 9 31 11 174 
1431 220 219 217 475 
1432 448 454 415 457 
1433 401 268 470 481 
1434 453 456 472 481 
1435 90 175 197 479 
1436 246 267 398 245 
1437 10 12 128 461 
1438 217 359 221 467 
1439 280 461 283 474 
1440 103 272 273 470 
1441 244 259 258 450 
1442 317 316 318 458 
1443 405 135 407 463 
1444 465 475 449 476 
1445 124 143 70 144 
1446 180 444 90 479 
1447 68 361 217 353 
1448 70 173 137 144 
1449 310 366 339 464 
1450 189 406 453 463 
1451 254 260 245 461 
1452 372 144 67 370 
1453 416 427 428 458 
1454 122 113 112 479 
1455 3 2 1 456 
1456 419 424 468 481 
1457 118 445 165 455 
1458 264 263 340 477 
1459 418 429 449 454 
1460 277 278 460 474 
1461 451 480 442 481 
1462 214 465 216 476 
1463 224 225 10 461 
1464 244 256 259 450 
1465 415 448 416 454 
1466 430 429 431 454 
1467 71 51 144 137 
1468 321 221 333 475 
1469 418 51 136 467 
1470 55 49 48 463 
1471 148 39 40 454 
1472 279 458 427 460 
1473 193 186 185 448 
1474 104 272 103 470 
1475 228 227 244 468 
1476 302 281 300 469 
1477 57 58 63 463 
1478 226 224 398 461 
1479 330 356 308 473 
1480 55 34 49 463 
1481 242 119 117 480 
1482 153 38 152 454 
1483 256 450 244 470 
1484 436 450 122 479 
1485 278 252 329 460 
1486 144 68 371 467 
1487 125 138 4 446 
1488 97 350 471 478 
1489 137 71 51 70 
1490 76 127 75 482 
1491 419 401 424 481 
1492 412 414 459 472 
1493 67 68 371 144 
1494 19 453 82 472 
1495 264 251 252 477 
1496 355 357 368 483 
1497 385 96 97 471 
1498 365 298 285 455 
1499 14 230 232 246 
1500 68 144 124 66 
1501 264 252 237 477 
1502 65 334 53 439 
1503 175 72 92 444 
1504 373 378 375 455 
1505 83 106 82 456 
1506 305 328 294 464 
1507 161 299 163 121 
1508 353 68 124 66 
1509 216 465 344 476 
1510 144 371 370 467 
1511 365 271 298 455 
1512 418 413 152 454 
1513 90 444 175 479 
1514 3 4 2 456 
1515 193 39 42 457 
1516 144 371 67 370 
1517 328 305 288 366 
1518 1 2 83 456 
1519 39 415 454 457 
1520 112 436 122 479 
1521 384 385 97 471 
1522 41 42 39 457 
1523 145 142 203 457 
1524 374 96 471 478 
1525 178 432 21 472 
1526 418 449 426 454 
1527 367 359 66 333 
1528 341 264 355 477 
1529 118 165 166 455 
1530 144 173 134 372 
1531 232 230 14 224 
1532 336 170 302 301 
1533 189 419 424 468 
1534 399 466 461 474 
1535 303 300 436 450 
1536 333 319 321 475 
1537 97 471 96 478 
1538 227 157 195 468 
1539 41 39 148 457 
1540 321 319 320 475 
1541 195 223 151 131 
1542 14 15 16 461 
1543 244 468 231 470 
1544 263 264 237 477 
1545 48 34 55 54 
1546 342 216 214 465 
1547 338 310 339 464 
1548 194 9 461 466 
1549 399 460 466 474 
1550 43 254 14 461 
1551 381 369 287 473 
1552 43 260 235 238 
1553 15 10 16 461 
1554 418 334 51 467 
1555 261 183 184 462 
1556 303 450 437 469 
1557 225 224 226 461 
1558 437 450 256 470 
1559 66 367 333 467 
1560 39 415 416 454 
1561 303 300 450 469 
1562 103 231 468 470 
1563 217 371 362 467 
1564 49 34 55 48 
1565 298 271 167 455 
1566 321 320 221 475 
1567 61 183 239 462 
1568 243 184 242 480 
1569 190 269 268 481 
1570 418 53 334 439 
1571 106 83 2 456 
1572 408 269 442 471 
1573 39 454 148 457 
1574 241 240 201 450 
1575 171 20 23 26 
1576 233 197 123 479 
1577 305 304 339 464 
1578 356 473 381 483 
1579 178 179 23 22 
1580 252 460 278 474 
1581 10 128 16 461 
1582 418 431 429 454 
1583 298 167 373 455 
1584 52 51 53 65 
1585 305 294 304 464 
1586 220 320 222 475 
1587 390 384 350 274 
1588 245 461 262 474 
1589 242 182 199 480 
1590 230 257 246 254 
1591 69 68 144 124 
1592 371 362 218 217 
1593 58 135 63 463 
1594 48 57 54 463 
1595 294 303 437 469 
1596 386 210 410 206 
1597 268 401 419 481 
1598 24 22 23 179 
1599 373 285 298 455 
1600 116 161 162 121 
1601 228 158 227 468 
1602 55 48 54 463 
1603 199 182 201 480 
1604 247 283 248 249 
1605 371 68 362 467 
1606 121 163 240 469 
1607 241 122 120 450 
1608 42 203 196 457 
1609 78 44 77 447 
1610 435 258 259 450 
1611 350 388 349 346 
1612 220 221 320 475 
1613 382 286 365 473 
1614 294 421 304 464 
1615 399 460 427 466 
1616 177 142 25 457 
1617 54 84 86 463 
1618 299 161 114 121 
1619 80 74 81 456 
1620 414 178 23 472 
1621 356 365 369 473 
1622 21 19 20 472 
1623 86 72 36 463 
1624 451 442 459 481 
1625 334 431 429 418 
1626 369 286 287 473 
1627 385 377 96 471 
1628 412 472 459 481 
1629 55 54 86 463 
1630 356 357 351 308 
1631 435 259 256 450 
1632 267 232 257 246 
1633 216 344 215 476 
1634 381 473 392 483 
1635 219 220 222 475 
1636 392 473 393 483 
1637 274 310 400 464 
1638 43 14 16 461 
1639 268 411 464 471 
1640 240 436 121 450 
1641 213 211 215 476 
1642 203 42 41 457 
1643 338 339 304 464 
1644 228 108 158 468 
1645 41 39 40 148 
1646 356 369 381 473 
1647 9 225 194 461 
1648 444 453 419 481 
1649 229 13 230 224 
1650 345 349 388 346 
1651 213 215 344 476 
1652 103 105 104 468 
1653 250 329 252 460 
1654 370 371 215 476 
1655 108 158 468 479 
1656 336 163 281 469 
1657 25 142 146 457 
1658 15 13 229 224 
1659 277 276 278 474 
1660 417 400 310 464 
1661 251 264 341 477 
1662 103 273 231 470 
1663 257 232 230 246 
1664 134 137 173 144 
1665 233 123 113 479 
1666 278 276 307 474 
1667 201 240 234 450 
1668 419 468 444 481 
1669 381 287 392 473 
1670 349 388 350 478 
1671 355 340 351 357 
1672 248 245 283 247 
1673 144 52 71 66 
1674 13 14 230 224 
1675 177 171 25 26 
1676 311 388 322 345 
1677 244 227 231 468 
1678 408 411 269 471 
1679 435 436 258 450 
1680 215 211 370 476 
1681 397 460 399 474 
1682 82 141 20 472 
1683 307 276 249 474 
1684 268 442 269 471 
1685 416 448 415 466 
1686 100 295 360 170 
1687 23 178 20 472 
1688 320 319 318 475 
1689 256 244 231 470 
1690 169 336 170 469 
1691 18 395 50 453 
1692 335 311 322 345 
1693 184 182 242 480 
1694 330 369 356 365 
1695 288 291 363 290 
1696 66 352 359 367 
1697 98 374 101 478 
1698 215 214 216 476 
1699 368 357 356 483 
1700 146 178 179 23 
1701 205 104 105 468 
1702 369 365 286 473 
1703 260 43 254 238 
1704 368 356 381 483 
1705 404 414 454 459 
1706 226 425 194 461 
1707 147 145 148 457 
1708 156 157 158 468 
1709 373 455 375 473 
1710 288 291 290 289 
1711 397 461 280 474 
1712 392 393 387 483 
1713 415 448 193 466 
1714 152 38 431 454 
1715 316 332 337 222 
1716 203 172 142 145 
1717 245 267 283 247 
1718 415 193 448 457 
1719 122 436 120 450 
1720 179 23 25 146 
1721 246 257 267 247 
1722 194 192 9 466 
1723 404 454 414 457 
1724 14 230 246 254 
1725 233 200 197 479 
1726 348 366 347 349 
1727 364 341 355 483 
1728 191 453 19 472 
1729 437 231 420 470 
1730 227 158 157 468 
1731 19 82 20 472 
1732 285 365 286 298 
1733 166 167 298 271 
1734 269 442 268 481 
1735 226 398 425 461 
1736 382 287 286 473 
1737 268 464 400 470 
1738 268 419 190 481 
1739 409 408 403 459 
1740 307 329 278 252 
1741 111 113 123 479 
1742 349 350 99 478 
1743 93 110 111 479 
1744 132 136 134 204 
1745 350 274 411 388 
1746 4 3 80 456 
1747 95 131 151 130 
1748 414 146 413 457 
1749 381 387 368 483 
1750 68 67 69 144 
1751 361 217 362 68 
1752 135 151 130 63 
1753 252 278 307 474 
1754 353 352 359 66 
1755 152 431 418 454 
1756 431 152 418 440 
1757 254 43 14 238 
1758 245 262 248 474 
1759 404 412 414 459 
1760 200 122 241 479 
1761 245 246 267 247 
1762 334 333 367 467 
1763 273 420 231 470 
1764 144 143 173 372 
1765 281 336 302 301 
1766 324 274 323 391 
1767 368 387 364 483 
1768 383 393 375 473 
1769 349 99 366 478 
1770 299 281 282 163 
1771 193 186 196 185 
1772 193 415 39 457 
1773 123 93 111 479 
1774 124 144 71 66 
1775 110 159 111 479 
1776 268 269 411 471 
1777 401 400 402 470 
1778 434 415 193 466 
1779 231 227 105 468 
1780 365 286 382 285 
1781 392 387 381 483 
1782 205 424 104 468 
1783 138 7 150 6 
1784 233 115 122 113 
1785 190 453 472 481 
1786 401 268 400 470 
1787 274 384 350 411 
1788 164 336 169 469 
1789 391 275 325 306 
1790 127 75 125 76 
1791 231 105 103 468 
1792 397 399 461 474 
1793 375 382 373 473 
1794 97 99 350 478 
1795 418 439 431 440 
1796 355 368 364 483 
1797 412 190 472 481 
1798 300 303 302 469 
1799 226 224 232 398 
1800 120 122 121 436 
1801 267 232 246 398 
1802 120 240 241 450 
1803 145 146 142 457 
1804 228 159 108 479 
1805 311 388 389 322 
1806 269 412 459 481 
1807 122 113 436 112 
1808 98 101 99 478 
1809 147 146 145 457 
1810 115 122 113 436 
1811 379 372 134 204 
1812 274 391 390 323 
1813 190 419 453 481 
1814 29 8 30 188 
1815 172 25 26 177 
1816 121 240 120 436 
1817 231 244 228 227 
1818 274 306 275 390 
1819 120 436 240 450 
1820 189 190 419 453 
1821 343 364 387 483 
1822 108 159 110 479 
1823 404 454 403 459 
1824 233 115 116 122 
1825 403 418 426 454 
1826 252 307 262 474 
1827 98 99 97 478 
1828 285 167 373 298 
1829 388 350 389 346 
1830 391 275 306 390 
1831 404 413 418 454 
1832 190 453 191 472 
1833 49 17 34 48 
1834 230 232 229 224 
1835 358 222 220 320 
1836 347 346 348 349 
1837 332 315 316 337 
1838 22 20 23 178 
1839 274 400 268 464 
1840 396 432 191 472 
1841 366 349 345 347 
1842 323 390 274 275 
1843 143 173 70 144 
1844 191 178 412 472 
1845 335 363 354 345 
1846 275 391 325 323 
1847 167 164 165 166 
1848 353 124 71 66 
1849 178 191 432 472 
1850 162 161 266 121 
1851 439 418 53 440 
1852 144 71 70 124 
1853 23 26 25 171 
1854 414 412 178 472 
1855 178 21 22 20 
1856 413 404 414 457 
1857 269 190 412 481 
1858 396 21 432 472 
1859 347 346 349 345 
1860 380 372 370 379 
1861 367 334 359 333 
1862 246 245 254 260 
1863 207 206 386 433 
1864 386 384 207 433 
1865 67 380 372 370 
1866 412 190 191 472 
1867 391 275 390 323 
1868 21 20 178 472 
1869 207 384 386 297 
1870 274 433 384 411 
1871 147 413 146 457 
1872 366 291 292 102 
1873 177 172 25 142 
1874 311 389 274 322 
1875 204 134 132 133 
1876 232 229 224 226 
1877 23 25 24 179 
1878 282 299 163 161 
1879 388 389 274 311 
1880 161 163 266 121 
1881 208 206 386 207 
1882 404 418 403 454 
1883 413 454 404 457 
1884 142 179 25 146 
1885 207 386 208 297 
1886 115 233 123 113 
1887 62 64 56 85 
1888 206 386 210 208 
1889 297 207 384 433 
1890 255 235 47 238 
1891 38 153 152 440 
1892 163 266 282 161 
1893 129 107 109 91 
1894 323 391 325 324 
1895 25 24 179 142 
1896 431 38 152 440 
1897 160 259 435 258 
1898 394 407 50 395 
1899 425 226 232 398 
1900 51 71 144 52 
1901 352 334 359 367 
1902 65 367 334 439 
1903 204 380 379 372 
1904 274 269 411 268 
1905 265 308 309 284 
1906 163 120 121 240 
1907 432 396 191 395 
1908 269 403 408 459 
1909 338 417 310 464 
1910 193 194 434 466 
1911 455 243 270 117 
1912 455 270 243 443 
1913 473 393 287 392 
1914 202 73 451 74 
1915 451 73 202 87 
1916 171 177 457 155 
1917 171 457 177 25 
1918 482 150 446 448 
1919 150 138 446 139 
1920 165 163 469 240 
1921 165 469 163 164 
1922 28 155 448 186 
1923 28 448 155 154 
1924 331 313 460 314 
1925 331 460 313 250 
1926 462 253 45 261 
1927 462 45 253 447 
1928 478 100 464 445 
1929 478 464 100 102 
1930 293 464 100 445 
1931 293 100 464 102 
1932 389 391 274 322 
1933 389 274 391 390 
1934 200 90 241 180 
1935 479 241 90 180 
1936 89 480 444 181 
1937 444 480 89 451 
1938 78 46 447 253 
1939 78 447 46 255 
1940 307 248 474 249 
1941 307 474 248 262 
1942 283 249 474 248 
1943 283 474 249 276 
1944 467 136 134 137 
1945 467 134 136 449 
1946 204 211 476 379 
1947 476 211 204 452 
1948 104 402 470 401 
1949 470 402 104 272 
1950 445 118 450 119 
1951 234 450 118 119 
1952 340 326 477 263 
1953 340 477 326 309 
1954 265 326 477 309 
1955 464 311 366 388 
1956 464 366 311 310 
1957 345 366 311 388 
1958 345 311 366 310 
1959 469 163 299 121 
1960 389 350 274 390 
1961 389 274 350 388 
1962 84 56 463 54 
1963 84 463 56 85 
1964 92 91 479 156 
1965 92 479 91 93 
1966 158 479 91 156 
1967 463 94 86 156 
1968 463 86 94 84 
1969 198 183 480 182 
1970 480 183 198 59 
1971 466 474 447 461 
1972 447 474 466 460 
1973 351 309 357 340 
1974 351 357 309 308 
1975 483 357 309 340 
1976 483 309 357 308 
1977 47 45 235 46 
1978 447 235 45 46 
1979 14 461 245 224 
1980 245 461 14 254 
1981 245 246 14 224 
1982 14 246 245 254 
1983 467 476 370 449 
1984 370 476 467 371 
1985 482 60 61 462 
1986 452 132 410 133 
1987 452 410 132 409 
1988 20 171 472 141 
1989 20 472 171 23 
1990 446 472 171 141 
1991 446 171 472 23 
1992 308 270 443 284 
1993 308 443 270 330 
1994 107 85 91 129 
1995 107 91 85 94 
1996 86 91 84 129 
1997 86 84 91 94 
1998 91 85 84 129 
1999 91 84 85 94 
2000 456 5 4 2 
2001 456 4 5 446 
2002 150 6 446 138 
2003 150 446 6 482 
2004 125 446 6 138 
2005 125 6 446 482 
2006 166 298 118 271 
2007 166 118 298 165 
2008 125 80 456 4 
2009 456 80 125 81 
2010 456 446 125 4 
2011 125 446 456 81 
2012 455 165 167 445 
2013 455 167 165 166 
2014 313 329 460 278 
2015 460 329 313 250 
2016 196 457 193 42 
2017 193 457 196 186 
2018 455 285 473 373 
2019 455 473 285 365 
2020 382 473 285 373 
2021 382 285 473 365 
2022 453 83 33 35 
2023 196 187 457 203 
2024 196 457 187 186 
2025 463 50 18 49 
2026 463 18 50 453 
2027 17 463 18 49 
2028 17 18 463 453 
2029 34 463 17 49 
2030 34 17 463 453 
2031 453 1 33 83 
2032 453 33 1 37 
2033 288 339 366 305 
2034 117 118 455 119 
2035 469 296 302 360 
2036 469 302 296 303 
2037 102 292 464 293 
2038 102 464 292 366 
2039 426 454 459 403 
2040 459 454 426 449 
2041 122 115 121 436 
2042 122 121 115 116 
2043 114 121 115 436 
2044 114 115 121 116 
2045 277 313 460 278 
2046 338 470 438 402 
2047 273 470 422 420 
2048 111 479 112 113 
2049 468 189 444 463 
2050 468 444 189 419 
2051 453 444 189 463 
2052 453 189 444 419 
2053 77 60 482 75 
2054 482 60 77 61 
2055 479 228 468 108 
2056 479 468 228 244 
2057 410 411 386 433 
2058 410 386 411 471 
2059 384 386 411 433 
2060 384 411 386 471 
2061 51 53 334 418 
2062 51 334 53 65 
2063 110 91 479 93 
2064 148 147 454 149 
2065 152 454 147 149 
2066 152 147 454 413 
2067 17 19 453 35 
2068 453 19 17 18 
2069 479 175 93 92 
2070 302 170 469 360 
2071 469 170 302 336 
2072 288 354 366 339 
2073 23 146 457 25 
2074 23 457 146 414 
2075 159 259 244 228 
2076 244 259 159 258 
2077 244 479 159 228 
2078 159 479 244 258 
2079 172 142 457 203 
2080 457 142 172 177 
2081 457 187 172 203 
2082 172 187 457 177 
2083 212 204 452 133 
2084 212 452 204 211 
2085 334 319 475 429 
2086 475 319 334 333 
2087 334 467 475 333 
2088 361 353 359 217 
2089 359 353 361 352 
2090 359 221 361 217 
2091 361 221 359 352 
2092 395 407 453 406 
2093 395 453 407 50 
2094 314 277 460 279 
2095 460 277 314 313 
2096 478 96 98 374 
2097 478 98 96 97 
2098 479 233 122 113 
2099 479 122 233 200 
2100 335 310 345 354 
2101 335 345 310 311 
2102 145 41 457 203 
2103 145 457 41 148 
2104 479 111 258 159 
2105 479 258 111 112 
2106 160 258 111 159 
2107 160 111 258 112 
2108 459 269 442 408 
2109 459 442 269 481 
2110 457 147 454 148 
2111 457 454 147 413 
2112 168 374 478 101 
2113 478 374 168 167 
2114 317 319 475 318 
2115 475 319 317 428 
2116 475 458 317 318 
2117 317 458 475 428 
2118 118 270 455 271 
2119 118 455 270 117 
2120 8 30 448 32 
2121 8 448 30 188 
2122 466 448 30 32 
2123 466 30 448 188 
2124 326 312 477 263 
2125 464 274 411 268 
2126 464 411 274 388 
2127 94 91 158 107 
2128 94 158 91 156 
2129 366 292 288 328 
2130 366 288 292 291 
2131 289 288 292 328 
2132 289 292 288 291 
2133 38 39 454 40 
2134 213 212 452 376 
2135 213 452 212 211 
2136 364 342 465 343 
2137 465 342 364 341 
2138 465 483 364 343 
2139 364 483 465 341 
2140 155 187 457 186 
2141 155 457 187 177 
2142 378 96 471 374 
2143 378 471 96 377 
2144 180 89 444 181 
2145 470 421 422 420 
2146 148 153 454 40 
2147 148 454 153 149 
2148 344 387 483 343 
2149 344 483 387 393 
2150 406 191 453 395 
2151 272 470 422 273 
2152 90 89 444 180 
2153 444 89 90 88 
2154 277 283 474 280 
2155 474 283 277 276 
2156 469 164 168 169 
2157 281 299 469 163 
2158 281 469 299 300 
2159 435 112 258 436 
2160 258 112 435 160 
2161 16 461 447 43 
2162 447 461 16 128 
2163 447 44 16 43 
2164 16 44 447 128 
2165 466 399 416 427 
2166 434 425 466 194 
2167 434 466 425 399 
2168 461 466 425 194 
2169 461 425 466 399 
2170 3 37 456 1 
2171 3 456 37 80 
2172 447 44 255 78 
2173 238 255 44 78 
2174 399 461 280 397 
2175 280 398 399 397 
2176 192 185 466 193 
2177 192 466 185 188 
2178 448 466 185 193 
2179 448 185 466 188 
2180 341 465 332 251 
2181 427 397 460 399 
2182 460 397 427 279 
2183 44 75 482 76 
2184 44 482 75 77 
2185 399 415 466 416 
2186 399 466 415 434 
2187 280 474 460 397 
2188 460 474 280 277 
2189 460 279 280 397 
2190 280 279 460 277 
2191 326 45 477 312 
2192 326 477 45 265 
2193 358 222 316 337 
2194 431 39 454 38 
2195 431 454 39 430 
2196 206 210 133 209 
2197 133 210 206 410 
2198 133 132 206 209 
2199 206 132 133 410 
2200 210 376 452 212 
2201 210 452 376 386 
2202 207 297 274 433 
2203 384 297 390 306 
2204 297 274 390 306 
2205 299 281 301 327 
2206 438 272 470 422 
2207 438 470 272 402 
2208 366 345 291 347 
2209 290 291 345 347 
2210 290 345 291 363 
2211 402 417 470 400 
2212 402 470 417 338 
2213 464 470 417 400 
2214 464 417 470 338 
2215 164 167 469 168 
2216 164 469 167 165 
2217 445 469 167 168 
2218 445 167 469 165 
2219 435 437 450 256 
2220 435 450 437 303 
2221 123 175 479 197 
2222 123 479 175 93 
2223 37 72 453 36 
2224 37 453 72 73 
2225 453 18 191 19 
2226 453 191 18 395 
2227 36 33 453 37 
2228 36 453 33 79 
2229 189 191 453 406 
2230 453 191 189 190 
2231 406 423 463 189 
2232 406 463 423 405 
2233 91 109 158 107 
2234 108 158 109 107 
2235 227 223 205 195 
2236 205 223 227 105 
2237 205 468 227 195 
2238 227 468 205 105 
2239 58 48 463 57 
2240 58 463 48 49 
2241 135 463 50 407 
2242 151 135 95 63 
2243 463 95 135 63 
2244 314 332 458 331 
2245 300 301 281 302 
2246 300 281 301 299 
2247 141 446 140 171 
2248 47 312 235 45 
2249 47 235 312 236 
2250 447 235 312 45 
2251 447 312 235 236 
2252 118 240 450 234 
2253 445 437 294 464 
2254 294 437 445 469 
2255 294 295 445 464 
2256 445 295 294 469 
2257 140 106 456 141 
2258 456 106 140 5 
2259 456 446 140 141 
2260 140 446 456 5 
2261 50 58 463 135 
2262 463 58 50 49 
2263 332 342 465 341 
2264 465 342 332 222 
2265 297 275 274 306 
2266 297 274 275 207 
2267 315 332 458 314 
2268 315 458 332 316 
2269 475 318 222 316 
2270 475 222 318 320 
2271 358 222 318 316 
2272 358 318 222 320 
2273 165 240 450 118 
2274 450 240 165 469 
2275 450 445 165 118 
2276 165 445 450 469 
2277 383 393 382 375 
2278 473 393 382 287 
2279 473 382 393 375 
2280 382 392 393 383 
2281 393 392 382 287 
2282 200 90 479 241 
2283 479 90 200 197 
2284 472 191 21 19 
2285 472 21 191 396 
2286 191 18 21 19 
2287 469 450 299 300 
2288 469 121 450 240 
2289 450 121 469 299 
2290 283 267 398 280 
2291 399 283 398 280 
2292 399 398 283 425 
2293 461 283 399 280 
2294 461 399 283 425 
2295 398 461 283 425 
2296 398 245 283 461 
2297 398 283 245 267 
2298 156 463 405 423 
2299 405 151 156 423 
2300 354 366 310 345 
2301 354 310 366 339 
2302 334 418 449 467 
2303 449 418 334 429 
2304 449 475 334 467 
2305 334 475 449 429 
2306 464 437 420 470 
2307 420 437 464 294 
2308 420 421 464 470 
2309 464 421 420 294 
2310 464 304 422 421 
2311 422 470 464 421 
2312 304 438 464 422 
2313 304 464 438 338 
2314 470 464 438 422 
2315 470 438 464 338 
2316 44 238 235 255 
2317 235 238 44 43 
2318 235 447 44 255 
2319 44 447 235 43 
2320 297 274 384 390 
2321 384 274 297 433 
2322 191 21 395 396 
2323 394 21 395 50 
2324 394 395 21 396 
2325 354 345 288 366 
2326 354 288 345 363 
2327 291 288 345 366 
2328 291 345 288 363 
2329 480 201 198 182 
2330 480 198 201 181 
2331 199 198 201 182 
2332 199 201 198 181 
2333 18 395 21 50 
2334 21 395 18 191 
2335 108 479 91 158 
2336 91 479 108 110 
2337 91 109 108 158 
2338 108 109 91 110 
2339 135 463 156 95 
2340 156 463 135 405 
2341 156 151 135 95 
2342 135 151 156 405 
$EndElements
