$MeshFormat
4.1 0 8
$EndMeshFormat
$Entities
0 0 0 1
1 0 0 0 1.25 1.25 1.25 0 0 0
$EndEntities
$Nodes
1 125 1 125
2 1 0 125
1
2
3
4
5
6
7
8
9
10
11
12
13
14
15
16
17
18
19
20
21
22
23
24
25
26
27
28
29
30
31
32
33
34
35
36
37
38
39
40
41
42
43
44
45
46
47
48
49
50
51
52
53
54
55
56
57
58
59
60
61
62
63
64
65
66
67
68
69
70
71
72
73
74
75
76
77
78
79
80
81
82
83
84
85
86
87
88
89
90
91
92
93
94
95
96
97
98
99
100
101
102
103
104
105
106
107
108
109
110
111
112
113
114
115
116
117
118
119
120
121
122
123
124
125
0 0 0
0 0 0.25
0 0 0.5
0 0 0.75
0 0 1
0.25 0 0
0.25 0 0.25
0.25 0 0.5
0.25 0 0.75
0.25 0 1
0.5 0 0
0.5 0 0.25
0.5 0 0.5
0.5 0 0.75
0.5 0 1
0.75 0 0
0.75 0 0.25
0.75 0 0.5
0.75 0 0.75
0.75 0 1
1 0 0
1 0 0.25
1 0 0.5
1 0 0.75
1 0 1
0 0.25 0
0 0.25 0.25
0 0.25 0.5
0 0.25 0.75
0 0.25 1
0.25 0.25 0
0.25 0.25 0.25
0.25 0.25 0.5
0.25 0.25 0.75
0.25 0.25 1
0.5 0.25 0
0.5 0.25 0.25
0.5 0.25 0.5
0.5 0.25 0.75
0.5 0.25 1
0.75 0.25 0
0.75 0.25 0.25
0.75 0.25 0.5
0.75 0.25 0.75
0.75 0.25 1
1 0.25 0
1 0.25 0.25
1 0.25 0.5
1 0.25 0.75
1 0.25 1
0 0.5 0
0 0.5 0.25
0 0.5 0.5
0 0.5 0.75
0 0.5 1
0.25 0.5 0
0.25 0.5 0.25
0.25 0.5 0.5
0.25 0.5 0.75
0.25 0.5 1
0.5 0.5 0
0.5 0.5 0.25
0.5 0.5 0.5
0.5 0.5 0.75
0.5 0.5 1
0.75 0.5 0
0.75 0.5 0.25
0.75 0.5 0.5
0.75 0.5 0.75
0.75 0.5 1
1 0.5 0
1 0.5 0.25
1 0.5 0.5
1 0.5 0.75
1 0.5 1
0 0.75 0
0 0.75 0.25
0 0.75 0.5
0 0.75 0.75
0 0.75 1
0.25 0.75 0
0.25 0.75 0.25
0.25 0.75 0.5
0.25 0.75 0.75
0.25 0.75 1
0.5 0.75 0
0.5 0.75 0.25
0.5 0.75 0.5
0.5 0.75 0.75
0.5 0.75 1
0.75 0.75 0
0.75 0.75 0.25
0.75 0.75 0.5
0.75 0.75 0.75
0.75 0.75 1
1 0.75 0
1 0.75 0.25
1 0.75 0.5
1 0.75 0.75
1 0.75 1
0 1 0
0 1 0.25
0 1 0.5
0 1 0.75
0 1 1
0.25 1 0
0.25 1 0.25
0.25 1 0.5
0.25 1 0.75
0.25 1 1
0.5 1 0
0.5 1 0.25
0.5 1 0.5
0.5 1 0.75
0.5 1 1
0.75 1 0
0.75 1 0.25
0.75 1 0.5
0.75 1 0.75
0.75 1 1
1 1 0
1 1 0.25
1 1 0.5
1 1 0.75
1 1 1
$EndNodes
$Elements
2 512 1 512
2 1 2 192
1 1 6 7
2 1 7 2
3 101 107 106
4 101 102 107
5 2 7 3
6 7 8 3
7 102 103 107
8 107 103 108
9 3 8 9
10 3 9 4
11 103 109 108
12 103 104 109
13 4 9 5
14 9 10 5
15 104 105 109
16 109 105 110
17 6 11 7
18 11 12 7
19 106 107 111
20 111 107 112
21 7 12 13
22 7 13 8
23 107 113 112
24 107 108 113
25 8 13 9
26 13 14 9
27 108 109 113
28 113 109 114
29 9 14 15
30 9 15 10
31 109 115 114
32 109 110 115
33 11 16 17
34 11 17 12
35 111 117 116
36 111 112 117
37 12 17 13
38 17 18 13
39 112 113 117
40 117 113 118
41 13 18 19
42 13 19 14
43 113 119 118
44 113 114 119
45 14 19 15
46 19 20 15
47 114 115 119
48 119 115 120
49 16 21 17
50 21 22 17
51 116 117 121
52 121 117 122
53 17 22 23
54 17 23 18
55 117 123 122
56 117 118 123
57 18 23 19
58 23 24 19
59 118 119 123
60 123 119 124
61 19 24 25
62 19 25 20
63 119 125 124
64 119 120 125
65 21 46 47
66 21 47 22
67 1 27 26
68 1 2 27
69 46 71 47
70 71 72 47
71 26 27 51
72 51 27 52
73 71 96 97
74 71 97 72
75 51 77 76
76 51 52 77
77 96 121 97
78 121 122 97
79 76 77 101
80 101 77 102
81 22 47 23
82 47 48 23
83 2 3 27
84 27 3 28
85 47 72 73
86 47 73 48
87 27 53 52
88 27 28 53
89 72 97 73
90 97 98 73
91 52 53 77
92 77 53 78
93 97 122 123
94 97 123 98
95 77 103 102
96 77 78 103
97 23 48 49
98 23 49 24
99 3 29 28
100 3 4 29
101 48 73 49
102 73 74 49
103 28 29 53
104 53 29 54
105 73 98 99
106 73 99 74
107 53 79 78
108 53 54 79
109 98 123 99
110 123 124 99
111 78 79 103
112 103 79 104
113 24 49 25
114 49 50 25
115 4 5 29
116 29 5 30
117 49 74 75
118 49 75 50
119 29 55 54
120 29 30 55
121 74 99 75
122 99 100 75
123 54 55 79
124 79 55 80
125 99 124 125
126 99 125 100
127 79 105 104
128 79 80 105
129 5 10 35
130 5 35 30
131 1 31 6
132 1 26 31
133 10 15 35
134 15 40 35
135 6 31 11
136 11 31 36
137 15 20 45
138 15 45 40
139 11 41 16
140 11 36 41
141 20 25 45
142 25 50 45
143 16 41 21
144 21 41 46
145 30 35 55
146 35 60 55
147 26 51 31
148 31 51 56
149 35 40 65
150 35 65 60
151 31 61 36
152 31 56 61
153 40 45 65
154 45 70 65
155 36 61 41
156 41 61 66
157 45 50 75
158 45 75 70
159 41 71 46
160 41 66 71
161 55 60 85
162 55 85 80
163 51 81 56
164 51 76 81
165 60 65 85
166 65 90 85
167 56 81 61
168 61 81 86
169 65 70 95
170 65 95 90
171 61 91 66
172 61 86 91
173 70 75 95
174 75 100 95
175 66 91 71
176 71 91 96
177 80 85 105
178 85 110 105
179 76 101 81
180 81 101 106
181 85 90 115
182 85 115 110
183 81 111 86
184 81 106 111
185 90 95 115
186 95 120 115
187 86 111 91
188 91 111 116
189 95 100 125
190 95 125 120
191 91 121 96
192 91 116 121
3 1 4 320
193 1 6 31 7
194 1 31 26 27
195 1 7 2 27
196 31 7 32 27
197 1 31 7 27
198 2 27 7 3
199 7 27 32 33
200 7 8 3 33
201 27 3 28 33
202 7 27 3 33
203 3 8 33 9
204 3 33 28 29
205 3 9 4 29
206 33 9 34 29
207 3 33 9 29
208 4 29 9 5
209 9 29 34 35
210 9 10 5 35
211 29 5 30 35
212 9 29 5 35
213 6 31 11 7
214 11 31 36 37
215 11 12 7 37
216 31 7 32 37
217 11 31 7 37
218 7 12 37 13
219 7 37 32 33
220 7 13 8 33
221 37 13 38 33
222 7 37 13 33
223 8 33 13 9
224 13 33 38 39
225 13 14 9 39
226 33 9 34 39
227 13 33 9 39
228 9 14 39 15
229 9 39 34 35
230 9 15 10 35
231 39 15 40 35
232 9 39 15 35
233 11 16 41 17
234 11 41 36 37
235 11 17 12 37
236 41 17 42 37
237 11 41 17 37
238 12 37 17 13
239 17 37 42 43
240 17 18 13 43
241 37 13 38 43
242 17 37 13 43
243 13 18 43 19
244 13 43 38 39
245 13 19 14 39
246 43 19 44 39
247 13 43 19 39
248 14 39 19 15
249 19 39 44 45
250 19 20 15 45
251 39 15 40 45
252 19 39 15 45
253 16 41 21 17
254 21 41 46 47
255 21 22 17 47
256 41 17 42 47
257 21 41 17 47
258 17 22 47 23
259 17 47 42 43
260 17 23 18 43
261 47 23 48 43
262 17 47 23 43
263 18 43 23 19
264 23 43 48 49
265 23 24 19 49
266 43 19 44 49
267 23 43 19 49
268 19 24 49 25
269 19 49 44 45
270 19 25 20 45
271 49 25 50 45
272 19 49 25 45
273 26 51 31 27
274 31 51 56 57
275 31 32 27 57
276 51 27 52 57
277 31 51 27 57
278 27 32 57 33
279 27 57 52 53
280 27 33 28 53
281 57 33 58 53
282 27 57 33 53
283 28 53 33 29
284 33 53 58 59
285 33 34 29 59
286 53 29 54 59
287 33 53 29 59
288 29 34 59 35
289 29 59 54 55
290 29 35 30 55
291 59 35 60 55
292 29 59 35 55
293 31 36 61 37
294 31 61 56 57
295 31 37 32 57
296 61 37 62 57
297 31 61 37 57
298 32 57 37 33
299 37 57 62 63
300 37 38 33 63
301 57 33 58 63
302 37 57 33 63
303 33 38 63 39
304 33 63 58 59
305 33 39 34 59
306 63 39 64 59
307 33 63 39 59
308 34 59 39 35
309 39 59 64 65
310 39 40 35 65
311 59 35 60 65
312 39 59 35 65
313 36 61 41 37
314 41 61 66 67
315 41 42 37 67
316 61 37 62 67
317 41 61 37 67
318 37 42 67 43
319 37 67 62 63
320 37 43 38 63
321 67 43 68 63
322 37 67 43 63
323 38 63 43 39
324 43 63 68 69
325 43 44 39 69
326 63 39 64 69
327 43 63 39 69
328 39 44 69 45
329 39 69 64 65
330 39 45 40 65
331 69 45 70 65
332 39 69 45 65
333 41 46 71 47
334 41 71 66 67
335 41 47 42 67
336 71 47 72 67
337 41 71 47 67
338 42 67 47 43
339 47 67 72 73
340 47 48 43 73
341 67 43 68 73
342 47 67 43 73
343 43 48 73 49
344 43 73 68 69
345 43 49 44 69
346 73 49 74 69
347 43 73 49 69
348 44 69 49 45
349 49 69 74 75
350 49 50 45 75
351 69 45 70 75
352 49 69 45 75
353 51 56 81 57
354 51 81 76 77
355 51 57 52 77
356 81 57 82 77
357 51 81 57 77
358 52 77 57 53
359 57 77 82 83
360 57 58 53 83
361 77 53 78 83
362 57 77 53 83
363 53 58 83 59
364 53 83 78 79
365 53 59 54 79
366 83 59 84 79
367 53 83 59 79
368 54 79 59 55
369 59 79 84 85
370 59 60 55 85
371 79 55 80 85
372 59 79 55 85
373 56 81 61 57
374 61 81 86 87
375 61 62 57 87
376 81 57 82 87
377 61 81 57 87
378 57 62 87 63
379 57 87 82 83
380 57 63 58 83
381 87 63 88 83
382 57 87 63 83
383 58 83 63 59
384 63 83 88 89
385 63 64 59 89
386 83 59 84 89
387 63 83 59 89
388 59 64 89 65
389 59 89 84 85
390 59 65 60 85
391 89 65 90 85
392 59 89 65 85
393 61 66 91 67
394 61 91 86 87
395 61 67 62 87
396 91 67 92 87
397 61 91 67 87
398 62 87 67 63
399 67 87 92 93
400 67 68 63 93
401 87 63 88 93
402 67 87 63 93
403 63 68 93 69
404 63 93 88 89
405 63 69 64 89
406 93 69 94 89
407 63 93 69 89
408 64 89 69 65
409 69 89 94 95
410 69 70 65 95
411 89 65 90 95
412 69 89 65 95
413 66 91 71 67
414 71 91 96 97
415 71 72 67 97
416 91 67 92 97
417 71 91 67 97
418 67 72 97 73
419 67 97 92 93
420 67 73 68 93
421 97 73 98 93
422 67 97 73 93
423 68 93 73 69
424 73 93 98 99
425 73 74 69 99
426 93 69 94 99
427 73 93 69 99
428 69 74 99 75
429 69 99 94 95
430 69 75 70 95
431 99 75 100 95
432 69 99 75 95
433 76 101 81 77
434 81 101 106 107
435 81 82 77 107
436 101 77 102 107
437 81 101 77 107
438 77 82 107 83
439 77 107 102 103
440 77 83 78 103
441 107 83 108 103
442 77 107 83 103
443 78 103 83 79
444 83 103 108 109
445 83 84 79 109
446 103 79 104 109
447 83 103 79 109
448 79 84 109 85
449 79 109 104 105
450 79 85 80 105
451 109 85 110 105
452 79 109 85 105
453 81 86 111 87
454 81 111 106 107
455 81 87 82 107
456 111 87 112 107
457 81 111 87 107
458 82 107 87 83
459 87 107 112 113
460 87 88 83 113
461 107 83 108 113
462 87 107 83 113
463 83 88 113 89
464 83 113 108 109
465 83 89 84 109
466 113 89 114 109
467 83 113 89 109
468 84 109 89 85
469 89 109 114 115
470 89 90 85 115
471 109 85 110 115
472 89 109 85 115
473 86 111 91 87
474 91 111 116 117
475 91 92 87 117
476 111 87 112 117
477 91 111 87 117
478 87 92 117 93
479 87 117 112 113
480 87 93 88 113
481 117 93 118 113
482 87 117 93 113
483 88 113 93 89
484 93 113 118 119
485 93 94 89 119
486 113 89 114 119
487 93 113 89 119
488 89 94 119 95
489 89 119 114 115
490 89 95 90 115
491 119 95 120 115
492 89 119 95 115
493 91 96 121 97
494 91 121 116 117
495 91 97 92 117
496 121 97 122 117
497 91 121 97 117
498 92 117 97 93
499 97 117 122 123
500 97 98 93 123
501 117 93 118 123
502 97 117 93 123
503 93 98 123 99
504 93 123 118 119
505 93 99 94 119
506 123 99 124 119
507 93 123 99 119
508 94 119 99 95
509 99 119 124 125
510 99 100 95 125
511 119 95 120 125
512 99 119 95 125
$EndElements