$MeshFormat
4.1 0 8
$EndMeshFormat
$Entities
0 0 0 1
1 0 0 0 1.5 1.5 1.5 0 0 0
$EndEntities
$Nodes
1 27 1 27
2 1 0 27
1
2
3
4
5
6
7
8
9
10
11
12
13
14
15
16
17
18
19
20
21
22
23
24
25
26
27
0 0 0
0 0 0.5
0 0 1
0.5 0 0
0.5 0 0.5
0.5 0 1
1 0 0
1 0 0.5
1 0 1
0 0.5 0
0 0.5 0.5
0 0.5 1
0.5 0.5 0
0.5 0.5 0.5
0.5 0.5 1
1 0.5 0
1 0.5 0.5
1 0.5 1
0 1 0
0 1 0.5
0 1 1
0.5 1 0
0.5 1 0.5
0.5 1 1
1 1 0
1 1 0.5
1 1 1
$EndNodes
$Elements
2 88 1 88
2 1 2 48
1 1 4 5
2 1 5 2
3 19 23 22
4 19 20 23
5 2 5 3
6 5 6 3
7 20 21 23
8 23 21 24
9 4 7 5
10 7 8 5
11 22 23 25
12 25 23 26
13 5 8 9
14 5 9 6
15 23 27 26
16 23 24 27
17 7 16 17
18 7 17 8
19 1 11 10
20 1 2 11
21 16 25 17
22 25 26 17
23 10 11 19
24 19 11 20
25 8 17 9
26 17 18 9
27 2 3 11
28 11 3 12
29 17 26 27
30 17 27 18
31 11 21 20
32 11 12 21
33 3 6 15
34 3 15 12
35 1 13 4
36 1 10 13
37 6 9 15
38 9 18 15
39 4 13 7
40 7 13 16
41 12 15 21
42 15 24 21
43 10 19 13
44 13 19 22
45 15 18 27
46 15 27 24
47 13 25 16
48 13 22 25
3 1 4 40
49 1 4 13 5
50 1 13 10 11
51 1 5 2 11
52 13 5 14 11
53 1 13 5 11
54 2 11 5 3
55 5 11 14 15
56 5 6 3 15
57 11 3 12 15
58 5 11 3 15
59 4 13 7 5
60 7 13 16 17
61 7 8 5 17
62 13 5 14 17
63 7 13 5 17
64 5 8 17 9
65 5 17 14 15
66 5 9 6 15
67 17 9 18 15
68 5 17 9 15
69 10 19 13 11
70 13 19 22 23
71 13 14 11 23
72 19 11 20 23
73 13 19 11 23
74 11 14 23 15
75 11 23 20 21
76 11 15 12 21
77 23 15 24 21
78 11 23 15 21
79 13 16 25 17
80 13 25 22 23
81 13 17 14 23
82 25 17 26 23
83 13 25 17 23
84 14 23 17 15
85 17 23 26 27
86 17 18 15 27
87 23 15 24 27
88 17 23 15 27
$EndElements