ply
format ascii 1.0
comment VCGLIB generated
element vertex 125
property float x
property float y
property float z
element face 192
property list uchar int vertex_indices
property float quality
end_header
0 0 0 
0 0 0.25 
0 0 0.5 
0 0 0.75 
0 0 1 
0.25 0 0 
0.25 0 0.25 
0.25 0 0.5 
0.25 0 0.75 
0.25 0 1 
0.5 0 0 
0.5 0 0.25 
0.5 0 0.5 
0.5 0 0.75 
0.5 0 1 
0.75 0 0 
0.75 0 0.25 
0.75 0 0.5 
0.75 0 0.75 
0.75 0 1 
1 0 0 
1 0 0.25 
1 0 0.5 
1 0 0.75 
1 0 1 
0 0.25 0 
0 0.25 0.25 
0 0.25 0.5 
0 0.25 0.75 
0 0.25 1 
0.25 0.25 0 
0.25 0.25 0.25 
0.25 0.25 0.5 
0.25 0.25 0.75 
0.25 0.25 1 
0.5 0.25 0 
0.5 0.25 0.25 
0.5 0.25 0.5 
0.5 0.25 0.75 
0.5 0.25 1 
0.75 0.25 0 
0.75 0.25 0.25 
0.75 0.25 0.5 
0.75 0.25 0.75 
0.75 0.25 1 
1 0.25 0 
1 0.25 0.25 
1 0.25 0.5 
1 0.25 0.75 
1 0.25 1 
0 0.5 0 
0 0.5 0.25 
0 0.5 0.5 
0 0.5 0.75 
0 0.5 1 
0.25 0.5 0 
0.25 0.5 0.25 
0.25 0.5 0.5 
0.25 0.5 0.75 
0.25 0.5 1 
0.5 0.5 0 
0.5 0.5 0.25 
0.5 0.5 0.5 
0.5 0.5 0.75 
0.5 0.5 1 
0.75 0.5 0 
0.75 0.5 0.25 
0.75 0.5 0.5 
0.75 0.5 0.75 
0.75 0.5 1 
1 0.5 0 
1 0.5 0.25 
1 0.5 0.5 
1 0.5 0.75 
1 0.5 1 
0 0.75 0 
0 0.75 0.25 
0 0.75 0.5 
0 0.75 0.75 
0 0.75 1 
0.25 0.75 0 
0.25 0.75 0.25 
0.25 0.75 0.5 
0.25 0.75 0.75 
0.25 0.75 1 
0.5 0.75 0 
0.5 0.75 0.25 
0.5 0.75 0.5 
0.5 0.75 0.75 
0.5 0.75 1 
0.75 0.75 0 
0.75 0.75 0.25 
0.75 0.75 0.5 
0.75 0.75 0.75 
0.75 0.75 1 
1 0.75 0 
1 0.75 0.25 
1 0.75 0.5 
1 0.75 0.75 
1 0.75 1 
0 1 0 
0 1 0.25 
0 1 0.5 
0 1 0.75 
0 1 1 
0.25 1 0 
0.25 1 0.25 
0.25 1 0.5 
0.25 1 0.75 
0.25 1 1 
0.5 1 0 
0.5 1 0.25 
0.5 1 0.5 
0.5 1 0.75 
0.5 1 1 
0.75 1 0 
0.75 1 0.25 
0.75 1 0.5 
0.75 1 0.75 
0.75 1 1 
1 1 0 
1 1 0.25 
1 1 0.5 
1 1 0.75 
1 1 1 
3 0 5 1 0 
3 5 6 1 0 
3 100 101 105 0 
3 105 101 106 0 
3 1 6 7 0 
3 1 7 2 0 
3 101 107 106 0 
3 101 102 107 0 
3 2 7 3 0 
3 7 8 3 0 
3 102 103 107 0 
3 107 103 108 0 
3 3 8 9 0 
3 3 9 4 0 
3 103 109 108 0 
3 103 104 109 0 
3 5 10 11 0 
3 5 11 6 0 
3 105 111 110 0 
3 105 106 111 0 
3 6 11 7 0 
3 11 12 7 0 
3 106 107 111 0 
3 111 107 112 0 
3 7 12 13 0 
3 7 13 8 0 
3 107 113 112 0 
3 107 108 113 0 
3 8 13 9 0 
3 13 14 9 0 
3 108 109 113 0 
3 113 109 114 0 
3 10 15 11 0 
3 15 16 11 0 
3 110 111 115 0 
3 115 111 116 0 
3 11 16 17 0 
3 11 17 12 0 
3 111 117 116 0 
3 111 112 117 0 
3 12 17 13 0 
3 17 18 13 0 
3 112 113 117 0 
3 117 113 118 0 
3 13 18 19 0 
3 13 19 14 0 
3 113 119 118 0 
3 113 114 119 0 
3 15 20 21 0 
3 15 21 16 0 
3 115 121 120 0 
3 115 116 121 0 
3 16 21 17 0 
3 21 22 17 0 
3 116 117 121 0 
3 121 117 122 0 
3 17 22 23 0 
3 17 23 18 0 
3 117 123 122 0 
3 117 118 123 0 
3 18 23 19 0 
3 23 24 19 0 
3 118 119 123 0 
3 123 119 124 0 
3 20 45 21 0 
3 45 46 21 0 
3 0 1 25 0 
3 25 1 26 0 
3 45 70 71 0 
3 45 71 46 0 
3 25 51 50 0 
3 25 26 51 0 
3 70 95 71 0 
3 95 96 71 0 
3 50 51 75 0 
3 75 51 76 0 
3 95 120 121 0 
3 95 121 96 0 
3 75 101 100 0 
3 75 76 101 0 
3 21 46 47 0 
3 21 47 22 0 
3 1 27 26 0 
3 1 2 27 0 
3 46 71 47 0 
3 71 72 47 0 
3 26 27 51 0 
3 51 27 52 0 
3 71 96 97 0 
3 71 97 72 0 
3 51 77 76 0 
3 51 52 77 0 
3 96 121 97 0 
3 121 122 97 0 
3 76 77 101 0 
3 101 77 102 0 
3 22 47 23 0 
3 47 48 23 0 
3 2 3 27 0 
3 27 3 28 0 
3 47 72 73 0 
3 47 73 48 0 
3 27 53 52 0 
3 27 28 53 0 
3 72 97 73 0 
3 97 98 73 0 
3 52 53 77 0 
3 77 53 78 0 
3 97 122 123 0 
3 97 123 98 0 
3 77 103 102 0 
3 77 78 103 0 
3 23 48 49 0 
3 23 49 24 0 
3 3 29 28 0 
3 3 4 29 0 
3 48 73 49 0 
3 73 74 49 0 
3 28 29 53 0 
3 53 29 54 0 
3 73 98 99 0 
3 73 99 74 0 
3 53 79 78 0 
3 53 54 79 0 
3 98 123 99 0 
3 123 124 99 0 
3 78 79 103 0 
3 103 79 104 0 
3 4 9 29 0 
3 9 34 29 0 
3 0 25 5 130 
3 5 25 30 131 
3 9 14 39 0 
3 9 39 34 0 
3 5 35 10 134 
3 5 30 35 135 
3 14 19 39 0 
3 19 44 39 0 
3 10 35 15 138 
3 15 35 40 139 
3 19 24 49 0 
3 19 49 44 0 
3 15 45 20 142 
3 15 40 45 143 
3 29 34 59 0 
3 29 59 54 0 
3 25 55 30 146 
3 25 50 55 147 
3 34 39 59 0 
3 39 64 59 0 
3 30 55 35 150 
3 35 55 60 151 
3 39 44 69 0 
3 39 69 64 0 
3 35 65 40 154 
3 35 60 65 155 
3 44 49 69 0 
3 49 74 69 0 
3 40 65 45 158 
3 45 65 70 159 
3 54 59 79 0 
3 59 84 79 0 
3 50 75 55 162 
3 55 75 80 163 
3 59 64 89 0 
3 59 89 84 0 
3 55 85 60 166 
3 55 80 85 167 
3 64 69 89 0 
3 69 94 89 0 
3 60 85 65 170 
3 65 85 90 171 
3 69 74 99 0 
3 69 99 94 0 
3 65 95 70 174 
3 65 90 95 175 
3 79 84 109 0 
3 79 109 104 0 
3 75 105 80 178 
3 75 100 105 179 
3 84 89 109 0 
3 89 114 109 0 
3 80 105 85 182 
3 85 105 110 183 
3 89 94 119 0 
3 89 119 114 0 
3 85 115 90 186 
3 85 110 115 187 
3 94 99 119 0 
3 99 124 119 0 
3 90 115 95 190 
3 95 115 120 191 
