$MeshFormat
4.1 0 8
$EndMeshFormat
$Entities
0 0 1 1
1 -18.76580047607422 -14.1678638458252 -10.32357788085938 87.68064880371094 14.3123607635498 122.7377471923828 0 0 
1 -18.76580047607422 -14.1678638458252 -10.32357788085938 87.68064880371094 14.3123607635498 122.7377471923828 0 1 1 
$EndEntities
$Nodes
2 543 1 543
2 1 0 483
1
2
3
4
5
6
7
8
9
10
11
12
13
14
15
16
17
18
19
20
21
22
23
24
25
26
27
28
29
30
31
32
33
34
35
36
37
38
39
40
41
42
43
44
45
46
47
48
49
50
51
52
53
54
55
56
57
58
59
60
61
62
63
64
65
66
67
68
69
70
71
72
73
74
75
76
77
78
79
80
81
82
83
84
85
86
87
88
89
90
91
92
93
94
95
96
97
98
99
100
101
102
103
104
105
106
107
108
109
110
111
112
113
114
115
116
117
118
119
120
121
122
123
124
125
126
127
128
129
130
131
132
133
134
135
136
137
138
139
140
141
142
143
144
145
146
147
148
149
150
151
152
153
154
155
156
157
158
159
160
161
162
163
164
165
166
167
168
169
170
171
172
173
174
175
176
177
178
179
180
181
182
183
184
185
186
187
188
189
190
191
192
193
194
195
196
197
198
199
200
201
202
203
204
205
206
207
208
209
210
211
212
213
214
215
216
217
218
219
220
221
222
223
224
225
226
227
228
229
230
231
232
233
234
235
236
237
238
239
240
241
242
243
244
245
246
247
248
249
250
251
252
253
254
255
256
257
258
259
260
261
262
263
264
265
266
267
268
269
270
271
272
273
274
275
276
277
278
279
280
281
282
283
284
285
286
287
288
289
290
291
292
293
294
295
296
297
298
299
300
301
302
303
304
305
306
307
308
309
310
311
312
313
314
315
316
317
318
319
320
321
322
323
324
325
326
327
328
329
330
331
332
333
334
335
336
337
338
339
340
341
342
343
344
345
346
347
348
349
350
351
352
353
354
355
356
357
358
359
360
361
362
363
364
365
366
367
368
369
370
371
372
373
374
375
376
377
378
379
380
381
382
383
384
385
386
387
388
389
390
391
392
393
394
395
396
397
398
399
400
401
402
403
404
405
406
407
408
409
410
411
412
413
414
415
416
417
418
419
420
421
422
423
424
425
426
427
428
429
430
431
432
433
434
435
436
437
438
439
440
441
442
443
444
445
446
447
448
449
450
451
452
453
454
455
456
457
458
459
460
461
462
463
464
465
466
467
468
469
470
471
472
473
474
475
476
477
478
479
480
481
482
483
-4.677326202392578 -8.846595764160156 -1.223968505859375
-2.084766387939453 -8.627374649047852 -6.592239379882812
0.8229179382324219 -8.627374649047852 -7.79222297668457
0.8229179382324219 -10.23626708984375 -1.223968505859375
-4.677326202392578 -8.250478744506836 4.144298553466797
0.8229179382324219 -9.825857162475586 4.144298553466797
0.8229179382324219 -8.197090148925781 9.512569427490234
6.323165893554688 -8.627374649047852 -9.264337539672852
6.323165893554688 -10.69862747192383 -6.592239379882812
6.323165893554688 -11.32447814941406 -1.223968505859375
6.323165893554688 -11.08501815795898 4.144298553466797
6.323165893554688 -10.21623611450195 9.512569427490234
6.323165893554688 -8.627374649047852 12.29815673828125
11.82341384887695 -8.627374649047852 -9.945764541625977
11.82341384887695 -11.63033676147461 -6.592239379882812
11.82341384887695 -12.24353981018066 -1.223968505859375
11.82341384887695 -12.21011161804199 4.144298553466797
11.82341384887695 -11.51876640319824 9.512569427490234
11.82341384887695 -8.985533714294434 15.21087646484375
17.32365798950195 -8.627374649047852 -9.948211669921875
17.32365798950195 -12.11517143249512 -6.592239379882812
17.32365798950195 -12.96253776550293 -1.223968505859375
17.32365798950195 -13.05725288391113 4.144298553466797
17.32365798950195 -12.49413108825684 9.512569427490234
17.32365798950195 -11.29448699951172 14.88084030151367
17.32365798950195 -8.627374649047852 17.71213150024414
22.82390594482422 -8.627374649047852 -9.082632064819336
22.82390594482422 -11.84433174133301 -6.592239379882812
22.82390594482422 -13.29769325256348 -1.223968505859375
22.82390594482422 -13.53481101989746 4.144298553466797
22.82390594482422 -13.23264312744141 9.512569427490234
22.82390594482422 -12.31721305847168 14.88084030151367
22.82390594482422 -8.627374649047852 20.10213851928711
28.32415390014648 -10.66947555541992 -6.592239379882812
28.32415390014648 -13.51779556274414 -1.223968505859375
28.32415390014648 -13.8757266998291 4.144298553466797
28.32415390014648 -13.72654342651367 9.512569427490234
28.32415390014648 -13.06435585021973 14.88084030151367
28.32415390014648 -11.25531196594238 20.24911117553711
28.32415390014648 -8.627374649047852 22.6671028137207
33.82439804077148 -8.627374649047852 -5.961200714111328
33.82439804077148 -13.34096527099609 -1.223968505859375
33.82439804077148 -13.9844856262207 4.144298553466797
33.82439804077148 -14.02242279052734 9.512569427490234
33.82439804077148 -13.58711433410645 14.88084030151367
33.82439804077148 -12.7171802520752 20.24911117553711
33.82439804077148 -9.307378768920898 25.61738204956055
39.32464218139648 -8.627374649047852 -3.749443054199219
39.32464218139648 -12.25359725952148 -1.223968505859375
39.32464218139648 -13.92294120788574 4.144298553466797
39.32464218139648 -14.14695930480957 9.512569427490234
39.32464218139648 -14.0611400604248 14.88084030151367
39.32464218139648 -13.4461669921875 20.24911117553711
39.32464218139648 -12.42727279663086 25.61738204956055
39.32464218139648 -8.627374649047852 30.81652450561523
44.82489395141602 -8.627374649047852 -0.8819561004638672
44.82489395141602 -13.44786071777344 4.144298553466797
44.82489395141602 -14.02993392944336 9.512569427490234
44.82489395141602 -14.15110778808594 14.88084030151367
44.82489395141602 -14.01077651977539 20.24911117553711
44.82489395141602 -13.41476058959961 25.61738204956055
44.82489395141602 -12.48227310180664 30.98564910888672
44.82489395141602 -8.627374649047852 36.44721603393555
50.32513809204102 -8.627374649047852 2.466293334960938
50.32513809204102 -11.32424354553223 4.144298553466797
50.32513809204102 -13.75699996948242 9.512569427490234
50.32513809204102 -14.05437088012695 14.88084030151367
50.32513809204102 -14.16055488586426 20.24911117553711
50.32513809204102 -13.95340538024902 25.61738204956055
50.32513809204102 -13.41486167907715 30.98564910888672
50.32513809204102 -12.53888130187988 36.35391616821289
50.32513809204102 -9.879690170288086 41.72218704223633
52.58779525756836 -8.627374649047852 4.144298553466797
55.82538223266602 -8.627374649047852 6.613433837890625
55.82538223266602 -12.24229431152344 9.512569427490234
55.82538223266602 -13.74822235107422 14.88084030151367
55.82538223266602 -14.04878044128418 20.24911117553711
55.82538223266602 -14.1678638458252 25.61738204956055
55.82538223266602 -13.89920234680176 30.98564910888672
55.82538223266602 -13.41496658325195 36.35391616821289
55.82538223266602 -12.79900169372559 41.72218704223633
52.76794052124023 -8.627374649047852 47.09045791625977
55.82538223266602 -11.69289588928223 47.09045791625977
55.8115234375 -8.649784088134766 52.4587287902832
59.07809829711914 -8.627374649047852 9.512569427490234
61.32563400268555 -8.627374649047852 11.80399703979492
61.32563400268555 -12.15043640136719 14.88084030151367
61.32563400268555 -13.66785621643066 20.24911117553711
61.32563400268555 -14.01043701171875 25.61738204956055
61.32563400268555 -14.12672996520996 30.98564910888672
61.32563400268555 -14.01113510131836 36.35391616821289
61.32563400268555 -13.6314582824707 41.72218704223633
61.32563400268555 -13.30229949951172 47.09045791625977
61.32563400268555 -12.71306419372559 52.4587287902832
57.57625198364258 -8.627374649047852 57.82699966430664
61.32563400268555 -12.18474769592285 57.82699966430664
61.32563400268555 -11.3808536529541 63.19527053833008
58.78894424438477 -8.627374649047852 63.19527053833008
59.67023086547852 -8.627374649047852 68.56353759765625
64.30792236328125 -8.627374649047852 14.88084030151367
66.82588195800781 -8.627374649047852 17.5323486328125
66.82588195800781 -11.76805305480957 20.24911117553711
66.82588195800781 -13.61090278625488 25.61738204956055
66.82588195800781 -13.92649269104004 30.98564910888672
66.82588195800781 -14.08008003234863 36.35391616821289
66.82588195800781 -14.06871795654297 41.72218704223633
66.82588195800781 -13.91257476806641 47.09045791625977
66.82588195800781 -13.69559669494629 52.4587287902832
66.82588195800781 -13.45905113220215 57.82699966430664
66.82588195800781 -13.15670776367188 63.19527053833008
66.82588195800781 -13.08772468566895 68.56353759765625
66.82588195800781 -12.97278785705566 73.93180847167969
60.62166213989258 -8.627374649047852 73.93180847167969
66.82588195800781 -12.70697593688965 79.30007934570312
61.0882453918457 -8.627374649047852 79.30007934570312
61.32563400268555 -8.622873306274414 84.66835021972656
66.82588195800781 -12.41120529174805 84.66835021972656
66.82588195800781 -10.97784042358398 90.03662109375
62.49248123168945 -8.627374649047852 90.03662109375
66.82588195800781 -7.778738021850586 95.40489196777344
69.20773315429688 -8.627374649047852 20.24911117553711
72.32612609863281 -8.627374649047852 24.20064926147461
72.32612609863281 -13.22394752502441 30.98564910888672
72.32612609863281 -13.79330635070801 36.35391616821289
72.32612609863281 -13.9872989654541 41.72218704223633
72.32612609863281 -14.11338996887207 47.09045791625977
72.32612609863281 -14.08589363098145 52.4587287902832
72.32612609863281 -14.05062484741211 57.82699966430664
72.32612609863281 -13.99965286254883 63.19527053833008
72.32612609863281 -13.90399932861328 68.56353759765625
72.32612609863281 -13.85437202453613 73.93180847167969
72.32612609863281 -13.75962257385254 79.30007934570312
72.32612609863281 -13.24258613586426 84.66835021972656
72.32612609863281 -11.38852500915527 90.03662109375
72.32612609863281 -8.627374649047852 93.78036499023438
76.95787048339844 -8.627374649047852 30.98564910888672
77.82637023925781 -12.20293998718262 36.35391616821289
77.82637023925781 -13.49795913696289 41.72218704223633
77.82637023925781 -13.74802398681641 47.09045791625977
77.82637023925781 -13.87537002563477 52.4587287902832
77.82637023925781 -14.00272750854492 57.82699966430664
77.82637023925781 -13.91921806335449 63.19527053833008
77.82637023925781 -13.79672622680664 68.56353759765625
77.82637023925781 -13.67589950561523 73.93180847167969
77.82637023925781 -13.25699234008789 79.30007934570312
77.82637023925781 -12.41817283630371 84.66835021972656
77.82637023925781 -9.920904159545898 90.03662109375
80.39192199707031 -8.627374649047852 36.35391616821289
83.09457397460938 -8.627374649047852 41.72218704223633
83.32661437988281 -11.50617027282715 47.09045791625977
83.32661437988281 -12.75823020935059 52.4587287902832
83.32661437988281 -13.14143753051758 57.82699966430664
83.32661437988281 -13.19825744628906 63.19527053833008
83.32661437988281 -13.04364776611328 68.56353759765625
83.32661437988281 -12.65376663208008 73.93180847167969
83.32661437988281 -11.9128246307373 79.30007934570312
83.32661437988281 -9.872751235961914 84.66835021972656
85.09504699707031 -8.627374649047852 47.09045791625977
86.42344665527344 -8.627374649047852 52.4587287902832
87.18603515625 -8.627374649047852 57.82699966430664
87.41395568847656 -8.627374649047852 63.19527053833008
87.31980895996094 -8.627374649047852 68.56353759765625
86.96244812011719 -8.627374649047852 73.93180847167969
86.09298706054688 -8.627374649047852 79.30007934570312
-15.67782020568848 -2.831790924072266 -4.010719299316406
-15.67782020568848 -5.146644592285156 -1.223968505859375
-18.76580047607422 -2.831790924072266 -1.223968505859375
-15.67782020568848 -2.831790924072266 4.680023193359375
-10.17757415771484 -3.155040740966797 -6.768473625183105
-10.17757415771484 -7.256027221679688 -1.223968505859375
-10.17757415771484 -6.0672607421875 4.144298553466797
-10.17757415771484 -2.831790924072266 7.588165283203125
-4.677326202392578 -2.831790924072266 -8.543087005615234
-4.677326202392578 -6.985361099243164 -6.592239379882812
-4.677326202392578 -3.529722213745117 9.889463424682617
0.8229179382324219 -2.831790924072266 -9.614780426025391
0.8229179382324219 -2.831790924072266 12.34452438354492
6.323165893554688 -2.831790924072266 -10.19166564941406
7.816596984863281 -2.831790924072266 14.88084030151367
11.82341384887695 -2.831790924072266 -10.32357788085938
11.82341384887695 -2.831790924072266 16.33455657958984
17.32365798950195 -2.831790924072266 -10.0470142364502
17.32365798950195 -2.831790924072266 18.40351104736328
22.82390594482422 -2.831790924072266 -9.231698989868164
22.82390594482422 -2.831790924072266 20.51926040649414
28.32415390014648 -2.831790924072266 -8.030061721801758
28.32415390014648 -2.831790924072266 23.2990608215332
33.35299301147461 -2.831790924072266 -6.438526153564453
33.82439804077148 -2.831790924072266 26.46956634521484
39.32464218139648 -2.831790924072266 -3.979898452758789
39.32464218139648 -2.831790924072266 31.02074813842773
44.75862884521484 -2.831790924072266 -1.188507080078125
44.43961715698242 -2.831790924072266 36.35391616821289
50.32513809204102 -2.831790924072266 2.296318054199219
49.62893295288086 -2.831790924072266 42.68218231201172
52.87421035766602 -2.831790924072266 4.144298553466797
55.82538223266602 -2.831790924072266 6.463996887207031
52.57739639282227 -2.831790924072266 47.09045791625977
55.62663269042969 -2.831790924072266 53.07244491577148
59.29345321655273 -2.831790924072266 9.512569427490234
61.32563400268555 -2.831790924072266 11.42414093017578
57.07199478149414 -2.831790924072266 57.82699966430664
58.3093147277832 -2.831790924072266 63.19527053833008
58.77235794067383 -2.831790924072266 68.56353759765625
59.02096939086914 -2.831790924072266 73.93180847167969
59.13869857788086 -2.831790924072266 79.30007934570312
59.40083694458008 -2.831790924072266 84.66835021972656
60.15661239624023 -2.831790924072266 90.03662109375
61.32563400268555 -2.831790924072266 92.52694702148438
64.68240356445312 -2.831790924072266 14.88084030151367
66.82588195800781 -2.831790924072266 17.27027130126953
62.69494247436523 -2.831790924072266 95.40489196777344
66.82588195800781 -6.789602279663086 100.7731475830078
62.66384506225586 -2.831790924072266 100.7731475830078
66.82588195800781 -6.609539031982422 106.1414184570312
62.4910774230957 -2.831790924072266 106.1414184570312
66.82588195800781 -6.739524841308594 111.5096893310547
62.06857681274414 -2.831790924072266 111.5096893310547
66.82588195800781 -7.109472274780273 116.8779602050781
61.70505142211914 -2.831790924072266 116.8779602050781
66.82588195800781 -5.400112152099609 122.2462310791016
65.33602905273438 -2.831790924072266 122.2462310791016
69.3310546875 -2.831790924072266 20.24911117553711
72.95957946777344 -2.831790924072266 24.80104827880859
72.32612609863281 -6.21485710144043 100.7731475830078
72.32612609863281 -5.216098785400391 106.1414184570312
72.32612609863281 -4.476318359375 111.5096893310547
72.32612609863281 -4.401268005371094 116.8779602050781
72.54790496826172 -2.831790924072266 122.7377471923828
77.605224609375 -2.831790924072266 31.33370399475098
76.2039794921875 -2.831790924072266 95.40489196777344
74.65153503417969 -2.831790924072266 100.7731475830078
74.04261779785156 -2.831790924072266 106.1414184570312
80.63931274414062 -2.831790924072266 36.35391616821289
83.28429412841797 -2.831790924072266 41.83187103271484
83.86872863769531 -2.831790924072266 85.73876190185547
81.34165954589844 -2.831790924072266 90.03662109375
85.24577331542969 -2.831790924072266 47.09045791625977
86.58317565917969 -2.831790924072266 52.4587287902832
87.35453796386719 -2.831790924072266 57.82699966430664
87.68064880371094 -2.831790924072266 63.19527053833008
87.59109497070312 -2.831790924072266 68.56353759765625
87.18679809570312 -2.831790924072266 73.93180847167969
86.23049926757812 -2.831790924072266 79.30007934570312
-15.67782020568848 2.96379280090332 -4.034563064575195
-18.41390037536621 2.96379280090332 -1.223968505859375
-15.41496562957764 2.96379280090332 3.824668884277344
-10.17757415771484 3.496915817260742 -6.592239379882812
-10.17757415771484 2.96379280090332 7.394840240478516
-4.677326202392578 2.96379280090332 -8.288871765136719
-4.677326202392578 4.204671859741211 9.512569427490234
0.8229179382324219 2.96379280090332 -9.164360046386719
0.8229179382324219 2.96379280090332 12.25096130371094
6.323165893554688 2.96379280090332 -9.691719055175781
6.323165893554688 2.96379280090332 14.21554183959961
11.82341384887695 2.96379280090332 -9.912023544311523
11.82341384887695 2.96379280090332 16.25161361694336
17.32365798950195 2.96379280090332 -9.672981262207031
17.32365798950195 2.96379280090332 18.29880523681641
22.82390594482422 2.96379280090332 -9.018997192382812
22.50471305847168 2.96379280090332 20.38138580322266
28.32415390014648 2.96379280090332 -7.834186553955078
28.32415390014648 2.96379280090332 23.18401336669922
33.82439804077148 2.96379280090332 -6.098478317260742
33.07828521728516 2.96379280090332 26.10113525390625
39.32464218139648 2.96379280090332 -3.820915222167969
39.32464218139648 3.438787460327148 30.98564910888672
44.82489395141602 2.96379280090332 -1.032400131225586
44.67279434204102 4.163888931274414 36.35391616821289
50.32513809204102 2.96379280090332 2.478225708007812
48.95991134643555 2.96379280090332 41.72218704223633
52.68581008911133 2.96379280090332 4.144298553466797
55.82538223266602 2.96379280090332 6.494407653808594
52.83297348022461 2.96379280090332 47.09045791625977
55.4635124206543 2.96379280090332 52.4587287902832
59.25079727172852 2.96379280090332 9.512569427490234
61.32563400268555 2.96379280090332 11.53752136230469
57.22626113891602 2.96379280090332 57.82699966430664
58.17403030395508 2.96379280090332 63.19527053833008
58.65626907348633 2.96379280090332 68.56353759765625
58.71162033081055 2.96379280090332 73.93180847167969
58.7632942199707 2.96379280090332 79.30007934570312
59.0587272644043 2.96379280090332 84.66835021972656
60.17380142211914 2.96379280090332 90.03662109375
64.58160400390625 2.96379280090332 14.88084030151367
66.82588195800781 2.96379280090332 17.34986114501953
63.12527847290039 2.96379280090332 95.40489196777344
63.51244735717773 2.96379280090332 100.7731475830078
63.17193984985352 2.96379280090332 106.1414184570312
62.52741622924805 2.96379280090332 111.5096893310547
62.05914688110352 2.96379280090332 116.8779602050781
66.15675354003906 3.928848266601562 122.2462310791016
69.2945556640625 2.96379280090332 20.24911117553711
73.54615783691406 2.96379280090332 25.61738204956055
72.32612609863281 2.96379280090332 122.3044738769531
77.82637023925781 2.96379280090332 31.82058334350586
76.897705078125 2.96379280090332 94.43714904785156
74.50251770019531 2.96379280090332 100.7731475830078
73.95791625976562 2.96379280090332 106.1414184570312
73.41575622558594 2.96379280090332 111.5096893310547
72.98812866210938 2.96379280090332 116.8779602050781
80.51620483398438 2.96379280090332 36.35391616821289
83.32661437988281 2.96379280090332 42.15522384643555
83.32661437988281 2.96379280090332 86.43025207519531
80.99394226074219 2.96379280090332 90.03662109375
85.135498046875 2.96379280090332 47.09045791625977
86.5086669921875 2.96379280090332 52.4587287902832
87.21292114257812 2.96379280090332 57.82699966430664
87.47825622558594 2.96379280090332 63.19527053833008
87.4912109375 2.96379280090332 68.56353759765625
86.95428466796875 2.96379280090332 73.93180847167969
85.94630432128906 2.96379280090332 79.30007934570312
-15.67782020568848 5.081933975219727 -1.223968505859375
-10.17757415771484 7.319173812866211 -1.223968505859375
-10.17757415771484 5.887025833129883 4.144298553466797
-4.677326202392578 6.232599258422852 -6.592239379882812
-4.677326202392578 8.974458694458008 -1.223968505859375
-4.677326202392578 8.166616439819336 4.144298553466797
0.8229179382324219 8.803735733032227 -6.592239379882812
0.8229179382324219 8.07219123840332 9.512569427490234
6.323165893554688 9.699960708618164 -6.592239379882812
6.323165893554688 8.759374618530273 12.02692031860352
11.82341384887695 10.3384838104248 -6.592239379882812
11.82341384887695 9.291597366333008 14.88084030151367
17.32365798950195 9.648292541503906 -7.318017959594727
17.32365798950195 8.759374618530273 17.46938705444336
22.82390594482422 8.759374618530273 -7.843111038208008
22.82390594482422 8.759374618530273 19.61303329467773
28.32415390014648 9.029224395751953 -6.756083488464355
28.32415390014648 8.759374618530273 22.65756607055664
33.82439804077148 8.759374618530273 -5.34235954284668
33.82439804077148 8.852243423461914 25.61738204956055
39.32464218139648 8.759374618530273 -3.262115478515625
39.32464218139648 8.759374618530273 30.42244338989258
44.08618927001953 8.759374618530273 -0.8301315307617188
45.27779006958008 8.759374618530273 36.35391616821289
51.11084365844727 8.759374618530273 3.563514709472656
50.32513809204102 9.896852493286133 41.72218704223633
55.82538223266602 8.759374618530273 7.255867004394531
53.22750473022461 8.759374618530273 47.09045791625977
55.91695022583008 8.759374618530273 52.4587287902832
58.4664421081543 8.759374618530273 9.512569427490234
61.32563400268555 8.759374618530273 12.16434097290039
58.14434432983398 8.759374618530273 57.82699966430664
58.74043655395508 8.759374618530273 63.19527053833008
59.0577507019043 8.759374618530273 68.56353759765625
59.11715316772461 8.759374618530273 73.93180847167969
59.26539993286133 8.759374618530273 79.30007934570312
60.61469268798828 9.595943450927734 84.66835021972656
61.32563400268555 6.219663619995117 90.03662109375
63.02289962768555 8.759374618530273 90.03662109375
63.93108749389648 8.759374618530273 14.88084030151367
66.82588195800781 8.759374618530273 18.08377456665039
66.82588195800781 6.419309616088867 95.40489196777344
66.82588195800781 8.759374618530273 92.64277648925781
66.82588195800781 5.775289535522461 100.7731475830078
66.82588195800781 5.87568473815918 106.1414184570312
66.82588195800781 6.254343032836914 111.5096893310547
66.82588195800781 6.95427131652832 116.8779602050781
68.69320678710938 8.759374618530273 20.24911117553711
72.88856506347656 8.759374618530273 25.61738204956055
72.32612609863281 6.294404983520508 95.40489196777344
72.32612609863281 8.759374618530273 92.83599853515625
72.32612609863281 5.223752975463867 100.7731475830078
77.82637023925781 8.759374618530273 32.82260513305664
77.82637023925781 9.440851211547852 90.03662109375
79.98054504394531 8.759374618530273 36.35391616821289
82.97673797607422 8.759374618530273 42.65238952636719
82.95866394042969 8.759374618530273 84.66835021972656
83.93484497070312 9.856712341308594 47.09045791625977
85.92556762695312 8.759374618530273 52.4587287902832
86.77644348144531 8.759374618530273 57.82699966430664
86.99754333496094 8.759374618530273 63.19527053833008
86.83906555175781 8.759374618530273 68.56353759765625
86.23240661621094 8.759374618530273 73.93180847167969
85.03750610351562 8.759374618530273 79.30007934570312
0.8229179382324219 10.34302711486816 -1.223968505859375
0.8229179382324219 9.775724411010742 4.144298553466797
6.323165893554688 11.47756767272949 -1.223968505859375
6.323165893554688 11.10563087463379 4.144298553466797
6.323165893554688 10.10253715515137 9.512569427490234
11.82341384887695 12.38441276550293 -1.223968505859375
11.82341384887695 12.31668663024902 4.144298553466797
11.82341384887695 11.40942192077637 9.512569427490234
17.32365798950195 12.97385215759277 -1.223968505859375
17.32365798950195 13.1561450958252 4.144298553466797
17.32365798950195 12.39875221252441 9.512569427490234
17.32365798950195 11.13632392883301 14.88084030151367
22.82390594482422 13.49973487854004 -1.223968505859375
22.82390594482422 13.67615699768066 4.144298553466797
22.82390594482422 13.07929801940918 9.512569427490234
22.82390594482422 12.14626884460449 14.88084030151367
28.32415390014648 13.64267921447754 -1.223968505859375
28.32415390014648 14.00902366638184 4.144298553466797
28.32415390014648 13.61467170715332 9.512569427490234
28.32415390014648 12.85238838195801 14.88084030151367
28.32415390014648 11.25309944152832 20.24911117553711
33.82439804077148 13.39462852478027 -1.223968505859375
33.82439804077148 14.11919975280762 4.144298553466797
33.82439804077148 13.9836483001709 9.512569427490234
33.82439804077148 13.51802635192871 14.88084030151367
33.82439804077148 12.53168678283691 20.24911117553711
39.32464218139648 11.86972236633301 -1.223968505859375
39.32464218139648 14.0400447845459 4.144298553466797
39.32464218139648 14.19809532165527 9.512569427490234
39.32464218139648 13.88555335998535 14.88084030151367
39.32464218139648 13.30602836608887 20.24911117553711
39.32464218139648 12.31849098205566 25.61738204956055
44.82489395141602 13.56959342956543 4.144298553466797
44.82489395141602 14.20987129211426 9.512569427490234
44.82489395141602 14.20424842834473 14.88084030151367
44.82489395141602 13.83940315246582 20.24911117553711
44.82489395141602 13.12419700622559 25.61738204956055
44.82489395141602 12.16932106018066 30.98564910888672
50.32513809204102 13.98062705993652 9.512569427490234
50.32513809204102 14.2464771270752 14.88084030151367
50.32513809204102 14.23414421081543 20.24911117553711
50.32513809204102 13.78817939758301 25.61738204956055
50.32513809204102 13.16012763977051 30.98564910888672
50.32513809204102 12.44864463806152 36.35391616821289
55.82538223266602 11.81331443786621 9.512569427490234
55.82538223266602 14.0305118560791 14.88084030151367
55.82538223266602 14.26257514953613 20.24911117553711
55.82538223266602 14.26228523254395 25.61738204956055
55.82538223266602 13.87631416320801 30.98564910888672
55.82538223266602 13.35244178771973 36.35391616821289
55.82538223266602 12.65132713317871 41.72218704223633
55.82538223266602 11.42231178283691 47.09045791625977
61.32563400268555 12.04566383361816 14.88084030151367
61.32563400268555 14.03981971740723 20.24911117553711
61.32563400268555 14.27052879333496 25.61738204956055
61.32563400268555 14.2962818145752 30.98564910888672
61.32563400268555 13.96943092346191 36.35391616821289
61.32563400268555 13.62814903259277 41.72218704223633
61.32563400268555 13.16802787780762 47.09045791625977
61.32563400268555 12.66389656066895 52.4587287902832
61.32563400268555 12.07612419128418 57.82699966430664
61.32563400268555 11.75673866271973 63.19527053833008
61.32563400268555 11.51399421691895 68.56353759765625
61.32563400268555 11.40176582336426 73.93180847167969
61.32563400268555 11.18071174621582 79.30007934570312
66.82588195800781 11.42196083068848 20.24911117553711
66.82588195800781 13.91198539733887 25.61738204956055
66.82588195800781 14.25729179382324 30.98564910888672
66.82588195800781 14.2936840057373 36.35391616821289
66.82588195800781 14.1585865020752 41.72218704223633
66.82588195800781 13.92366981506348 47.09045791625977
66.82588195800781 13.73636054992676 52.4587287902832
66.82588195800781 13.42740058898926 57.82699966430664
66.82588195800781 13.36497688293457 63.19527053833008
66.82588195800781 13.31336784362793 68.56353759765625
66.82588195800781 13.26182746887207 73.93180847167969
66.82588195800781 13.14922142028809 79.30007934570312
66.82588195800781 12.86771202087402 84.66835021972656
66.82588195800781 11.06208610534668 90.03662109375
72.32612609863281 13.50092124938965 30.98564910888672
72.32612609863281 14.22736549377441 36.35391616821289
72.32612609863281 14.27031898498535 41.72218704223633
72.32612609863281 14.3123607635498 47.09045791625977
72.32612609863281 14.26186180114746 52.4587287902832
72.32612609863281 14.2004337310791 57.82699966430664
72.32612609863281 14.13900947570801 63.19527053833008
72.32612609863281 14.08096885681152 68.56353759765625
72.32612609863281 13.92294502258301 73.93180847167969
72.32612609863281 13.85958671569824 79.30007934570312
72.32612609863281 13.40228080749512 84.66835021972656
72.32612609863281 11.41258811950684 90.03662109375
77.82637023925781 11.99744987487793 36.35391616821289
77.82637023925781 13.70429420471191 41.72218704223633
77.82637023925781 14.09053993225098 47.09045791625977
77.82637023925781 14.28130531311035 52.4587287902832
77.82637023925781 14.25118446350098 57.82699966430664
77.82637023925781 14.21964073181152 63.19527053833008
77.82637023925781 14.1881046295166 68.56353759765625
77.82637023925781 14.07265281677246 73.93180847167969
77.82637023925781 13.81841468811035 79.30007934570312
77.82637023925781 12.84198951721191 84.66835021972656
83.32661437988281 12.62248039245605 52.4587287902832
83.32661437988281 13.23262214660645 57.82699966430664
83.32661437988281 13.42297554016113 63.19527053833008
83.32661437988281 13.2556095123291 68.56353759765625
83.32661437988281 12.78056526184082 73.93180847167969
83.32661437988281 11.31693840026855 79.30007934570312
3 1 0 60
484
485
486
487
488
489
490
491
492
493
494
495
496
497
498
499
500
501
502
503
504
505
506
507
508
509
510
511
512
513
514
515
516
517
518
519
520
521
522
523
524
525
526
527
528
529
530
531
532
533
534
535
536
537
538
539
540
541
542
543
57.5930025924132 -0.08024146679312771 27.95916494723506
45.88383402759497 -0.158176902668711 16.07473343636076
70.90399430496878 0.09948539733886541 49.64113131252154
73.64662909750105 0.06967830657958629 65.62956432784286
26.87862039772945 -0.05593585968017578 6.446457399194363
64.9114440096904 1.737147642240174 38.37883276174855
71.59150477707541 0.8847798839957157 78.46303602394555
13.14510154024011 1.32286775236907 4.950406783634171
36.99846849173379 3.217232342964351 10.07752551205348
54.59406647113534 4.713873780923973 18.50869910828202
3.172924657108381 1.031864384278666 0.4804841299608734
48.53259791009822 -3.905961554799593 25.2003251583242
77.17635472931471 -3.799343206635486 56.78738857225332
69.44354875062689 0.5241163513906155 88.03817299249113
67.197569224291 -3.365247701838294 58.39337916836697
37.09095091678845 -4.451481252833284 16.15502342754615
57.07461240117583 -4.802108066986614 19.92149710057505
72.16595251859978 -4.252189447798585 40.99237245740434
62.54323654606836 -3.636948263709366 46.20198099661656
73.34275596802361 4.812127929142925 57.46105335445676
42.56798317602542 -4.667555839604712 8.113914351641851
63.75853955719889 -5.313048928006669 32.47983774637225
21.2329181019002 -4.05993783386895 0.006344682028357029
72.86859591379728 4.979895684941941 41.96095017083114
32.64684167859935 5.495057334504347 2.759373722763042
78.40388875551704 -5.448200790370636 73.68847383795709
66.20903779620915 5.704065090772798 30.06296862718986
49.95950164672758 4.842972121019814 27.2917244140506
67.46799717858372 4.407304404035482 70.97180531999058
77.98803230473655 5.022261063521382 72.10294210981546
34.41161902613665 -4.727086216415087 3.671128993383087
56.86869503029797 4.500491155049231 35.60737532783652
55.2977458458591 -4.413360367472269 35.56719503534119
49.92625426256087 6.239520108152474 12.57938089965546
29.04179872982849 3.893071886567285 14.25077337330667
65.18895310294241 4.969756064468195 54.19867650538882
19.25003839071553 4.634452305278955 10.14960732279905
51.79453642444486 -5.553423518274547 13.37066544991902
43.12328364957651 5.563522755101421 21.87830718366533
21.57799528640592 4.879411779197895 1.085385184861938
20.8167246327029 -4.647960912543728 10.57736804176137
29.87373234973216 -4.958452107045541 13.83194743875131
63.36925873011569 -5.604036551295186 24.60692787339479
67.36189559833954 -4.37681507833753 69.97627696536591
-6.15732118935102 0.2406226750090146 -0.301995678527696
65.14604992379543 5.755292521663186 45.79628390341792
77.47456613348832 -5.529436210949376 48.60865299666062
66.57117036179928 4.027169279874554 62.52307349023834
79.56124384141366 -5.813357069554242 64.59275801959733
79.12397500636544 5.966947158683554 63.38303650014203
60.93512103839608 5.101886178281556 22.70653198362471
10.58125708457061 -3.995391663408805 -2.109990583432151
76.98170235117486 6.030612278979932 50.53488471236835
44.06571021130411 5.85754282255199 6.846726995948593
36.16983052445862 3.397173030737913 18.19491194254142
73.91726671131613 -5.097994558747193 83.79469724049002
7.678268470771248 -2.86684774192324 6.996757805418282
48.43729583107665 -0.07517009742717162 9.23955141313813
42.48802863801499 6.912574679731531 14.34911840252899
41.4510439833907 -2.115194298557111 22.2744482845894
$EndNodes
$Elements
2 2579 1 2579
2 1 2 962
1 1 2 3 
2 2 1 174 
3 1 3 4 
4 6 1 4 
5 5 1 6 
6 1 5 170 
7 1 170 174 
8 2 173 3 
9 2 174 173 
10 3 10 4 
11 3 8 9 
12 8 3 178 
13 9 10 3 
14 3 173 176 
15 178 3 176 
16 4 11 6 
17 10 11 4 
18 6 7 5 
19 7 175 5 
20 5 171 170 
21 175 171 5 
22 7 6 12 
23 12 6 11 
24 12 13 7 
25 7 13 177 
26 175 7 177 
27 9 8 15 
28 8 14 15 
29 14 8 180 
30 180 8 178 
31 9 16 10 
32 15 16 9 
33 10 17 11 
34 16 17 10 
35 11 18 12 
36 17 18 11 
37 19 13 12 
38 19 12 18 
39 179 13 19 
40 177 13 179 
41 15 14 21 
42 14 20 21 
43 20 14 182 
44 182 14 180 
45 15 22 16 
46 21 22 15 
47 16 23 17 
48 22 23 16 
49 17 24 18 
50 23 24 17 
51 18 25 19 
52 24 25 18 
53 19 25 26 
54 26 183 19 
55 19 181 179 
56 183 181 19 
57 21 20 28 
58 20 27 28 
59 27 20 184 
60 184 20 182 
61 21 29 22 
62 28 29 21 
63 22 30 23 
64 29 30 22 
65 23 31 24 
66 30 31 23 
67 24 32 25 
68 31 32 24 
69 26 25 33 
70 25 32 33 
71 183 26 33 
72 28 27 34 
73 34 27 186 
74 186 27 184 
75 28 35 29 
76 34 35 28 
77 29 36 30 
78 35 36 29 
79 30 37 31 
80 36 37 30 
81 31 38 32 
82 37 38 31 
83 33 32 39 
84 39 32 38 
85 39 40 33 
86 33 40 185 
87 185 183 33 
88 34 42 35 
89 41 42 34 
90 188 41 34 
91 186 188 34 
92 35 43 36 
93 42 43 35 
94 36 44 37 
95 43 44 36 
96 37 45 38 
97 44 45 37 
98 38 46 39 
99 45 46 38 
100 47 40 39 
101 47 39 46 
102 189 40 47 
103 185 40 187 
104 187 40 189 
105 42 41 49 
106 41 48 49 
107 48 41 190 
108 190 41 188 
109 42 50 43 
110 49 50 42 
111 43 51 44 
112 50 51 43 
113 44 52 45 
114 51 52 44 
115 45 53 46 
116 52 53 45 
117 46 54 47 
118 53 54 46 
119 47 54 55 
120 189 47 55 
121 49 48 56 
122 192 56 48 
123 190 192 48 
124 49 57 50 
125 56 57 49 
126 50 58 51 
127 57 58 50 
128 51 59 52 
129 58 59 51 
130 52 60 53 
131 59 60 52 
132 53 61 54 
133 60 61 53 
134 55 54 62 
135 62 54 61 
136 55 62 63 
137 55 63 193 
138 191 189 55 
139 191 55 193 
140 57 56 65 
141 56 64 65 
142 64 56 194 
143 194 56 192 
144 57 66 58 
145 65 66 57 
146 58 67 59 
147 66 67 58 
148 59 68 60 
149 67 68 59 
150 60 69 61 
151 68 69 60 
152 61 70 62 
153 69 70 61 
154 62 71 63 
155 70 71 62 
156 72 63 71 
157 195 63 72 
158 193 63 195 
159 65 64 73 
160 196 73 64 
161 194 196 64 
162 65 75 66 
163 73 75 65 
164 66 76 67 
165 75 76 66 
166 67 77 68 
167 76 77 67 
168 68 78 69 
169 77 78 68 
170 69 79 70 
171 78 79 69 
172 70 80 71 
173 79 80 70 
174 71 81 72 
175 80 81 71 
176 83 72 81 
177 82 72 83 
178 198 72 82 
179 195 72 198 
180 73 74 75 
181 73 196 74 
182 75 74 85 
183 200 85 74 
184 74 196 197 
185 197 200 74 
186 75 87 76 
187 85 87 75 
188 76 88 77 
189 87 88 76 
190 77 89 78 
191 88 89 77 
192 78 90 79 
193 89 90 78 
194 79 91 80 
195 90 91 79 
196 80 92 81 
197 91 92 80 
198 81 93 83 
199 92 93 81 
200 82 83 84 
201 82 84 198 
202 83 94 84 
203 93 94 83 
204 96 84 94 
205 95 84 96 
206 202 84 95 
207 84 199 198 
208 199 84 202 
209 85 86 87 
210 85 200 86 
211 87 86 100 
212 210 100 86 
213 86 200 201 
214 201 210 86 
215 87 102 88 
216 100 102 87 
217 88 103 89 
218 102 103 88 
219 89 104 90 
220 103 104 89 
221 90 105 91 
222 104 105 90 
223 91 106 92 
224 105 106 91 
225 92 107 93 
226 106 107 92 
227 93 108 94 
228 107 108 93 
229 94 109 96 
230 108 109 94 
231 95 96 98 
232 95 98 202 
233 96 97 98 
234 96 110 97 
235 109 110 96 
236 98 97 99 
237 97 111 99 
238 110 111 97 
239 98 99 203 
240 98 203 202 
241 111 112 99 
242 99 112 113 
243 99 113 204 
244 99 204 203 
245 100 101 102 
246 100 210 101 
247 102 101 121 
248 223 121 101 
249 101 210 211 
250 211 223 101 
251 102 122 103 
252 121 122 102 
253 103 123 104 
254 122 123 103 
255 104 124 105 
256 123 124 104 
257 105 125 106 
258 124 125 105 
259 106 126 107 
260 125 126 106 
261 107 127 108 
262 126 127 107 
263 108 128 109 
264 127 128 108 
265 109 129 110 
266 128 129 109 
267 110 130 111 
268 129 130 110 
269 111 131 112 
270 130 131 111 
271 112 114 113 
272 112 132 114 
273 131 132 112 
274 113 114 115 
275 113 115 205 
276 113 205 204 
277 117 115 114 
278 114 133 117 
279 132 133 114 
280 116 115 117 
281 116 207 115 
282 115 206 205 
283 115 207 206 
284 116 117 119 
285 116 119 208 
286 207 116 208 
287 117 118 119 
288 117 134 118 
289 133 134 117 
290 118 120 119 
291 120 118 135 
292 118 134 135 
293 119 120 212 
294 119 209 208 
295 119 212 209 
296 135 225 120 
297 212 120 214 
298 120 213 214 
299 120 225 213 
300 121 223 122 
301 136 123 122 
302 122 224 136 
303 122 223 224 
304 123 137 124 
305 136 137 123 
306 124 138 125 
307 137 138 124 
308 125 139 126 
309 138 139 125 
310 126 140 127 
311 139 140 126 
312 127 141 128 
313 140 141 127 
314 128 142 129 
315 141 142 128 
316 129 143 130 
317 142 143 129 
318 130 144 131 
319 143 144 130 
320 131 145 132 
321 144 145 131 
322 132 146 133 
323 145 146 132 
324 133 147 134 
325 146 147 133 
326 135 134 147 
327 135 147 231 
328 225 135 231 
329 137 136 148 
330 234 148 136 
331 136 224 230 
332 230 234 136 
333 138 137 148 
334 138 150 139 
335 149 138 148 
336 149 150 138 
337 139 151 140 
338 150 151 139 
339 140 152 141 
340 151 152 140 
341 141 153 142 
342 152 153 141 
343 142 154 143 
344 153 154 142 
345 143 155 144 
346 154 155 143 
347 144 156 145 
348 155 156 144 
349 145 157 146 
350 156 157 145 
351 157 147 146 
352 236 147 157 
353 147 237 231 
354 237 147 236 
355 148 234 149 
356 150 149 158 
357 238 158 149 
358 149 234 235 
359 235 238 149 
360 151 150 158 
361 152 151 159 
362 159 151 158 
363 153 152 160 
364 160 152 159 
365 154 153 161 
366 161 153 160 
367 155 154 162 
368 162 154 161 
369 156 155 163 
370 163 155 162 
371 157 156 164 
372 164 156 163 
373 164 244 157 
374 157 244 236 
375 158 238 159 
376 159 239 160 
377 159 238 239 
378 160 240 161 
379 160 239 240 
380 161 241 162 
381 161 240 241 
382 162 242 163 
383 162 241 242 
384 163 243 164 
385 163 242 243 
386 164 243 244 
387 165 166 167 
388 165 169 166 
389 245 165 167 
390 165 245 169 
391 167 166 168 
392 166 171 168 
393 166 169 170 
394 170 171 166 
395 168 246 167 
396 246 245 167 
397 168 171 172 
398 249 168 172 
399 247 246 168 
400 249 247 168 
401 170 169 174 
402 169 173 174 
403 173 169 250 
404 169 245 248 
405 250 169 248 
406 175 172 171 
407 251 172 175 
408 249 172 251 
409 176 173 252 
410 252 173 250 
411 177 253 175 
412 253 251 175 
413 178 176 254 
414 254 176 252 
415 179 255 177 
416 255 253 177 
417 180 178 256 
418 256 178 254 
419 179 181 255 
420 182 180 258 
421 258 180 256 
422 183 259 181 
423 181 257 255 
424 259 257 181 
425 184 182 260 
426 260 182 258 
427 261 183 185 
428 259 183 261 
429 186 184 262 
430 262 184 260 
431 187 263 185 
432 263 261 185 
433 264 188 186 
434 262 264 186 
435 265 187 189 
436 263 187 265 
437 190 188 266 
438 266 188 264 
439 267 189 191 
440 265 189 267 
441 268 192 190 
442 266 268 190 
443 269 191 193 
444 267 191 269 
445 194 192 270 
446 270 192 268 
447 271 193 195 
448 269 193 271 
449 272 196 194 
450 270 272 194 
451 274 195 198 
452 271 195 274 
453 196 272 197 
454 276 200 197 
455 197 272 273 
456 273 276 197 
457 198 199 274 
458 278 199 202 
459 199 275 274 
460 275 199 278 
461 200 276 201 
462 285 210 201 
463 201 276 277 
464 277 285 201 
465 202 203 278 
466 203 204 279 
467 203 279 278 
468 204 205 280 
469 204 280 279 
470 205 206 281 
471 205 281 280 
472 206 207 282 
473 206 282 281 
474 207 208 283 
475 207 283 282 
476 208 209 284 
477 208 284 283 
478 287 209 212 
479 284 209 287 
480 210 285 211 
481 293 223 211 
482 211 285 286 
483 286 293 211 
484 212 214 287 
485 214 213 216 
486 213 215 216 
487 213 226 215 
488 225 226 213 
489 214 216 288 
490 214 288 287 
491 216 215 218 
492 215 217 218 
493 215 227 217 
494 226 227 215 
495 216 218 289 
496 216 289 288 
497 218 217 220 
498 217 219 220 
499 217 228 219 
500 227 228 217 
501 218 220 290 
502 218 290 289 
503 220 219 222 
504 219 221 222 
505 219 229 221 
506 228 229 219 
507 220 222 291 
508 220 291 290 
509 222 221 229 
510 229 295 222 
511 222 292 291 
512 295 292 222 
513 223 293 224 
514 224 294 230 
515 224 293 294 
516 226 225 232 
517 232 225 231 
518 227 226 233 
519 233 226 232 
520 227 300 228 
521 233 299 227 
522 227 299 300 
523 228 301 229 
524 228 300 301 
525 229 301 295 
526 302 234 230 
527 230 294 296 
528 296 302 230 
529 231 297 232 
530 231 237 297 
531 232 298 233 
532 232 297 298 
533 233 298 299 
534 234 302 235 
535 306 238 235 
536 235 302 303 
537 303 306 235 
538 304 237 236 
539 244 312 236 
540 236 312 304 
541 237 305 297 
542 305 237 304 
543 238 306 239 
544 239 307 240 
545 239 306 307 
546 240 308 241 
547 240 307 308 
548 241 309 242 
549 241 308 309 
550 242 310 243 
551 242 309 310 
552 243 311 244 
553 243 310 311 
554 244 311 312 
555 245 246 313 
556 248 245 313 
557 246 247 313 
558 247 249 315 
559 247 315 313 
560 316 250 248 
561 248 313 314 
562 316 248 314 
563 249 251 315 
564 250 319 252 
565 316 319 250 
566 253 320 251 
567 315 251 318 
568 318 251 320 
569 254 252 321 
570 321 252 319 
571 322 253 255 
572 320 253 322 
573 256 254 323 
574 323 254 321 
575 255 257 324 
576 322 255 324 
577 258 256 325 
578 325 256 323 
579 259 326 257 
580 326 324 257 
581 260 258 327 
582 327 258 325 
583 261 328 259 
584 328 326 259 
585 262 260 329 
586 329 260 327 
587 330 261 263 
588 328 261 330 
589 329 264 262 
590 332 263 265 
591 330 263 332 
592 266 264 333 
593 264 329 331 
594 333 264 331 
595 267 334 265 
596 334 332 265 
597 335 268 266 
598 333 335 266 
599 267 269 334 
600 270 268 337 
601 337 268 335 
602 269 271 336 
603 334 269 336 
604 337 272 270 
605 340 271 274 
606 271 338 336 
607 338 271 340 
608 272 337 273 
609 342 276 273 
610 273 337 339 
611 339 342 273 
612 275 340 274 
613 275 278 341 
614 341 340 275 
615 276 342 277 
616 352 285 277 
617 277 342 343 
618 343 352 277 
619 278 279 344 
620 278 344 341 
621 279 280 345 
622 279 345 344 
623 280 281 346 
624 280 346 345 
625 281 282 347 
626 281 347 346 
627 282 283 348 
628 282 348 347 
629 284 349 283 
630 283 349 348 
631 350 284 287 
632 350 349 284 
633 285 352 286 
634 360 293 286 
635 286 352 353 
636 353 360 286 
637 287 288 356 
638 350 287 354 
639 354 287 356 
640 288 289 357 
641 356 288 357 
642 289 290 358 
643 357 289 358 
644 290 291 359 
645 358 290 359 
646 359 291 292 
647 359 292 295 
648 293 360 294 
649 294 361 296 
650 294 360 361 
651 301 359 295 
652 367 302 296 
653 296 361 365 
654 365 367 296 
655 298 297 362 
656 297 305 366 
657 297 363 362 
658 297 366 363 
659 299 298 364 
660 364 298 362 
661 299 357 300 
662 356 357 299 
663 364 356 299 
664 300 358 301 
665 357 358 300 
666 358 359 301 
667 302 367 303 
668 370 306 303 
669 303 367 368 
670 368 370 303 
671 369 305 304 
672 376 304 312 
673 369 304 376 
674 369 366 305 
675 306 370 307 
676 307 371 308 
677 307 370 371 
678 308 372 309 
679 308 371 372 
680 309 373 310 
681 309 372 373 
682 310 374 311 
683 310 373 374 
684 311 375 312 
685 311 374 375 
686 312 375 376 
687 313 315 314 
688 314 315 318 
689 317 316 314 
690 317 314 318 
691 316 317 319 
692 317 318 378 
693 319 317 377 
694 317 378 377 
695 318 320 378 
696 321 319 379 
697 319 377 379 
698 320 322 381 
699 320 381 378 
700 323 321 382 
701 321 379 382 
702 322 324 381 
703 325 323 385 
704 323 382 385 
705 326 388 324 
706 381 324 384 
707 384 324 388 
708 327 325 389 
709 325 385 389 
710 328 392 326 
711 392 388 326 
712 329 327 393 
713 327 389 393 
714 328 330 397 
715 328 397 392 
716 331 329 398 
717 398 329 393 
718 330 332 397 
719 333 331 398 
720 334 408 332 
721 397 332 402 
722 402 332 408 
723 335 333 403 
724 403 333 398 
725 334 336 414 
726 334 414 408 
727 337 335 409 
728 335 403 409 
729 420 336 338 
730 336 420 414 
731 339 337 421 
732 337 409 415 
733 421 337 415 
734 338 340 428 
735 420 338 427 
736 338 428 427 
737 342 339 421 
738 340 341 428 
739 341 344 437 
740 341 436 428 
741 436 341 437 
742 343 342 421 
743 352 343 429 
744 343 421 429 
745 344 345 438 
746 437 344 438 
747 345 346 439 
748 438 345 439 
749 346 347 440 
750 439 346 440 
751 347 348 441 
752 440 347 441 
753 441 348 349 
754 350 351 349 
755 351 455 349 
756 441 349 454 
757 349 455 454 
758 350 354 351 
759 351 354 355 
760 351 355 455 
761 353 352 429 
762 360 353 442 
763 353 429 442 
764 354 362 355 
765 354 356 364 
766 362 354 364 
767 355 362 363 
768 363 467 355 
769 467 455 355 
770 361 360 442 
771 456 365 361 
772 361 442 443 
773 361 443 456 
774 366 467 363 
775 367 365 468 
776 365 456 468 
777 366 369 477 
778 466 467 366 
779 477 466 366 
780 368 367 468 
781 368 469 370 
782 469 368 468 
783 376 483 369 
784 369 483 477 
785 478 371 370 
786 370 469 470 
787 370 470 478 
788 372 371 478 
789 373 372 479 
790 479 372 478 
791 374 373 480 
792 480 373 479 
793 375 374 481 
794 481 374 480 
795 376 375 482 
796 482 375 481 
797 483 376 482 
798 377 378 380 
799 379 377 380 
800 378 381 380 
801 379 380 383 
802 382 379 383 
803 380 381 384 
804 383 380 384 
805 382 383 386 
806 385 382 386 
807 383 384 387 
808 386 383 387 
809 387 384 388 
810 385 386 390 
811 389 385 390 
812 386 387 391 
813 390 386 391 
814 387 388 392 
815 391 387 392 
816 389 390 394 
817 393 389 394 
818 390 391 395 
819 394 390 395 
820 391 392 396 
821 395 391 396 
822 392 397 396 
823 393 394 399 
824 398 393 399 
825 394 395 400 
826 399 394 400 
827 395 396 401 
828 400 395 401 
829 396 397 402 
830 401 396 402 
831 398 399 404 
832 403 398 404 
833 399 400 405 
834 404 399 405 
835 400 401 406 
836 405 400 406 
837 401 402 407 
838 406 401 407 
839 407 402 408 
840 409 403 404 
841 404 405 410 
842 409 404 410 
843 405 406 411 
844 410 405 411 
845 406 407 412 
846 411 406 412 
847 407 408 413 
848 412 407 413 
849 408 414 413 
850 409 410 415 
851 410 411 416 
852 415 410 416 
853 411 412 417 
854 416 411 417 
855 412 413 418 
856 417 412 418 
857 413 414 419 
858 418 413 419 
859 414 420 419 
860 415 416 422 
861 421 415 422 
862 416 417 423 
863 422 416 423 
864 417 418 424 
865 423 417 424 
866 418 419 425 
867 424 418 425 
868 419 420 426 
869 425 419 426 
870 426 420 427 
871 429 421 422 
872 422 423 430 
873 429 422 430 
874 423 424 431 
875 430 423 431 
876 424 425 432 
877 431 424 432 
878 425 426 433 
879 432 425 433 
880 426 427 434 
881 433 426 434 
882 427 428 435 
883 434 427 435 
884 428 436 435 
885 442 429 430 
886 430 431 443 
887 442 430 443 
888 431 432 444 
889 443 431 444 
890 432 433 445 
891 444 432 445 
892 433 434 446 
893 445 433 446 
894 434 435 447 
895 446 434 447 
896 435 436 448 
897 447 435 448 
898 436 437 449 
899 448 436 449 
900 437 438 450 
901 449 437 450 
902 438 439 451 
903 450 438 451 
904 439 440 452 
905 451 439 452 
906 440 441 453 
907 452 440 453 
908 453 441 454 
909 443 444 456 
910 444 445 457 
911 456 444 457 
912 445 446 458 
913 457 445 458 
914 446 447 459 
915 458 446 459 
916 447 448 460 
917 459 447 460 
918 448 449 461 
919 460 448 461 
920 449 450 462 
921 461 449 462 
922 450 451 463 
923 462 450 463 
924 451 452 464 
925 463 451 464 
926 452 453 465 
927 464 452 465 
928 453 454 466 
929 465 453 466 
930 454 455 467 
931 466 454 467 
932 468 456 457 
933 457 458 469 
934 468 457 469 
935 458 459 470 
936 469 458 470 
937 459 460 471 
938 470 459 471 
939 460 461 472 
940 471 460 472 
941 461 462 473 
942 472 461 473 
943 462 463 474 
944 473 462 474 
945 463 464 475 
946 474 463 475 
947 464 465 476 
948 475 464 476 
949 465 466 477 
950 476 465 477 
951 470 471 478 
952 471 472 479 
953 478 471 479 
954 472 473 480 
955 479 472 480 
956 473 474 481 
957 480 473 481 
958 474 475 482 
959 481 474 482 
960 475 476 483 
961 482 475 483 
962 477 483 476 
3 1 4 1617
963 262 488 186 508 
964 457 507 445 510 
965 92 502 106 505 
966 445 507 489 510 
967 108 127 486 498 
968 131 490 132 509 
969 106 502 501 505 
970 457 365 507 510 
971 127 496 486 498 
972 127 126 486 530 
973 79 484 78 495 
974 126 107 486 501 
975 486 496 127 530 
976 79 78 484 526 
977 457 456 365 510 
978 395 488 394 508 
979 131 132 490 527 
980 108 486 107 502 
981 366 477 369 490 
982 108 498 486 502 
983 305 366 490 497 
984 60 485 59 499 
985 230 501 489 505 
986 131 490 509 527 
987 78 500 484 526 
988 486 501 107 502 
989 484 511 425 534 
990 60 59 485 521 
991 485 495 60 521 
992 323 491 494 535 
993 349 490 454 497 
994 79 484 495 516 
995 132 509 490 539 
996 78 495 484 500 
997 129 498 487 532 
998 264 262 186 508 
999 126 501 486 530 
1000 207 497 116 539 
1001 488 506 186 514 
1002 92 502 505 516 
1003 425 510 484 534 
1004 463 487 462 533 
1005 349 283 490 497 
1006 462 487 463 531 
1007 60 485 499 543 
1008 207 490 497 539 
1009 394 508 488 523 
1010 476 477 465 490 
1011 129 487 498 527 
1012 207 116 490 539 
1013 466 490 366 497 
1014 186 488 262 506 
1015 186 488 188 508 
1016 424 425 511 534 
1017 489 507 296 510 
1018 366 466 477 490 
1019 37 488 36 524 
1020 36 506 488 514 
1021 462 487 531 533 
1022 36 488 30 524 
1023 395 488 391 523 
1024 395 394 488 523 
1025 36 30 488 506 
1026 489 502 515 516 
1027 262 488 508 523 
1028 23 491 17 524 
1029 17 491 18 524 
1030 487 512 463 531 
1031 105 106 501 505 
1032 489 515 274 529 
1033 380 491 381 540 
1034 274 489 502 515 
1035 305 497 490 539 
1036 36 35 506 514 
1037 501 502 489 505 
1038 199 202 95 498 
1039 274 502 489 529 
1040 129 498 110 527 
1041 68 60 495 521 
1042 124 501 123 505 
1043 425 511 484 515 
1044 262 506 488 523 
1045 372 503 308 533 
1046 425 484 510 515 
1047 37 36 488 514 
1048 108 94 498 502 
1049 487 498 496 532 
1050 391 488 395 518 
1051 114 490 132 527 
1052 207 116 115 490 
1053 37 488 524 525 
1054 395 488 508 518 
1055 116 115 490 539 
1056 488 37 514 525 
1057 60 495 485 543 
1058 59 499 485 504 
1059 206 207 115 490 
1060 441 490 348 512 
1061 380 494 491 540 
1062 188 508 488 514 
1063 266 492 508 514 
1064 487 527 129 532 
1065 463 513 487 533 
1066 132 490 114 539 
1067 391 488 518 520 
1068 23 506 491 524 
1069 348 490 282 512 
1070 308 503 372 536 
1071 488 506 30 524 
1072 130 129 527 532 
1073 79 495 70 516 
1074 365 296 507 510 
1075 323 494 256 535 
1076 59 504 485 521 
1077 454 490 466 497 
1078 463 512 487 513 
1079 441 453 490 512 
1080 186 188 264 508 
1081 380 381 494 540 
1082 477 466 465 490 
1083 308 503 496 533 
1084 391 488 520 523 
1085 34 506 35 514 
1086 467 466 366 497 
1087 476 490 465 513 
1088 489 505 502 516 
1089 479 503 372 533 
1090 276 493 517 521 
1091 188 488 186 514 
1092 308 372 371 536 
1093 294 489 296 510 
1094 490 509 244 539 
1095 186 506 34 514 
1096 94 199 498 502 
1097 483 376 369 513 
1098 18 524 491 540 
1099 276 521 517 541 
1100 266 508 492 537 
1101 92 505 91 516 
1102 479 372 503 536 
1103 320 494 381 540 
1104 294 230 296 489 
1105 452 464 465 512 
1106 128 496 127 498 
1107 207 490 283 497 
1108 434 427 515 529 
1109 92 81 502 516 
1110 198 502 82 516 
1111 207 206 282 490 
1112 505 510 224 526 
1113 322 381 491 540 
1114 310 532 513 533 
1115 282 283 207 490 
1116 465 453 452 512 
1117 489 501 296 507 
1118 464 490 465 512 
1119 400 395 508 518 
1120 44 499 514 525 
1121 448 519 529 536 
1122 276 200 493 521 
1123 310 242 513 532 
1124 44 499 504 514 
1125 322 381 384 491 
1126 305 490 304 539 
1127 400 508 492 518 
1128 18 491 17 540 
1129 274 515 340 529 
1130 166 165 247 528 
1131 465 490 453 512 
1132 417 517 493 522 
1133 384 257 491 520 
1134 105 501 124 505 
1135 484 511 495 516 
1136 509 513 242 532 
1137 199 498 502 519 
1138 312 509 490 513 
1139 296 489 230 501 
1140 123 501 136 505 
1141 244 490 312 509 
1142 446 489 445 507 
1143 454 453 466 490 
1144 465 490 464 513 
1145 513 532 487 533 
1146 130 527 509 532 
1147 51 44 499 504 
1148 156 164 509 539 
1149 268 504 492 514 
1150 124 136 123 501 
1151 453 465 466 490 
1152 462 531 503 533 
1153 434 515 489 529 
1154 231 212 287 497 
1155 206 490 115 527 
1156 258 182 506 535 
1157 382 491 323 523 
1158 479 503 472 536 
1159 491 524 181 540 
1160 68 495 500 521 
1161 495 511 193 516 
1162 322 491 255 540 
1163 380 384 381 491 
1164 424 511 493 534 
1165 94 84 199 502 
1166 60 499 53 543 
1167 235 507 501 530 
1168 472 503 479 533 
1169 383 384 380 491 
1170 115 490 114 527 
1171 492 504 268 537 
1172 490 512 464 513 
1173 486 502 498 519 
1174 268 492 266 514 
1175 308 371 307 536 
1176 136 501 230 505 
1177 486 530 507 536 
1178 484 515 511 516 
1179 351 350 349 497 
1180 165 245 247 528 
1181 114 490 115 539 
1182 491 520 181 524 
1183 323 321 254 494 
1184 205 490 206 527 
1185 303 507 530 536 
1186 434 433 489 515 
1187 107 501 106 502 
1188 467 454 466 497 
1189 434 489 446 529 
1190 199 202 498 519 
1191 269 511 515 516 
1192 493 511 417 522 
1193 509 527 487 532 
1194 384 491 383 520 
1195 489 507 446 529 
1196 232 212 288 287 
1197 51 44 504 514 
1198 256 494 254 535 
1199 212 232 231 287 
1200 383 491 382 523 
1201 493 495 485 500 
1202 417 412 517 522 
1203 236 490 244 539 
1204 433 445 489 510 
1205 307 530 496 536 
1206 303 507 235 530 
1207 455 454 467 497 
1208 462 463 450 531 
1209 309 532 310 533 
1210 463 512 451 531 
1211 205 512 490 527 
1212 487 513 509 532 
1213 52 499 59 504 
1214 486 529 519 536 
1215 492 514 499 525 
1216 34 35 41 514 
1217 463 451 450 531 
1218 156 509 145 539 
1219 307 239 496 530 
1220 510 526 484 534 
1221 254 256 323 494 
1222 501 507 486 530 
1223 188 186 34 514 
1224 404 492 508 537 
1225 181 491 257 520 
1226 69 495 78 500 
1227 286 285 211 534 
1228 244 509 164 539 
1229 493 500 485 521 
1230 484 510 505 526 
1231 238 239 306 530 
1232 485 495 493 511 
1233 276 197 200 521 
1234 116 117 115 539 
1235 266 492 268 537 
1236 404 508 403 537 
1237 485 511 493 522 
1238 34 41 188 514 
1239 493 500 285 534 
1240 210 285 500 534 
1241 365 456 361 510 
1242 63 70 495 516 
1243 503 531 487 533 
1244 68 495 69 500 
1245 304 490 236 539 
1246 485 500 495 521 
1247 320 253 494 540 
1248 236 312 244 490 
1249 489 501 486 502 
1250 134 118 135 497 
1251 489 502 486 529 
1252 44 514 37 525 
1253 275 519 502 529 
1254 120 212 231 497 
1255 210 211 285 534 
1256 226 233 288 289 
1257 491 535 17 540 
1258 59 58 504 521 
1259 486 507 489 529 
1260 433 510 489 515 
1261 485 517 493 521 
1262 288 216 226 289 
1263 307 306 530 536 
1264 312 236 304 490 
1265 201 210 285 500 
1266 412 517 522 542 
1267 261 520 518 524 
1268 123 136 122 505 
1269 192 504 268 514 
1270 486 501 489 507 
1271 273 276 517 541 
1272 156 157 164 539 
1273 110 498 97 527 
1274 492 488 514 525 
1275 476 465 464 513 
1276 424 418 493 511 
1277 181 257 491 540 
1278 216 226 215 288 
1279 143 130 509 532 
1280 64 73 196 541 
1281 257 384 324 520 
1282 21 506 20 535 
1283 130 129 110 527 
1284 287 354 356 364 
1285 226 213 214 288 
1286 459 529 507 536 
1287 273 197 276 521 
1288 517 521 485 541 
1289 205 206 115 527 
1290 44 45 499 525 
1291 255 491 257 540 
1292 273 521 276 541 
1293 131 509 130 527 
1294 309 242 310 532 
1295 232 287 356 364 
1296 269 193 511 516 
1297 97 498 98 527 
1298 185 524 518 525 
1299 197 521 273 541 
1300 403 508 333 537 
1301 506 520 491 524 
1302 203 527 498 531 
1303 488 520 506 524 
1304 211 526 223 534 
1305 492 504 499 514 
1306 505 510 484 515 
1307 181 179 255 540 
1308 307 306 239 530 
1309 275 502 274 529 
1310 3 1 4 494 
1311 493 517 485 522 
1312 22 506 21 535 
1313 484 495 493 500 
1314 98 498 203 527 
1315 287 288 232 356 
1316 132 145 509 539 
1317 441 348 347 512 
1318 420 336 511 515 
1319 489 510 505 515 
1320 134 118 497 539 
1321 198 195 274 516 
1322 401 400 492 518 
1323 20 506 182 535 
1324 419 420 511 515 
1325 242 309 241 532 
1326 214 215 226 288 
1327 440 441 347 512 
1328 333 508 266 537 
1329 363 467 366 497 
1330 261 518 185 524 
1331 294 293 224 510 
1332 490 509 487 513 
1333 302 501 235 507 
1334 114 115 117 539 
1335 64 504 73 541 
1336 487 509 490 527 
1337 61 495 60 543 
1338 232 120 212 231 
1339 187 499 525 538 
1340 487 512 490 513 
1341 487 532 496 533 
1342 199 502 275 519 
1343 493 511 484 534 
1344 418 417 493 511 
1345 166 247 168 528 
1346 262 508 329 523 
1347 490 512 487 527 
1348 423 424 493 534 
1349 464 512 463 513 
1350 73 504 521 541 
1351 123 122 104 505 
1352 215 214 216 288 
1353 306 303 530 536 
1354 224 122 136 505 
1355 187 525 518 538 
1356 30 506 23 524 
1357 496 530 486 536 
1358 419 511 425 515 
1359 134 497 135 539 
1360 418 417 511 522 
1361 474 513 463 533 
1362 73 64 65 504 
1363 232 233 298 364 
1364 405 492 404 537 
1365 493 495 484 511 
1366 293 286 211 534 
1367 7 494 177 540 
1368 7 175 177 494 
1369 111 130 110 527 
1370 5 175 494 528 
1371 63 70 62 495 
1372 224 136 230 505 
1373 365 361 296 510 
1374 475 476 464 513 
1375 268 266 190 514 
1376 343 342 277 493 
1377 2 174 1 528 
1378 3 494 4 535 
1379 66 504 58 521 
1380 506 520 488 523 
1381 190 192 268 514 
1382 491 520 506 523 
1383 484 526 500 534 
1384 391 518 392 520 
1385 208 119 116 497 
1386 140 127 496 530 
1387 68 500 77 521 
1388 352 343 277 493 
1389 276 493 342 517 
1390 492 508 488 518 
1391 244 164 157 539 
1392 518 520 488 524 
1393 120 135 118 497 
1394 213 215 226 214 
1395 260 258 506 523 
1396 228 218 220 290 
1397 247 245 313 528 
1398 204 527 203 531 
1399 305 237 497 539 
1400 207 208 116 497 
1401 175 253 177 494 
1402 486 519 503 536 
1403 78 89 500 526 
1404 262 260 506 523 
1405 489 515 505 516 
1406 52 51 499 504 
1407 492 488 508 514 
1408 131 132 145 509 
1409 401 518 492 538 
1410 196 194 64 541 
1411 505 515 484 516 
1412 412 411 517 542 
1413 299 289 288 233 
1414 302 234 235 501 
1415 518 524 488 525 
1416 193 63 495 516 
1417 72 198 82 516 
1418 488 492 518 525 
1419 430 493 429 534 
1420 462 450 503 531 
1421 53 499 47 543 
1422 251 494 175 528 
1423 233 226 227 289 
1424 125 501 126 530 
1425 3 178 494 535 
1426 401 538 492 542 
1427 63 71 70 516 
1428 7 6 494 540 
1429 271 269 515 516 
1430 512 527 280 531 
1431 485 504 492 541 
1432 267 522 511 543 
1433 423 493 430 534 
1434 184 186 262 506 
1435 449 461 462 503 
1436 280 527 204 531 
1437 303 302 235 507 
1438 342 276 277 493 
1439 291 228 220 290 
1440 259 520 261 524 
1441 216 227 226 289 
1442 73 521 196 541 
1443 430 423 429 493 
1444 462 450 449 503 
1445 496 498 487 503 
1446 496 503 487 533 
1447 51 504 50 514 
1448 299 298 233 364 
1449 502 519 486 529 
1450 507 529 486 536 
1451 120 118 119 497 
1452 340 428 341 529 
1453 448 503 449 519 
1454 486 503 496 536 
1455 401 492 406 542 
1456 486 498 496 503 
1457 54 53 47 543 
1458 416 493 417 517 
1459 449 503 450 531 
1460 302 296 501 507 
1461 125 138 501 530 
1462 176 3 178 494 
1463 211 223 293 534 
1464 294 296 361 510 
1465 485 499 492 504 
1466 403 333 335 537 
1467 49 50 56 514 
1468 312 311 509 513 
1469 340 341 275 529 
1470 352 277 285 493 
1471 191 193 495 511 
1472 226 215 227 216 
1473 487 498 527 531 
1474 262 260 184 506 
1475 306 235 238 530 
1476 50 504 56 514 
1477 289 218 227 290 
1478 406 492 405 542 
1479 76 77 500 521 
1480 120 231 135 497 
1481 122 505 224 526 
1482 422 343 429 493 
1483 429 343 352 493 
1484 418 511 413 522 
1485 251 253 175 494 
1486 290 291 228 301 
1487 199 278 202 519 
1488 218 227 216 289 
1489 429 493 352 534 
1490 233 232 356 364 
1491 251 320 253 494 
1492 35 42 41 514 
1493 422 493 416 517 
1494 58 66 65 504 
1495 498 519 278 531 
1496 279 498 278 531 
1497 333 266 335 537 
1498 278 498 202 519 
1499 218 228 227 290 
1500 113 205 115 527 
1501 341 519 275 529 
1502 3 10 9 535 
1503 233 232 288 356 
1504 5 494 1 528 
1505 144 131 145 509 
1506 484 500 493 534 
1507 9 8 3 535 
1508 336 420 338 515 
1509 275 274 340 529 
1510 459 447 507 529 
1511 425 510 432 515 
1512 88 500 89 526 
1513 352 493 285 534 
1514 447 446 507 529 
1515 156 145 157 539 
1516 492 499 485 538 
1517 232 225 120 231 
1518 461 472 473 503 
1519 473 462 461 503 
1520 130 131 144 509 
1521 98 95 202 498 
1522 420 336 419 511 
1523 135 497 231 539 
1524 302 230 234 501 
1525 100 500 88 526 
1526 289 299 288 357 
1527 473 462 503 533 
1528 279 203 278 498 
1529 152 160 496 532 
1530 143 130 144 509 
1531 151 140 496 530 
1532 138 149 501 530 
1533 159 151 496 530 
1534 393 508 394 523 
1535 152 159 151 496 
1536 413 511 414 522 
1537 11 535 494 540 
1538 351 455 355 497 
1539 297 366 305 497 
1540 473 503 472 533 
1541 180 182 258 535 
1542 208 209 119 497 
1543 45 46 499 525 
1544 141 152 496 532 
1545 39 499 46 525 
1546 392 518 328 520 
1547 194 504 64 541 
1548 307 239 240 496 
1549 203 498 279 531 
1550 177 494 253 540 
1551 8 178 3 535 
1552 278 199 275 519 
1553 462 473 474 533 
1554 504 537 492 541 
1555 240 308 307 496 
1556 474 463 462 533 
1557 297 363 366 497 
1558 46 47 53 499 
1559 356 299 233 364 
1560 129 130 143 532 
1561 436 519 341 529 
1562 288 299 233 356 
1563 289 299 227 233 
1564 263 187 518 538 
1565 290 227 289 300 
1566 269 511 336 515 
1567 129 143 142 532 
1568 181 257 259 520 
1569 152 160 159 496 
1570 401 402 518 538 
1571 264 331 329 508 
1572 183 259 261 524 
1573 3 4 10 535 
1574 98 96 95 498 
1575 305 237 297 497 
1576 202 278 203 498 
1577 279 280 204 531 
1578 433 432 510 515 
1579 305 304 237 539 
1580 472 461 460 503 
1581 306 303 235 530 
1582 423 422 429 493 
1583 11 17 535 540 
1584 449 519 503 531 
1585 231 497 237 539 
1586 485 522 517 542 
1587 11 494 6 540 
1588 204 203 279 531 
1589 401 406 538 542 
1590 90 505 104 526 
1591 171 170 166 528 
1592 498 503 486 519 
1593 149 148 138 501 
1594 136 124 137 501 
1595 289 358 290 300 
1596 311 243 244 509 
1597 329 508 393 523 
1598 492 538 485 542 
1599 162 154 509 532 
1600 113 115 114 527 
1601 183 261 185 524 
1602 240 496 160 532 
1603 171 166 168 528 
1604 162 155 163 509 
1605 187 499 40 525 
1606 176 494 252 528 
1607 231 362 297 497 
1608 201 86 500 521 
1609 315 249 247 528 
1610 268 537 504 541 
1611 154 155 162 509 
1612 261 328 518 520 
1613 235 501 149 530 
1614 242 162 509 532 
1615 159 496 239 530 
1616 266 188 190 514 
1617 39 40 499 525 
1618 213 226 225 232 
1619 258 256 180 535 
1620 365 468 457 507 
1621 62 55 63 495 
1622 271 193 269 516 
1623 487 503 498 531 
1624 358 290 300 301 
1625 191 267 269 511 
1626 336 338 271 515 
1627 200 85 86 521 
1628 321 319 252 494 
1629 459 507 470 536 
1630 217 228 218 220 
1631 492 537 405 542 
1632 185 518 187 525 
1633 244 157 236 539 
1634 56 504 192 514 
1635 397 518 402 538 
1636 114 112 113 527 
1637 205 280 281 512 
1638 154 143 509 532 
1639 439 451 512 531 
1640 266 268 335 537 
1641 187 189 499 538 
1642 228 227 217 218 
1643 299 289 300 357 
1644 404 403 335 537 
1645 61 55 62 495 
1646 163 243 242 509 
1647 406 407 538 542 
1648 302 296 230 501 
1649 242 162 163 509 
1650 83 82 84 502 
1651 49 56 48 514 
1652 231 297 237 497 
1653 240 239 160 496 
1654 289 299 300 227 
1655 239 159 160 496 
1656 244 312 311 509 
1657 191 269 193 511 
1658 136 137 148 501 
1659 414 511 334 522 
1660 20 27 184 506 
1661 184 182 20 506 
1662 291 292 222 301 
1663 149 234 148 501 
1664 19 183 26 524 
1665 262 264 329 508 
1666 201 200 86 521 
1667 485 521 504 541 
1668 156 155 144 509 
1669 451 463 464 512 
1670 293 510 360 534 
1671 143 155 154 509 
1672 146 157 145 539 
1673 310 513 374 533 
1674 148 137 138 501 
1675 476 475 483 513 
1676 268 504 192 541 
1677 144 155 143 509 
1678 110 97 111 527 
1679 481 374 513 533 
1680 176 252 173 528 
1681 407 522 332 538 
1682 299 288 357 356 
1683 179 181 19 540 
1684 355 363 362 497 
1685 474 481 513 533 
1686 72 195 198 516 
1687 487 527 512 531 
1688 181 255 257 540 
1689 439 512 346 531 
1690 413 414 334 522 
1691 451 464 452 512 
1692 34 186 27 506 
1693 56 192 48 514 
1694 184 27 186 506 
1695 58 65 57 504 
1696 202 203 98 498 
1697 475 464 463 513 
1698 222 228 220 291 
1699 86 100 210 500 
1700 145 156 144 509 
1701 354 355 362 497 
1702 190 48 192 514 
1703 234 136 148 501 
1704 97 98 99 527 
1705 87 88 100 500 
1706 289 357 358 300 
1707 98 203 99 527 
1708 463 474 475 513 
1709 19 26 25 524 
1710 50 57 56 504 
1711 346 512 280 531 
1712 448 519 436 529 
1713 234 149 235 501 
1714 503 519 498 531 
1715 14 20 182 535 
1716 443 510 431 534 
1717 228 217 219 220 
1718 131 130 111 527 
1719 94 93 84 502 
1720 274 275 199 502 
1721 192 504 194 541 
1722 326 392 328 520 
1723 198 84 82 502 
1724 278 519 344 531 
1725 402 407 332 538 
1726 469 470 507 536 
1727 270 192 194 541 
1728 360 293 294 510 
1729 362 363 297 497 
1730 437 519 449 531 
1731 222 228 291 301 
1732 34 27 28 506 
1733 259 326 328 520 
1734 185 263 187 518 
1735 321 252 254 494 
1736 193 63 55 495 
1737 408 332 407 522 
1738 254 494 178 535 
1739 134 117 118 539 
1740 33 524 185 525 
1741 47 499 189 543 
1742 209 287 212 497 
1743 334 414 267 511 
1744 330 518 397 538 
1745 98 97 96 498 
1746 469 507 368 536 
1747 522 538 407 542 
1748 250 173 252 528 
1749 237 304 236 539 
1750 261 259 328 520 
1751 47 55 54 543 
1752 414 419 336 511 
1753 83 84 93 502 
1754 272 517 537 541 
1755 182 180 14 535 
1756 499 485 538 543 
1757 178 254 176 494 
1758 482 483 475 513 
1759 19 13 179 540 
1760 437 344 519 531 
1761 183 33 26 524 
1762 368 507 303 536 
1763 210 201 86 500 
1764 203 204 99 527 
1765 196 73 74 521 
1766 456 444 361 510 
1767 274 199 198 502 
1768 152 153 160 532 
1769 191 193 55 495 
1770 334 511 267 522 
1771 279 278 344 531 
1772 135 231 147 539 
1773 359 292 291 301 
1774 494 535 491 540 
1775 196 74 197 521 
1776 189 499 538 543 
1777 265 538 522 543 
1778 415 517 410 537 
1779 271 269 336 515 
1780 414 269 267 511 
1781 87 100 86 500 
1782 240 160 161 532 
1783 241 240 161 532 
1784 350 354 287 497 
1785 194 56 64 504 
1786 103 104 123 122 
1787 345 279 344 531 
1788 410 537 517 542 
1789 270 537 268 541 
1790 17 11 18 540 
1791 485 538 522 542 
1792 485 517 541 542 
1793 271 195 193 516 
1794 261 263 185 518 
1795 294 361 360 510 
1796 346 280 345 531 
1797 209 284 287 497 
1798 234 230 136 501 
1799 135 120 225 231 
1800 254 252 176 494 
1801 122 223 121 526 
1802 75 76 85 521 
1803 311 312 375 513 
1804 238 158 159 530 
1805 159 158 151 530 
1806 326 257 324 520 
1807 160 153 161 532 
1808 537 541 517 542 
1809 522 538 485 543 
1810 270 268 192 541 
1811 481 375 482 513 
1812 481 374 375 513 
1813 410 517 411 542 
1814 265 522 267 543 
1815 481 482 474 513 
1816 280 279 345 531 
1817 12 18 11 540 
1818 415 410 409 537 
1819 311 374 310 513 
1820 311 375 374 513 
1821 151 158 150 530 
1822 326 324 388 520 
1823 138 139 149 530 
1824 414 336 269 511 
1825 361 444 443 510 
1826 326 388 392 520 
1827 332 522 265 538 
1828 132 114 133 539 
1829 410 405 537 542 
1830 296 302 367 507 
1831 259 257 326 520 
1832 330 263 518 538 
1833 19 181 183 524 
1834 147 231 237 539 
1835 367 302 303 507 
1836 55 191 495 543 
1837 208 284 209 497 
1838 111 112 131 527 
1839 309 373 372 533 
1840 475 474 482 513 
1841 396 328 392 518 
1842 187 263 265 538 
1843 99 111 97 527 
1844 196 521 197 541 
1845 376 482 375 513 
1846 247 165 246 245 
1847 372 308 309 533 
1848 303 368 367 507 
1849 442 443 431 534 
1850 350 287 284 497 
1851 238 159 239 530 
1852 421 339 342 517 
1853 47 189 55 543 
1854 346 347 281 512 
1855 281 280 346 512 
1856 367 365 296 507 
1857 474 473 481 533 
1858 373 480 479 533 
1859 337 517 415 537 
1860 479 372 373 533 
1861 72 71 63 516 
1862 272 517 337 537 
1863 114 117 133 539 
1864 376 483 482 513 
1865 375 312 376 513 
1866 334 332 408 522 
1867 412 522 407 542 
1868 48 190 41 514 
1869 139 150 149 530 
1870 334 269 267 414 
1871 40 185 187 525 
1872 74 85 200 521 
1873 331 333 398 508 
1874 133 117 134 539 
1875 101 121 223 526 
1876 481 473 480 533 
1877 365 367 468 507 
1878 187 265 189 538 
1879 404 335 409 537 
1880 251 172 249 528 
1881 199 84 198 502 
1882 481 480 374 533 
1883 295 222 292 301 
1884 220 219 228 222 
1885 40 33 185 525 
1886 352 286 353 534 
1887 397 328 396 518 
1888 183 185 33 524 
1889 439 440 346 512 
1890 346 440 347 512 
1891 81 80 72 516 
1892 480 373 374 533 
1893 134 135 147 539 
1894 272 273 517 541 
1895 421 422 416 517 
1896 145 132 146 539 
1897 390 386 385 523 
1898 352 285 286 534 
1899 408 413 334 522 
1900 192 56 194 504 
1901 200 197 74 521 
1902 431 430 442 534 
1903 149 158 238 530 
1904 251 175 172 528 
1905 133 146 132 539 
1906 188 41 190 514 
1907 332 263 330 538 
1908 40 39 33 525 
1909 72 63 195 516 
1910 318 314 317 528 
1911 71 72 80 516 
1912 272 537 270 541 
1913 316 314 248 528 
1914 314 316 317 528 
1915 415 409 337 537 
1916 318 315 314 528 
1917 307 370 306 536 
1918 307 371 370 536 
1919 63 193 195 516 
1920 177 255 179 540 
1921 471 470 478 536 
1922 174 169 170 528 
1923 306 370 303 536 
1924 442 430 353 534 
1925 242 241 162 532 
1926 32 31 24 524 
1927 211 101 223 526 
1928 255 177 253 540 
1929 241 161 162 532 
1930 174 170 1 528 
1931 223 122 224 526 
1932 14 180 8 535 
1933 403 398 333 508 
1934 265 189 538 543 
1935 32 24 25 524 
1936 102 121 101 526 
1937 328 397 330 518 
1938 9 16 15 535 
1939 334 336 269 414 
1940 180 178 8 535 
1941 5 170 171 528 
1942 332 265 263 538 
1943 390 385 389 523 
1944 196 197 272 541 
1945 154 142 143 532 
1946 370 368 303 536 
1947 162 161 154 532 
1948 147 237 236 539 
1949 75 85 74 521 
1950 189 265 267 543 
1951 421 416 415 517 
1952 5 1 170 528 
1953 150 158 149 530 
1954 153 154 161 532 
1955 153 142 154 532 
1956 238 235 149 530 
1957 146 147 157 539 
1958 179 13 177 540 
1959 169 250 248 528 
1960 470 370 478 536 
1961 173 169 174 528 
1962 295 229 222 301 
1963 228 222 229 301 
1964 55 189 191 543 
1965 7 177 13 540 
1966 361 456 443 444 
1967 173 250 169 528 
1968 94 93 83 84 
1969 236 157 147 539 
1970 9 10 16 535 
1971 270 272 337 537 
1972 370 371 478 536 
1973 250 316 248 528 
1974 214 213 215 216 
1975 272 197 273 541 
1976 150 138 139 149 
1977 267 191 189 543 
1978 204 205 113 527 
1979 332 402 408 407 
1980 47 46 53 54 
1981 246 247 245 313 
1982 49 57 56 50 
1983 360 353 286 534 
1984 7 13 12 540 
1985 63 62 70 71 
1986 337 409 335 537 
1987 337 335 268 537 
1988 268 270 337 537 
1989 61 55 54 62 
1990 146 133 147 539 
1991 134 147 133 539 
1992 286 293 360 534 
1993 204 113 99 527 
1994 194 196 272 541 
1995 403 409 404 335 
1996 87 85 75 76 
1997 343 421 422 429 
1998 336 414 420 419 
1999 87 88 102 100 
2000 71 72 81 80 
2001 353 429 430 442 
2002 396 328 397 392 
2003 136 124 123 137 
2004 73 75 66 65 
2005 246 165 167 245 
2006 365 468 456 457 
2007 42 35 41 34 
2008 295 292 359 301 
2009 442 353 360 534 
2010 57 58 66 65 
2011 413 408 334 414 
2012 272 270 194 541 
2013 429 430 422 423 
2014 431 443 442 430 
2015 416 422 421 415 
2016 288 212 214 287 
2017 324 384 322 381 
2018 95 202 199 84 
2019 348 349 490 441 
2020 166 169 528 170 
2021 166 528 169 165 
2022 327 393 523 329 
2023 523 393 327 389 
2024 297 232 362 231 
2025 362 232 297 298 
2026 497 354 231 362 
2027 497 231 354 287 
2028 232 231 354 362 
2029 232 354 231 287 
2030 364 354 232 287 
2031 112 99 527 111 
2032 112 527 99 113 
2033 536 448 503 460 
2034 536 503 448 519 
2035 309 532 308 241 
2036 240 308 532 241 
2037 240 532 308 496 
2038 274 516 502 198 
2039 502 516 274 515 
2040 536 308 496 307 
2041 536 496 308 503 
2042 205 512 206 490 
2043 205 206 512 281 
2044 282 206 512 490 
2045 282 512 206 281 
2046 224 510 489 294 
2047 489 510 224 505 
2048 489 230 224 294 
2049 224 230 489 505 
2050 3 1 528 2 
2051 528 1 3 494 
2052 3 176 528 494 
2053 540 322 253 255 
2054 540 19 524 181 
2055 540 524 19 18 
2056 383 387 520 386 
2057 383 520 387 384 
2058 523 383 520 386 
2059 523 520 383 491 
2060 226 288 232 213 
2061 232 288 226 233 
2062 232 213 120 225 
2063 521 201 493 500 
2064 521 493 201 200 
2065 441 454 490 453 
2066 490 454 441 349 
2067 382 321 494 379 
2068 494 321 382 323 
2069 382 491 494 323 
2070 322 320 540 253 
2071 540 320 322 381 
2072 543 61 55 54 
2073 543 55 61 495 
2074 129 128 532 142 
2075 141 128 532 496 
2076 141 532 128 142 
2077 188 508 266 264 
2078 188 266 508 514 
2079 484 516 526 505 
2080 484 526 516 79 
2081 90 526 516 505 
2082 90 516 526 79 
2083 7 5 494 6 
2084 494 5 7 175 
2085 534 223 510 526 
2086 534 510 223 293 
2087 224 510 223 526 
2088 224 223 510 293 
2089 90 516 91 505 
2090 24 17 524 23 
2091 24 524 17 18 
2092 511 191 543 495 
2093 511 543 191 267 
2094 168 246 166 167 
2095 168 166 246 247 
2096 165 166 246 167 
2097 165 246 166 247 
2098 25 33 524 26 
2099 524 33 25 32 
2100 317 378 528 377 
2101 317 528 378 318 
2102 494 528 378 377 
2103 541 542 492 485 
2104 492 542 541 537 
2105 168 528 172 171 
2106 543 511 485 522 
2107 543 485 511 495 
2108 73 66 504 65 
2109 504 66 73 521 
2110 536 472 460 503 
2111 536 460 472 471 
2112 256 325 523 258 
2113 523 325 256 323 
2114 11 535 6 494 
2115 4 6 535 494 
2116 525 538 492 518 
2117 492 538 525 499 
2118 315 313 528 247 
2119 528 313 315 314 
2120 84 96 199 95 
2121 84 199 96 94 
2122 498 199 96 95 
2123 498 96 199 94 
2124 526 104 122 505 
2125 526 122 104 103 
2126 516 271 274 515 
2127 516 274 271 195 
2128 527 280 205 512 
2129 527 205 280 204 
2130 524 259 181 183 
2131 524 181 259 520 
2132 6 1 494 4 
2133 6 494 1 5 
2134 218 215 227 217 
2135 218 227 215 216 
2136 348 283 490 349 
2137 348 490 283 282 
2138 305 369 490 366 
2139 305 490 369 304 
2140 378 381 494 380 
2141 494 381 378 320 
2142 477 483 513 476 
2143 513 483 477 369 
2144 513 490 477 476 
2145 477 490 513 369 
2146 25 18 524 24 
2147 25 524 18 19 
2148 245 169 528 165 
2149 245 528 169 248 
2150 255 491 384 257 
2151 384 491 255 322 
2152 384 324 255 257 
2153 255 324 384 322 
2154 273 342 517 276 
2155 273 517 342 339 
2156 437 341 519 344 
2157 437 519 341 436 
2158 396 391 518 392 
2159 518 391 396 395 
2160 251 315 528 249 
2161 528 315 251 318 
2162 440 453 512 452 
2163 512 453 440 441 
2164 278 341 519 275 
2165 519 341 278 344 
2166 120 232 288 213 
2167 288 232 120 212 
2168 288 214 120 213 
2169 120 214 288 212 
2170 384 388 520 387 
2171 384 520 388 324 
2172 380 377 494 378 
2173 494 377 380 379 
2174 387 392 520 391 
2175 520 392 387 388 
2176 397 332 538 402 
2177 538 332 397 330 
2178 6 12 540 7 
2179 540 12 6 11 
2180 419 426 515 425 
2181 515 426 419 420 
2182 261 330 518 328 
2183 261 518 330 263 
2184 391 386 520 387 
2185 439 452 512 451 
2186 512 452 439 440 
2187 368 468 507 469 
2188 507 468 368 367 
2189 325 389 523 327 
2190 523 389 325 385 
2191 436 428 529 341 
2192 436 529 428 435 
2193 327 258 523 325 
2194 327 523 258 260 
2195 413 407 522 408 
2196 522 407 413 412 
2197 402 396 518 397 
2198 402 518 396 401 
2199 329 398 508 331 
2200 508 398 329 393 
2201 419 413 511 414 
2202 511 413 419 418 
2203 420 427 515 426 
2204 515 427 420 338 
2205 323 385 523 325 
2206 523 385 323 382 
2207 100 102 526 88 
2208 100 526 102 101 
2209 524 525 38 37 
2210 524 31 38 32 
2211 38 31 524 37 
2212 500 87 521 86 
2213 500 521 87 76 
2214 85 521 87 86 
2215 85 87 521 76 
2216 11 4 535 10 
2217 535 4 11 6 
2218 343 421 493 422 
2219 343 493 421 342 
2220 517 493 421 422 
2221 517 421 493 342 
2222 429 353 534 352 
2223 429 534 353 430 
2224 449 436 519 437 
2225 449 519 436 448 
2226 45 53 499 46 
2227 499 53 45 52 
2228 421 337 517 415 
2229 517 337 421 339 
2230 22 15 535 21 
2231 535 15 22 16 
2232 168 249 528 247 
2233 528 249 168 172 
2234 102 122 526 103 
2235 102 526 122 121 
2236 75 73 521 74 
2237 521 73 75 66 
2238 340 271 515 274 
2239 340 515 271 338 
2240 435 427 529 428 
2241 529 427 435 434 
2242 46 38 525 45 
2243 525 38 46 39 
2244 53 61 543 54 
2245 543 61 53 60 
2246 171 175 528 172 
2247 171 528 175 5 
2248 110 96 498 109 
2249 110 498 96 97 
2250 80 92 516 81 
2251 80 516 92 91 
2252 40 189 499 187 
2253 499 189 40 47 
2254 334 265 522 267 
2255 334 522 265 332 
2256 14 21 535 15 
2257 14 535 21 20 
2258 119 212 497 209 
2259 497 212 119 120 
2260 61 70 495 62 
2261 495 70 61 69 
2262 65 56 504 64 
2263 65 504 56 57 
2264 539 117 497 116 
2265 539 497 117 118 
2266 119 497 117 116 
2267 119 117 497 118 
2268 164 243 509 244 
2269 164 509 243 163 
2270 351 354 497 355 
2271 351 497 354 350 
2272 438 451 531 450 
2273 531 451 438 439 
2274 370 469 536 470 
2275 536 469 370 368 
2276 418 425 511 424 
2277 511 425 418 419 
2278 94 109 498 96 
2279 498 109 94 108 
2280 70 80 516 71 
2281 516 80 70 79 
2282 41 49 514 42 
2283 514 49 41 48 
2284 81 93 502 83 
2285 502 93 81 92 
2286 139 151 530 140 
2287 530 151 139 150 
2288 426 434 515 433 
2289 515 434 426 427 
2290 442 534 510 443 
2291 510 534 442 360 
2292 510 361 442 443 
2293 442 361 510 360 
2294 418 412 522 413 
2295 522 412 418 417 
2296 401 407 538 406 
2297 538 407 401 402 
2298 88 103 526 89 
2299 526 103 88 102 
2300 433 425 515 426 
2301 433 515 425 432 
2302 39 47 499 40 
2303 39 499 47 46 
2304 401 395 518 396 
2305 401 518 395 400 
2306 390 395 523 394 
2307 523 395 390 391 
2308 448 435 529 436 
2309 529 435 448 447 
2310 31 23 524 30 
2311 524 23 31 24 
2312 45 37 525 44 
2313 525 37 45 38 
2314 447 434 529 435 
2315 529 434 447 446 
2316 76 88 500 77 
2317 500 88 76 87 
2318 140 152 496 141 
2319 140 496 152 151 
2320 72 83 516 82 
2321 72 516 83 81 
2322 502 516 83 82 
2323 502 83 516 81 
2324 406 412 542 411 
2325 406 542 412 407 
2326 260 182 506 258 
2327 260 506 182 184 
2328 66 76 521 67 
2329 521 76 66 75 
2330 437 450 531 449 
2331 531 450 437 438 
2332 93 108 502 94 
2333 502 108 93 107 
2334 124 138 501 125 
2335 501 138 124 137 
2336 406 400 492 401 
2337 492 400 406 405 
2338 107 92 502 106 
2339 107 502 92 93 
2340 210 101 526 100 
2341 526 101 210 211 
2342 526 500 210 100 
2343 479 471 536 472 
2344 536 471 479 478 
2345 37 30 524 36 
2346 524 30 37 31 
2347 69 79 495 70 
2348 495 79 69 78 
2349 446 433 489 434 
2350 489 433 446 445 
2351 461 448 503 449 
2352 503 448 461 460 
2353 109 129 498 110 
2354 498 129 109 128 
2355 300 228 290 227 
2356 290 228 300 301 
2357 310 243 513 242 
2358 310 513 243 311 
2359 509 513 243 242 
2360 509 243 513 311 
2361 347 282 512 348 
2362 347 512 282 281 
2363 36 29 506 35 
2364 506 29 36 30 
2365 60 69 495 61 
2366 495 69 60 68 
2367 91 79 516 90 
2368 516 79 91 80 
2369 460 536 529 459 
2370 529 536 460 448 
2371 529 447 460 459 
2372 460 447 529 448 
2373 529 428 515 340 
2374 529 515 428 427 
2375 338 515 428 340 
2376 338 428 515 427 
2377 125 139 530 126 
2378 125 530 139 138 
2379 60 52 499 59 
2380 60 499 52 53 
2381 89 104 526 90 
2382 526 104 89 103 
2383 108 128 498 109 
2384 498 128 108 127 
2385 77 89 500 78 
2386 500 89 77 88 
2387 44 52 499 45 
2388 499 52 44 51 
2389 77 67 521 76 
2390 77 521 67 68 
2391 50 58 504 51 
2392 504 58 50 57 
2393 400 394 508 395 
2394 400 508 394 399 
2395 67 58 521 66 
2396 67 521 58 59 
2397 424 417 493 418 
2398 493 417 424 423 
2399 373 310 533 309 
2400 533 310 373 374 
2401 91 106 505 92 
2402 505 106 91 105 
2403 107 127 486 108 
2404 486 127 107 126 
2405 173 2 528 174 
2406 411 417 517 416 
2407 411 517 417 412 
2408 424 534 510 425 
2409 510 534 424 431 
2410 510 432 424 425 
2411 424 432 510 431 
2412 404 398 508 399 
2413 508 398 404 403 
2414 411 405 542 406 
2415 542 405 411 410 
2416 42 50 514 43 
2417 514 50 42 49 
2418 445 432 510 433 
2419 510 432 445 444 
2420 459 446 507 447 
2421 459 507 446 458 
2422 30 22 506 29 
2423 506 22 30 23 
2424 431 423 534 424 
2425 534 423 431 430 
2426 416 423 493 422 
2427 416 493 423 417 
2428 125 105 501 124 
2429 125 501 105 106 
2430 78 90 526 79 
2431 526 90 78 89 
2432 78 68 500 77 
2433 78 500 68 69 
2434 68 59 521 67 
2435 68 521 59 60 
2436 90 105 505 91 
2437 505 105 90 104 
2438 457 444 510 445 
2439 510 444 457 456 
2440 59 51 504 58 
2441 504 51 59 52 
2442 106 126 501 107 
2443 501 126 106 125 
2444 458 445 507 446 
2445 507 445 458 457 
2446 36 44 514 37 
2447 36 514 44 43 
2448 43 51 514 44 
2449 514 51 43 50 
2450 405 399 508 400 
2451 508 399 405 404 
2452 508 492 405 400 
2453 405 492 508 404 
2454 126 140 530 127 
2455 530 140 126 139 
2456 127 141 496 128 
2457 127 496 141 140 
2458 29 21 506 28 
2459 506 21 29 22 
2460 28 35 506 29 
2461 28 506 35 34 
2462 16 23 535 17 
2463 16 535 23 22 
2464 506 23 535 22 
2465 410 404 537 405 
2466 537 404 410 409 
2467 471 459 536 460 
2468 536 459 471 470 
2469 104 124 505 105 
2470 505 124 104 123 
2471 480 472 533 473 
2472 533 472 480 479 
2473 444 431 510 432 
2474 444 510 431 443 
2475 410 416 517 415 
2476 517 416 410 411 
2477 20 28 506 21 
2478 506 28 20 27 
2479 141 153 532 142 
2480 532 153 141 152 
2481 283 208 497 284 
2482 283 497 208 207 
2483 35 43 514 36 
2484 35 514 43 42 
2485 10 17 535 11 
2486 10 535 17 16 
2487 382 386 523 385 
2488 523 386 382 383 
2489 469 457 507 458 
2490 507 457 469 468 
2491 470 458 507 459 
2492 470 507 458 469 
2493 359 290 301 291 
2494 301 290 359 358 
2495 372 478 536 479 
2496 372 536 478 371 
2497 201 276 493 277 
2498 201 493 276 200 
2499 438 344 531 345 
2500 531 344 438 437 
2501 467 355 497 363 
2502 467 497 355 455 
2503 178 256 535 180 
2504 535 256 178 254 
2505 132 112 527 131 
2506 527 112 132 114 
2507 156 163 509 164 
2508 509 163 156 155 
2509 399 393 508 394 
2510 399 508 393 398 
2511 394 389 523 390 
2512 394 523 389 393 
2513 8 15 535 9 
2514 8 535 15 14 
2515 439 345 531 346 
2516 531 345 439 438 
2517 19 12 540 18 
2518 19 540 12 13 
2519 250 319 494 252 
2520 494 319 250 316 
2521 494 528 250 252 
2522 250 528 494 316 
2523 260 329 523 262 
2524 523 329 260 327 
2525 333 264 508 331 
2526 333 508 264 266 
2527 319 379 494 321 
2528 319 494 379 377 
2529 313 248 528 245 
2530 528 248 313 314 
2531 229 219 222 228 
2532 229 222 219 221 
2533 455 349 497 351 
2534 497 349 455 454 
2535 349 284 497 350 
2536 349 497 284 283 
2537 304 490 513 312 
2538 513 490 304 369 
2539 513 376 304 312 
2540 304 376 513 369 
2541 273 337 517 339 
2542 273 517 337 272 
2543 362 364 232 298 
2544 232 364 362 354 
2545 523 391 386 520 
2546 523 386 391 390 
2547 3 173 528 176 
2548 528 173 3 2 
2549 532 308 533 309 
2550 532 533 308 496 
2551 201 493 285 277 
2552 201 285 493 500 
2553 494 382 383 491 
2554 383 382 494 379 
2555 383 380 494 491 
2556 494 380 383 379 
2557 128 532 498 129 
2558 128 498 532 496 
2559 251 528 320 494 
2560 251 320 528 318 
2561 378 320 528 494 
2562 378 528 320 318 
2563 506 523 535 491 
2564 506 535 523 258 
2565 256 523 535 258 
2566 323 535 523 491 
2567 323 523 535 256 
2568 316 317 377 319 
2569 377 317 316 528 
2570 377 494 316 319 
2571 316 494 377 528 
2572 524 33 39 525 
2573 39 33 524 32 
2574 39 38 524 525 
2575 524 38 39 32 
2576 210 526 534 500 
2577 534 526 210 211 
2578 23 535 491 506 
2579 23 491 535 17 
$EndElements
