ply
format ascii 1.0
comment VCGLIB generated
element vertex 543
property float x
property float y
property float z
element face 962
property list uchar int vertex_indices
property float quality
end_header
-4.67733 -8.8466 -1.22397 
-2.08477 -8.62737 -6.59224 
0.822918 -8.62737 -7.79222 
0.822918 -10.2363 -1.22397 
-4.67733 -8.25048 4.1443 
0.822918 -9.82586 4.1443 
0.822918 -8.19709 9.51257 
6.32317 -8.62737 -9.26434 
6.32317 -10.6986 -6.59224 
6.32317 -11.3245 -1.22397 
6.32317 -11.085 4.1443 
6.32317 -10.2162 9.51257 
6.32317 -8.62737 12.2982 
11.8234 -8.62737 -9.94576 
11.8234 -11.6303 -6.59224 
11.8234 -12.2435 -1.22397 
11.8234 -12.2101 4.1443 
11.8234 -11.5188 9.51257 
11.8234 -8.98553 15.2109 
17.3237 -8.62737 -9.94821 
17.3237 -12.1152 -6.59224 
17.3237 -12.9625 -1.22397 
17.3237 -13.0573 4.1443 
17.3237 -12.4941 9.51257 
17.3237 -11.2945 14.8808 
17.3237 -8.62737 17.7121 
22.8239 -8.62737 -9.08263 
22.8239 -11.8443 -6.59224 
22.8239 -13.2977 -1.22397 
22.8239 -13.5348 4.1443 
22.8239 -13.2326 9.51257 
22.8239 -12.3172 14.8808 
22.8239 -8.62737 20.1021 
28.3242 -10.6695 -6.59224 
28.3242 -13.5178 -1.22397 
28.3242 -13.8757 4.1443 
28.3242 -13.7265 9.51257 
28.3242 -13.0644 14.8808 
28.3242 -11.2553 20.2491 
28.3242 -8.62737 22.6671 
33.8244 -8.62737 -5.9612 
33.8244 -13.341 -1.22397 
33.8244 -13.9845 4.1443 
33.8244 -14.0224 9.51257 
33.8244 -13.5871 14.8808 
33.8244 -12.7172 20.2491 
33.8244 -9.30738 25.6174 
39.3246 -8.62737 -3.74944 
39.3246 -12.2536 -1.22397 
39.3246 -13.9229 4.1443 
39.3246 -14.147 9.51257 
39.3246 -14.0611 14.8808 
39.3246 -13.4462 20.2491 
39.3246 -12.4273 25.6174 
39.3246 -8.62737 30.8165 
44.8249 -8.62737 -0.881956 
44.8249 -13.4479 4.1443 
44.8249 -14.0299 9.51257 
44.8249 -14.1511 14.8808 
44.8249 -14.0108 20.2491 
44.8249 -13.4148 25.6174 
44.8249 -12.4823 30.9856 
44.8249 -8.62737 36.4472 
50.3251 -8.62737 2.46629 
50.3251 -11.3242 4.1443 
50.3251 -13.757 9.51257 
50.3251 -14.0544 14.8808 
50.3251 -14.1606 20.2491 
50.3251 -13.9534 25.6174 
50.3251 -13.4149 30.9856 
50.3251 -12.5389 36.3539 
50.3251 -9.87969 41.7222 
52.5878 -8.62737 4.1443 
55.8254 -8.62737 6.61343 
55.8254 -12.2423 9.51257 
55.8254 -13.7482 14.8808 
55.8254 -14.0488 20.2491 
55.8254 -14.1679 25.6174 
55.8254 -13.8992 30.9856 
55.8254 -13.415 36.3539 
55.8254 -12.799 41.7222 
52.7679 -8.62737 47.0905 
55.8254 -11.6929 47.0905 
55.8115 -8.64978 52.4587 
59.0781 -8.62737 9.51257 
61.3256 -8.62737 11.804 
61.3256 -12.1504 14.8808 
61.3256 -13.6679 20.2491 
61.3256 -14.0104 25.6174 
61.3256 -14.1267 30.9856 
61.3256 -14.0111 36.3539 
61.3256 -13.6315 41.7222 
61.3256 -13.3023 47.0905 
61.3256 -12.7131 52.4587 
57.5763 -8.62737 57.827 
61.3256 -12.1847 57.827 
61.3256 -11.3809 63.1953 
58.7889 -8.62737 63.1953 
59.6702 -8.62737 68.5635 
64.3079 -8.62737 14.8808 
66.8259 -8.62737 17.5323 
66.8259 -11.7681 20.2491 
66.8259 -13.6109 25.6174 
66.8259 -13.9265 30.9856 
66.8259 -14.0801 36.3539 
66.8259 -14.0687 41.7222 
66.8259 -13.9126 47.0905 
66.8259 -13.6956 52.4587 
66.8259 -13.4591 57.827 
66.8259 -13.1567 63.1953 
66.8259 -13.0877 68.5635 
66.8259 -12.9728 73.9318 
60.6217 -8.62737 73.9318 
66.8259 -12.707 79.3001 
61.0882 -8.62737 79.3001 
61.3256 -8.62287 84.6684 
66.8259 -12.4112 84.6684 
66.8259 -10.9778 90.0366 
62.4925 -8.62737 90.0366 
66.8259 -7.77874 95.4049 
69.2077 -8.62737 20.2491 
72.3261 -8.62737 24.2006 
72.3261 -13.2239 30.9856 
72.3261 -13.7933 36.3539 
72.3261 -13.9873 41.7222 
72.3261 -14.1134 47.0905 
72.3261 -14.0859 52.4587 
72.3261 -14.0506 57.827 
72.3261 -13.9997 63.1953 
72.3261 -13.904 68.5635 
72.3261 -13.8544 73.9318 
72.3261 -13.7596 79.3001 
72.3261 -13.2426 84.6684 
72.3261 -11.3885 90.0366 
72.3261 -8.62737 93.7804 
76.9579 -8.62737 30.9856 
77.8264 -12.2029 36.3539 
77.8264 -13.498 41.7222 
77.8264 -13.748 47.0905 
77.8264 -13.8754 52.4587 
77.8264 -14.0027 57.827 
77.8264 -13.9192 63.1953 
77.8264 -13.7967 68.5635 
77.8264 -13.6759 73.9318 
77.8264 -13.257 79.3001 
77.8264 -12.4182 84.6684 
77.8264 -9.9209 90.0366 
80.3919 -8.62737 36.3539 
83.0946 -8.62737 41.7222 
83.3266 -11.5062 47.0905 
83.3266 -12.7582 52.4587 
83.3266 -13.1414 57.827 
83.3266 -13.1983 63.1953 
83.3266 -13.0436 68.5635 
83.3266 -12.6538 73.9318 
83.3266 -11.9128 79.3001 
83.3266 -9.87275 84.6684 
85.095 -8.62737 47.0905 
86.4234 -8.62737 52.4587 
87.186 -8.62737 57.827 
87.414 -8.62737 63.1953 
87.3198 -8.62737 68.5635 
86.9624 -8.62737 73.9318 
86.093 -8.62737 79.3001 
-15.6778 -2.83179 -4.01072 
-15.6778 -5.14664 -1.22397 
-18.7658 -2.83179 -1.22397 
-15.6778 -2.83179 4.68002 
-10.1776 -3.15504 -6.76847 
-10.1776 -7.25603 -1.22397 
-10.1776 -6.06726 4.1443 
-10.1776 -2.83179 7.58817 
-4.67733 -2.83179 -8.54309 
-4.67733 -6.98536 -6.59224 
-4.67733 -3.52972 9.88946 
0.822918 -2.83179 -9.61478 
0.822918 -2.83179 12.3445 
6.32317 -2.83179 -10.1917 
7.8166 -2.83179 14.8808 
11.8234 -2.83179 -10.3236 
11.8234 -2.83179 16.3346 
17.3237 -2.83179 -10.047 
17.3237 -2.83179 18.4035 
22.8239 -2.83179 -9.2317 
22.8239 -2.83179 20.5193 
28.3242 -2.83179 -8.03006 
28.3242 -2.83179 23.2991 
33.353 -2.83179 -6.43853 
33.8244 -2.83179 26.4696 
39.3246 -2.83179 -3.9799 
39.3246 -2.83179 31.0207 
44.7586 -2.83179 -1.18851 
44.4396 -2.83179 36.3539 
50.3251 -2.83179 2.29632 
49.6289 -2.83179 42.6822 
52.8742 -2.83179 4.1443 
55.8254 -2.83179 6.464 
52.5774 -2.83179 47.0905 
55.6266 -2.83179 53.0724 
59.2935 -2.83179 9.51257 
61.3256 -2.83179 11.4241 
57.072 -2.83179 57.827 
58.3093 -2.83179 63.1953 
58.7724 -2.83179 68.5635 
59.021 -2.83179 73.9318 
59.1387 -2.83179 79.3001 
59.4008 -2.83179 84.6684 
60.1566 -2.83179 90.0366 
61.3256 -2.83179 92.5269 
64.6824 -2.83179 14.8808 
66.8259 -2.83179 17.2703 
62.6949 -2.83179 95.4049 
66.8259 -6.7896 100.773 
62.6638 -2.83179 100.773 
66.8259 -6.60954 106.141 
62.4911 -2.83179 106.141 
66.8259 -6.73952 111.51 
62.0686 -2.83179 111.51 
66.8259 -7.10947 116.878 
61.7051 -2.83179 116.878 
66.8259 -5.40011 122.246 
65.336 -2.83179 122.246 
69.3311 -2.83179 20.2491 
72.9596 -2.83179 24.801 
72.3261 -6.21486 100.773 
72.3261 -5.2161 106.141 
72.3261 -4.47632 111.51 
72.3261 -4.40127 116.878 
72.5479 -2.83179 122.738 
77.6052 -2.83179 31.3337 
76.204 -2.83179 95.4049 
74.6515 -2.83179 100.773 
74.0426 -2.83179 106.141 
80.6393 -2.83179 36.3539 
83.2843 -2.83179 41.8319 
83.8687 -2.83179 85.7388 
81.3417 -2.83179 90.0366 
85.2458 -2.83179 47.0905 
86.5832 -2.83179 52.4587 
87.3545 -2.83179 57.827 
87.6806 -2.83179 63.1953 
87.5911 -2.83179 68.5635 
87.1868 -2.83179 73.9318 
86.2305 -2.83179 79.3001 
-15.6778 2.96379 -4.03456 
-18.4139 2.96379 -1.22397 
-15.415 2.96379 3.82467 
-10.1776 3.49692 -6.59224 
-10.1776 2.96379 7.39484 
-4.67733 2.96379 -8.28887 
-4.67733 4.20467 9.51257 
0.822918 2.96379 -9.16436 
0.822918 2.96379 12.251 
6.32317 2.96379 -9.69172 
6.32317 2.96379 14.2155 
11.8234 2.96379 -9.91202 
11.8234 2.96379 16.2516 
17.3237 2.96379 -9.67298 
17.3237 2.96379 18.2988 
22.8239 2.96379 -9.019 
22.5047 2.96379 20.3814 
28.3242 2.96379 -7.83419 
28.3242 2.96379 23.184 
33.8244 2.96379 -6.09848 
33.0783 2.96379 26.1011 
39.3246 2.96379 -3.82092 
39.3246 3.43879 30.9856 
44.8249 2.96379 -1.0324 
44.6728 4.16389 36.3539 
50.3251 2.96379 2.47823 
48.9599 2.96379 41.7222 
52.6858 2.96379 4.1443 
55.8254 2.96379 6.49441 
52.833 2.96379 47.0905 
55.4635 2.96379 52.4587 
59.2508 2.96379 9.51257 
61.3256 2.96379 11.5375 
57.2263 2.96379 57.827 
58.174 2.96379 63.1953 
58.6563 2.96379 68.5635 
58.7116 2.96379 73.9318 
58.7633 2.96379 79.3001 
59.0587 2.96379 84.6684 
60.1738 2.96379 90.0366 
64.5816 2.96379 14.8808 
66.8259 2.96379 17.3499 
63.1253 2.96379 95.4049 
63.5124 2.96379 100.773 
63.1719 2.96379 106.141 
62.5274 2.96379 111.51 
62.0591 2.96379 116.878 
66.1568 3.92885 122.246 
69.2946 2.96379 20.2491 
73.5462 2.96379 25.6174 
72.3261 2.96379 122.304 
77.8264 2.96379 31.8206 
76.8977 2.96379 94.4371 
74.5025 2.96379 100.773 
73.9579 2.96379 106.141 
73.4158 2.96379 111.51 
72.9881 2.96379 116.878 
80.5162 2.96379 36.3539 
83.3266 2.96379 42.1552 
83.3266 2.96379 86.4303 
80.9939 2.96379 90.0366 
85.1355 2.96379 47.0905 
86.5087 2.96379 52.4587 
87.2129 2.96379 57.827 
87.4783 2.96379 63.1953 
87.4912 2.96379 68.5635 
86.9543 2.96379 73.9318 
85.9463 2.96379 79.3001 
-15.6778 5.08193 -1.22397 
-10.1776 7.31917 -1.22397 
-10.1776 5.88703 4.1443 
-4.67733 6.2326 -6.59224 
-4.67733 8.97446 -1.22397 
-4.67733 8.16662 4.1443 
0.822918 8.80374 -6.59224 
0.822918 8.07219 9.51257 
6.32317 9.69996 -6.59224 
6.32317 8.75937 12.0269 
11.8234 10.3385 -6.59224 
11.8234 9.2916 14.8808 
17.3237 9.64829 -7.31802 
17.3237 8.75937 17.4694 
22.8239 8.75937 -7.84311 
22.8239 8.75937 19.613 
28.3242 9.02922 -6.75608 
28.3242 8.75937 22.6576 
33.8244 8.75937 -5.34236 
33.8244 8.85224 25.6174 
39.3246 8.75937 -3.26212 
39.3246 8.75937 30.4224 
44.0862 8.75937 -0.830132 
45.2778 8.75937 36.3539 
51.1108 8.75937 3.56351 
50.3251 9.89685 41.7222 
55.8254 8.75937 7.25587 
53.2275 8.75937 47.0905 
55.917 8.75937 52.4587 
58.4664 8.75937 9.51257 
61.3256 8.75937 12.1643 
58.1443 8.75937 57.827 
58.7404 8.75937 63.1953 
59.0578 8.75937 68.5635 
59.1172 8.75937 73.9318 
59.2654 8.75937 79.3001 
60.6147 9.59594 84.6684 
61.3256 6.21966 90.0366 
63.0229 8.75937 90.0366 
63.9311 8.75937 14.8808 
66.8259 8.75937 18.0838 
66.8259 6.41931 95.4049 
66.8259 8.75937 92.6428 
66.8259 5.77529 100.773 
66.8259 5.87568 106.141 
66.8259 6.25434 111.51 
66.8259 6.95427 116.878 
68.6932 8.75937 20.2491 
72.8886 8.75937 25.6174 
72.3261 6.2944 95.4049 
72.3261 8.75937 92.836 
72.3261 5.22375 100.773 
77.8264 8.75937 32.8226 
77.8264 9.44085 90.0366 
79.9805 8.75937 36.3539 
82.9767 8.75937 42.6524 
82.9587 8.75937 84.6684 
83.9348 9.85671 47.0905 
85.9256 8.75937 52.4587 
86.7764 8.75937 57.827 
86.9975 8.75937 63.1953 
86.8391 8.75937 68.5635 
86.2324 8.75937 73.9318 
85.0375 8.75937 79.3001 
0.822918 10.343 -1.22397 
0.822918 9.77572 4.1443 
6.32317 11.4776 -1.22397 
6.32317 11.1056 4.1443 
6.32317 10.1025 9.51257 
11.8234 12.3844 -1.22397 
11.8234 12.3167 4.1443 
11.8234 11.4094 9.51257 
17.3237 12.9739 -1.22397 
17.3237 13.1561 4.1443 
17.3237 12.3988 9.51257 
17.3237 11.1363 14.8808 
22.8239 13.4997 -1.22397 
22.8239 13.6762 4.1443 
22.8239 13.0793 9.51257 
22.8239 12.1463 14.8808 
28.3242 13.6427 -1.22397 
28.3242 14.009 4.1443 
28.3242 13.6147 9.51257 
28.3242 12.8524 14.8808 
28.3242 11.2531 20.2491 
33.8244 13.3946 -1.22397 
33.8244 14.1192 4.1443 
33.8244 13.9836 9.51257 
33.8244 13.518 14.8808 
33.8244 12.5317 20.2491 
39.3246 11.8697 -1.22397 
39.3246 14.04 4.1443 
39.3246 14.1981 9.51257 
39.3246 13.8856 14.8808 
39.3246 13.306 20.2491 
39.3246 12.3185 25.6174 
44.8249 13.5696 4.1443 
44.8249 14.2099 9.51257 
44.8249 14.2042 14.8808 
44.8249 13.8394 20.2491 
44.8249 13.1242 25.6174 
44.8249 12.1693 30.9856 
50.3251 13.9806 9.51257 
50.3251 14.2465 14.8808 
50.3251 14.2341 20.2491 
50.3251 13.7882 25.6174 
50.3251 13.1601 30.9856 
50.3251 12.4486 36.3539 
55.8254 11.8133 9.51257 
55.8254 14.0305 14.8808 
55.8254 14.2626 20.2491 
55.8254 14.2623 25.6174 
55.8254 13.8763 30.9856 
55.8254 13.3524 36.3539 
55.8254 12.6513 41.7222 
55.8254 11.4223 47.0905 
61.3256 12.0457 14.8808 
61.3256 14.0398 20.2491 
61.3256 14.2705 25.6174 
61.3256 14.2963 30.9856 
61.3256 13.9694 36.3539 
61.3256 13.6281 41.7222 
61.3256 13.168 47.0905 
61.3256 12.6639 52.4587 
61.3256 12.0761 57.827 
61.3256 11.7567 63.1953 
61.3256 11.514 68.5635 
61.3256 11.4018 73.9318 
61.3256 11.1807 79.3001 
66.8259 11.422 20.2491 
66.8259 13.912 25.6174 
66.8259 14.2573 30.9856 
66.8259 14.2937 36.3539 
66.8259 14.1586 41.7222 
66.8259 13.9237 47.0905 
66.8259 13.7364 52.4587 
66.8259 13.4274 57.827 
66.8259 13.365 63.1953 
66.8259 13.3134 68.5635 
66.8259 13.2618 73.9318 
66.8259 13.1492 79.3001 
66.8259 12.8677 84.6684 
66.8259 11.0621 90.0366 
72.3261 13.5009 30.9856 
72.3261 14.2274 36.3539 
72.3261 14.2703 41.7222 
72.3261 14.3124 47.0905 
72.3261 14.2619 52.4587 
72.3261 14.2004 57.827 
72.3261 14.139 63.1953 
72.3261 14.081 68.5635 
72.3261 13.9229 73.9318 
72.3261 13.8596 79.3001 
72.3261 13.4023 84.6684 
72.3261 11.4126 90.0366 
77.8264 11.9974 36.3539 
77.8264 13.7043 41.7222 
77.8264 14.0905 47.0905 
77.8264 14.2813 52.4587 
77.8264 14.2512 57.827 
77.8264 14.2196 63.1953 
77.8264 14.1881 68.5635 
77.8264 14.0727 73.9318 
77.8264 13.8184 79.3001 
77.8264 12.842 84.6684 
83.3266 12.6225 52.4587 
83.3266 13.2326 57.827 
83.3266 13.423 63.1953 
83.3266 13.2556 68.5635 
83.3266 12.7806 73.9318 
83.3266 11.3169 79.3001 
57.593 -0.0802415 27.9592 
45.8838 -0.158177 16.0747 
70.904 0.0994854 49.6411 
73.6466 0.0696783 65.6296 
26.8786 -0.0559359 6.44646 
64.9114 1.73715 38.3788 
71.5915 0.88478 78.463 
13.1451 1.32287 4.95041 
36.9985 3.21723 10.0775 
54.5941 4.71387 18.5087 
3.17292 1.03186 0.480484 
48.5326 -3.90596 25.2003 
77.1764 -3.79934 56.7874 
69.4435 0.524116 88.0382 
67.1976 -3.36525 58.3934 
37.091 -4.45148 16.155 
57.0746 -4.80211 19.9215 
72.166 -4.25219 40.9924 
62.5432 -3.63695 46.202 
73.3428 4.81213 57.4611 
42.568 -4.66756 8.11391 
63.7585 -5.31305 32.4798 
21.2329 -4.05994 0.00634468 
72.8686 4.9799 41.961 
32.6468 5.49506 2.75937 
78.4039 -5.4482 73.6885 
66.209 5.70407 30.063 
49.9595 4.84297 27.2917 
67.468 4.4073 70.9718 
77.988 5.02226 72.1029 
34.4116 -4.72709 3.67113 
56.8687 4.50049 35.6074 
55.2977 -4.41336 35.5672 
49.9263 6.23952 12.5794 
29.0418 3.89307 14.2508 
65.189 4.96976 54.1987 
19.25 4.63445 10.1496 
51.7945 -5.55342 13.3707 
43.1233 5.56352 21.8783 
21.578 4.87941 1.08539 
20.8167 -4.64796 10.5774 
29.8737 -4.95845 13.8319 
63.3693 -5.60404 24.6069 
67.3619 -4.37682 69.9763 
-6.15732 0.240623 -0.301996 
65.146 5.75529 45.7963 
77.4746 -5.52944 48.6087 
66.5712 4.02717 62.5231 
79.5612 -5.81336 64.5928 
79.124 5.96695 63.383 
60.9351 5.10189 22.7065 
10.5813 -3.99539 -2.10999 
76.9817 6.03061 50.5349 
44.0657 5.85754 6.84673 
36.1698 3.39717 18.1949 
73.9173 -5.09799 83.7947 
7.67827 -2.86685 6.99676 
48.4373 -0.0751701 9.23955 
42.488 6.91257 14.3491 
41.451 -2.11519 22.2744 
3 0 1 2 0 
3 1 0 173 0 
3 0 2 3 0 
3 5 0 3 0 
3 4 0 5 0 
3 0 4 169 0 
3 0 169 173 0 
3 1 172 2 0 
3 1 173 172 0 
3 2 9 3 0 
3 2 7 8 0 
3 7 2 177 0 
3 8 9 2 0 
3 2 172 175 0 
3 177 2 175 0 
3 3 10 5 0 
3 9 10 3 0 
3 5 6 4 0 
3 6 174 4 0 
3 4 170 169 0 
3 174 170 4 0 
3 6 5 11 0 
3 11 5 10 0 
3 11 12 6 0 
3 6 12 176 0 
3 174 6 176 0 
3 8 7 14 0 
3 7 13 14 0 
3 13 7 179 0 
3 179 7 177 0 
3 8 15 9 0 
3 14 15 8 0 
3 9 16 10 0 
3 15 16 9 0 
3 10 17 11 0 
3 16 17 10 0 
3 18 12 11 0 
3 18 11 17 0 
3 178 12 18 0 
3 176 12 178 0 
3 14 13 20 0 
3 13 19 20 0 
3 19 13 181 0 
3 181 13 179 0 
3 14 21 15 0 
3 20 21 14 0 
3 15 22 16 0 
3 21 22 15 0 
3 16 23 17 0 
3 22 23 16 0 
3 17 24 18 0 
3 23 24 17 0 
3 18 24 25 0 
3 25 182 18 0 
3 18 180 178 0 
3 182 180 18 0 
3 20 19 27 0 
3 19 26 27 0 
3 26 19 183 0 
3 183 19 181 0 
3 20 28 21 0 
3 27 28 20 0 
3 21 29 22 0 
3 28 29 21 0 
3 22 30 23 0 
3 29 30 22 0 
3 23 31 24 0 
3 30 31 23 0 
3 25 24 32 0 
3 24 31 32 0 
3 182 25 32 0 
3 27 26 33 0 
3 33 26 185 0 
3 185 26 183 0 
3 27 34 28 0 
3 33 34 27 0 
3 28 35 29 0 
3 34 35 28 0 
3 29 36 30 0 
3 35 36 29 0 
3 30 37 31 0 
3 36 37 30 0 
3 32 31 38 0 
3 38 31 37 0 
3 38 39 32 0 
3 32 39 184 0 
3 184 182 32 0 
3 33 41 34 0 
3 40 41 33 0 
3 187 40 33 0 
3 185 187 33 0 
3 34 42 35 0 
3 41 42 34 0 
3 35 43 36 0 
3 42 43 35 0 
3 36 44 37 0 
3 43 44 36 0 
3 37 45 38 0 
3 44 45 37 0 
3 46 39 38 0 
3 46 38 45 0 
3 188 39 46 0 
3 184 39 186 0 
3 186 39 188 0 
3 41 40 48 0 
3 40 47 48 0 
3 47 40 189 0 
3 189 40 187 0 
3 41 49 42 0 
3 48 49 41 0 
3 42 50 43 0 
3 49 50 42 0 
3 43 51 44 0 
3 50 51 43 0 
3 44 52 45 0 
3 51 52 44 0 
3 45 53 46 0 
3 52 53 45 0 
3 46 53 54 0 
3 188 46 54 0 
3 48 47 55 0 
3 191 55 47 0 
3 189 191 47 0 
3 48 56 49 0 
3 55 56 48 0 
3 49 57 50 0 
3 56 57 49 0 
3 50 58 51 0 
3 57 58 50 0 
3 51 59 52 0 
3 58 59 51 0 
3 52 60 53 0 
3 59 60 52 0 
3 54 53 61 0 
3 61 53 60 0 
3 54 61 62 0 
3 54 62 192 0 
3 190 188 54 0 
3 190 54 192 0 
3 56 55 64 0 
3 55 63 64 0 
3 63 55 193 0 
3 193 55 191 0 
3 56 65 57 0 
3 64 65 56 0 
3 57 66 58 0 
3 65 66 57 0 
3 58 67 59 0 
3 66 67 58 0 
3 59 68 60 0 
3 67 68 59 0 
3 60 69 61 0 
3 68 69 60 0 
3 61 70 62 0 
3 69 70 61 0 
3 71 62 70 0 
3 194 62 71 0 
3 192 62 194 0 
3 64 63 72 0 
3 195 72 63 0 
3 193 195 63 0 
3 64 74 65 0 
3 72 74 64 0 
3 65 75 66 0 
3 74 75 65 0 
3 66 76 67 0 
3 75 76 66 0 
3 67 77 68 0 
3 76 77 67 0 
3 68 78 69 0 
3 77 78 68 0 
3 69 79 70 0 
3 78 79 69 0 
3 70 80 71 0 
3 79 80 70 0 
3 82 71 80 0 
3 81 71 82 0 
3 197 71 81 0 
3 194 71 197 0 
3 72 73 74 0 
3 72 195 73 0 
3 74 73 84 0 
3 199 84 73 0 
3 73 195 196 0 
3 196 199 73 0 
3 74 86 75 0 
3 84 86 74 0 
3 75 87 76 0 
3 86 87 75 0 
3 76 88 77 0 
3 87 88 76 0 
3 77 89 78 0 
3 88 89 77 0 
3 78 90 79 0 
3 89 90 78 0 
3 79 91 80 0 
3 90 91 79 0 
3 80 92 82 0 
3 91 92 80 0 
3 81 82 83 0 
3 81 83 197 0 
3 82 93 83 0 
3 92 93 82 0 
3 95 83 93 0 
3 94 83 95 0 
3 201 83 94 0 
3 83 198 197 0 
3 198 83 201 0 
3 84 85 86 0 
3 84 199 85 0 
3 86 85 99 0 
3 209 99 85 0 
3 85 199 200 0 
3 200 209 85 0 
3 86 101 87 0 
3 99 101 86 0 
3 87 102 88 0 
3 101 102 87 0 
3 88 103 89 0 
3 102 103 88 0 
3 89 104 90 0 
3 103 104 89 0 
3 90 105 91 0 
3 104 105 90 0 
3 91 106 92 0 
3 105 106 91 0 
3 92 107 93 0 
3 106 107 92 0 
3 93 108 95 0 
3 107 108 93 0 
3 94 95 97 0 
3 94 97 201 0 
3 95 96 97 0 
3 95 109 96 0 
3 108 109 95 0 
3 97 96 98 0 
3 96 110 98 0 
3 109 110 96 0 
3 97 98 202 0 
3 97 202 201 0 
3 110 111 98 0 
3 98 111 112 0 
3 98 112 203 0 
3 98 203 202 0 
3 99 100 101 0 
3 99 209 100 0 
3 101 100 120 0 
3 222 120 100 0 
3 100 209 210 0 
3 210 222 100 0 
3 101 121 102 0 
3 120 121 101 0 
3 102 122 103 0 
3 121 122 102 0 
3 103 123 104 0 
3 122 123 103 0 
3 104 124 105 0 
3 123 124 104 0 
3 105 125 106 0 
3 124 125 105 0 
3 106 126 107 0 
3 125 126 106 0 
3 107 127 108 0 
3 126 127 107 0 
3 108 128 109 0 
3 127 128 108 0 
3 109 129 110 0 
3 128 129 109 0 
3 110 130 111 0 
3 129 130 110 0 
3 111 113 112 0 
3 111 131 113 0 
3 130 131 111 0 
3 112 113 114 0 
3 112 114 204 0 
3 112 204 203 0 
3 116 114 113 0 
3 113 132 116 0 
3 131 132 113 0 
3 115 114 116 0 
3 115 206 114 0 
3 114 205 204 0 
3 114 206 205 0 
3 115 116 118 0 
3 115 118 207 0 
3 206 115 207 0 
3 116 117 118 0 
3 116 133 117 0 
3 132 133 116 0 
3 117 119 118 0 
3 119 117 134 0 
3 117 133 134 0 
3 118 119 211 0 
3 118 208 207 0 
3 118 211 208 0 
3 134 224 119 295 
3 211 119 213 296 
3 119 212 213 297 
3 119 224 212 298 
3 120 222 121 0 
3 135 122 121 0 
3 121 223 135 0 
3 121 222 223 0 
3 122 136 123 0 
3 135 136 122 0 
3 123 137 124 0 
3 136 137 123 0 
3 124 138 125 0 
3 137 138 124 0 
3 125 139 126 0 
3 138 139 125 0 
3 126 140 127 0 
3 139 140 126 0 
3 127 141 128 0 
3 140 141 127 0 
3 128 142 129 0 
3 141 142 128 0 
3 129 143 130 0 
3 142 143 129 0 
3 130 144 131 0 
3 143 144 130 0 
3 131 145 132 0 
3 144 145 131 0 
3 132 146 133 0 
3 145 146 132 0 
3 134 133 146 0 
3 134 146 230 0 
3 224 134 230 327 
3 136 135 147 0 
3 233 147 135 0 
3 135 223 229 0 
3 229 233 135 0 
3 137 136 147 0 
3 137 149 138 0 
3 148 137 147 0 
3 148 149 137 0 
3 138 150 139 0 
3 149 150 138 0 
3 139 151 140 0 
3 150 151 139 0 
3 140 152 141 0 
3 151 152 140 0 
3 141 153 142 0 
3 152 153 141 0 
3 142 154 143 0 
3 153 154 142 0 
3 143 155 144 0 
3 154 155 143 0 
3 144 156 145 0 
3 155 156 144 0 
3 156 146 145 0 
3 235 146 156 0 
3 146 236 230 0 
3 236 146 235 0 
3 147 233 148 0 
3 149 148 157 0 
3 237 157 148 0 
3 148 233 234 0 
3 234 237 148 0 
3 150 149 157 0 
3 151 150 158 0 
3 158 150 157 0 
3 152 151 159 0 
3 159 151 158 0 
3 153 152 160 0 
3 160 152 159 0 
3 154 153 161 0 
3 161 153 160 0 
3 155 154 162 0 
3 162 154 161 0 
3 156 155 163 0 
3 163 155 162 0 
3 163 243 156 0 
3 156 243 235 0 
3 157 237 158 0 
3 158 238 159 0 
3 158 237 238 0 
3 159 239 160 0 
3 159 238 239 0 
3 160 240 161 0 
3 160 239 240 0 
3 161 241 162 0 
3 161 240 241 0 
3 162 242 163 0 
3 162 241 242 0 
3 163 242 243 0 
3 164 165 166 0 
3 164 168 165 0 
3 244 164 166 0 
3 164 244 168 0 
3 166 165 167 0 
3 165 170 167 0 
3 165 168 169 0 
3 169 170 165 0 
3 167 245 166 0 
3 245 244 166 0 
3 167 170 171 0 
3 248 167 171 0 
3 246 245 167 0 
3 248 246 167 0 
3 169 168 173 0 
3 168 172 173 0 
3 172 168 249 0 
3 168 244 247 0 
3 249 168 247 0 
3 174 171 170 0 
3 250 171 174 0 
3 248 171 250 0 
3 175 172 251 0 
3 251 172 249 0 
3 176 252 174 0 
3 252 250 174 0 
3 177 175 253 0 
3 253 175 251 0 
3 178 254 176 0 
3 254 252 176 0 
3 179 177 255 0 
3 255 177 253 0 
3 178 180 254 0 
3 181 179 257 0 
3 257 179 255 0 
3 182 258 180 0 
3 180 256 254 0 
3 258 256 180 0 
3 183 181 259 0 
3 259 181 257 0 
3 260 182 184 0 
3 258 182 260 0 
3 185 183 261 0 
3 261 183 259 0 
3 186 262 184 0 
3 262 260 184 0 
3 263 187 185 0 
3 261 263 185 0 
3 264 186 188 0 
3 262 186 264 0 
3 189 187 265 0 
3 265 187 263 0 
3 266 188 190 0 
3 264 188 266 0 
3 267 191 189 0 
3 265 267 189 0 
3 268 190 192 0 
3 266 190 268 0 
3 193 191 269 0 
3 269 191 267 0 
3 270 192 194 0 
3 268 192 270 0 
3 271 195 193 0 
3 269 271 193 0 
3 273 194 197 0 
3 270 194 273 0 
3 195 271 196 0 
3 275 199 196 0 
3 196 271 272 0 
3 272 275 196 0 
3 197 198 273 0 
3 277 198 201 0 
3 198 274 273 0 
3 274 198 277 0 
3 199 275 200 0 
3 284 209 200 0 
3 200 275 276 0 
3 276 284 200 0 
3 201 202 277 0 
3 202 203 278 0 
3 202 278 277 0 
3 203 204 279 0 
3 203 279 278 0 
3 204 205 280 0 
3 204 280 279 0 
3 205 206 281 0 
3 205 281 280 0 
3 206 207 282 0 
3 206 282 281 0 
3 207 208 283 0 
3 207 283 282 0 
3 286 208 211 0 
3 283 208 286 0 
3 209 284 210 0 
3 292 222 210 0 
3 210 284 285 0 
3 285 292 210 0 
3 211 213 286 483 
3 213 212 215 484 
3 212 214 215 485 
3 212 225 214 486 
3 224 225 212 487 
3 213 215 287 488 
3 213 287 286 489 
3 215 214 217 490 
3 214 216 217 491 
3 214 226 216 492 
3 225 226 214 493 
3 215 217 288 494 
3 215 288 287 495 
3 217 216 219 496 
3 216 218 219 497 
3 216 227 218 498 
3 226 227 216 499 
3 217 219 289 500 
3 217 289 288 501 
3 219 218 221 502 
3 218 220 221 503 
3 218 228 220 504 
3 227 228 218 505 
3 219 221 290 506 
3 219 290 289 507 
3 221 220 228 508 
3 228 294 221 509 
3 221 291 290 510 
3 294 291 221 511 
3 222 292 223 0 
3 223 293 229 0 
3 223 292 293 0 
3 225 224 231 515 
3 231 224 230 516 
3 226 225 232 517 
3 232 225 231 518 
3 226 299 227 519 
3 232 298 226 520 
3 226 298 299 521 
3 227 300 228 522 
3 227 299 300 523 
3 228 300 294 524 
3 301 233 229 0 
3 229 293 295 0 
3 295 301 229 0 
3 230 296 231 528 
3 230 236 296 0 
3 231 297 232 530 
3 231 296 297 531 
3 232 297 298 532 
3 233 301 234 0 
3 305 237 234 0 
3 234 301 302 0 
3 302 305 234 0 
3 303 236 235 0 
3 243 311 235 0 
3 235 311 303 0 
3 236 304 296 0 
3 304 236 303 0 
3 237 305 238 0 
3 238 306 239 0 
3 238 305 306 0 
3 239 307 240 0 
3 239 306 307 0 
3 240 308 241 0 
3 240 307 308 0 
3 241 309 242 0 
3 241 308 309 0 
3 242 310 243 0 
3 242 309 310 0 
3 243 310 311 0 
3 244 245 312 0 
3 247 244 312 0 
3 245 246 312 0 
3 246 248 314 0 
3 246 314 312 0 
3 315 249 247 0 
3 247 312 313 0 
3 315 247 313 0 
3 248 250 314 0 
3 249 318 251 0 
3 315 318 249 0 
3 252 319 250 0 
3 314 250 317 0 
3 317 250 319 0 
3 253 251 320 0 
3 320 251 318 0 
3 321 252 254 0 
3 319 252 321 0 
3 255 253 322 0 
3 322 253 320 0 
3 254 256 323 0 
3 321 254 323 0 
3 257 255 324 0 
3 324 255 322 0 
3 258 325 256 0 
3 325 323 256 0 
3 259 257 326 0 
3 326 257 324 0 
3 260 327 258 0 
3 327 325 258 0 
3 261 259 328 0 
3 328 259 326 0 
3 329 260 262 0 
3 327 260 329 0 
3 328 263 261 0 
3 331 262 264 0 
3 329 262 331 0 
3 265 263 332 0 
3 263 328 330 0 
3 332 263 330 0 
3 266 333 264 0 
3 333 331 264 0 
3 334 267 265 0 
3 332 334 265 0 
3 266 268 333 0 
3 269 267 336 0 
3 336 267 334 0 
3 268 270 335 0 
3 333 268 335 0 
3 336 271 269 0 
3 339 270 273 0 
3 270 337 335 0 
3 337 270 339 0 
3 271 336 272 0 
3 341 275 272 0 
3 272 336 338 0 
3 338 341 272 0 
3 274 339 273 0 
3 274 277 340 0 
3 340 339 274 0 
3 275 341 276 0 
3 351 284 276 0 
3 276 341 342 0 
3 342 351 276 0 
3 277 278 343 0 
3 277 343 340 0 
3 278 279 344 0 
3 278 344 343 0 
3 279 280 345 0 
3 279 345 344 0 
3 280 281 346 0 
3 280 346 345 0 
3 281 282 347 0 
3 281 347 346 0 
3 283 348 282 0 
3 282 348 347 0 
3 349 283 286 0 
3 349 348 283 0 
3 284 351 285 0 
3 359 292 285 0 
3 285 351 352 0 
3 352 359 285 0 
3 286 287 355 636 
3 349 286 353 0 
3 353 286 355 638 
3 287 288 356 639 
3 355 287 356 640 
3 288 289 357 641 
3 356 288 357 642 
3 289 290 358 643 
3 357 289 358 644 
3 358 290 291 645 
3 358 291 294 646 
3 292 359 293 0 
3 293 360 295 0 
3 293 359 360 0 
3 300 358 294 650 
3 366 301 295 0 
3 295 360 364 0 
3 364 366 295 0 
3 297 296 361 654 
3 296 304 365 0 
3 296 362 361 0 
3 296 365 362 0 
3 298 297 363 658 
3 363 297 361 659 
3 298 356 299 660 
3 355 356 298 661 
3 363 355 298 662 
3 299 357 300 663 
3 356 357 299 664 
3 357 358 300 665 
3 301 366 302 0 
3 369 305 302 0 
3 302 366 367 0 
3 367 369 302 0 
3 368 304 303 0 
3 375 303 311 0 
3 368 303 375 0 
3 368 365 304 0 
3 305 369 306 0 
3 306 370 307 0 
3 306 369 370 0 
3 307 371 308 0 
3 307 370 371 0 
3 308 372 309 0 
3 308 371 372 0 
3 309 373 310 0 
3 309 372 373 0 
3 310 374 311 0 
3 310 373 374 0 
3 311 374 375 0 
3 312 314 313 0 
3 313 314 317 0 
3 316 315 313 0 
3 316 313 317 0 
3 315 316 318 0 
3 316 317 377 0 
3 318 316 376 0 
3 316 377 376 0 
3 317 319 377 0 
3 320 318 378 0 
3 318 376 378 0 
3 319 321 380 0 
3 319 380 377 0 
3 322 320 381 0 
3 320 378 381 0 
3 321 323 380 0 
3 324 322 384 0 
3 322 381 384 0 
3 325 387 323 0 
3 380 323 383 0 
3 383 323 387 0 
3 326 324 388 0 
3 324 384 388 0 
3 327 391 325 0 
3 391 387 325 0 
3 328 326 392 0 
3 326 388 392 0 
3 327 329 396 0 
3 327 396 391 0 
3 330 328 397 0 
3 397 328 392 0 
3 329 331 396 0 
3 332 330 397 0 
3 333 407 331 0 
3 396 331 401 0 
3 401 331 407 0 
3 334 332 402 0 
3 402 332 397 0 
3 333 335 413 0 
3 333 413 407 0 
3 336 334 408 0 
3 334 402 408 0 
3 419 335 337 0 
3 335 419 413 0 
3 338 336 420 0 
3 336 408 414 0 
3 420 336 414 0 
3 337 339 427 0 
3 419 337 426 0 
3 337 427 426 0 
3 341 338 420 0 
3 339 340 427 0 
3 340 343 436 0 
3 340 435 427 0 
3 435 340 436 0 
3 342 341 420 0 
3 351 342 428 0 
3 342 420 428 0 
3 343 344 437 0 
3 436 343 437 0 
3 344 345 438 0 
3 437 344 438 0 
3 345 346 439 0 
3 438 345 439 0 
3 346 347 440 0 
3 439 346 440 0 
3 440 347 348 0 
3 349 350 348 0 
3 350 454 348 0 
3 440 348 453 0 
3 348 454 453 0 
3 349 353 350 0 
3 350 353 354 0 
3 350 354 454 0 
3 352 351 428 0 
3 359 352 441 0 
3 352 428 441 0 
3 353 361 354 0 
3 353 355 363 764 
3 361 353 363 765 
3 354 361 362 0 
3 362 466 354 0 
3 466 454 354 0 
3 360 359 441 0 
3 455 364 360 0 
3 360 441 442 0 
3 360 442 455 0 
3 365 466 362 0 
3 366 364 467 0 
3 364 455 467 0 
3 365 368 476 0 
3 465 466 365 0 
3 476 465 365 0 
3 367 366 467 0 
3 367 468 369 0 
3 468 367 467 0 
3 375 482 368 0 
3 368 482 476 0 
3 477 370 369 0 
3 369 468 469 0 
3 369 469 477 0 
3 371 370 477 0 
3 372 371 478 0 
3 478 371 477 0 
3 373 372 479 0 
3 479 372 478 0 
3 374 373 480 0 
3 480 373 479 0 
3 375 374 481 0 
3 481 374 480 0 
3 482 375 481 0 
3 376 377 379 0 
3 378 376 379 0 
3 377 380 379 0 
3 378 379 382 0 
3 381 378 382 0 
3 379 380 383 0 
3 382 379 383 0 
3 381 382 385 0 
3 384 381 385 0 
3 382 383 386 0 
3 385 382 386 0 
3 386 383 387 0 
3 384 385 389 0 
3 388 384 389 0 
3 385 386 390 0 
3 389 385 390 0 
3 386 387 391 0 
3 390 386 391 0 
3 388 389 393 0 
3 392 388 393 0 
3 389 390 394 0 
3 393 389 394 0 
3 390 391 395 0 
3 394 390 395 0 
3 391 396 395 0 
3 392 393 398 0 
3 397 392 398 0 
3 393 394 399 0 
3 398 393 399 0 
3 394 395 400 0 
3 399 394 400 0 
3 395 396 401 0 
3 400 395 401 0 
3 397 398 403 0 
3 402 397 403 0 
3 398 399 404 0 
3 403 398 404 0 
3 399 400 405 0 
3 404 399 405 0 
3 400 401 406 0 
3 405 400 406 0 
3 406 401 407 0 
3 408 402 403 0 
3 403 404 409 0 
3 408 403 409 0 
3 404 405 410 0 
3 409 404 410 0 
3 405 406 411 0 
3 410 405 411 0 
3 406 407 412 0 
3 411 406 412 0 
3 407 413 412 0 
3 408 409 414 0 
3 409 410 415 0 
3 414 409 415 0 
3 410 411 416 0 
3 415 410 416 0 
3 411 412 417 0 
3 416 411 417 0 
3 412 413 418 0 
3 417 412 418 0 
3 413 419 418 0 
3 414 415 421 0 
3 420 414 421 0 
3 415 416 422 0 
3 421 415 422 0 
3 416 417 423 0 
3 422 416 423 0 
3 417 418 424 0 
3 423 417 424 0 
3 418 419 425 0 
3 424 418 425 0 
3 425 419 426 0 
3 428 420 421 0 
3 421 422 429 0 
3 428 421 429 0 
3 422 423 430 0 
3 429 422 430 0 
3 423 424 431 0 
3 430 423 431 0 
3 424 425 432 0 
3 431 424 432 0 
3 425 426 433 0 
3 432 425 433 0 
3 426 427 434 0 
3 433 426 434 0 
3 427 435 434 0 
3 441 428 429 0 
3 429 430 442 0 
3 441 429 442 0 
3 430 431 443 0 
3 442 430 443 0 
3 431 432 444 0 
3 443 431 444 0 
3 432 433 445 0 
3 444 432 445 0 
3 433 434 446 0 
3 445 433 446 0 
3 434 435 447 0 
3 446 434 447 0 
3 435 436 448 0 
3 447 435 448 0 
3 436 437 449 0 
3 448 436 449 0 
3 437 438 450 0 
3 449 437 450 0 
3 438 439 451 0 
3 450 438 451 0 
3 439 440 452 0 
3 451 439 452 0 
3 452 440 453 0 
3 442 443 455 0 
3 443 444 456 0 
3 455 443 456 0 
3 444 445 457 0 
3 456 444 457 0 
3 445 446 458 0 
3 457 445 458 0 
3 446 447 459 0 
3 458 446 459 0 
3 447 448 460 0 
3 459 447 460 0 
3 448 449 461 0 
3 460 448 461 0 
3 449 450 462 0 
3 461 449 462 0 
3 450 451 463 0 
3 462 450 463 0 
3 451 452 464 0 
3 463 451 464 0 
3 452 453 465 0 
3 464 452 465 0 
3 453 454 466 0 
3 465 453 466 0 
3 467 455 456 0 
3 456 457 468 0 
3 467 456 468 0 
3 457 458 469 0 
3 468 457 469 0 
3 458 459 470 0 
3 469 458 470 0 
3 459 460 471 0 
3 470 459 471 0 
3 460 461 472 0 
3 471 460 472 0 
3 461 462 473 0 
3 472 461 473 0 
3 462 463 474 0 
3 473 462 474 0 
3 463 464 475 0 
3 474 463 475 0 
3 464 465 476 0 
3 475 464 476 0 
3 469 470 477 0 
3 470 471 478 0 
3 477 470 478 0 
3 471 472 479 0 
3 478 471 479 0 
3 472 473 480 0 
3 479 472 480 0 
3 473 474 481 0 
3 480 473 481 0 
3 474 475 482 0 
3 481 474 482 0 
3 476 482 475 0 
