$MeshFormat
4.1 0 8
$EndMeshFormat
$Entities
0 0 1 1
1 0.1600415408611298 0.3554412722587585 0.3647099137306213 0.7090000510215759 0.9043998122215271 0.9136684536933899 0 0 
1 0.1600415408611298 0.3554412722587585 0.3647099137306213 0.7090000510215759 0.9043998122215271 0.9136684536933899 0 1 1 
$EndEntities
$Nodes
2 204 1 204
2 1 0 162
1
2
3
4
5
6
7
8
9
10
11
12
13
14
15
16
17
18
19
20
21
22
23
24
25
26
27
28
29
30
31
32
33
34
35
36
37
38
39
40
41
42
43
44
45
46
47
48
49
50
51
52
53
54
55
56
57
58
59
60
61
62
63
64
65
66
67
68
69
70
71
72
73
74
75
76
77
78
79
80
81
82
83
84
85
86
87
88
89
90
91
92
93
94
95
96
97
98
99
100
101
102
103
104
105
106
107
108
109
110
111
112
113
114
115
116
117
118
119
120
121
122
123
124
125
126
127
128
129
130
131
132
133
134
135
136
137
138
139
140
141
142
143
144
145
146
147
148
149
150
151
152
153
154
155
156
157
158
159
160
161
162
0.5066719651222229 0.8909658193588257 0.6837810277938843
0.5788230895996094 0.8634065389633179 0.6391891837120056
0.5066719651222229 0.8909658193588257 0.594597339630127
0.434520810842514 0.9043998122215271 0.6391891837120056
0.5717604756355286 0.8519789576530457 0.7240079641342163
0.5717604756355286 0.8519789576530457 0.5543704032897949
0.434520810842514 0.8939526677131653 0.5641831755638123
0.5058557391166687 0.8667051792144775 0.5200957655906677
0.434520810842514 0.8634065389633179 0.4948868751525879
0.5058557391166687 0.8667051792144775 0.7582826018333435
0.434520810842514 0.8939526677131653 0.714195191860199
0.434520810842514 0.8634065389633179 0.7834914922714233
0.6272180080413818 0.8203489184379578 0.5951017737388611
0.6272180080413818 0.8203489184379578 0.6832765936851501
0.6680068373680115 0.7742228507995605 0.6391891837120056
0.3623696565628052 0.8909658193588257 0.594597339630127
0.2902185320854187 0.8634065389633179 0.6391891837120056
0.3623696565628052 0.8909658193588257 0.6837810277938843
0.2972811758518219 0.8519789576530457 0.5543704032897949
0.2972811758518219 0.8519789576530457 0.7240079641342163
0.3631858825683594 0.8667051792144775 0.7582826018333435
0.3631858825683594 0.8667051792144775 0.5200957655906677
0.2418236285448074 0.8203489184379578 0.6832765936851501
0.2418236285448074 0.8203489184379578 0.5951017737388611
0.2010347843170166 0.7742228507995605 0.6391891837120056
0.5066719651222229 0.3688752353191376 0.594597339630127
0.5788230895996094 0.3964345455169678 0.6391891837120056
0.5066719651222229 0.3688752353191376 0.6837810277938843
0.434520810842514 0.3554412722587585 0.6391891837120056
0.5717604756355286 0.40786212682724 0.5543704032897949
0.5717604756355286 0.40786212682724 0.7240079641342163
0.434520810842514 0.3658884167671204 0.714195191860199
0.5058557391166687 0.3931359350681305 0.7582826018333435
0.434520810842514 0.3964345157146454 0.7834914922714233
0.5058557391166687 0.3931359350681305 0.5200957655906677
0.434520810842514 0.3658884167671204 0.5641831755638123
0.434520810842514 0.3964345157146454 0.4948868751525879
0.6272180080413818 0.4394921660423279 0.6832765936851501
0.6272180080413818 0.4394921660423279 0.5951017737388611
0.6680068373680115 0.4856182336807251 0.6391891837120056
0.3623696565628052 0.3688752353191376 0.6837810277938843
0.2902185320854187 0.3964345455169678 0.6391891837120056
0.3623696565628052 0.3688752353191376 0.594597339630127
0.2972811758518219 0.40786212682724 0.7240079641342163
0.2972811758518219 0.40786212682724 0.5543704032897949
0.3631858825683594 0.3931359350681305 0.5200957655906677
0.3631858825683594 0.3931359350681305 0.7582826018333435
0.2418236285448074 0.4394921660423279 0.5951017737388611
0.2418236285448074 0.4394921660423279 0.6832765936851501
0.2010347843170166 0.4856182336807251 0.6391891837120056
0.6955661177635193 0.5853286981582642 0.5670380592346191
0.6680068373680115 0.6299205422401428 0.4948868751525879
0.6955661177635193 0.6745123863220215 0.5670380592346191
0.7090000510215759 0.6299205422401428 0.6391891837120056
0.6565791964530945 0.5451017618179321 0.5019495487213135
0.6565791964530945 0.7147393226623535 0.5019495487213135
0.6985529065132141 0.7049265503883362 0.6391891837120056
0.6713054180145264 0.7490139603614807 0.5678542256355286
0.6713054180145264 0.5108271241188049 0.5678542256355286
0.6985529065132141 0.5549145340919495 0.6391891837120056
0.6249491572380066 0.6740079522132874 0.4464920163154602
0.6249491572380066 0.5858331322669983 0.4464920163154602
0.5788230895996094 0.6299205422401428 0.4057031273841858
0.6955661177635193 0.6745123863220215 0.7113403081893921
0.6680068373680115 0.6299205422401428 0.7834914922714233
0.6955661177635193 0.5853286981582642 0.7113403081893921
0.6565791964530945 0.7147393226623535 0.7764288187026978
0.6565791964530945 0.5451017618179321 0.7764288187026978
0.6713054180145264 0.5108271241188049 0.7105241417884827
0.6713054180145264 0.7490139603614807 0.7105241417884827
0.6249491572380066 0.5858331322669983 0.831886351108551
0.6249491572380066 0.6740079522132874 0.831886351108551
0.5788230895996094 0.6299205422401428 0.8726751804351807
0.1734755039215088 0.5853286981582642 0.7113403081893921
0.201034814119339 0.6299205422401428 0.7834914922714233
0.1734755039215088 0.6745123863220215 0.7113403081893921
0.1600415408611298 0.6299205422401428 0.6391891837120056
0.2124624103307724 0.5451017618179321 0.7764288187026978
0.2124624103307724 0.7147393226623535 0.7764288187026978
0.1704886853694916 0.7049265503883362 0.6391891837120056
0.1977362036705017 0.7490139603614807 0.7105241417884827
0.1977362036705017 0.5108271241188049 0.7105241417884827
0.1704886853694916 0.5549145340919495 0.6391891837120056
0.2440924495458603 0.6740079522132874 0.831886351108551
0.2440924495458603 0.5858331322669983 0.831886351108551
0.2902185320854187 0.6299205422401428 0.8726751804351807
0.1734755039215088 0.6745123863220215 0.5670380592346191
0.201034814119339 0.6299205422401428 0.4948868751525879
0.1734755039215088 0.5853286981582642 0.5670380592346191
0.2124624103307724 0.7147393226623535 0.5019495487213135
0.2124624103307724 0.5451017618179321 0.5019495487213135
0.1977362036705017 0.5108271241188049 0.5678542256355286
0.1977362036705017 0.7490139603614807 0.5678542256355286
0.2440924495458603 0.5858331322669983 0.4464920163154602
0.2440924495458603 0.6740079522132874 0.4464920163154602
0.2902185320854187 0.6299205422401428 0.4057031273841858
0.389928936958313 0.5577694177627563 0.9002344608306885
0.434520810842514 0.4856182634830475 0.8726751804351807
0.4791126847267151 0.5577694177627563 0.9002344608306885
0.434520810842514 0.6299205422401428 0.9136684536933899
0.3497020602226257 0.4926809072494507 0.8612475991249084
0.5193395614624023 0.4926809072494507 0.8612475991249084
0.509526789188385 0.6299205422401428 0.9032213091850281
0.5536141991615295 0.5585855841636658 0.8759738206863403
0.3154273927211761 0.5585855841636658 0.8759738206863403
0.3595148026943207 0.6299205422401428 0.9032213091850281
0.4786082208156586 0.4372233748435974 0.8296175599098206
0.3904334008693695 0.4372233748435974 0.8296175599098206
0.4791126847267151 0.7020716667175293 0.9002344608306885
0.434520810842514 0.7742228507995605 0.8726751804351807
0.389928936958313 0.7020716667175293 0.9002344608306885
0.5193395614624023 0.767160177230835 0.8612475991249084
0.3497020602226257 0.767160177230835 0.8612475991249084
0.3154273927211761 0.7012555003166199 0.8759738206863403
0.5536141991615295 0.7012555003166199 0.8759738206863403
0.3904334008693695 0.8226177096366882 0.8296175599098206
0.4786082208156586 0.8226177096366882 0.8296175599098206
0.389928936958313 0.7020716667175293 0.378143846988678
0.434520810842514 0.7742228507995605 0.4057031869888306
0.4791126847267151 0.7020716667175293 0.378143846988678
0.434520810842514 0.6299205422401428 0.3647099137306213
0.3497020602226257 0.767160177230835 0.4171307682991028
0.5193395614624023 0.767160177230835 0.4171307682991028
0.509526789188385 0.6299205422401428 0.3751570582389832
0.5536141991615295 0.7012555003166199 0.4024045467376709
0.3154273927211761 0.7012555003166199 0.4024045467376709
0.3595148026943207 0.6299205422401428 0.3751570582389832
0.4786082208156586 0.8226177096366882 0.4487608075141907
0.3904334008693695 0.8226177096366882 0.4487608075141907
0.4791126847267151 0.5577694177627563 0.378143846988678
0.434520810842514 0.4856182634830475 0.4057031869888306
0.389928936958313 0.5577694177627563 0.378143846988678
0.5193395614624023 0.4926809072494507 0.4171307682991028
0.3497020602226257 0.4926809072494507 0.4171307682991028
0.3154273927211761 0.5585855841636658 0.4024045467376709
0.5536141991615295 0.5585855841636658 0.4024045467376709
0.3904334008693695 0.4372233748435974 0.4487608075141907
0.4786082208156586 0.4372233748435974 0.4487608075141907
0.595855712890625 0.7466635704040527 0.828083336353302
0.623414933681488 0.7912554144859314 0.7559322118759155
0.5512638092041016 0.8188146948814392 0.8005240559577942
0.2456266582012177 0.7912554144859314 0.7559322118759155
0.2731859087944031 0.7466635704040527 0.828083336353302
0.3177778124809265 0.8188146948814392 0.8005240559577942
0.623414933681488 0.7912554144859314 0.5224461555480957
0.595855712890625 0.7466635704040527 0.4502950310707092
0.5512638092041016 0.8188146948814392 0.477854311466217
0.2731859087944031 0.7466635704040527 0.4502950310707092
0.2456266582012177 0.7912554144859314 0.5224461555480957
0.3177778124809265 0.8188146948814392 0.477854311466217
0.623414933681488 0.4685856699943542 0.7559322118759155
0.595855712890625 0.5131775140762329 0.828083336353302
0.5512638092041016 0.4410263895988464 0.8005240559577942
0.2731859087944031 0.5131775140762329 0.828083336353302
0.2456266582012177 0.4685856699943542 0.7559322118759155
0.3177778124809265 0.4410263895988464 0.8005240559577942
0.595855712890625 0.5131775140762329 0.4502950310707092
0.623414933681488 0.4685856699943542 0.5224461555480957
0.5512638092041016 0.4410263895988464 0.477854311466217
0.2456266582012177 0.4685856699943542 0.5224461555480957
0.2731859087944031 0.5131775140762329 0.4502950310707092
0.3177778124809265 0.4410263895988464 0.477854311466217
3 1 0 42
163
164
165
166
167
168
169
170
171
172
173
174
175
176
177
178
179
180
181
182
183
184
185
186
187
188
189
190
191
192
193
194
195
196
197
198
199
200
201
202
203
204
0.4345202867518541 0.6299201936215009 0.6391891837120056
0.5388417334093138 0.7221704585759169 0.6391891837120056
0.4350425109709777 0.7344408541006716 0.5472615653030753
0.5265508437550107 0.6302763046927432 0.5347321911150125
0.4350425109709777 0.7344408541006716 0.7311168021209359
0.5265508970785292 0.6302763623817526 0.7436461104143273
0.5401655674715202 0.5398121985401007 0.6391891722701913
0.436234186053348 0.5249448067738253 0.54799792770783
0.3462545874887746 0.6291308777207548 0.5324056231152736
0.3081600225210379 0.6865101326836848 0.6533441433741107
0.3293364289597432 0.5390665290853149 0.6369299057179293
0.4338707885753505 0.5221738670222796 0.7258969805522018
0.3610845453764606 0.6279315609547297 0.7602592388110305
0.3770856439970541 0.7820223121559927 0.6391891837120056
0.5997321893324072 0.6314285603468666 0.618480370870834
0.4373277556575945 0.6068037131333009 0.4731575555670146
0.4606244858201056 0.4629365835183084 0.63634292477085
0.3280989739679563 0.7320095983188708 0.5576437623722256
0.4496260246241447 0.5910100428035828 0.8044266022493677
0.3302850537641651 0.5293318220774885 0.7414669875912752
0.536725271716245 0.5264939265302804 0.7425635971598531
0.3327522987751276 0.7265426938512948 0.7457086653118257
0.3336244330569615 0.5263861270832554 0.534264046026507
0.5391956367172235 0.527407227409156 0.5362837730804423
0.5382484449386957 0.7334335532199473 0.5359777793276947
0.5382484324660736 0.7334336036661102 0.7424005672794728
0.2733172546369891 0.6088971197410926 0.7106720941485259
0.2683096578005304 0.6109520884221459 0.5965593552169399
0.4770770672586515 0.803752352318627 0.6391891837120056
0.4215096962719586 0.6828602040157786 0.8113080335260725
0.3834962862771853 0.6970328119826189 0.4744980575828182
0.3738483512852551 0.4642403730045178 0.6779218022288761
0.4787914549632417 0.6927194477202745 0.473463195573484
0.60034243319086 0.5855452288852275 0.7023966047947583
0.6034750788939582 0.6844351912801564 0.6959006111119246
0.3782420569265122 0.4607538476189036 0.5842811259881715
0.4186977567173471 0.5418769793035031 0.6399660199538589
0.4429237116017259 0.7199882621118726 0.6421197679229669
0.4409922724227923 0.6460458092731998 0.7262024711001672
0.4308597835486815 0.6461359158767245 0.5522207856693454
0.3549623696081209 0.6148311487891422 0.673507821032063
0.5206099661977128 0.6238694552913294 0.6561318050613113
$EndNodes
$Elements
2 973 1 973
2 1 2 320
1 1 2 3 
2 5 2 1 
3 4 1 3 
4 4 11 1 
5 5 1 10 
6 10 1 11 
7 6 3 2 
8 5 14 2 
9 6 2 13 
10 13 2 14 
11 4 3 7 
12 6 8 3 
13 7 3 8 
14 4 7 16 
15 4 18 11 
16 4 16 18 
17 5 10 141 
18 5 140 14 
19 5 141 140 
20 6 147 8 
21 6 13 145 
22 6 145 147 
23 9 7 8 
24 9 22 7 
25 22 16 7 
26 9 8 128 
27 8 147 128 
28 9 129 22 
29 9 128 129 
30 12 10 11 
31 12 117 10 
32 117 141 10 
33 12 11 21 
34 11 18 21 
35 12 21 116 
36 12 116 117 
37 15 13 14 
38 15 58 13 
39 58 145 13 
40 15 14 70 
41 14 140 70 
42 15 57 58 
43 15 70 57 
44 16 17 18 
45 19 17 16 
46 19 16 22 
47 20 18 17 
48 19 24 17 
49 20 17 23 
50 23 17 24 
51 20 21 18 
52 19 22 150 
53 19 149 24 
54 19 150 149 
55 20 144 21 
56 20 23 142 
57 20 142 144 
58 21 144 116 
59 129 150 22 
60 25 23 24 
61 25 81 23 
62 81 142 23 
63 25 24 93 
64 24 149 93 
65 25 80 81 
66 25 93 80 
67 26 27 28 
68 30 27 26 
69 29 26 28 
70 29 36 26 
71 30 26 35 
72 35 26 36 
73 31 28 27 
74 30 39 27 
75 31 27 38 
76 38 27 39 
77 29 28 32 
78 31 33 28 
79 32 28 33 
80 29 32 41 
81 29 43 36 
82 29 41 43 
83 30 35 159 
84 30 158 39 
85 30 159 158 
86 31 153 33 
87 31 38 151 
88 31 151 153 
89 34 32 33 
90 34 47 32 
91 47 41 32 
92 34 33 107 
93 33 153 107 
94 34 108 47 
95 34 107 108 
96 37 35 36 
97 37 138 35 
98 138 159 35 
99 37 36 46 
100 36 43 46 
101 37 46 137 
102 37 137 138 
103 40 38 39 
104 40 69 38 
105 69 151 38 
106 40 39 59 
107 39 158 59 
108 40 59 60 
109 40 60 69 
110 41 42 43 
111 44 42 41 
112 44 41 47 
113 45 43 42 
114 44 49 42 
115 45 42 48 
116 48 42 49 
117 45 46 43 
118 44 47 156 
119 44 155 49 
120 44 156 155 
121 45 162 46 
122 45 48 160 
123 45 160 162 
124 46 162 137 
125 108 156 47 
126 50 48 49 
127 50 92 48 
128 92 160 48 
129 50 49 82 
130 49 155 82 
131 50 82 83 
132 50 83 92 
133 51 52 53 
134 55 52 51 
135 54 51 53 
136 54 60 51 
137 55 51 59 
138 59 51 60 
139 56 53 52 
140 55 62 52 
141 56 52 61 
142 61 52 62 
143 54 53 57 
144 56 58 53 
145 57 53 58 
146 54 57 64 
147 54 66 60 
148 54 64 66 
149 55 59 158 
150 55 157 62 
151 55 158 157 
152 56 145 58 
153 56 61 146 
154 56 146 145 
155 70 64 57 
156 60 66 69 
157 63 61 62 
158 63 125 61 
159 125 146 61 
160 63 62 136 
161 62 157 136 
162 63 124 125 
163 63 136 124 
164 64 65 66 
165 67 65 64 
166 67 64 70 
167 68 66 65 
168 67 72 65 
169 68 65 71 
170 71 65 72 
171 68 69 66 
172 67 70 140 
173 67 139 72 
174 67 140 139 
175 68 151 69 
176 68 71 152 
177 68 152 151 
178 73 71 72 
179 73 104 71 
180 104 152 71 
181 73 72 115 
182 72 139 115 
183 73 103 104 
184 73 115 103 
185 74 75 76 
186 78 75 74 
187 77 74 76 
188 77 83 74 
189 78 74 82 
190 82 74 83 
191 79 76 75 
192 78 85 75 
193 79 75 84 
194 84 75 85 
195 77 76 80 
196 79 81 76 
197 80 76 81 
198 77 80 87 
199 77 89 83 
200 77 87 89 
201 78 82 155 
202 78 154 85 
203 78 155 154 
204 79 142 81 
205 79 84 143 
206 79 143 142 
207 93 87 80 
208 83 89 92 
209 86 84 85 
210 86 114 84 
211 114 143 84 
212 86 85 105 
213 85 154 105 
214 86 105 106 
215 86 106 114 
216 87 88 89 
217 90 88 87 
218 90 87 93 
219 91 89 88 
220 90 95 88 
221 91 88 94 
222 94 88 95 
223 91 92 89 
224 90 93 149 
225 90 148 95 
226 90 149 148 
227 91 160 92 
228 91 94 161 
229 91 161 160 
230 96 94 95 
231 96 135 94 
232 135 161 94 
233 96 95 126 
234 95 148 126 
235 96 126 127 
236 96 127 135 
237 97 98 99 
238 101 98 97 
239 100 97 99 
240 100 106 97 
241 101 97 105 
242 105 97 106 
243 102 99 98 
244 101 108 98 
245 102 98 107 
246 107 98 108 
247 100 99 103 
248 102 104 99 
249 103 99 104 
250 100 103 109 
251 100 111 106 
252 100 109 111 
253 101 105 154 
254 101 156 108 
255 101 154 156 
256 102 152 104 
257 102 107 153 
258 102 153 152 
259 115 109 103 
260 106 111 114 
261 109 110 111 
262 112 110 109 
263 112 109 115 
264 113 111 110 
265 112 117 110 
266 113 110 116 
267 116 110 117 
268 113 114 111 
269 112 115 139 
270 112 141 117 
271 112 139 141 
272 113 143 114 
273 113 116 144 
274 113 144 143 
275 118 119 120 
276 122 119 118 
277 121 118 120 
278 121 127 118 
279 122 118 126 
280 126 118 127 
281 123 120 119 
282 122 129 119 
283 123 119 128 
284 128 119 129 
285 121 120 124 
286 123 125 120 
287 124 120 125 
288 121 124 130 
289 121 132 127 
290 121 130 132 
291 122 126 148 
292 122 150 129 
293 122 148 150 
294 123 146 125 
295 123 128 147 
296 123 147 146 
297 136 130 124 
298 127 132 135 
299 130 131 132 
300 133 131 130 
301 133 130 136 
302 134 132 131 
303 133 138 131 
304 134 131 137 
305 137 131 138 
306 134 135 132 
307 133 136 157 
308 133 159 138 
309 133 157 159 
310 134 161 135 
311 134 137 162 
312 134 162 161 
313 139 140 141 
314 142 143 144 
315 145 146 147 
316 148 149 150 
317 151 152 153 
318 154 155 156 
319 157 158 159 
320 160 161 162 
3 1 4 653
321 175 181 105 182 
322 103 168 181 192 
323 101 105 181 182 
324 103 115 168 192 
325 15 164 58 177 
326 164 177 15 197 
327 115 188 168 192 
328 50 173 83 189 
329 7 22 9 165 
330 12 21 11 167 
331 50 82 173 189 
332 174 101 181 182 
333 103 115 73 168 
334 55 177 166 186 
335 134 170 178 185 
336 10 12 11 167 
337 7 9 8 165 
338 136 166 63 178 
339 31 169 179 183 
340 24 23 25 172 
341 35 170 37 179 
342 57 15 177 197 
343 56 166 177 187 
344 50 83 82 189 
345 57 15 58 177 
346 37 179 170 198 
347 40 60 59 169 
348 134 170 131 178 
349 52 166 55 177 
350 22 165 7 176 
351 11 167 21 176 
352 90 171 180 190 
353 133 178 170 186 
354 23 172 24 176 
355 55 59 177 186 
356 56 166 52 177 
357 31 169 27 179 
358 98 174 101 181 
359 169 30 179 186 
360 135 127 96 171 
361 33 179 174 183 
362 135 134 178 185 
363 169 177 59 186 
364 36 179 37 198 
365 135 178 171 185 
366 124 136 63 178 
367 36 35 37 179 
368 90 180 93 190 
369 33 31 179 183 
370 180 200 172 202 
371 33 32 34 174 
372 27 169 30 179 
373 58 56 177 187 
374 131 170 133 178 
375 93 180 172 190 
376 163 172 200 202 
377 58 177 164 187 
378 88 171 90 190 
379 24 176 172 180 
380 7 176 165 191 
381 11 167 176 191 
382 90 93 87 190 
383 103 168 73 181 
384 24 172 25 180 
385 133 136 178 186 
386 166 178 136 186 
387 112 188 115 192 
388 21 176 167 184 
389 170 179 35 186 
390 172 176 23 184 
391 25 172 93 180 
392 171 180 172 202 
393 83 173 50 190 
394 59 169 60 177 
395 174 181 102 183 
396 30 35 179 186 
397 102 174 107 181 
398 108 101 98 174 
399 7 165 8 191 
400 10 167 11 191 
401 169 170 166 186 
402 127 171 135 178 
403 60 169 40 196 
404 97 101 105 181 
405 32 174 33 179 
406 165 176 22 180 
407 171 172 163 202 
408 95 90 88 171 
409 8 165 187 191 
410 10 188 167 191 
411 73 168 104 181 
412 107 174 102 183 
413 127 96 171 193 
414 101 174 108 182 
415 83 189 173 190 
416 93 172 87 190 
417 90 171 95 180 
418 200 201 167 203 
419 34 174 32 194 
420 24 25 93 180 
421 91 185 171 190 
422 163 172 171 203 
423 55 59 51 177 
424 38 27 31 169 
425 39 30 27 169 
426 167 201 184 203 
427 164 202 166 204 
428 23 176 20 184 
429 173 199 171 203 
430 137 131 134 170 
431 98 107 174 181 
432 94 171 91 185 
433 112 167 188 192 
434 91 171 94 190 
435 164 187 166 202 
436 21 20 176 184 
437 132 135 134 178 
438 79 172 184 189 
439 164 165 187 202 
440 6 187 164 191 
441 164 188 5 191 
442 76 77 172 189 
443 163 171 199 203 
444 79 76 172 189 
445 84 184 175 189 
446 172 189 77 190 
447 60 177 169 196 
448 50 173 92 190 
449 200 202 164 204 
450 93 80 87 172 
451 112 117 167 192 
452 165 164 200 202 
453 134 137 170 185 
454 2 164 5 191 
455 2 6 164 191 
456 38 169 31 183 
457 62 55 52 166 
458 39 30 169 186 
459 133 131 138 170 
460 80 76 77 172 
461 98 102 107 181 
462 95 180 171 193 
463 56 61 52 166 
464 170 171 185 199 
465 13 2 6 164 
466 2 14 5 164 
467 50 82 49 173 
468 127 171 178 193 
469 173 185 171 199 
470 76 81 79 172 
471 58 56 53 177 
472 32 174 179 194 
473 171 199 170 202 
474 21 167 116 184 
475 21 12 116 167 
476 9 22 129 165 
477 8 187 6 191 
478 5 188 10 191 
479 103 109 115 192 
480 73 71 104 168 
481 63 136 62 166 
482 107 33 34 174 
483 33 31 28 179 
484 163 202 200 204 
485 80 172 77 190 
486 13 58 15 164 
487 80 87 172 190 
488 81 172 23 184 
489 62 55 166 186 
490 104 181 168 183 
491 40 59 39 169 
492 165 180 129 193 
493 73 115 72 168 
494 93 25 80 172 
495 9 128 8 165 
496 10 117 12 167 
497 138 133 170 186 
498 112 167 117 188 
499 49 173 82 182 
500 13 164 6 187 
501 14 5 164 188 
502 61 166 56 187 
503 34 47 108 174 
504 79 184 84 189 
505 51 52 55 177 
506 94 135 96 171 
507 37 35 138 170 
508 25 23 81 172 
509 96 95 171 193 
510 92 173 48 185 
511 79 172 81 184 
512 33 174 107 183 
513 148 180 95 193 
514 48 92 50 173 
515 104 168 71 183 
516 86 84 114 175 
517 112 110 117 192 
518 82 182 173 189 
519 35 138 170 186 
520 136 62 166 186 
521 72 168 115 188 
522 135 171 94 185 
523 128 8 165 187 
524 117 167 10 188 
525 58 164 13 187 
526 163 199 171 202 
527 85 84 86 175 
528 39 169 59 186 
529 173 185 92 190 
530 105 85 175 182 
531 56 52 53 177 
532 17 23 24 176 
533 114 106 86 175 
534 94 171 88 190 
535 110 167 117 192 
536 116 184 167 192 
537 134 131 132 178 
538 103 73 104 181 
539 34 47 174 194 
540 113 184 116 192 
541 81 23 142 184 
542 150 129 180 193 
543 174 201 168 204 
544 130 133 136 178 
545 84 175 85 189 
546 114 175 84 184 
547 86 105 85 175 
548 18 11 21 176 
549 16 22 7 176 
550 22 176 19 180 
551 168 183 174 204 
552 165 200 180 202 
553 106 105 86 175 
554 169 183 38 196 
555 166 187 61 195 
556 174 183 169 204 
557 96 126 95 193 
558 188 201 164 204 
559 21 116 144 184 
560 176 184 172 200 
561 169 199 174 204 
562 112 115 109 192 
563 188 200 164 201 
564 91 94 88 190 
565 160 92 48 185 
566 130 131 133 178 
567 26 30 35 179 
568 167 184 176 200 
569 31 27 28 179 
570 106 181 175 192 
571 37 170 137 198 
572 107 34 108 174 
573 85 175 182 189 
574 14 164 15 197 
575 168 201 188 204 
576 96 95 94 171 
577 83 50 92 190 
578 48 185 173 198 
579 184 201 175 203 
580 114 175 184 192 
581 102 181 104 183 
582 35 159 138 186 
583 167 200 188 201 
584 108 98 107 174 
585 164 201 200 204 
586 114 106 175 192 
587 40 39 38 169 
588 49 48 50 173 
589 137 37 138 170 
590 172 180 176 200 
591 173 182 49 194 
592 48 173 42 198 
593 168 188 72 197 
594 129 128 9 165 
595 116 12 117 167 
596 63 62 61 166 
597 73 72 71 168 
598 13 15 14 164 
599 19 176 24 180 
600 168 192 188 201 
601 25 81 80 172 
602 88 94 95 171 
603 72 65 168 197 
604 92 185 91 190 
605 26 27 30 179 
606 152 104 71 183 
607 174 181 175 182 
608 128 147 8 187 
609 141 117 10 188 
610 72 115 139 188 
611 97 98 101 181 
612 14 188 164 197 
613 137 170 185 198 
614 161 135 94 185 
615 148 90 95 180 
616 155 49 82 182 
617 58 13 145 187 
618 136 157 62 186 
619 71 183 168 196 
620 39 27 38 169 
621 116 167 110 192 
622 33 107 153 183 
623 132 127 135 178 
624 105 154 85 182 
625 188 192 167 201 
626 87 88 90 190 
627 128 187 165 195 
628 42 48 49 173 
629 42 173 49 194 
630 158 39 59 186 
631 137 138 131 170 
632 51 59 60 177 
633 28 32 33 179 
634 171 190 173 203 
635 117 110 116 167 
636 129 119 128 165 
637 173 194 42 198 
638 61 62 52 166 
639 71 72 65 168 
640 174 179 169 183 
641 13 14 2 164 
642 45 185 48 198 
643 80 81 76 172 
644 129 119 165 193 
645 172 190 171 203 
646 163 201 200 203 
647 166 177 169 186 
648 11 176 4 191 
649 7 4 176 191 
650 71 168 65 196 
651 128 165 119 195 
652 171 178 170 185 
653 164 177 166 187 
654 79 84 75 189 
655 17 20 23 176 
656 17 24 19 176 
657 65 196 168 197 
658 170 178 166 186 
659 21 20 18 176 
660 19 22 16 176 
661 67 72 188 197 
662 169 179 170 186 
663 44 49 182 194 
664 142 23 20 184 
665 11 18 4 176 
666 7 4 16 176 
667 163 200 172 203 
668 58 53 57 177 
669 174 175 201 203 
670 77 189 83 190 
671 164 187 165 191 
672 174 181 168 201 
673 21 144 20 184 
674 165 193 119 195 
675 114 184 113 192 
676 121 193 178 195 
677 70 14 15 197 
678 75 84 85 189 
679 140 188 14 197 
680 168 181 174 183 
681 174 201 199 203 
682 46 37 137 198 
683 126 148 95 193 
684 166 177 164 204 
685 136 124 130 178 
686 174 182 175 203 
687 116 110 113 192 
688 68 183 71 196 
689 164 191 165 200 
690 166 178 170 202 
691 118 193 121 195 
692 1 5 10 191 
693 8 6 3 191 
694 128 123 187 195 
695 137 185 162 198 
696 34 32 47 194 
697 172 180 171 190 
698 114 84 143 184 
699 170 179 169 199 
700 36 26 35 179 
701 150 122 129 193 
702 169 179 174 199 
703 85 182 78 189 
704 170 178 171 202 
705 169 177 166 204 
706 77 74 83 189 
707 150 22 19 180 
708 177 196 54 197 
709 78 182 82 189 
710 150 180 148 193 
711 100 181 106 192 
712 127 178 121 193 
713 176 180 165 200 
714 160 91 92 185 
715 122 150 148 193 
716 156 101 108 182 
717 7 8 3 191 
718 10 11 1 191 
719 64 54 196 197 
720 199 201 163 203 
721 175 181 174 201 
722 69 60 40 196 
723 45 160 48 185 
724 79 81 142 184 
725 125 124 63 195 
726 103 181 100 192 
727 45 48 42 198 
728 174 199 182 203 
729 29 194 179 198 
730 171 185 173 190 
731 80 77 87 190 
732 138 159 133 186 
733 127 126 96 193 
734 44 49 155 182 
735 161 94 91 185 
736 72 67 65 197 
737 83 74 82 189 
738 35 30 159 186 
739 70 140 14 197 
740 68 152 71 183 
741 127 121 118 193 
742 105 101 154 182 
743 64 54 66 196 
744 120 118 121 195 
745 137 162 46 198 
746 113 144 116 184 
747 151 38 31 183 
748 136 133 157 186 
749 52 51 53 177 
750 43 194 29 198 
751 147 128 123 187 
752 112 117 141 188 
753 139 115 112 188 
754 152 102 104 183 
755 8 147 6 187 
756 5 141 10 188 
757 166 187 195 202 
758 139 67 72 188 
759 146 61 56 187 
760 165 195 187 202 
761 31 33 153 183 
762 39 158 30 186 
763 182 199 173 203 
764 13 6 145 187 
765 14 140 5 188 
766 56 58 145 187 
767 153 107 102 183 
768 106 100 97 181 
769 79 75 76 189 
770 78 155 82 182 
771 62 157 55 186 
772 54 177 60 196 
773 154 78 85 182 
774 24 93 149 180 
775 59 55 158 186 
776 44 182 156 194 
777 32 179 29 194 
778 161 134 135 185 
779 181 192 168 201 
780 130 132 131 178 
781 121 178 124 195 
782 99 104 102 181 
783 103 100 109 192 
784 109 110 112 192 
785 98 99 102 181 
786 134 162 137 185 
787 170 185 198 199 
788 173 198 185 199 
789 171 193 180 202 
790 20 17 18 176 
791 17 19 16 176 
792 180 193 165 202 
793 43 41 29 194 
794 76 74 77 189 
795 174 194 182 199 
796 18 16 4 176 
797 44 156 47 194 
798 2 5 1 191 
799 2 3 6 191 
800 143 84 79 184 
801 182 194 173 199 
802 90 149 93 180 
803 29 179 36 198 
804 57 177 54 197 
805 26 28 27 179 
806 113 114 143 184 
807 66 54 60 196 
808 121 124 120 195 
809 103 104 99 181 
810 42 49 44 194 
811 200 201 163 204 
812 114 111 106 192 
813 176 191 167 200 
814 64 196 65 197 
815 149 90 148 180 
816 68 151 183 196 
817 32 29 41 194 
818 128 119 123 195 
819 91 88 89 190 
820 165 191 176 200 
821 146 187 123 195 
822 119 193 118 195 
823 89 92 91 190 
824 68 71 65 196 
825 169 183 196 204 
826 168 196 183 204 
827 149 19 24 180 
828 142 20 144 184 
829 57 54 64 197 
830 43 29 36 198 
831 42 194 43 198 
832 120 119 118 195 
833 83 92 89 190 
834 65 64 66 196 
835 173 190 189 203 
836 129 122 119 193 
837 146 123 125 195 
838 162 185 45 198 
839 97 99 98 181 
840 68 69 151 196 
841 67 188 140 197 
842 54 51 60 177 
843 121 127 132 178 
844 70 15 57 197 
845 114 113 111 192 
846 29 32 28 179 
847 18 17 16 176 
848 149 150 19 180 
849 36 37 46 198 
850 43 42 41 194 
851 54 57 53 177 
852 44 155 156 182 
853 88 87 89 190 
854 53 51 54 177 
855 150 149 148 180 
856 156 154 101 182 
857 189 190 172 203 
858 130 124 121 178 
859 161 91 160 185 
860 173 189 182 203 
861 85 78 75 189 
862 36 29 26 179 
863 68 151 152 183 
864 130 121 132 178 
865 45 162 160 185 
866 143 79 142 184 
867 157 133 159 186 
868 100 99 97 181 
869 31 153 151 183 
870 103 99 100 181 
871 30 158 159 186 
872 87 77 89 190 
873 146 147 123 187 
874 112 141 139 188 
875 152 153 102 183 
876 154 155 78 182 
877 143 144 113 184 
878 145 6 147 187 
879 141 5 140 188 
880 140 67 139 188 
881 146 56 145 187 
882 182 189 175 203 
883 111 100 106 192 
884 26 29 28 179 
885 89 77 83 190 
886 157 158 55 186 
887 11 4 1 191 
888 7 3 4 191 
889 161 162 134 185 
890 78 82 74 189 
891 113 110 111 192 
892 67 140 70 197 
893 46 162 45 198 
894 47 32 41 194 
895 178 193 171 202 
896 126 122 148 193 
897 177 197 164 204 
898 168 197 196 204 
899 166 195 178 202 
900 75 74 76 189 
901 45 42 43 198 
902 64 65 67 197 
903 127 118 126 193 
904 170 198 179 199 
905 69 66 60 196 
906 120 124 125 195 
907 178 195 193 202 
908 1 3 2 191 
909 194 198 173 199 
910 100 111 109 192 
911 196 197 177 204 
912 175 192 181 201 
913 179 194 174 199 
914 169 196 177 204 
915 44 41 42 194 
916 165 193 195 202 
917 142 144 143 184 
918 179 198 194 199 
919 74 75 78 189 
920 123 119 120 195 
921 111 110 109 192 
922 68 65 66 196 
923 155 154 156 182 
924 118 119 122 193 
925 4 3 1 191 
926 152 151 153 183 
927 160 162 161 185 
928 157 159 158 186 
929 146 145 147 187 
930 141 140 139 188 
931 44 47 41 194 
932 64 70 57 197 
933 43 36 46 198 
934 123 120 125 195 
935 69 68 66 196 
936 118 122 126 193 
937 64 67 70 197 
938 46 45 43 198 
939 63 178 195 124 
940 195 178 63 166 
941 105 181 106 97 
942 106 181 105 175 
943 129 180 22 150 
944 22 180 129 165 
945 200 184 203 167 
946 200 203 184 172 
947 196 38 40 69 
948 196 40 38 169 
949 195 61 63 125 
950 195 63 61 166 
951 196 151 38 69 
952 196 38 151 183 
953 195 146 61 125 
954 195 61 146 187 
955 170 166 204 169 
956 204 199 170 169 
957 204 170 202 166 
958 194 156 174 182 
959 194 174 156 47 
960 108 174 156 182 
961 108 156 174 47 
962 201 199 204 174 
963 201 204 199 163 
964 200 188 191 167 
965 200 191 188 164 
966 188 204 197 168 
967 197 204 188 164 
968 202 199 204 163 
969 202 204 199 170 
970 184 201 192 175 
971 192 201 184 167 
972 184 203 189 172 
973 189 203 184 175 
$EndElements
