$MeshFormat
4.1 0 8
$EndMeshFormat
$Entities
0 0 1 1
1 1.421992063522339 0.3548117280006409 0.2721520364284515 1.940041780471802 0.8728613257408142 0.7902016639709473 0 0 
1 1.421992063522339 0.3548117280006409 0.2721520364284515 1.940041780471802 0.8728613257408142 0.7902016639709473 0 1 1 
$EndEntities
$Nodes
2 205 1 205
2 1 0 162
1
2
3
4
5
6
7
8
9
10
11
12
13
14
15
16
17
18
19
20
21
22
23
24
25
26
27
28
29
30
31
32
33
34
35
36
37
38
39
40
41
42
43
44
45
46
47
48
49
50
51
52
53
54
55
56
57
58
59
60
61
62
63
64
65
66
67
68
69
70
71
72
73
74
75
76
77
78
79
80
81
82
83
84
85
86
87
88
89
90
91
92
93
94
95
96
97
98
99
100
101
102
103
104
105
106
107
108
109
110
111
112
113
114
115
116
117
118
119
120
121
122
123
124
125
126
127
128
129
130
131
132
133
134
135
136
137
138
139
140
141
142
143
144
145
146
147
148
149
150
151
152
153
154
155
156
157
158
159
160
161
162
1.749105453491211 0.8601837754249573 0.5732580423355103
1.817194223403931 0.8341761827468872 0.5311768651008606
1.749105453491211 0.8601837754249573 0.4890957176685333
1.68101692199707 0.8728613257408142 0.5311768651008606
1.810529232025146 0.8233920335769653 0.6112199425697327
1.810529232025146 0.8233920335769653 0.4511338174343109
1.68101692199707 0.8630024790763855 0.4603940546512604
1.748335361480713 0.837289035320282 0.4187889397144318
1.68101692199707 0.8341761827468872 0.3949994742870331
1.748335361480713 0.837289035320282 0.6435648202896118
1.68101692199707 0.8630024790763855 0.6019597053527832
1.68101692199707 0.8341761827468872 0.6673542857170105
1.862864255905151 0.7935428619384766 0.4895717799663544
1.862864255905151 0.7935428619384766 0.5727819800376892
1.90135645866394 0.7500139474868774 0.5311768651008606
1.612928152084351 0.8601837754249573 0.4890957176685333
1.544839382171631 0.8341761827468872 0.5311768651008606
1.612928152084351 0.8601837754249573 0.5732580423355103
1.551504373550415 0.8233920335769653 0.4511338174343109
1.551504373550415 0.8233920335769653 0.6112199425697327
1.613698482513428 0.837289035320282 0.6435648202896118
1.613698482513428 0.837289035320282 0.4187889397144318
1.49916934967041 0.7935428619384766 0.5727819800376892
1.49916934967041 0.7935428619384766 0.4895717799663544
1.460677146911621 0.7500139474868774 0.5311768651008606
1.749105453491211 0.3674893379211426 0.4890957176685333
1.817194223403931 0.3934969305992126 0.5311768651008606
1.749105453491211 0.3674893379211426 0.5732580423355103
1.68101692199707 0.3548117280006409 0.5311768651008606
1.810529232025146 0.4042810797691345 0.4511338174343109
1.810529232025146 0.4042810797691345 0.6112199425697327
1.68101692199707 0.3646706342697144 0.6019597053527832
1.748335361480713 0.3903840780258179 0.6435648202896118
1.68101692199707 0.3934968709945679 0.6673542857170105
1.748335361480713 0.3903840780258179 0.4187889397144318
1.68101692199707 0.3646706342697144 0.4603940546512604
1.68101692199707 0.3934968709945679 0.3949994742870331
1.862864255905151 0.4341302514076233 0.5727819800376892
1.862864255905151 0.4341302514076233 0.4895717799663544
1.90135645866394 0.4776591658592224 0.5311768651008606
1.612928152084351 0.3674893379211426 0.5732580423355103
1.544839382171631 0.3934969305992126 0.5311768651008606
1.612928152084351 0.3674893379211426 0.4890957176685333
1.551504373550415 0.4042810797691345 0.6112199425697327
1.551504373550415 0.4042810797691345 0.4511338174343109
1.613698482513428 0.3903840780258179 0.4187889397144318
1.613698482513428 0.3903840780258179 0.6435648202896118
1.49916934967041 0.4341302514076233 0.4895717799663544
1.49916934967041 0.4341302514076233 0.5727819800376892
1.460677146911621 0.4776591658592224 0.5311768651008606
1.927364110946655 0.5717554092407227 0.463088184595108
1.90135645866394 0.6138365268707275 0.3949994742870331
1.927364110946655 0.6559177041053772 0.463088184595108
1.940041780471802 0.6138365268707275 0.5311768651008606
1.890572309494019 0.5337935090065002 0.4016644358634949
1.890572309494019 0.6938796043395996 0.4016644358634949
1.930182695388794 0.6846193671226501 0.5311768651008606
1.90446925163269 0.7262244820594788 0.4638583958148956
1.90446925163269 0.5014486312866211 0.4638583958148956
1.930182695388794 0.5430536866188049 0.5311768651008606
1.860723257064819 0.6554416418075562 0.3493294417858124
1.860723257064819 0.5722314715385437 0.3493294417858124
1.817194223403931 0.6138365268707275 0.3108371794223785
1.927364110946655 0.6559177041053772 0.5992655754089355
1.90135645866394 0.6138365268707275 0.6673542857170105
1.927364110946655 0.5717554092407227 0.5992655754089355
1.890572309494019 0.6938796043395996 0.6606892347335815
1.890572309494019 0.5337935090065002 0.6606892347335815
1.90446925163269 0.5014486312866211 0.5984953641891479
1.90446925163269 0.7262244820594788 0.5984953641891479
1.860723257064819 0.5722314715385437 0.7130243182182312
1.860723257064819 0.6554416418075562 0.7130243182182312
1.817194223403931 0.6138365268707275 0.7515165209770203
1.434669494628906 0.5717554092407227 0.5992655754089355
1.460677146911621 0.6138365268707275 0.6673542857170105
1.434669494628906 0.6559177041053772 0.5992655754089355
1.421992063522339 0.6138365268707275 0.5311768651008606
1.471461296081543 0.5337935090065002 0.6606892347335815
1.471461296081543 0.6938796043395996 0.6606892347335815
1.431850910186768 0.6846193671226501 0.5311768651008606
1.457564353942871 0.7262244820594788 0.5984953641891479
1.457564353942871 0.5014486312866211 0.5984953641891479
1.431850910186768 0.5430536866188049 0.5311768651008606
1.501310348510742 0.6554416418075562 0.7130243182182312
1.501310348510742 0.5722314715385437 0.7130243182182312
1.544839382171631 0.6138365268707275 0.7515165209770203
1.434669494628906 0.6559177041053772 0.463088184595108
1.460677146911621 0.6138365268707275 0.3949994742870331
1.434669494628906 0.5717554092407227 0.463088184595108
1.471461296081543 0.6938796043395996 0.4016644358634949
1.471461296081543 0.5337935090065002 0.4016644358634949
1.457564353942871 0.5014486312866211 0.4638583958148956
1.457564353942871 0.7262244820594788 0.4638583958148956
1.501310348510742 0.5722314715385437 0.3493294417858124
1.501310348510742 0.6554416418075562 0.3493294417858124
1.544839382171631 0.6138365268707275 0.3108371794223785
1.638935804367065 0.5457478165626526 0.7775240540504456
1.68101692199707 0.4776591658592224 0.7515165209770203
1.723098039627075 0.5457478165626526 0.7775240540504456
1.68101692199707 0.6138365268707275 0.7902016639709473
1.600973844528198 0.4843241572380066 0.7407323718070984
1.761059999465942 0.4843241572380066 0.7407323718070984
1.751799583435059 0.6138365268707275 0.7803427577018738
1.793404817581177 0.546518087387085 0.754629373550415
1.568628787994385 0.546518087387085 0.754629373550415
1.610234022140503 0.6138365268707275 0.7803427577018738
1.722621917724609 0.4319891333580017 0.7108832001686096
1.639411687850952 0.4319891333580017 0.7108832001686096
1.723098039627075 0.6819252371788025 0.7775240540504456
1.68101692199707 0.7500139474868774 0.7515165209770203
1.638935804367065 0.6819252371788025 0.7775240540504456
1.761059999465942 0.7433488965034485 0.7407323718070984
1.600973844528198 0.7433488965034485 0.7407323718070984
1.568628787994385 0.6811550259590149 0.754629373550415
1.793404817581177 0.6811550259590149 0.754629373550415
1.639411687850952 0.7956839799880981 0.7108832001686096
1.722621917724609 0.7956839799880981 0.7108832001686096
1.638935804367065 0.6819252371788025 0.2848296165466309
1.68101692199707 0.7500139474868774 0.3108372092247009
1.723098039627075 0.6819252371788025 0.2848296165466309
1.68101692199707 0.6138365268707275 0.2721520364284515
1.600973844528198 0.7433488965034485 0.3216213881969452
1.761059999465942 0.7433488965034485 0.3216213881969452
1.751799583435059 0.6138365268707275 0.2820109724998474
1.793404817581177 0.6811550259590149 0.3077243566513062
1.568628787994385 0.6811550259590149 0.3077243566513062
1.610234022140503 0.6138365268707275 0.2820109724998474
1.722621917724609 0.7956839799880981 0.3514705300331116
1.639411687850952 0.7956839799880981 0.3514705300331116
1.723098039627075 0.5457478165626526 0.2848296165466309
1.68101692199707 0.4776591658592224 0.3108372092247009
1.638935804367065 0.5457478165626526 0.2848296165466309
1.761059999465942 0.4843241572380066 0.3216213881969452
1.600973844528198 0.4843241572380066 0.3216213881969452
1.568628787994385 0.546518087387085 0.3077243566513062
1.793404817581177 0.546518087387085 0.3077243566513062
1.639411687850952 0.4319891333580017 0.3514705300331116
1.722621917724609 0.4319891333580017 0.3514705300331116
1.8332679271698 0.7240063548088074 0.7094354033470154
1.859275341033936 0.766087532043457 0.6413466930389404
1.791186809539795 0.7920950651168823 0.6834278702735901
1.502758264541626 0.766087532043457 0.6413466930389404
1.528765916824341 0.7240063548088074 0.7094354033470154
1.570846796035767 0.7920950651168823 0.6834278702735901
1.859275341033936 0.766087532043457 0.4210070371627808
1.8332679271698 0.7240063548088074 0.3529182970523834
1.791186809539795 0.7920950651168823 0.3789258897304535
1.528765916824341 0.7240063548088074 0.3529182970523834
1.502758264541626 0.766087532043457 0.4210070371627808
1.570846796035767 0.7920950651168823 0.3789258897304535
1.859275341033936 0.4615855813026428 0.6413466930389404
1.8332679271698 0.5036666989326477 0.7094354033470154
1.791186809539795 0.4355779886245728 0.6834278702735901
1.528765916824341 0.5036666989326477 0.7094354033470154
1.502758264541626 0.4615855813026428 0.6413466930389404
1.570846796035767 0.4355779886245728 0.6834278702735901
1.8332679271698 0.5036666989326477 0.3529182970523834
1.859275341033936 0.4615855813026428 0.4210070371627808
1.791186809539795 0.4355779886245728 0.3789258897304535
1.502758264541626 0.4615855813026428 0.4210070371627808
1.528765916824341 0.5036666989326477 0.3529182970523834
1.570846796035767 0.4355779886245728 0.3789258897304535
3 1 0 43
163
164
165
166
167
168
169
170
171
172
173
174
175
176
177
178
179
180
181
182
183
184
185
186
187
188
189
190
191
192
193
194
195
196
197
198
199
200
201
202
203
204
205
1.681017114486766 0.6138363773229722 0.5311772754067772
1.593960893525422 0.6138365566730499 0.4327297028617765
1.582381526399668 0.7005882077914646 0.530684648085564
1.680681019311335 0.7124120030524724 0.444328484110948
1.582381367887681 0.5270849335238337 0.5306844721709046
1.680680871374322 0.5152608620914185 0.4443285727600537
1.766051358748162 0.6138363627349817 0.4314801966471242
1.78008193759612 0.6998931322748813 0.5295597355894988
1.780081998667642 0.5277798532078316 0.5295598128631538
1.681762200138456 0.7146074720419445 0.6144734258399992
1.62761330731896 0.6004784290108457 0.6504228121291852
1.766755639936085 0.6159683225354912 0.6304386174878125
1.681734055936621 0.4993323852638545 0.6010699773523256
1.537478923310875 0.613836556226778 0.5853780783842331
1.83669771061878 0.6138365227595178 0.5516748738351146
1.679593421717716 0.594293471096952 0.375267533088565
1.702831997050427 0.7705196782413215 0.528528003409478
1.584676001039266 0.6907903216221932 0.6316067718664772
1.659368200620611 0.450883604858092 0.5171131780664545
1.775752516427264 0.5169363284651749 0.6283342109514074
1.58863200746588 0.5137642755600351 0.6273938711288137
1.778721986389482 0.7128536318638787 0.6263921004989661
1.77775798109212 0.5167249677215511 0.4323955480048195
1.777758075282035 0.7109476933539951 0.4323954837253043
1.583331963981678 0.7112366984106224 0.433289670629933
1.583331924717088 0.5164365020973042 0.4332895728508681
1.701637638824858 0.5470876251807425 0.6830223755711609
1.69891747466433 0.654065549782439 0.6880295406857161
1.516972420345458 0.6138365566730499 0.4910166585860962
1.617683400579284 0.769254711148105 0.5793287612180066
1.83711246514978 0.5735055174834297 0.4705720463460991
1.621753492662803 0.7702317936475943 0.489398966864811
1.720743236888414 0.6738834783149602 0.3740437366936085
1.739781203727187 0.4529777999653227 0.5534195071621096
1.839315681567125 0.6624265964701828 0.4746416477130231
1.629571668935112 0.6673549267056693 0.3717355759989049
1.59602024825406 0.6110710542824384 0.5232470191820888
1.696419781859113 0.5316188731066315 0.5250687511285856
1.665714469668501 0.6959080459787791 0.5346319196367103
1.695286572469473 0.5811560571698737 0.6062362781732697
1.733983747365923 0.455571693397643 0.4697072961807157
1.762404911047911 0.6198956145011456 0.514482549326737
1.686726896417742 0.6298250886463611 0.4499347911958866
$EndNodes
$Elements
2 977 1 977
2 1 2 320
1 1 2 3 
2 5 2 1 
3 4 1 3 
4 4 11 1 
5 5 1 10 
6 10 1 11 
7 6 3 2 
8 5 14 2 
9 6 2 13 
10 13 2 14 
11 4 3 7 
12 6 8 3 
13 7 3 8 
14 4 7 16 
15 4 18 11 
16 4 16 18 
17 5 10 141 
18 5 140 14 
19 5 141 140 
20 6 147 8 
21 6 13 145 
22 6 145 147 
23 9 7 8 
24 9 22 7 
25 22 16 7 
26 9 8 128 
27 8 147 128 
28 9 129 22 
29 9 128 129 
30 12 10 11 
31 12 117 10 
32 117 141 10 
33 12 11 21 
34 11 18 21 
35 12 21 116 
36 12 116 117 
37 15 13 14 
38 15 58 13 
39 58 145 13 
40 15 14 70 
41 14 140 70 
42 15 57 58 
43 15 70 57 
44 16 17 18 
45 19 17 16 
46 19 16 22 
47 20 18 17 
48 19 24 17 
49 20 17 23 
50 23 17 24 
51 20 21 18 
52 19 22 150 
53 19 149 24 
54 19 150 149 
55 20 144 21 
56 20 23 142 
57 20 142 144 
58 21 144 116 
59 129 150 22 
60 25 23 24 
61 25 81 23 
62 81 142 23 
63 25 24 93 
64 24 149 93 
65 25 80 81 
66 25 93 80 
67 26 27 28 
68 30 27 26 
69 29 26 28 
70 29 36 26 
71 30 26 35 
72 35 26 36 
73 31 28 27 
74 30 39 27 
75 31 27 38 
76 38 27 39 
77 29 28 32 
78 31 33 28 
79 32 28 33 
80 29 32 41 
81 29 43 36 
82 29 41 43 
83 30 35 159 
84 30 158 39 
85 30 159 158 
86 31 153 33 
87 31 38 151 
88 31 151 153 
89 34 32 33 
90 34 47 32 
91 47 41 32 
92 34 33 107 
93 33 153 107 
94 34 108 47 
95 34 107 108 
96 37 35 36 
97 37 138 35 
98 138 159 35 
99 37 36 46 
100 36 43 46 
101 37 46 137 
102 37 137 138 
103 40 38 39 
104 40 69 38 
105 69 151 38 
106 40 39 59 
107 39 158 59 
108 40 59 60 
109 40 60 69 
110 41 42 43 
111 44 42 41 
112 44 41 47 
113 45 43 42 
114 44 49 42 
115 45 42 48 
116 48 42 49 
117 45 46 43 
118 44 47 156 
119 44 155 49 
120 44 156 155 
121 45 162 46 
122 45 48 160 
123 45 160 162 
124 46 162 137 
125 108 156 47 
126 50 48 49 
127 50 92 48 
128 92 160 48 
129 50 49 82 
130 49 155 82 
131 50 82 83 
132 50 83 92 
133 51 52 53 
134 55 52 51 
135 54 51 53 
136 54 60 51 
137 55 51 59 
138 59 51 60 
139 56 53 52 
140 55 62 52 
141 56 52 61 
142 61 52 62 
143 54 53 57 
144 56 58 53 
145 57 53 58 
146 54 57 64 
147 54 66 60 
148 54 64 66 
149 55 59 158 
150 55 157 62 
151 55 158 157 
152 56 145 58 
153 56 61 146 
154 56 146 145 
155 70 64 57 
156 60 66 69 
157 63 61 62 
158 63 125 61 
159 125 146 61 
160 63 62 136 
161 62 157 136 
162 63 124 125 
163 63 136 124 
164 64 65 66 
165 67 65 64 
166 67 64 70 
167 68 66 65 
168 67 72 65 
169 68 65 71 
170 71 65 72 
171 68 69 66 
172 67 70 140 
173 67 139 72 
174 67 140 139 
175 68 151 69 
176 68 71 152 
177 68 152 151 
178 73 71 72 
179 73 104 71 
180 104 152 71 
181 73 72 115 
182 72 139 115 
183 73 103 104 
184 73 115 103 
185 74 75 76 
186 78 75 74 
187 77 74 76 
188 77 83 74 
189 78 74 82 
190 82 74 83 
191 79 76 75 
192 78 85 75 
193 79 75 84 
194 84 75 85 
195 77 76 80 
196 79 81 76 
197 80 76 81 
198 77 80 87 
199 77 89 83 
200 77 87 89 
201 78 82 155 
202 78 154 85 
203 78 155 154 
204 79 142 81 
205 79 84 143 
206 79 143 142 
207 93 87 80 
208 83 89 92 
209 86 84 85 
210 86 114 84 
211 114 143 84 
212 86 85 105 
213 85 154 105 
214 86 105 106 
215 86 106 114 
216 87 88 89 
217 90 88 87 
218 90 87 93 
219 91 89 88 
220 90 95 88 
221 91 88 94 
222 94 88 95 
223 91 92 89 
224 90 93 149 
225 90 148 95 
226 90 149 148 
227 91 160 92 
228 91 94 161 
229 91 161 160 
230 96 94 95 
231 96 135 94 
232 135 161 94 
233 96 95 126 
234 95 148 126 
235 96 126 127 
236 96 127 135 
237 97 98 99 
238 101 98 97 
239 100 97 99 
240 100 106 97 
241 101 97 105 
242 105 97 106 
243 102 99 98 
244 101 108 98 
245 102 98 107 
246 107 98 108 
247 100 99 103 
248 102 104 99 
249 103 99 104 
250 100 103 109 
251 100 111 106 
252 100 109 111 
253 101 105 154 
254 101 156 108 
255 101 154 156 
256 102 152 104 
257 102 107 153 
258 102 153 152 
259 115 109 103 
260 106 111 114 
261 109 110 111 
262 112 110 109 
263 112 109 115 
264 113 111 110 
265 112 117 110 
266 113 110 116 
267 116 110 117 
268 113 114 111 
269 112 115 139 
270 112 141 117 
271 112 139 141 
272 113 143 114 
273 113 116 144 
274 113 144 143 
275 118 119 120 
276 122 119 118 
277 121 118 120 
278 121 127 118 
279 122 118 126 
280 126 118 127 
281 123 120 119 
282 122 129 119 
283 123 119 128 
284 128 119 129 
285 121 120 124 
286 123 125 120 
287 124 120 125 
288 121 124 130 
289 121 132 127 
290 121 130 132 
291 122 126 148 
292 122 150 129 
293 122 148 150 
294 123 146 125 
295 123 128 147 
296 123 147 146 
297 136 130 124 
298 127 132 135 
299 130 131 132 
300 133 131 130 
301 133 130 136 
302 134 132 131 
303 133 138 131 
304 134 131 137 
305 137 131 138 
306 134 135 132 
307 133 136 157 
308 133 159 138 
309 133 157 159 
310 134 161 135 
311 134 137 162 
312 134 162 161 
313 139 140 141 
314 142 143 144 
315 145 146 147 
316 148 149 150 
317 151 152 153 
318 154 155 156 
319 157 158 159 
320 160 161 162 
3 1 4 657
321 175 181 47 183 
322 44 181 167 183 
323 44 47 181 183 
324 44 47 41 181 
325 44 42 167 181 
326 68 174 177 182 
327 96 164 135 178 
328 96 164 178 198 
329 80 25 81 165 
330 83 82 50 167 
331 57 70 15 170 
332 69 60 40 171 
333 93 25 80 165 
334 83 50 92 167 
335 168 133 178 185 
336 170 5 179 184 
337 67 177 174 184 
338 103 174 73 189 
339 9 166 8 179 
340 86 85 84 173 
341 68 174 65 177 
342 96 178 127 198 
343 96 135 127 178 
344 168 178 134 188 
345 73 174 104 189 
346 124 136 63 169 
347 69 68 177 182 
348 2 170 5 179 
349 133 131 168 178 
350 69 177 171 182 
351 80 165 81 176 
352 82 167 83 176 
353 67 65 174 177 
354 113 180 172 190 
355 84 173 85 176 
356 6 170 179 186 
357 136 178 133 185 
358 131 134 168 178 
359 103 73 104 189 
360 11 10 12 172 
361 67 70 177 184 
362 10 179 5 184 
363 7 9 8 179 
364 136 169 178 185 
365 10 172 179 184 
366 57 170 15 197 
367 114 180 113 190 
368 170 177 70 184 
369 173 199 180 201 
370 135 134 178 188 
371 6 170 2 179 
372 114 173 180 190 
373 135 178 164 188 
374 163 199 173 201 
375 113 172 110 190 
376 114 113 111 190 
377 173 176 84 180 
378 165 176 80 191 
379 83 176 167 191 
380 86 173 84 180 
381 8 6 179 186 
382 8 179 166 186 
383 45 167 181 188 
384 45 167 42 181 
385 70 170 57 177 
386 69 60 171 177 
387 86 114 173 180 
388 172 174 170 184 
389 167 176 82 183 
390 60 40 171 193 
391 103 73 174 190 
392 173 180 172 201 
393 136 169 124 178 
394 85 176 173 183 
395 93 165 80 191 
396 83 167 92 191 
397 11 10 172 179 
398 124 169 63 195 
399 81 176 165 180 
400 113 116 110 172 
401 163 173 172 201 
402 93 187 165 191 
403 92 167 188 191 
404 12 11 172 192 
405 57 177 170 197 
406 114 111 173 190 
407 116 172 113 180 
408 44 41 42 181 
409 37 168 46 181 
410 174 189 103 190 
411 86 84 114 180 
412 71 65 68 174 
413 136 130 133 178 
414 172 163 174 202 
415 112 172 184 190 
416 164 199 168 205 
417 14 5 2 170 
418 172 173 163 202 
419 112 172 117 184 
420 101 183 173 189 
421 112 117 172 190 
422 10 1 5 179 
423 108 175 183 189 
424 71 174 68 182 
425 164 188 168 199 
426 78 176 85 183 
427 168 188 167 199 
428 60 171 177 193 
429 97 101 173 189 
430 90 164 187 191 
431 91 188 164 191 
432 165 164 187 201 
433 100 97 173 189 
434 187 201 164 205 
435 115 174 73 190 
436 100 189 173 190 
437 78 82 176 183 
438 46 181 168 188 
439 44 42 49 167 
440 114 111 106 173 
441 124 178 169 195 
442 72 67 65 174 
443 5 170 14 184 
444 90 88 164 191 
445 91 164 88 191 
446 131 138 133 168 
447 168 199 167 200 
448 6 13 2 170 
449 100 97 106 173 
450 164 165 199 201 
451 45 48 42 167 
452 134 137 131 168 
453 67 70 64 177 
454 69 68 66 177 
455 95 90 88 164 
456 91 94 88 164 
457 172 180 116 192 
458 73 71 104 174 
459 11 179 172 192 
460 108 183 101 189 
461 70 14 15 170 
462 69 40 38 171 
463 105 97 101 173 
464 167 183 175 202 
465 37 168 181 203 
466 164 201 199 205 
467 132 135 134 178 
468 38 69 171 182 
469 25 23 81 165 
470 50 82 49 167 
471 90 187 93 191 
472 92 188 91 191 
473 46 45 181 188 
474 9 128 8 166 
475 94 135 96 164 
476 100 173 106 190 
477 104 174 71 182 
478 111 106 173 190 
479 44 167 49 183 
480 62 63 136 169 
481 49 167 82 183 
482 138 133 168 185 
483 46 37 137 168 
484 114 106 86 173 
485 23 180 165 192 
486 67 174 72 184 
487 24 25 93 165 
488 50 48 92 167 
489 13 170 6 186 
490 48 167 45 188 
491 90 164 95 187 
492 91 94 164 188 
493 133 130 131 178 
494 137 168 134 188 
495 85 173 105 183 
496 10 117 12 172 
497 166 201 187 205 
498 86 105 85 173 
499 12 172 116 192 
500 115 72 174 184 
501 105 173 101 183 
502 144 116 180 192 
503 115 72 73 174 
504 167 175 200 202 
505 14 170 70 184 
506 174 182 104 189 
507 8 166 128 186 
508 137 46 168 188 
509 117 172 10 184 
510 24 165 93 187 
511 92 167 48 188 
512 94 135 164 188 
513 62 169 136 185 
514 115 184 174 190 
515 131 132 134 178 
516 33 175 107 182 
517 84 85 75 176 
518 67 64 65 177 
519 68 65 66 177 
520 110 172 117 190 
521 2 5 1 179 
522 34 47 108 175 
523 169 186 61 195 
524 34 108 107 175 
525 39 185 171 193 
526 167 181 175 183 
527 3 8 6 179 
528 23 142 180 192 
529 34 32 47 175 
530 74 82 83 176 
531 80 81 76 176 
532 108 107 175 189 
533 107 33 34 175 
534 79 176 81 180 
535 33 32 34 175 
536 165 180 199 201 
537 108 175 47 183 
538 85 105 154 183 
539 169 168 185 200 
540 129 187 166 194 
541 21 12 116 192 
542 13 15 170 197 
543 169 200 185 204 
544 39 196 171 203 
545 168 200 169 205 
546 173 183 176 199 
547 112 110 117 190 
548 170 201 166 205 
549 115 139 72 184 
550 6 2 3 179 
551 155 49 82 183 
552 170 204 201 205 
553 185 200 171 204 
554 27 196 39 203 
555 166 186 170 205 
556 176 183 167 199 
557 38 151 69 182 
558 95 164 96 198 
559 107 182 175 189 
560 186 204 170 205 
561 171 185 39 203 
562 12 117 116 172 
563 38 182 171 196 
564 103 115 73 190 
565 169 200 204 205 
566 175 182 33 196 
567 63 62 61 169 
568 73 72 71 174 
569 13 170 186 197 
570 13 15 14 170 
571 40 39 38 171 
572 176 180 173 199 
573 37 46 36 181 
574 25 24 23 165 
575 50 49 48 167 
576 129 128 9 166 
577 37 138 137 168 
578 129 166 187 198 
579 95 94 96 164 
580 152 104 71 182 
581 79 84 176 180 
582 106 105 86 173 
583 116 117 110 172 
584 37 181 36 203 
585 112 184 115 190 
586 119 166 129 198 
587 61 186 169 197 
588 61 169 52 197 
589 160 92 48 188 
590 24 93 149 187 
591 137 162 46 188 
592 32 175 33 196 
593 95 187 164 198 
594 13 58 15 197 
595 144 116 113 180 
596 141 117 10 184 
597 94 161 135 188 
598 147 8 128 186 
599 61 62 52 169 
600 32 181 175 196 
601 37 138 168 203 
602 11 1 10 179 
603 31 182 38 196 
604 169 185 62 193 
605 113 110 111 190 
606 171 202 174 204 
607 171 177 174 182 
608 71 72 65 174 
609 24 165 187 194 
610 33 107 153 182 
611 62 136 157 185 
612 14 2 13 170 
613 136 124 130 178 
614 52 169 62 193 
615 128 186 166 195 
616 172 174 190 202 
617 108 101 98 189 
618 17 23 24 165 
619 49 42 48 167 
620 119 128 129 166 
621 137 138 131 168 
622 30 39 185 203 
623 95 88 94 164 
624 106 97 105 173 
625 140 14 70 184 
626 172 190 173 202 
627 23 165 17 192 
628 45 42 43 181 
629 138 185 168 203 
630 174 177 170 184 
631 77 176 83 191 
632 77 80 176 191 
633 17 165 24 194 
634 168 178 169 185 
635 169 193 52 197 
636 128 166 119 195 
637 170 179 172 184 
638 13 186 145 197 
639 70 57 64 177 
640 69 66 60 177 
641 164 178 168 188 
642 79 84 75 176 
643 85 78 75 176 
644 119 195 166 198 
645 166 179 170 186 
646 78 82 74 176 
647 76 81 79 176 
648 129 187 122 198 
649 174 171 182 202 
650 174 177 171 204 
651 74 83 77 176 
652 80 76 77 176 
653 132 127 135 178 
654 173 199 163 202 
655 108 98 107 189 
656 165 187 164 191 
657 100 103 189 190 
658 17 192 165 194 
659 30 27 39 203 
660 179 192 4 194 
661 168 181 167 188 
662 95 96 126 198 
663 154 78 85 183 
664 46 45 43 181 
665 95 148 187 198 
666 108 47 156 183 
667 61 56 186 197 
668 144 21 116 192 
669 78 155 82 183 
670 7 8 3 179 
671 164 168 178 205 
672 18 4 192 194 
673 169 204 186 205 
674 92 91 89 191 
675 90 93 87 191 
676 165 191 164 199 
677 24 187 19 194 
678 170 179 166 201 
679 170 177 174 204 
680 172 180 173 190 
681 102 182 107 189 
682 23 20 142 192 
683 167 181 168 200 
684 13 145 58 197 
685 60 59 40 193 
686 55 62 185 193 
687 163 174 202 204 
688 31 33 182 196 
689 104 182 102 189 
690 128 123 186 195 
691 172 179 170 201 
692 169 178 168 205 
693 142 79 81 180 
694 125 124 63 195 
695 182 200 175 202 
696 54 193 177 197 
697 142 144 180 192 
698 103 99 100 189 
699 200 202 171 204 
700 4 179 11 192 
701 68 69 151 182 
702 139 115 112 184 
703 142 20 144 192 
704 89 83 92 191 
705 93 80 87 191 
706 165 180 176 199 
707 178 195 121 198 
708 171 200 182 202 
709 167 175 181 200 
710 53 193 54 197 
711 163 204 200 205 
712 152 71 68 182 
713 139 67 72 184 
714 7 22 9 194 
715 31 151 38 182 
716 105 101 154 183 
717 163 201 204 205 
718 111 100 106 190 
719 118 121 195 198 
720 174 184 172 190 
721 13 6 145 186 
722 158 30 39 185 
723 12 21 11 192 
724 119 129 122 198 
725 112 117 141 184 
726 95 126 148 198 
727 18 4 11 192 
728 159 185 138 203 
729 18 16 4 194 
730 199 201 163 205 
731 53 51 54 193 
732 103 104 99 189 
733 8 147 6 186 
734 131 130 132 178 
735 44 49 155 183 
736 104 152 102 182 
737 97 98 101 189 
738 31 33 153 182 
739 48 45 160 188 
740 24 149 19 187 
741 46 162 45 188 
742 91 92 160 188 
743 90 149 93 187 
744 129 150 122 187 
745 137 134 162 188 
746 64 66 65 177 
747 55 62 157 185 
748 146 61 56 186 
749 166 194 187 201 
750 165 187 194 201 
751 140 70 67 184 
752 148 90 95 187 
753 91 161 94 188 
754 161 134 135 188 
755 102 153 107 182 
756 60 177 54 193 
757 118 121 120 195 
758 128 123 147 186 
759 138 159 133 185 
760 143 114 84 180 
761 136 133 157 185 
762 10 5 141 184 
763 121 178 124 195 
764 1 3 2 179 
765 4 7 179 194 
766 29 181 32 196 
767 5 14 140 184 
768 54 177 57 197 
769 180 192 172 201 
770 76 79 75 176 
771 78 74 75 176 
772 163 202 200 204 
773 56 61 52 197 
774 156 101 108 183 
775 165 192 180 201 
776 100 99 97 189 
777 26 181 29 196 
778 76 74 77 176 
779 90 87 88 191 
780 91 88 89 191 
781 41 43 42 181 
782 114 143 113 180 
783 44 156 47 183 
784 60 54 51 193 
785 127 178 121 198 
786 26 181 196 203 
787 37 35 138 203 
788 4 16 7 194 
789 121 124 120 195 
790 57 15 58 197 
791 171 200 185 203 
792 55 185 158 193 
793 53 54 57 197 
794 146 186 123 195 
795 36 29 26 181 
796 31 38 27 196 
797 167 191 176 199 
798 168 185 200 203 
799 113 143 144 180 
800 19 17 24 194 
801 112 109 110 190 
802 150 19 187 194 
803 26 36 181 203 
804 176 191 165 199 
805 18 192 17 194 
806 112 115 109 190 
807 169 197 186 204 
808 46 43 36 181 
809 79 143 84 180 
810 170 186 197 204 
811 125 146 123 195 
812 29 41 32 181 
813 169 186 195 205 
814 127 121 118 198 
815 123 128 119 195 
816 119 118 195 198 
817 52 193 53 197 
818 166 195 186 205 
819 52 62 55 193 
820 55 158 59 193 
821 16 18 17 194 
822 103 109 115 190 
823 78 154 155 183 
824 145 186 56 197 
825 20 23 17 192 
826 150 22 19 194 
827 52 51 53 193 
828 29 32 28 196 
829 189 190 174 202 
830 122 187 148 198 
831 121 130 124 178 
832 4 1 11 179 
833 127 126 96 198 
834 32 33 28 196 
835 35 159 138 203 
836 66 54 60 177 
837 57 54 64 177 
838 75 74 76 176 
839 142 143 79 180 
840 119 118 120 195 
841 121 127 132 178 
842 151 152 68 182 
843 26 196 27 203 
844 30 185 159 203 
845 109 111 110 190 
846 132 130 121 178 
847 142 144 143 180 
848 64 54 66 177 
849 7 3 4 179 
850 141 139 112 184 
851 31 153 151 182 
852 98 102 107 189 
853 173 190 189 202 
854 30 26 27 203 
855 28 26 29 196 
856 182 189 174 202 
857 1 4 3 179 
858 139 140 67 184 
859 102 152 153 182 
860 145 6 147 186 
861 30 158 159 185 
862 156 154 101 183 
863 157 158 55 185 
864 145 146 56 186 
865 111 109 100 190 
866 160 45 162 188 
867 149 150 19 187 
868 90 148 149 187 
869 91 160 161 188 
870 155 156 44 183 
871 148 122 150 187 
872 134 161 162 188 
873 145 56 58 197 
874 175 189 182 202 
875 100 109 103 190 
876 123 146 147 186 
877 159 157 133 185 
878 77 83 89 191 
879 77 87 80 191 
880 37 36 35 203 
881 5 140 141 184 
882 126 122 148 198 
883 99 104 102 189 
884 177 193 171 204 
885 172 192 179 201 
886 29 43 41 181 
887 60 51 59 193 
888 21 144 20 192 
889 97 99 98 189 
890 178 198 164 205 
891 179 194 166 201 
892 120 124 125 195 
893 119 122 118 198 
894 18 11 21 192 
895 166 198 195 205 
896 171 196 200 203 
897 16 22 7 194 
898 192 194 179 201 
899 89 88 87 191 
900 169 195 178 205 
901 56 52 53 197 
902 193 197 169 204 
903 195 198 178 205 
904 170 197 177 204 
905 33 31 28 196 
906 175 196 181 200 
907 165 194 192 201 
908 98 99 102 189 
909 181 200 196 203 
910 27 26 28 196 
911 181 168 200 203 
912 154 156 155 183 
913 153 152 151 182 
914 17 19 16 194 
915 177 197 193 204 
916 36 43 29 181 
917 17 18 20 192 
918 55 51 52 193 
919 123 119 120 195 
920 89 87 77 191 
921 35 30 159 203 
922 141 140 139 184 
923 31 27 28 196 
924 147 146 145 186 
925 159 158 157 185 
926 160 162 161 188 
927 148 150 149 187 
928 53 57 58 197 
929 127 118 126 198 
930 26 35 36 203 
931 55 59 51 193 
932 120 125 123 195 
933 19 22 16 194 
934 18 21 20 192 
935 58 56 53 197 
936 118 122 126 198 
937 26 30 35 203 
938 179 9 194 7 
939 179 194 9 166 
940 181 47 32 175 
941 181 32 47 41 
942 180 23 81 142 
943 180 81 23 165 
944 199 183 202 173 
945 199 202 183 167 
946 195 61 63 125 
947 195 63 61 169 
948 193 39 40 171 
949 193 40 39 59 
950 196 39 38 27 
951 196 38 39 171 
952 194 129 9 166 
953 194 9 129 22 
954 204 174 172 163 
955 172 174 204 170 
956 172 201 204 163 
957 204 201 172 170 
958 193 158 39 185 
959 193 39 158 59 
960 194 150 129 187 
961 194 129 150 22 
962 205 200 199 168 
963 205 199 200 163 
964 185 204 193 169 
965 193 204 185 171 
966 200 199 202 163 
967 200 202 199 167 
968 199 188 191 164 
969 199 191 188 167 
970 182 200 196 175 
971 196 200 182 171 
972 187 205 198 166 
973 198 205 187 164 
974 195 146 61 125 
975 195 61 146 186 
976 183 202 189 175 
977 189 202 183 173 
$EndElements
