$MeshFormat
4.1 0 8
$EndMeshFormat
$Entities
0 0 1 1
1 0.409620702 -0.001171812419999974 0.554445207 1.59887266 0.604834795 0.815332413 0 0 
1 0.409620702 -0.001171812419999974 0.554445207 1.59887266 0.604834795 0.815332413 0 1 1 
$EndEntities
$Nodes
2 562 1 562
2 1 0 557
1
2
3
4
5
6
7
8
9
10
11
12
13
14
15
16
17
18
19
20
21
22
23
24
25
26
27
28
29
30
31
32
33
34
35
36
37
38
39
40
41
42
43
44
45
46
47
48
49
50
51
52
53
54
55
56
57
58
59
60
61
62
63
64
65
66
67
68
69
70
71
72
73
74
75
76
77
78
79
80
81
82
83
84
85
86
87
88
89
90
91
92
93
94
95
96
97
98
99
100
101
102
103
104
105
106
107
108
109
110
111
112
113
114
115
116
117
118
119
120
121
122
123
124
125
126
127
128
129
130
131
132
133
134
135
136
137
138
139
140
141
142
143
144
145
146
147
148
149
150
151
152
153
154
155
156
157
158
159
160
161
162
163
164
165
166
167
168
169
170
171
172
173
174
175
176
177
178
179
180
181
182
183
184
185
186
187
188
189
190
191
192
193
194
195
196
197
198
199
200
201
202
203
204
205
206
207
208
209
210
211
212
213
214
215
216
217
218
219
220
221
222
223
224
225
226
227
228
229
230
231
232
233
234
235
236
237
238
239
240
241
242
243
244
245
246
247
248
249
250
251
252
253
254
255
256
257
258
259
260
261
262
263
264
265
266
267
268
269
270
271
272
273
274
275
276
277
278
279
280
281
282
283
284
285
286
287
288
289
290
291
292
293
294
295
296
297
298
299
300
301
302
303
304
305
306
307
308
309
310
311
312
313
314
315
316
317
318
319
320
321
322
323
324
325
326
327
328
329
330
331
332
333
334
335
336
337
338
339
340
341
342
343
344
345
346
347
348
349
350
351
352
353
354
355
356
357
358
359
360
361
362
363
364
365
366
367
368
369
370
371
372
373
374
375
376
377
378
379
380
381
382
383
384
385
386
387
388
389
390
391
392
393
394
395
396
397
398
399
400
401
402
403
404
405
406
407
408
409
410
411
412
413
414
415
416
417
418
419
420
421
422
423
424
425
426
427
428
429
430
431
432
433
434
435
436
437
438
439
440
441
442
443
444
445
446
447
448
449
450
451
452
453
454
455
456
457
458
459
460
461
462
463
464
465
466
467
468
469
470
471
472
473
474
475
476
477
478
479
480
481
482
483
484
485
486
487
488
489
490
491
492
493
494
495
496
497
498
499
500
501
502
503
504
505
506
507
508
509
510
511
512
513
514
515
516
517
518
519
520
521
522
523
524
525
526
527
528
529
530
531
532
533
534
535
536
537
538
539
540
541
542
543
544
545
546
547
548
549
550
551
552
553
554
555
556
557
0.409620702 0.401127696 0.554445207
0.409620702 0.604834795 0.815332413
0.409620702 0.604834795 0.554445207
0.409620702 0.401127696 0.815332413
1.3121748 -0.00117181242 0.554445207
1.3121748 -0.00117181242 0.815332413
0.696318507 -0.00117181242 0.554445207
0.696318507 -0.00117181242 0.815332413
1.34932804 0.463998199 0.554445207
1.34672928 0.464707613 0.554445207
1.59887266 0.604834795 0.554445207
1.34419656 0.465379596 0.554445207
1.35199285 0.463226676 0.554445207
1.35996521 0.460700393 0.554445207
1.35597897 0.462019563 0.554445207
1.37974191 0.452748239 0.554445207
1.37582183 0.45450294 0.554445207
1.37190175 0.456182957 0.554445207
1.36793756 0.457775891 0.554445207
1.36395133 0.459281683 0.554445207
1.22941172 0.0942416042 0.554445207
1.237252 0.092101112 0.554445207
1.21421576 0.09915724400000001 0.554445207
1.2217257 0.09659364820000001 0.554445207
1.43202496 0.417367995 0.554445207
1.43429339 0.414928794 0.554445207
1.42960238 0.419794679 0.554445207
1.38740611 0.449002385 0.554445207
1.39117205 0.447036147 0.554445207
1.4020735 0.44076401 0.554445207
1.4055531 0.438573718 0.554445207
1.40894473 0.436333716 0.554445207
1.41224813 0.434056342 0.554445207
1.39852774 0.442904472 0.554445207
1.39489388 0.444995165 0.554445207
1.38359606 0.450906396 0.554445207
1.41544151 0.431741595 0.554445207
1.42702579 0.422221422 0.554445207
1.42431688 0.424635708 0.554445207
1.42147589 0.42702508 0.554445207
1.41852486 0.429401994 0.554445207
1.59887266 0.400829017 0.554445207
1.4470228 0.400829017 0.554445207
1.33210588 0.468055189 0.554445207
1.3296833 0.468465865 0.554445207
1.32726073 0.468839228 0.554445207
1.32479417 0.469187677 0.554445207
1.32226145 0.469498813 0.554445207
1.33448434 0.467594743 0.554445207
1.33688486 0.467109442 0.554445207
1.33928537 0.466574311 0.554445207
1.34173 0.466001868 0.554445207
1.31968474 0.469772577 0.554445207
0.621836126 0.45044595 0.815332413
0.618070126 0.448504567 0.554445207
0.621836126 0.45044595 0.554445207
0.625668168 0.452312708 0.815332413
0.625668168 0.452312708 0.554445207
0.629566252 0.454104722 0.815332413
0.629566252 0.454104722 0.554445207
0.6335084439999999 0.455834508 0.815332413
0.6335084439999999 0.455834508 0.554445207
1.316998 0.470009029 0.554445207
1.31424499 0.470220566 0.554445207
0.637516618 0.457477212 0.815332413
0.637516618 0.457477212 0.554445207
0.641568899 0.459045231 0.815332413
0.641568899 0.459045231 0.554445207
0.645643175 0.460526168 0.554445207
1.29856455 0.470892608 0.554445207
1.30200016 0.470805466 0.554445207
0.575807691 0.416135967 0.815332413
0.561999142 0.399335623 0.815332413
0.575807691 0.416135967 0.554445207
0.577987969 0.418674707 0.815332413
0.577987969 0.418674707 0.554445207
1.31138206 0.470407248 0.554445207
1.30838692 0.470569015 0.554445207
1.30525959 0.470693469 0.554445207
0.580344439 0.421188474 0.815332413
0.580344439 0.421188474 0.554445207
0.582833052 0.423677444 0.815332413
0.582833052 0.423677444 0.554445207
0.585475862 0.4261415 0.815332413
0.585475862 0.4261415 0.554445207
0.588228762 0.428580642 0.815332413
0.588228762 0.428580642 0.554445207
1.37190175 0.456182957 0.815332413
1.59887266 0.604834795 0.815332413
1.36793756 0.457775891 0.815332413
1.37582183 0.45450294 0.815332413
1.37974191 0.452748239 0.815332413
1.38359606 0.450906396 0.815332413
1.38740611 0.449002385 0.815332413
1.39117205 0.447036147 0.815332413
1.2784133 0.471066833 0.554445207
0.982223511 0.604834795 0.554445207
1.2829721 0.47102952 0.554445207
1.27008855 0.471066833 0.554445207
1.26627851 0.47102952 0.554445207
1.28717852 0.471017063 0.554445207
1.29116476 0.471004605 0.554445207
1.29495275 0.470954835 0.554445207
1.42960238 0.419794679 0.815332413
1.43202496 0.417367995 0.815332413
1.41852486 0.429401994 0.815332413
1.42147589 0.42702508 0.815332413
1.42431688 0.424635708 0.815332413
1.42702579 0.422221422 0.815332413
1.26271081 0.470967293 0.554445207
1.25929713 0.470892608 0.554445207
1.25608182 0.470768154 0.554445207
1.25299859 0.470618844 0.554445207
1.33448434 0.467594743 0.815332413
1.33210588 0.468055189 0.815332413
1.33928537 0.466574311 0.815332413
1.33688486 0.467109442 0.815332413
1.32479417 0.469187677 0.815332413
1.32226145 0.469498813 0.815332413
1.24718451 0.470208168 0.554445207
1.25002539 0.470432162 0.554445207
1.32726073 0.468839228 0.815332413
1.3296833 0.468465865 0.815332413
1.34173 0.466001868 0.815332413
1.23370624 0.46844101 0.554445207
1.23101938 0.467943192 0.554445207
1.23637104 0.468888998 0.554445207
1.24440956 0.469946802 0.554445207
1.24170065 0.469648123 0.554445207
1.23903584 0.469287217 0.554445207
1.31968474 0.469772577 0.815332413
1.316998 0.470009029 0.815332413
1.31424499 0.470220566 0.815332413
1.22828853 0.467383206 0.554445207
1.21644008 0.464558244 0.554445207
1.21958935 0.465354681 0.554445207
1.30200016 0.470805466 0.815332413
1.30525959 0.470693469 0.815332413
1.30838692 0.470569015 0.815332413
1.29856455 0.470892608 0.815332413
1.31138206 0.470407248 0.815332413
1.22549164 0.466773391 0.554445207
1.22260654 0.466101408 0.554445207
1.26627851 0.47102952 0.815332413
1.26271081 0.470967293 0.815332413
1.21313655 0.463687122 0.554445207
1.20967901 0.462741315 0.554445207
1.28717852 0.471017063 0.815332413
1.2829721 0.47102952 0.815332413
1.2784133 0.471066833 0.815332413
1.20600104 0.461733341 0.554445207
1.29116476 0.471004605 0.815332413
1.20104587 0.460277259 0.554445207
1.19844711 0.459480822 0.554445207
1.29495275 0.470954835 0.815332413
1.24718451 0.470208168 0.815332413
1.25929713 0.470892608 0.815332413
1.25608182 0.470768154 0.815332413
1.27008855 0.471066833 0.815332413
1.25299859 0.470618844 0.815332413
1.24440956 0.469946802 0.815332413
1.20355654 0.461023927 0.554445207
1.1957823 0.458647013 0.554445207
1.19307351 0.457763433 0.554445207
1.24170065 0.469648123 0.815332413
1.23370624 0.46844101 0.815332413
1.23101938 0.467943192 0.815332413
1.25002539 0.470432162 0.815332413
1.23637104 0.468888998 0.815332413
1.16501594 0.44760859 0.554445207
1.16776884 0.448678851 0.554445207
1.23903584 0.469287217 0.815332413
1.17618167 0.451877117 0.554445207
1.17334068 0.450819314 0.554445207
1.17054379 0.44976151 0.554445207
1.17902267 0.452910006 0.554445207
1.18186367 0.453930497 0.554445207
1.18470466 0.454926074 0.554445207
1.1875236 0.455909193 0.554445207
1.19032061 0.456854999 0.554445207
1.22828853 0.467383206 0.815332413
1.22549164 0.466773391 0.815332413
1.21958935 0.465354681 0.815332413
1.21644008 0.464558244 0.815332413
1.21313655 0.463687122 0.815332413
1.22260654 0.466101408 0.815332413
1.20104587 0.460277259 0.815332413
1.19844711 0.459480822 0.815332413
1.14387369 0.438337326 0.554445207
1.11575007 0.42423743 0.554445207
0.887435734 0.42692554 0.554445207
1.14785981 0.440266252 0.554445207
1.14581168 0.439283073 0.554445207
1.20355654 0.461023927 0.815332413
1.20967901 0.462741315 0.815332413
1.20600104 0.461733341 0.815332413
1.15230858 0.442294717 0.554445207
1.15004015 0.441274226 0.554445207
1.15717566 0.444397867 0.554445207
1.15973043 0.44545567 0.554445207
0.788771868 0.466462255 0.815332413
1.16235113 0.446525931 0.554445207
1.15468705 0.443340063 0.554445207
0.815133631 0.460165262 0.815332413
0.820243001 0.45855993 0.815332413
1.1875236 0.455909193 0.815332413
0.825308323 0.456817627 0.815332413
1.18470466 0.454926074 0.815332413
1.19032061 0.456854999 0.815332413
0.809980154 0.461658657 0.815332413
1.19307351 0.457763433 0.815332413
0.804760695 0.463027537 0.815332413
1.18186367 0.453930497 0.815332413
1.1957823 0.458647013 0.815332413
0.799519181 0.46428448 0.815332413
0.794189572 0.465429366 0.815332413
1.16501594 0.44760859 0.815332413
1.16776884 0.448678851 0.815332413
0.835438967 0.452972233 0.815332413
0.885079265 0.187863007 0.554445207
0.885673881 0.194894239 0.554445207
1.11674118 0.201365486 0.554445207
0.886158407 0.202697083 0.554445207
1.17054379 0.44976151 0.815332413
1.11649883 0.207413599 0.554445207
0.886554778 0.211333677 0.554445207
1.17334068 0.450819314 0.815332413
0.830373645 0.454963386 0.815332413
1.17618167 0.451877117 0.815332413
0.886863112 0.220878765 0.554445207
1.1163007 0.214171067 0.554445207
1.17902267 0.452910006 0.815332413
0.8455476159999999 0.448604167 0.815332413
0.850634992 0.446227193 0.815332413
1.15468705 0.443340063 0.815332413
0.860897779 0.441037774 0.815332413
0.887435734 0.42692554 0.815332413
1.14387369 0.438337326 0.815332413
0.887435734 0.2843467 0.815332413
0.887413681 0.269338369 0.815332413
1.11575007 0.272835374 0.815332413
1.11575007 0.42423743 0.815332413
1.19278717 0.108104989 0.554445207
1.19974649 0.10491915 0.554445207
1.206882 0.101932421 0.554445207
0.591113806 0.430970013 0.815332413
0.591113806 0.430970013 0.554445207
0.5941309930000001 0.433334529 0.815332413
0.5941309930000001 0.433334529 0.554445207
0.59725827 0.435649216 0.815332413
0.59725827 0.435649216 0.554445207
0.600473642 0.43792665 0.815332413
0.600473642 0.43792665 0.554445207
0.603821158 0.440154195 0.815332413
0.603821158 0.440154195 0.554445207
0.60725677 0.442319572 0.815332413
0.60725677 0.442319572 0.554445207
0.610758424 0.444447637 0.815332413
0.610758424 0.444447637 0.554445207
0.614370286 0.446501017 0.815332413
0.614370286 0.446501017 0.554445207
0.618070126 0.448504567 0.815332413
0.561999142 0.399335623 0.554445207
1.17950726 0.115049124 0.554445207
1.17318654 0.11880742 0.554445207
1.18604803 0.111477494 0.554445207
1.16708612 0.122752383 0.554445207
0.485534638 0.400231659 0.554445207
0.485534638 0.400231659 0.815332413
0.887435734 0.2843467 0.554445207
0.887413681 0.269338369 0.554445207
0.887347639 0.255549669 0.554445207
0.887347639 0.255549669 0.815332413
1.11828279 0.183221146 0.554445207
1.1188333 0.179910824 0.554445207
0.982223511 0.153241858 0.554445207
0.887237489 0.242918298 0.554445207
0.887237489 0.242918298 0.815332413
1.11782026 0.186967 0.554445207
1.11740184 0.191198185 0.554445207
0.887083352 0.231382087 0.554445207
0.887083352 0.231382087 0.815332413
0.886863112 0.220878765 0.815332413
0.886554778 0.211333677 0.815332413
1.11704946 0.195989385 0.554445207
0.886158407 0.202697083 0.815332413
0.885673881 0.194894239 0.815332413
1.11942792 0.176986322 0.554445207
0.885079265 0.187863007 0.815332413
0.884374499 0.1815411 0.554445207
0.884374499 0.1815411 0.815332413
0.88353765 0.175866321 0.554445207
0.88353765 0.175866321 0.815332413
0.882546604 0.170776442 0.554445207
0.882546604 0.170776442 0.815332413
0.88140136 0.166196808 0.554445207
0.88140136 0.166196808 0.815332413
1.13140857 0.155245468 0.554445207
1.12742233 0.160522029 0.554445207
0.880101979 0.162077591 0.554445207
0.880101979 0.162077591 0.815332413
0.8786264660000001 0.158356652 0.554445207
0.8786264660000001 0.158356652 0.815332413
1.12607896 0.16242604 0.554445207
1.12484562 0.164255425 0.554445207
0.8769747020000001 0.154959247 0.554445207
0.8769747020000001 0.154959247 0.815332413
1.12013268 0.174372956 0.554445207
1.12088144 0.172045812 0.554445207
1.12174034 0.169917747 0.554445207
1.12268734 0.167939052 0.554445207
1.15023839 0.135669991 0.554445207
1.15559006 0.131189883 0.554445207
1.14512897 0.140311852 0.554445207
1.12372243 0.166084811 0.554445207
1.13570309 0.150105819 0.554445207
1.14026189 0.145127937 0.554445207
1.3121748 0.08192136880000001 0.554445207
1.28722262 0.0840245038 0.554445207
1.2700665 0.08577921989999999 0.554445207
1.27858949 0.08478364350000001 0.554445207
1.26165366 0.08701123299999999 0.554445207
1.12013268 0.174372956 0.815332413
1.25337291 0.0884796977 0.554445207
1.24524641 0.0901721716 0.554445207
1.16122794 0.126884013 0.554445207
1.16122794 0.126884013 0.815332413
1.15559006 0.131189883 0.815332413
1.15023839 0.135669991 0.815332413
1.14512897 0.140311852 0.815332413
1.14026189 0.145127937 0.815332413
1.13570309 0.150105819 0.815332413
1.11599231 0.230050489 0.815332413
1.11590421 0.239284441 0.815332413
1.11583817 0.249464199 0.815332413
1.11577213 0.260627091 0.815332413
1.3121748 0.08192136880000001 0.815332413
1.17318654 0.11880742 0.815332413
1.16708612 0.122752383 0.815332413
0.982223511 0.102268413 0.815332413
1.28722262 0.0840245038 0.815332413
1.19278717 0.108104989 0.815332413
1.19974649 0.10491915 0.815332413
1.27858949 0.08478364350000001 0.815332413
1.17950726 0.115049124 0.815332413
1.18604803 0.111477494 0.815332413
1.2700665 0.08577921989999999 0.815332413
1.26165366 0.08701123299999999 0.815332413
1.25337291 0.0884796977 0.815332413
1.11674118 0.201365486 0.815332413
1.24524641 0.0901721716 0.815332413
1.11649883 0.207413599 0.815332413
1.237252 0.092101112 0.815332413
1.22941172 0.0942416042 0.815332413
1.2217257 0.09659364820000001 0.815332413
1.1163007 0.214171067 0.815332413
1.21421576 0.09915724400000001 0.815332413
1.206882 0.101932421 0.815332413
1.11612451 0.221700117 0.815332413
0.804760695 0.463027537 0.554445207
0.809980154 0.461658657 0.554445207
0.815133631 0.460165262 0.554445207
1.12607896 0.16242604 0.815332413
1.12742233 0.160522029 0.815332413
0.820243001 0.45855993 0.554445207
1.12484562 0.164255425 0.815332413
0.825308323 0.456817627 0.554445207
1.12372243 0.166084811 0.815332413
0.830373645 0.454963386 0.554445207
1.12174034 0.169917747 0.815332413
1.12088144 0.172045812 0.815332413
0.835438967 0.452972233 0.554445207
0.840482295 0.450856626 0.815332413
0.840482295 0.450856626 0.554445207
1.11942792 0.176986322 0.815332413
0.8455476159999999 0.448604167 0.554445207
1.13140857 0.155245468 0.815332413
0.850634992 0.446227193 0.554445207
0.855744362 0.443700969 0.815332413
0.855744362 0.443700969 0.554445207
0.860897779 0.441037774 0.554445207
1.11704946 0.195989385 0.815332413
1.11740184 0.191198185 0.815332413
1.1188333 0.179910824 0.815332413
1.11782026 0.186967 0.815332413
0.728164077 0.471328139 0.554445207
0.734903157 0.471253514 0.554445207
0.728164077 0.471328139 0.815332413
0.760207772 0.470071256 0.815332413
0.754107356 0.470506787 0.554445207
0.760207772 0.470071256 0.554445207
1.15973043 0.44545567 0.815332413
1.16235113 0.446525931 0.815332413
0.766154051 0.469548583 0.815332413
0.766154051 0.469548583 0.554445207
1.15717566 0.444397867 0.815332413
0.7719681859999999 0.468926311 0.554445207
0.7719681859999999 0.468926311 0.815332413
0.777694225 0.468204558 0.815332413
0.777694225 0.468204558 0.554445207
0.783288121 0.467383206 0.554445207
0.783288121 0.467383206 0.815332413
1.15004015 0.441274226 0.815332413
1.15230858 0.442294717 0.815332413
1.14785981 0.440266252 0.815332413
1.14581168 0.439283073 0.815332413
0.799519181 0.46428448 0.554445207
0.715478659 0.471265912 0.554445207
0.715478659 0.471265912 0.815332413
0.71166873 0.471216142 0.815332413
0.719486952 0.471303284 0.554445207
0.719486952 0.471303284 0.815332413
0.723715365 0.471328139 0.815332413
0.734903157 0.471253514 0.815332413
0.741488099 0.471091747 0.815332413
0.741488099 0.471091747 0.554445207
0.747874796 0.470842838 0.554445207
0.747874796 0.470842838 0.815332413
0.754107356 0.470506787 0.815332413
0.788771868 0.466462255 0.554445207
0.794189572 0.465429366 0.554445207
0.708034873 0.471141458 0.815332413
0.71166873 0.471216142 0.554445207
0.723715365 0.471328139 0.554445207
0.704599261 0.471054375 0.554445207
0.708034873 0.471141458 0.554445207
0.692354381 0.470469475 0.554445207
0.695217371 0.470656157 0.554445207
0.701317787 0.470942378 0.554445207
0.698212504 0.470805466 0.554445207
0.689601481 0.470257938 0.554445207
0.679470778 0.46912545 0.554445207
0.681893349 0.469449043 0.554445207
0.677092314 0.468752086 0.554445207
0.684404016 0.469747663 0.554445207
0.686958671 0.470021486 0.554445207
0.670066893 0.467432976 0.554445207
0.672401369 0.467918336 0.554445207
0.674735785 0.468353868 0.554445207
0.6580863 0.464433789 0.554445207
0.660574913 0.465118289 0.554445207
0.665398002 0.466362715 0.554445207
0.667732477 0.46692276 0.815332413
0.665398002 0.466362715 0.815332413
0.653923869 0.463226676 0.554445207
0.649761558 0.461919963 0.554445207
0.667732477 0.46692276 0.554445207
0.662997484 0.465765357 0.554445207
0.875124753 0.151835606 0.815332413
0.875124753 0.151835606 0.554445207
0.873076618 0.148898676 0.554445207
0.873076618 0.148898676 0.815332413
1.11575007 0.272835374 0.554445207
1.11577213 0.260627091 0.554445207
1.11583817 0.249464199 0.554445207
0.87078619 0.146098599 0.554445207
0.87078619 0.146098599 0.815332413
0.868297577 0.143385693 0.554445207
0.868297577 0.143385693 0.815332413
0.865544677 0.140672728 0.554445207
0.865544677 0.140672728 0.815332413
0.862549543 0.137909994 0.554445207
0.862549543 0.137909994 0.815332413
0.859312117 0.135022864 0.554445207
0.859312117 0.135022864 0.815332413
0.855612218 0.13191168 0.554445207
0.855612218 0.13191168 0.815332413
0.851736128 0.128875166 0.554445207
0.851736128 0.128875166 0.815332413
0.847661853 0.125925779 0.554445207
0.808636785 0.105317369 0.815332413
0.803020835 0.103152007 0.554445207
0.803020835 0.103152007 0.815332413
0.8294927479999999 0.114912227 0.554445207
0.824515462 0.112385958 0.554445207
0.824515462 0.112385958 0.815332413
0.8294927479999999 0.114912227 0.815332413
0.819384098 0.10993436 0.554445207
0.819384098 0.10993436 0.815332413
0.814076483 0.107582316 0.815332413
0.847661853 0.125925779 0.815332413
0.843389392 0.123038605 0.815332413
0.83894068 0.120251 0.554445207
0.83894068 0.120251 0.815332413
0.834315777 0.117538065 0.554445207
0.834315777 0.117538065 0.815332413
1.11590421 0.239284441 0.554445207
1.11599231 0.230050489 0.554445207
1.11612451 0.221700117 0.554445207
0.808636785 0.105317369 0.554445207
0.814076483 0.107582316 0.554445207
0.843389392 0.123038605 0.554445207
0.797294855 0.101073742 0.554445207
0.797294855 0.101073742 0.815332413
0.791392624 0.0991074741 0.554445207
0.791392624 0.0991074741 0.815332413
0.785380304 0.0972407609 0.554445207
0.785380304 0.0972407609 0.815332413
0.77923584 0.09547361729999999 0.554445207
0.77923584 0.09547361729999999 0.815332413
0.7729592320000001 0.0938060433 0.554445207
0.7729592320000001 0.0938060433 0.815332413
0.766572475 0.0922504663 0.554445207
0.766572475 0.0922504663 0.815332413
0.760075688 0.0907944292 0.554445207
0.760075688 0.0907944292 0.815332413
0.753468692 0.089450404 0.554445207
0.753468692 0.089450404 0.815332413
0.746751606 0.0882183611 0.554445207
0.746751606 0.0882183611 0.815332413
0.739946485 0.0871108025 0.554445207
0.739946485 0.0871108025 0.815332413
0.733031154 0.0861152261 0.554445207
0.733031154 0.0861152261 0.815332413
0.7260498399999999 0.0852192044 0.554445207
0.7260498399999999 0.0852192044 0.815332413
0.696318507 0.08192136880000001 0.554445207
0.696318507 0.08192136880000001 0.815332413
0.704599261 0.471054375 0.815332413
0.698212504 0.470805466 0.815332413
0.695217371 0.470656157 0.815332413
0.701317787 0.470942378 0.815332413
0.692354381 0.470469475 0.815332413
0.689601481 0.470257938 0.815332413
0.686958671 0.470021486 0.815332413
0.670066893 0.467432976 0.815332413
0.672401369 0.467918336 0.815332413
0.681893349 0.469449043 0.815332413
0.684404016 0.469747663 0.815332413
0.679470778 0.46912545 0.815332413
0.674735785 0.468353868 0.815332413
0.677092314 0.468752086 0.815332413
0.662997484 0.465765357 0.815332413
0.660574913 0.465118289 0.815332413
0.649761558 0.461919963 0.815332413
0.653923869 0.463226676 0.815332413
0.6580863 0.464433789 0.815332413
0.645643175 0.460526168 0.815332413
1.59887266 0.400829017 0.815332413
1.11828279 0.183221146 0.815332413
1.12268734 0.167939052 0.815332413
1.34672928 0.464707613 0.815332413
1.34419656 0.465379596 0.815332413
1.34932804 0.463998199 0.815332413
1.35199285 0.463226676 0.815332413
1.35597897 0.462019563 0.815332413
1.35996521 0.460700393 0.815332413
1.36395133 0.459281683 0.815332413
1.43429339 0.414928794 0.815332413
1.4470228 0.400829017 0.815332413
1.39489388 0.444995165 0.815332413
1.39852774 0.442904472 0.815332413
1.41224813 0.434056342 0.815332413
1.41544151 0.431741595 0.815332413
1.4020735 0.44076401 0.815332413
1.4055531 0.438573718 0.815332413
1.40894473 0.436333716 0.815332413
3 1 0 5
558
559
560
561
562
1.445884830329507 0.5067204433948312 0.6839850571207337
0.7595951221112176 0.07165324170082653 0.6584256915936606
0.5272838373391256 0.4858235554618491 0.68488881
0.7453273475225488 0.0680968025522681 0.6585340119536951
1.2905358365497 0.05510203217276418 0.6739841001593606
$EndNodes
$Elements
2 1993 1 1993
2 1 2 1110
1 1 2 3 
2 2 1 4 
3 1 3 268 
4 268 4 1 
5 2 97 3 
6 4 269 2 
7 54 57 2 
8 54 2 262 
9 59 2 57 
10 61 2 59 
11 65 2 61 
12 67 2 65 
13 538 2 67 
14 75 2 72 
15 269 72 2 
16 80 2 75 
17 82 2 80 
18 84 2 82 
19 86 2 84 
20 246 2 86 
21 2 89 97 
22 2 156 89 
23 161 156 2 
24 165 161 2 
25 165 2 172 
26 166 2 167 
27 169 2 166 
28 167 2 181 
29 172 2 169 
30 182 181 2 
31 186 182 2 
32 183 2 184 
33 183 186 2 
34 185 184 2 
35 195 185 2 
36 187 2 188 
37 194 2 187 
38 2 201 188 
39 194 196 2 
40 195 2 196 
41 201 2 402 
42 248 2 246 
43 250 2 248 
44 252 2 250 
45 254 2 252 
46 256 2 254 
47 258 2 256 
48 258 260 2 
49 260 262 2 
50 388 2 413 
51 414 2 388 
52 2 389 394 
53 389 2 419 
54 394 398 2 
55 399 2 398 
56 399 402 2 
57 409 2 410 
58 412 2 409 
59 410 2 422 
60 413 2 412 
61 415 2 414 
62 415 418 2 
63 418 419 2 
64 422 2 519 
65 443 2 444 
66 526 2 443 
67 533 444 2 
68 519 2 522 
69 520 2 521 
70 522 2 520 
71 521 2 523 
72 523 2 524 
73 524 2 525 
74 529 525 2 
75 527 2 526 
76 527 531 2 
77 528 529 2 
78 530 528 2 
79 530 2 532 
80 531 532 2 
81 533 2 534 
82 534 2 537 
83 535 536 2 
84 538 535 2 
85 537 2 536 
86 56 55 3 
87 55 261 3 
88 56 3 58 
89 60 58 3 
90 62 60 3 
91 66 62 3 
92 66 3 68 
93 69 68 3 
94 446 69 3 
95 76 74 3 
96 268 3 74 
97 81 76 3 
98 83 81 3 
99 85 83 3 
100 87 85 3 
101 247 87 3 
102 97 423 3 
103 249 247 3 
104 251 249 3 
105 253 251 3 
106 255 253 3 
107 257 255 3 
108 259 257 3 
109 261 259 3 
110 426 3 423 
111 425 3 426 
112 429 3 425 
113 427 3 428 
114 431 3 427 
115 428 3 430 
116 430 3 429 
117 436 3 431 
118 432 3 433 
119 434 3 432 
120 433 3 435 
121 439 3 434 
122 435 3 436 
123 437 3 438 
124 447 3 437 
125 438 3 439 
126 440 3 441 
127 440 445 3 
128 441 3 448 
129 442 3 447 
130 448 3 442 
131 445 446 3 
132 268 269 4 
133 5 6 7 
134 5 318 6 
135 5 7 22 
136 22 325 5 
137 318 5 319 
138 321 319 5 
139 320 321 5 
140 322 320 5 
141 324 322 5 
142 325 324 5 
143 7 6 8 
144 340 8 6 
145 337 6 318 
146 337 341 6 
147 6 357 340 
148 344 6 341 
149 347 6 344 
150 348 6 347 
151 349 6 348 
152 351 6 349 
153 353 6 351 
154 354 6 353 
155 355 6 354 
156 357 6 355 
157 517 7 8 
158 21 22 7 
159 24 21 7 
160 23 24 7 
161 23 7 245 
162 243 244 7 
163 243 7 266 
164 244 245 7 
165 264 7 265 
166 266 7 264 
167 267 265 7 
168 7 472 267 
169 7 493 472 
170 495 493 7 
171 497 495 7 
172 499 497 7 
173 501 499 7 
174 503 501 7 
175 505 503 7 
176 507 505 7 
177 509 507 7 
178 511 509 7 
179 513 511 7 
180 515 513 7 
181 7 517 515 
182 340 494 8 
183 496 8 494 
184 498 8 496 
185 500 8 498 
186 502 8 500 
187 504 8 502 
188 506 8 504 
189 508 8 506 
190 510 8 508 
191 512 8 510 
192 514 8 512 
193 516 8 514 
194 518 8 516 
195 517 8 518 
196 9 10 11 
197 544 10 9 
198 13 9 11 
199 545 9 13 
200 545 544 9 
201 11 10 12 
202 542 12 10 
203 544 542 10 
204 52 11 12 
205 15 13 11 
206 14 15 11 
207 20 14 11 
208 16 17 11 
209 16 11 36 
210 17 18 11 
211 18 19 11 
212 20 11 19 
213 25 11 26 
214 27 11 25 
215 11 42 26 
216 38 11 27 
217 28 11 29 
218 36 11 28 
219 35 29 11 
220 30 11 31 
221 34 11 30 
222 31 11 32 
223 32 11 33 
224 37 33 11 
225 35 11 34 
226 37 11 41 
227 38 39 11 
228 39 40 11 
229 40 41 11 
230 11 539 42 
231 44 45 11 
232 49 44 11 
233 45 46 11 
234 46 47 11 
235 47 48 11 
236 48 53 11 
237 50 49 11 
238 51 50 11 
239 52 51 11 
240 63 11 53 
241 64 11 63 
242 11 64 77 
243 70 11 71 
244 70 103 11 
245 79 71 11 
246 11 77 78 
247 79 11 78 
248 11 97 89 
249 89 539 11 
250 11 101 97 
251 101 11 102 
252 102 11 103 
253 543 52 12 
254 542 543 12 
255 546 13 15 
256 546 545 13 
257 547 15 14 
258 548 14 20 
259 548 547 14 
260 547 546 15 
261 16 92 17 
262 16 36 92 
263 88 18 17 
264 88 17 91 
265 91 17 92 
266 19 18 90 
267 88 90 18 
268 20 19 90 
269 20 90 548 
270 353 22 21 
271 354 21 24 
272 353 21 354 
273 351 325 22 
274 351 22 353 
275 355 24 23 
276 357 23 245 
277 355 23 357 
278 354 24 355 
279 25 26 105 
280 27 25 105 
281 43 26 42 
282 26 43 550 
283 26 549 105 
284 549 26 550 
285 109 38 27 
286 27 105 104 
287 27 104 109 
288 29 95 28 
289 28 94 36 
290 94 28 95 
291 29 35 95 
292 30 31 555 
293 34 30 552 
294 555 552 30 
295 32 557 31 
296 556 555 31 
297 556 31 557 
298 32 33 557 
299 33 37 553 
300 553 557 33 
301 34 552 35 
302 551 95 35 
303 551 35 552 
304 93 92 36 
305 93 36 94 
306 41 106 37 
307 37 106 554 
308 554 553 37 
309 38 109 39 
310 39 108 40 
311 108 39 109 
312 106 41 40 
313 40 107 106 
314 107 40 108 
315 550 43 42 
316 550 42 539 
317 123 45 44 
318 114 44 49 
319 114 115 44 
320 115 123 44 
321 123 46 45 
322 46 122 47 
323 122 46 123 
324 48 47 119 
325 118 119 47 
326 118 47 122 
327 53 48 131 
328 119 131 48 
329 49 50 114 
330 117 50 51 
331 117 114 50 
332 52 116 51 
333 116 117 51 
334 124 116 52 
335 543 124 52 
336 53 132 63 
337 53 131 132 
338 54 55 56 
339 54 262 55 
340 57 54 56 
341 262 261 55 
342 57 56 58 
343 59 57 58 
344 59 58 60 
345 61 59 60 
346 61 60 62 
347 65 61 62 
348 65 62 66 
349 132 64 63 
350 141 77 64 
351 64 132 133 
352 133 141 64 
353 67 65 66 
354 67 66 68 
355 67 68 69 
356 69 538 67 
357 446 535 69 
358 538 69 535 
359 71 140 70 
360 140 103 70 
361 138 71 79 
362 71 138 137 
363 71 137 140 
364 72 73 74 
365 73 72 269 
366 75 72 74 
367 73 263 74 
368 73 268 263 
369 73 269 268 
370 75 74 76 
371 263 268 74 
372 80 75 76 
373 80 76 81 
374 77 139 78 
375 141 139 77 
376 139 79 78 
377 138 79 139 
378 82 80 81 
379 82 81 83 
380 84 82 83 
381 84 83 85 
382 86 84 85 
383 86 85 87 
384 246 86 87 
385 246 87 247 
386 88 89 90 
387 91 89 88 
388 548 90 89 
389 92 89 91 
390 92 93 89 
391 93 94 89 
392 94 95 89 
393 95 551 89 
394 104 105 89 
395 109 104 89 
396 105 549 89 
397 106 107 89 
398 554 106 89 
399 107 108 89 
400 108 109 89 
401 114 89 115 
402 117 89 114 
403 115 89 123 
404 116 89 117 
405 124 89 116 
406 118 89 119 
407 122 89 118 
408 119 89 131 
409 123 89 122 
410 124 543 89 
411 132 131 89 
412 133 132 89 
413 133 89 141 
414 137 138 89 
415 137 89 140 
416 138 139 89 
417 141 89 139 
418 140 89 155 
419 144 89 145 
420 159 89 144 
421 145 89 157 
422 148 89 149 
423 152 89 148 
424 149 89 150 
425 150 89 159 
426 155 89 152 
427 168 89 156 
428 157 89 158 
429 158 89 160 
430 160 89 168 
431 539 89 549 
432 542 89 543 
433 544 89 542 
434 545 89 544 
435 546 89 545 
436 547 89 546 
437 548 89 547 
438 551 552 89 
439 552 555 89 
440 553 554 89 
441 557 553 89 
442 555 556 89 
443 556 557 89 
444 96 97 98 
445 99 97 96 
446 150 96 98 
447 150 99 96 
448 98 97 101 
449 100 97 99 
450 110 97 100 
451 111 97 110 
452 112 97 111 
453 113 97 112 
454 121 97 113 
455 120 97 121 
456 128 97 120 
457 125 126 97 
458 127 125 97 
459 126 134 97 
460 130 127 97 
461 129 97 128 
462 130 97 129 
463 142 97 134 
464 135 97 136 
465 146 97 135 
466 136 97 143 
467 143 97 142 
468 146 147 97 
469 147 151 97 
470 151 162 97 
471 153 154 97 
472 162 153 97 
473 154 163 97 
474 163 164 97 
475 180 97 164 
476 170 97 171 
477 170 202 97 
478 175 171 97 
479 173 174 97 
480 176 173 97 
481 175 97 174 
482 176 97 177 
483 178 177 97 
484 178 97 179 
485 180 179 97 
486 189 190 97 
487 193 189 97 
488 191 97 190 
489 191 381 97 
490 192 193 97 
491 198 192 97 
492 197 198 97 
493 203 197 97 
494 199 97 200 
495 199 203 97 
496 202 200 97 
497 360 97 361 
498 407 97 360 
499 362 361 97 
500 365 362 97 
501 367 365 97 
502 369 367 97 
503 372 369 97 
504 374 372 97 
505 376 374 97 
506 378 376 97 
507 380 378 97 
508 381 380 97 
509 387 386 97 
510 386 424 97 
511 416 387 97 
512 391 390 97 
513 417 97 390 
514 395 391 97 
515 397 395 97 
516 400 397 97 
517 401 400 97 
518 420 401 97 
519 407 421 97 
520 411 408 97 
521 423 97 408 
522 424 411 97 
523 417 416 97 
524 421 420 97 
525 101 148 98 
526 149 98 148 
527 98 149 150 
528 99 159 100 
529 99 150 159 
530 110 100 145 
531 144 145 100 
532 144 100 159 
533 102 152 101 
534 148 101 152 
535 155 102 103 
536 155 152 102 
537 103 140 155 
538 110 157 111 
539 145 157 110 
540 111 157 112 
541 160 113 112 
542 112 157 158 
543 112 158 160 
544 113 160 121 
545 168 120 121 
546 128 120 161 
547 156 161 120 
548 168 156 120 
549 121 160 168 
550 125 167 126 
551 169 125 127 
552 125 166 167 
553 169 166 125 
554 167 134 126 
555 130 169 127 
556 165 129 128 
557 161 165 128 
558 165 130 129 
559 172 130 165 
560 172 169 130 
561 134 181 142 
562 134 167 181 
563 183 135 136 
564 135 184 146 
565 135 183 184 
566 136 143 183 
567 143 142 186 
568 182 142 181 
569 182 186 142 
570 186 183 143 
571 185 147 146 
572 185 146 184 
573 196 151 147 
574 185 195 147 
575 195 196 147 
576 151 196 162 
577 188 154 153 
578 153 162 194 
579 153 187 188 
580 153 194 187 
581 154 188 163 
582 194 162 196 
583 214 164 163 
584 214 163 188 
585 164 209 180 
586 164 211 209 
587 214 211 164 
588 218 170 171 
589 170 217 202 
590 218 217 170 
591 224 171 175 
592 224 218 171 
593 229 174 173 
594 176 229 173 
595 227 175 174 
596 229 227 174 
597 227 224 175 
598 213 176 177 
599 213 232 176 
600 176 232 229 
601 208 177 178 
602 208 213 177 
603 206 178 179 
604 206 208 178 
605 209 179 180 
606 209 206 179 
607 201 216 188 
608 214 188 215 
609 216 215 188 
610 238 190 189 
611 406 189 193 
612 406 238 189 
613 191 190 270 
614 238 242 190 
615 190 242 453 
616 453 270 190 
617 191 237 236 
618 191 236 381 
619 191 239 237 
620 191 270 239 
621 405 193 192 
622 403 192 198 
623 403 405 192 
624 405 406 193 
625 404 198 197 
626 235 197 203 
627 235 404 197 
628 404 403 198 
629 392 199 200 
630 396 203 199 
631 392 396 199 
632 393 200 202 
633 393 392 200 
634 201 420 216 
635 401 201 402 
636 201 401 420 
637 393 202 217 
638 396 235 203 
639 204 205 206 
640 205 204 362 
641 206 209 204 
642 210 204 209 
643 204 210 361 
644 204 361 362 
645 208 206 205 
646 205 207 208 
647 207 205 365 
648 205 362 365 
649 213 208 207 
650 207 228 213 
651 228 207 367 
652 207 365 367 
653 209 211 210 
654 212 210 211 
655 210 212 360 
656 210 360 361 
657 211 214 212 
658 215 212 214 
659 215 407 212 
660 360 212 407 
661 232 213 228 
662 215 216 421 
663 215 421 407 
664 421 216 420 
665 217 218 219 
666 219 373 217 
667 393 217 373 
668 218 224 219 
669 224 227 219 
670 228 219 227 
671 219 228 369 
672 219 369 372 
673 373 219 372 
674 220 221 222 
675 287 221 220 
676 276 220 222 
677 290 220 276 
678 287 220 289 
679 289 220 290 
680 221 223 222 
681 286 223 221 
682 286 221 287 
683 225 222 223 
684 225 352 222 
685 285 276 222 
686 285 222 382 
687 222 352 350 
688 350 382 222 
689 223 226 225 
690 226 223 284 
691 286 284 223 
692 231 225 226 
693 356 225 231 
694 356 352 225 
695 226 230 231 
696 283 230 226 
697 283 226 284 
698 227 229 228 
699 229 232 228 
700 228 367 369 
701 489 231 230 
702 282 281 230 
703 230 281 488 
704 282 230 283 
705 488 489 230 
706 359 356 231 
707 359 231 489 
708 233 234 235 
709 234 233 376 
710 235 396 233 
711 233 373 374 
712 373 233 392 
713 233 374 376 
714 396 392 233 
715 404 235 234 
716 234 376 378 
717 379 234 378 
718 234 379 403 
719 403 404 234 
720 236 237 238 
721 238 406 236 
722 236 379 380 
723 379 236 406 
724 236 380 381 
725 242 238 237 
726 239 242 237 
727 239 240 241 
728 239 271 240 
729 242 239 241 
730 239 270 271 
731 241 240 336 
732 240 271 272 
733 240 272 273 
734 273 336 240 
735 241 453 242 
736 241 336 454 
737 241 454 453 
738 343 244 243 
739 342 243 266 
740 343 243 342 
741 358 245 244 
742 358 244 343 
743 357 245 358 
744 248 246 247 
745 248 247 249 
746 250 248 249 
747 250 249 251 
748 252 250 251 
749 252 251 253 
750 254 252 253 
751 254 253 255 
752 256 254 255 
753 256 255 257 
754 258 256 257 
755 258 257 259 
756 260 258 259 
757 260 259 261 
758 262 260 261 
759 338 264 265 
760 346 266 264 
761 338 345 264 
762 346 264 345 
763 339 265 267 
764 339 338 265 
765 342 266 346 
766 326 267 276 
767 276 267 468 
768 267 326 327 
769 327 339 267 
770 470 468 267 
771 492 470 267 
772 472 490 267 
773 475 474 267 
774 474 485 267 
775 478 475 267 
776 491 478 267 
777 485 483 267 
778 483 492 267 
779 490 491 267 
780 270 453 271 
781 271 454 272 
782 454 271 453 
783 273 272 277 
784 272 455 277 
785 455 272 454 
786 273 277 278 
787 278 335 273 
788 336 273 335 
789 274 275 276 
790 275 274 384 
791 279 274 276 
792 279 540 274 
793 540 384 274 
794 275 288 276 
795 375 288 275 
796 384 375 275 
797 279 276 280 
798 285 280 276 
799 276 288 308 
800 292 290 276 
801 294 292 276 
802 296 294 276 
803 300 296 276 
804 298 276 299 
805 276 298 316 
806 304 299 276 
807 302 300 276 
808 276 306 302 
809 304 276 305 
810 315 305 276 
811 276 450 306 
812 308 309 276 
813 276 309 310 
814 310 311 276 
815 311 315 276 
816 312 313 276 
817 314 312 276 
818 276 313 326 
819 317 314 276 
820 316 317 276 
821 451 450 276 
822 451 276 456 
823 456 276 458 
824 458 276 460 
825 460 276 462 
826 462 276 464 
827 464 276 466 
828 466 276 468 
829 278 277 281 
830 281 277 487 
831 455 487 277 
832 278 281 282 
833 278 282 334 
834 335 278 334 
835 280 385 279 
836 385 540 279 
837 382 280 285 
838 280 382 383 
839 383 385 280 
840 487 488 281 
841 282 283 333 
842 333 334 282 
843 283 284 356 
844 359 333 283 
845 356 359 283 
846 284 286 352 
847 352 356 284 
848 286 287 350 
849 350 352 286 
850 287 289 383 
851 382 350 287 
852 383 382 287 
853 323 308 288 
854 288 375 323 
855 289 290 291 
856 289 291 385 
857 385 383 289 
858 291 290 292 
859 291 292 293 
860 291 293 384 
861 384 540 291 
862 540 385 291 
863 293 292 294 
864 293 294 295 
865 293 295 375 
866 375 384 293 
867 295 294 296 
868 295 296 297 
869 295 297 371 
870 371 323 295 
871 323 375 295 
872 297 296 300 
873 297 300 301 
874 297 301 370 
875 370 371 297 
876 299 364 298 
877 316 298 332 
878 377 332 298 
879 377 298 364 
880 299 304 364 
881 301 300 302 
882 301 302 303 
883 301 303 368 
884 368 541 301 
885 541 370 301 
886 303 302 306 
887 303 306 307 
888 303 307 366 
889 366 368 303 
890 363 304 305 
891 363 364 304 
892 315 368 305 
893 363 305 366 
894 366 305 368 
895 306 450 307 
896 340 366 307 
897 307 449 340 
898 449 307 450 
899 309 308 323 
900 370 310 309 
901 371 309 323 
902 370 309 371 
903 541 311 310 
904 310 370 541 
905 315 311 541 
906 329 313 312 
907 330 312 314 
908 330 329 312 
909 328 326 313 
910 329 328 313 
911 331 314 317 
912 331 330 314 
913 368 315 541 
914 332 317 316 
915 332 331 317 
916 318 319 341 
917 318 341 337 
918 341 319 321 
919 344 321 320 
920 347 320 322 
921 344 320 347 
922 341 321 344 
923 348 322 324 
924 347 322 348 
925 349 324 325 
926 348 324 349 
927 349 325 351 
928 328 327 326 
929 328 340 327 
930 327 340 339 
931 329 340 328 
932 330 340 329 
933 331 340 330 
934 332 340 331 
935 377 340 332 
936 334 333 488 
937 333 359 489 
938 333 489 488 
939 455 335 334 
940 455 334 487 
941 334 488 487 
942 336 335 455 
943 336 455 454 
944 338 339 340 
945 345 338 340 
946 342 340 343 
947 342 346 340 
948 343 340 358 
949 346 345 340 
950 358 340 357 
951 363 340 364 
952 366 340 363 
953 377 364 340 
954 452 340 449 
955 457 340 452 
956 457 459 340 
957 461 340 459 
958 461 463 340 
959 465 340 463 
960 467 340 465 
961 469 340 467 
962 469 481 340 
963 340 471 473 
964 480 471 340 
965 473 494 340 
966 340 477 476 
967 479 340 476 
968 340 486 477 
969 480 340 479 
970 482 340 481 
971 484 340 482 
972 486 340 484 
973 373 372 374 
974 392 393 373 
975 379 378 380 
976 405 403 379 
977 406 405 379 
978 386 387 388 
979 386 388 413 
980 413 424 386 
981 414 388 387 
982 415 414 387 
983 415 387 416 
984 389 390 391 
985 390 389 419 
986 394 389 391 
987 417 390 418 
988 419 418 390 
989 394 391 395 
990 395 397 394 
991 398 394 397 
992 399 398 397 
993 399 397 400 
994 400 401 399 
995 402 399 401 
996 408 409 410 
997 409 408 412 
998 410 423 408 
999 411 412 408 
1000 410 422 423 
1001 412 411 413 
1002 411 424 413 
1003 416 417 415 
1004 418 415 417 
1005 426 423 422 
1006 422 425 426 
1007 422 519 425 
1008 429 425 522 
1009 519 522 425 
1010 427 428 523 
1011 427 523 431 
1012 428 430 521 
1013 521 523 428 
1014 429 522 430 
1015 520 521 430 
1016 520 430 522 
1017 436 431 525 
1018 524 431 523 
1019 524 525 431 
1020 433 528 432 
1021 434 432 532 
1022 530 432 528 
1023 530 532 432 
1024 433 435 528 
1025 532 439 434 
1026 525 435 436 
1027 525 529 435 
1028 529 528 435 
1029 437 438 526 
1030 447 437 443 
1031 526 443 437 
1032 527 438 439 
1033 527 526 438 
1034 531 527 439 
1035 531 439 532 
1036 440 441 537 
1037 440 537 445 
1038 533 441 448 
1039 533 534 441 
1040 534 537 441 
1041 442 443 444 
1042 447 443 442 
1043 444 533 442 
1044 448 442 533 
1045 535 446 445 
1046 535 445 536 
1047 536 445 537 
1048 449 450 452 
1049 451 452 450 
1050 452 451 456 
1051 452 456 457 
1052 457 456 459 
1053 458 459 456 
1054 459 458 460 
1055 459 460 461 
1056 461 460 463 
1057 462 463 460 
1058 463 462 464 
1059 463 464 465 
1060 465 464 467 
1061 466 467 464 
1062 467 466 468 
1063 467 468 469 
1064 469 468 470 
1065 470 481 469 
1066 481 470 482 
1067 470 492 482 
1068 471 472 473 
1069 490 472 471 
1070 480 491 471 
1071 490 471 491 
1072 493 473 472 
1073 494 473 493 
1074 474 475 476 
1075 474 476 477 
1076 474 477 485 
1077 476 475 478 
1078 476 478 479 
1079 486 485 477 
1080 479 478 480 
1081 478 491 480 
1082 483 484 482 
1083 482 492 483 
1084 484 483 485 
1085 484 485 486 
1086 494 493 495 
1087 494 495 496 
1088 496 495 497 
1089 496 497 498 
1090 498 497 499 
1091 498 499 500 
1092 500 499 501 
1093 500 501 502 
1094 502 501 503 
1095 502 503 504 
1096 504 503 505 
1097 504 505 506 
1098 506 505 507 
1099 506 507 508 
1100 508 507 509 
1101 508 509 510 
1102 510 509 511 
1103 510 511 512 
1104 512 511 513 
1105 512 513 514 
1106 514 513 515 
1107 514 515 516 
1108 516 515 517 
1109 516 517 518 
1110 539 549 550 
3 1 4 883
1111 150 99 97 96 
1112 340 485 267 474 
1113 79 138 11 71 
1114 235 97 233 396 
1115 138 137 11 71 
1116 99 150 97 159 
1117 139 79 11 78 
1118 79 139 11 138 
1119 168 160 97 89 
1120 233 234 97 235 
1121 404 97 234 235 
1122 100 97 159 99 
1123 141 11 77 139 
1124 78 11 139 77 
1125 220 222 287 276 
1126 403 97 234 404 
1127 97 159 144 100 
1128 7 6 340 8 
1129 483 267 340 485 
1130 100 145 97 110 
1131 340 245 7 244 
1132 358 244 340 343 
1133 141 64 11 133 
1134 64 141 11 77 
1135 160 158 97 89 
1136 405 97 379 403 
1137 97 234 379 403 
1138 110 157 97 111 
1139 287 222 350 276 
1140 97 144 145 100 
1141 132 64 11 63 
1142 64 132 11 133 
1143 7 357 340 6 
1144 168 97 156 89 
1145 158 157 97 89 
1146 157 110 97 145 
1147 132 53 11 131 
1148 53 132 11 63 
1149 406 97 379 405 
1150 112 97 157 111 
1151 7 340 244 243 
1152 267 340 492 483 
1153 236 97 406 238 
1154 379 236 97 406 
1155 119 11 48 131 
1156 11 53 48 131 
1157 112 160 97 113 
1158 97 157 158 112 
1159 472 340 490 471 
1160 343 243 340 342 
1161 491 471 340 480 
1162 157 145 97 89 
1163 119 47 11 118 
1164 119 47 48 11 
1165 472 267 340 7 
1166 7 340 243 266 
1167 160 121 97 113 
1168 160 112 97 158 
1169 470 267 340 492 
1170 145 144 97 89 
1171 326 276 340 313 
1172 47 46 11 122 
1173 122 11 47 118 
1174 121 168 97 120 
1175 46 45 11 123 
1176 144 159 97 89 
1177 123 11 46 122 
1178 121 160 97 168 
1179 340 245 244 358 
1180 479 480 478 340 
1181 340 7 264 266 
1182 2 426 423 422 
1183 491 471 490 340 
1184 44 123 115 11 
1185 44 123 11 45 
1186 468 267 340 470 
1187 238 237 236 97 
1188 340 346 342 266 
1189 2 425 422 519 
1190 159 150 97 89 
1191 2 426 422 425 
1192 366 276 340 307 
1193 114 44 11 49 
1194 44 114 11 115 
1195 312 340 276 313 
1196 7 22 353 5 
1197 368 276 366 303 
1198 117 11 50 114 
1199 267 276 340 326 
1200 11 49 50 114 
1201 425 522 2 429 
1202 522 425 2 519 
1203 7 265 340 264 
1204 150 149 97 89 
1205 276 366 303 307 
1206 97 149 148 89 
1207 301 368 276 541 
1208 480 491 478 340 
1209 51 117 116 11 
1210 51 117 11 50 
1211 340 476 478 479 
1212 522 2 430 520 
1213 2 430 429 522 
1214 368 301 276 303 
1215 52 116 11 51 
1216 370 276 541 301 
1217 152 155 11 89 
1218 243 343 340 244 
1219 428 430 2 521 
1220 7 353 6 5 
1221 520 2 430 521 
1222 346 264 340 345 
1223 314 340 276 312 
1224 7 267 340 265 
1225 371 276 370 297 
1226 426 2 423 3 
1227 276 370 297 301 
1228 222 220 287 221 
1229 11 155 140 89 
1230 287 222 286 350 
1231 222 221 287 286 
1232 223 222 286 221 
1233 222 286 350 352 
1234 286 222 225 352 
1235 222 223 286 225 
1236 352 284 225 286 
1237 225 284 223 286 
1238 225 284 226 223 
1239 284 352 225 356 
1240 226 356 225 231 
1241 356 226 225 284 
1242 356 226 284 283 
1243 230 359 231 489 
1244 191 237 239 190 
1245 359 230 333 489 
1246 230 359 333 283 
1247 333 230 488 489 
1248 230 333 282 283 
1249 334 281 487 488 
1250 281 334 278 282 
1251 278 334 455 335 
1252 273 455 335 278 
1253 455 273 335 336 
1254 273 455 278 277 
1255 273 455 277 272 
1256 323 276 371 295 
1257 240 241 336 454 
1258 454 272 240 271 
1259 242 239 237 190 
1260 276 371 295 297 
1261 270 191 239 190 
1262 340 474 476 477 
1263 190 239 270 453 
1264 375 276 323 295 
1265 2 426 425 3 
1266 428 523 2 427 
1267 276 375 293 295 
1268 523 428 2 521 
1269 350 276 382 287 
1270 384 276 375 293 
1271 476 475 340 478 
1272 382 276 383 287 
1273 291 276 384 293 
1274 276 291 384 540 
1275 276 383 287 289 
1276 140 137 11 89 
1277 383 276 385 289 
1278 385 276 540 291 
1279 276 385 289 291 
1280 453 242 239 241 
1281 317 340 276 314 
1282 242 453 239 190 
1283 241 240 453 454 
1284 453 240 271 454 
1285 2 3 425 429 
1286 276 466 468 340 
1287 431 523 2 524 
1288 328 326 340 313 
1289 326 328 340 327 
1290 523 431 2 427 
1291 9 13 11 558 
1292 276 464 466 340 
1293 89 137 11 138 
1294 305 368 276 366 
1295 368 305 276 315 
1296 264 338 340 345 
1297 485 477 340 486 
1298 541 276 311 315 
1299 541 276 315 368 
1300 243 340 342 266 
1301 431 525 2 436 
1302 525 431 2 524 
1303 3 2 430 429 
1304 541 276 310 311 
1305 370 276 310 541 
1306 476 475 474 340 
1307 241 240 239 453 
1308 271 239 240 453 
1309 350 276 222 382 
1310 382 276 222 285 
1311 139 89 11 138 
1312 371 276 309 370 
1313 370 276 309 310 
1314 316 340 276 317 
1315 271 270 239 453 
1316 382 276 285 280 
1317 382 276 280 383 
1318 383 276 280 385 
1319 385 276 280 279 
1320 323 309 276 308 
1321 309 323 276 371 
1322 329 340 312 313 
1323 340 329 328 313 
1324 276 279 540 274 
1325 279 276 540 385 
1326 323 276 288 308 
1327 375 276 288 323 
1328 384 276 274 275 
1329 540 276 274 384 
1330 275 375 276 288 
1331 375 275 276 384 
1332 26 42 550 43 
1333 276 462 464 340 
1334 2 3 430 428 
1335 525 2 435 529 
1336 2 435 436 525 
1337 298 340 276 316 
1338 485 484 486 340 
1339 141 11 139 89 
1340 539 26 550 549 
1341 330 312 340 314 
1342 330 312 329 340 
1343 276 460 462 340 
1344 485 477 474 340 
1345 339 338 340 265 
1346 306 276 303 307 
1347 276 306 303 302 
1348 299 340 276 298 
1349 433 435 2 528 
1350 529 2 435 528 
1351 3 2 427 428 
1352 287 220 276 289 
1353 276 301 302 303 
1354 301 276 302 300 
1355 276 289 290 291 
1356 289 276 290 220 
1357 301 300 297 276 
1358 297 300 296 276 
1359 120 161 97 128 
1360 292 291 293 276 
1361 291 290 276 292 
1362 276 295 296 297 
1363 295 276 296 294 
1364 133 11 141 89 
1365 293 294 276 295 
1366 293 294 292 276 
1367 168 156 97 120 
1368 317 331 340 314 
1369 331 330 340 314 
1370 264 346 340 266 
1371 458 460 276 340 
1372 539 26 42 550 
1373 482 483 340 484 
1374 423 2 97 3 
1375 528 432 530 2 
1376 528 432 2 433 
1377 2 427 431 3 
1378 485 483 484 340 
1379 332 340 316 317 
1380 340 332 331 317 
1381 129 97 165 128 
1382 456 458 276 340 
1383 11 132 89 133 
1384 267 327 326 340 
1385 267 327 340 339 
1386 470 481 482 340 
1387 298 332 340 316 
1388 332 298 340 377 
1389 7 493 495 494 
1390 532 432 434 2 
1391 456 276 451 340 
1392 532 432 2 530 
1393 431 2 3 436 
1394 298 364 340 377 
1395 364 298 340 299 
1396 450 451 276 340 
1397 131 11 132 89 
1398 482 483 492 340 
1399 532 2 439 531 
1400 465 467 464 340 
1401 467 466 464 340 
1402 130 165 129 97 
1403 2 439 434 532 
1404 469 470 340 481 
1405 73 72 268 269 
1406 268 263 74 73 
1407 72 268 74 73 
1408 401 420 97 201 
1409 338 264 340 265 
1410 3 2 435 436 
1411 463 464 462 340 
1412 464 463 465 340 
1413 494 340 8 7 
1414 130 169 97 127 
1415 438 439 2 527 
1416 492 470 482 340 
1417 527 439 2 531 
1418 463 460 461 340 
1419 463 462 460 340 
1420 467 340 468 466 
1421 340 467 468 469 
1422 119 89 11 131 
1423 97 164 209 180 
1424 214 164 97 163 
1425 459 461 460 340 
1426 460 458 459 340 
1427 216 420 97 421 
1428 2 3 435 433 
1429 209 97 180 179 
1430 459 456 340 458 
1431 456 459 340 457 
1432 470 469 340 468 
1433 206 178 97 179 
1434 169 125 97 127 
1435 2 437 438 526 
1436 527 2 438 526 
1437 208 177 97 178 
1438 456 457 340 452 
1439 340 451 456 452 
1440 118 89 11 119 
1441 176 97 213 177 
1442 173 97 229 176 
1443 452 450 340 451 
1444 450 452 340 449 
1445 450 307 449 340 
1446 215 421 97 407 
1447 2 3 433 432 
1448 437 443 2 447 
1449 443 437 2 526 
1450 229 97 173 174 
1451 265 340 339 267 
1452 125 167 97 126 
1453 227 175 97 174 
1454 171 97 224 175 
1455 170 97 218 171 
1456 122 89 11 118 
1457 97 212 407 360 
1458 442 443 2 444 
1459 443 442 2 447 
1460 217 202 97 170 
1461 393 200 97 202 
1462 200 392 97 199 
1463 167 134 97 126 
1464 203 97 396 199 
1465 2 3 432 434 
1466 442 533 2 448 
1467 533 442 2 444 
1468 203 235 97 197 
1469 198 97 404 197 
1470 191 97 237 190 
1471 210 360 97 361 
1472 164 214 97 211 
1473 164 211 97 209 
1474 403 192 97 198 
1475 192 405 97 193 
1476 97 209 206 179 
1477 177 208 97 213 
1478 123 89 11 122 
1479 213 232 97 176 
1480 206 178 208 97 
1481 406 189 97 193 
1482 97 232 229 176 
1483 142 97 181 134 
1484 26 11 539 42 
1485 97 229 227 174 
1486 175 227 97 224 
1487 3 2 439 434 
1488 534 441 2 533 
1489 441 448 2 533 
1490 97 224 218 171 
1491 361 362 97 204 
1492 420 216 97 201 
1493 406 189 238 97 
1494 97 218 217 170 
1495 405 406 97 193 
1496 192 403 97 405 
1497 392 396 97 199 
1498 393 200 392 97 
1499 97 238 190 189 
1500 404 403 97 198 
1501 396 235 97 203 
1502 202 217 97 393 
1503 235 404 97 197 
1504 142 186 97 143 
1505 440 441 2 537 
1506 534 2 441 537 
1507 11 89 123 115 
1508 362 205 365 97 
1509 2 3 439 438 
1510 143 183 97 136 
1511 215 421 216 97 
1512 445 537 2 536 
1513 537 445 2 440 
1514 97 365 367 207 
1515 85 3 83 560 
1516 136 183 97 135 
1517 161 120 97 156 
1518 97 367 369 228 
1519 114 89 11 115 
1520 219 369 97 372 
1521 212 97 407 215 
1522 372 374 97 373 
1523 3 2 437 438 
1524 445 535 2 446 
1525 233 374 97 376 
1526 535 445 2 536 
1527 135 184 97 146 
1528 97 376 378 234 
1529 236 380 97 381 
1530 97 378 380 379 
1531 117 89 11 114 
1532 360 210 97 212 
1533 185 147 97 146 
1534 2 3 437 447 
1535 97 161 165 128 
1536 89 545 544 558 
1537 69 535 2 538 
1538 151 97 196 147 
1539 535 69 2 446 
1540 204 97 361 210 
1541 380 236 97 379 
1542 378 97 234 379 
1543 191 236 237 97 
1544 191 236 97 381 
1545 349 325 5 351 
1546 325 349 5 324 
1547 11 89 117 116 
1548 362 205 97 204 
1549 234 97 376 233 
1550 97 196 162 151 
1551 3 2 442 447 
1552 233 374 373 97 
1553 67 69 68 2 
1554 67 69 2 538 
1555 207 97 365 205 
1556 373 97 372 219 
1557 162 194 97 153 
1558 367 97 207 228 
1559 369 219 97 228 
1560 130 165 97 172 
1561 2 3 442 448 
1562 97 153 188 154 
1563 67 66 65 2 
1564 67 66 2 68 
1565 188 163 97 154 
1566 2 3 448 441 
1567 62 65 2 61 
1568 65 62 2 66 
1569 169 130 97 172 
1570 2 3 441 440 
1571 497 499 7 559 
1572 61 2 60 59 
1573 62 2 60 61 
1574 125 169 97 166 
1575 57 58 2 59 
1576 58 60 2 59 
1577 3 2 445 440 
1578 57 56 54 2 
1579 57 56 2 58 
1580 167 125 97 166 
1581 55 54 2 262 
1582 163 188 97 214 
1583 54 55 2 56 
1584 2 3 445 446 
1585 262 261 260 2 
1586 262 261 2 55 
1587 516 517 8 518 
1588 551 35 95 89 
1589 134 167 97 181 
1590 258 259 2 260 
1591 259 261 2 260 
1592 552 34 35 89 
1593 551 552 35 89 
1594 3 2 69 446 
1595 30 552 89 34 
1596 552 30 89 555 
1597 257 258 2 256 
1598 258 257 2 259 
1599 97 181 182 142 
1600 254 255 2 256 
1601 255 257 2 256 
1602 5 22 353 351 
1603 5 22 351 325 
1604 556 31 555 89 
1605 31 30 555 89 
1606 2 3 69 68 
1607 557 32 31 89 
1608 556 557 31 89 
1609 254 2 253 252 
1610 255 2 253 254 
1611 318 341 6 337 
1612 33 557 89 32 
1613 557 33 89 553 
1614 250 251 2 252 
1615 251 253 2 252 
1616 186 142 97 182 
1617 37 553 554 89 
1618 553 37 33 89 
1619 3 2 66 68 
1620 554 106 37 89 
1621 106 107 40 89 
1622 72 2 268 269 
1623 26 105 89 25 
1624 105 26 89 549 
1625 40 107 108 89 
1626 39 40 108 89 
1627 105 27 104 89 
1628 105 25 27 89 
1629 38 39 109 89 
1630 39 108 109 89 
1631 109 104 27 89 
1632 109 27 38 89 
1633 143 183 186 97 
1634 2 3 66 62 
1635 183 184 97 135 
1636 3 2 60 62 
1637 184 185 97 146 
1638 549 26 89 539 
1639 6 5 353 351 
1640 60 2 3 58 
1641 147 185 97 195 
1642 147 195 97 196 
1643 58 2 3 56 
1644 196 97 162 194 
1645 56 2 3 55 
1646 268 4 269 2 
1647 194 187 97 153 
1648 6 5 351 349 
1649 55 2 3 261 
1650 153 97 188 187 
1651 261 2 3 259 
1652 257 3 2 259 
1653 268 4 2 1 
1654 257 2 3 255 
1655 11 35 34 89 
1656 505 7 503 561 
1657 253 3 2 255 
1658 34 30 11 89 
1659 253 2 3 251 
1660 30 31 11 89 
1661 11 31 32 89 
1662 32 33 11 89 
1663 11 33 37 89 
1664 89 26 25 11 
1665 40 39 11 89 
1666 11 27 25 89 
1667 39 38 11 89 
1668 11 38 27 89 
1669 82 2 84 560 
1670 89 26 11 539 
1671 1 3 2 268 
1672 319 321 5 562 
1673 344 341 6 562 
1674 545 9 544 558 
1675 7 353 354 6 
1676 7 355 24 23 
1677 22 7 353 21 
1678 341 344 321 562 
1679 319 341 321 562 
1680 215 214 97 188 
1681 84 83 82 560 
1682 490 267 491 340 
1683 98 148 97 149 
1684 13 9 545 558 
1685 85 83 84 560 
1686 504 505 503 561 
1687 267 472 340 490 
1688 468 267 276 340 
1689 24 7 354 355 
1690 353 21 7 354 
1691 23 7 355 357 
1692 21 7 354 24 
1693 218 219 97 217 
1694 373 233 97 392 
1695 396 97 233 392 
1696 213 97 207 208 
1697 97 207 228 213 
1698 232 97 228 213 
1699 228 97 232 229 
1700 97 228 219 227 
1701 228 97 229 227 
1702 224 219 97 218 
1703 219 373 97 217 
1704 227 219 97 224 
1705 217 373 97 393 
1706 393 373 97 392 
1707 148 98 97 101 
1708 196 2 195 97 
1709 211 97 212 214 
1710 209 210 97 204 
1711 97 211 210 209 
1712 70 140 11 103 
1713 215 214 212 97 
1714 2 182 97 181 
1715 181 2 167 97 
1716 184 2 183 97 
1717 201 97 188 216 
1718 97 201 188 2 
1719 97 2 183 186 
1720 97 2 195 185 
1721 97 2 185 184 
1722 208 205 97 207 
1723 205 208 97 206 
1724 206 97 204 209 
1725 2 156 97 89 
1726 161 2 97 165 
1727 165 2 97 172 
1728 2 167 97 166 
1729 169 2 97 166 
1730 156 2 97 161 
1731 500 499 498 559 
1732 499 497 498 559 
1733 11 137 140 71 
1734 2 186 97 182 
1735 97 206 204 205 
1736 70 11 140 71 
1737 140 155 11 103 
1738 11 101 102 152 
1739 11 155 152 102 
1740 155 11 103 102 
1741 150 98 97 149 
1742 98 150 97 96 
1743 357 245 340 358 
1744 7 354 355 6 
1745 340 475 474 267 
1746 172 2 97 169 
1747 506 505 504 561 
1748 340 475 267 478 
1749 267 491 340 478 
1750 187 2 194 97 
1751 211 97 210 212 
1752 2 188 97 187 
1753 97 2 194 196 
1754 216 188 215 97 
1755 7 355 357 6 
1756 7 245 357 23 
1757 7 357 245 340 
1758 410 2 423 422 
1759 409 2 408 410 
1760 423 2 408 97 
1761 423 408 2 410 
1762 412 2 408 409 
1763 413 2 411 412 
1764 408 2 411 97 
1765 408 411 2 412 
1766 386 388 2 413 
1767 2 411 424 413 
1768 424 411 2 97 
1769 386 2 424 413 
1770 424 2 386 97 
1771 414 2 387 388 
1772 386 2 387 97 
1773 386 387 2 388 
1774 415 2 387 414 
1775 387 416 2 415 
1776 2 416 387 97 
1777 417 418 2 415 
1778 416 417 2 415 
1779 2 417 416 97 
1780 237 238 190 97 
1781 237 190 238 242 
1782 417 390 2 418 
1783 417 2 390 97 
1784 419 2 390 418 
1785 89 148 11 152 
1786 89 11 148 97 
1787 101 11 148 152 
1788 101 148 11 97 
1789 340 472 473 471 
1790 231 226 359 230 
1791 231 359 226 356 
1792 283 359 226 230 
1793 283 226 359 356 
1794 334 333 281 488 
1795 334 281 333 282 
1796 230 281 333 488 
1797 230 333 281 282 
1798 487 455 278 334 
1799 278 455 487 277 
1800 278 281 487 334 
1801 487 281 278 277 
1802 455 454 273 336 
1803 455 273 454 272 
1804 240 273 454 336 
1805 240 454 273 272 
1806 10 9 558 544 
1807 558 9 10 11 
1808 558 89 542 544 
1809 10 558 542 544 
1810 389 2 390 419 
1811 493 494 340 473 
1812 340 494 493 7 
1813 340 472 493 473 
1814 493 472 340 7 
1815 394 2 391 389 
1816 390 2 391 97 
1817 390 391 2 389 
1818 304 276 363 305 
1819 366 363 276 305 
1820 366 276 363 340 
1821 494 496 7 8 
1822 494 7 496 495 
1823 497 496 7 495 
1824 74 72 3 268 
1825 2 3 72 268 
1826 397 398 2 394 
1827 2 391 395 394 
1828 395 391 2 97 
1829 397 2 395 394 
1830 395 2 397 97 
1831 276 450 307 306 
1832 276 307 450 340 
1833 364 299 276 304 
1834 276 299 364 340 
1835 276 363 364 304 
1836 364 363 276 340 
1837 399 2 397 398 
1838 498 496 559 497 
1839 7 559 496 497 
1840 560 2 80 82 
1841 83 81 560 3 
1842 83 560 81 82 
1843 81 560 80 82 
1844 40 41 89 11 
1845 40 89 41 106 
1846 37 89 41 11 
1847 37 41 89 106 
1848 2 401 402 399 
1849 400 397 2 97 
1850 2 397 400 399 
1851 401 400 2 97 
1852 2 400 401 399 
1853 201 401 2 97 
1854 2 401 201 402 
1855 503 502 7 501 
1856 501 499 559 7 
1857 501 559 499 500 
1858 502 501 559 7 
1859 502 559 501 500 
1860 7 561 502 503 
1861 504 502 561 503 
1862 558 546 545 13 
1863 558 545 546 89 
1864 11 15 558 13 
1865 15 546 558 13 
1866 558 547 546 15 
1867 558 546 547 89 
1868 11 14 558 15 
1869 14 547 558 15 
1870 558 11 20 14 
1871 547 548 558 89 
1872 547 558 548 14 
1873 548 558 20 14 
1874 509 508 7 507 
1875 7 500 502 8 
1876 7 502 500 559 
1877 496 498 7 8 
1878 496 7 498 559 
1879 498 500 7 8 
1880 498 7 500 559 
1881 548 90 558 89 
1882 548 558 90 20 
1883 511 510 7 509 
1884 508 7 510 509 
1885 508 510 7 8 
1886 507 505 561 7 
1887 507 561 505 506 
1888 508 507 561 7 
1889 508 561 507 506 
1890 513 512 7 511 
1891 510 7 512 511 
1892 510 512 7 8 
1893 543 558 89 542 
1894 10 12 558 11 
1895 10 558 12 542 
1896 12 558 543 542 
1897 512 514 7 8 
1898 512 7 514 513 
1899 515 514 7 513 
1900 562 347 6 344 
1901 321 320 562 344 
1902 321 562 320 5 
1903 320 347 562 344 
1904 517 516 7 515 
1905 517 7 516 8 
1906 514 7 516 515 
1907 514 516 7 8 
1908 5 318 562 6 
1909 5 562 318 319 
1910 341 562 318 6 
1911 341 318 562 319 
1912 84 86 560 2 
1913 84 560 86 85 
1914 3 87 560 85 
1915 560 87 86 85 
1916 89 558 88 90 
1917 558 18 88 90 
1918 19 558 18 11 
1919 19 18 558 90 
1920 20 558 19 11 
1921 20 19 558 90 
1922 18 558 17 11 
1923 18 17 558 88 
1924 11 16 558 17 
1925 558 16 92 17 
1926 91 558 92 17 
1927 91 92 558 89 
1928 88 558 91 17 
1929 88 91 558 89 
1930 36 92 558 16 
1931 558 11 36 16 
1932 7 506 508 8 
1933 7 508 506 561 
1934 502 504 7 8 
1935 502 7 504 561 
1936 504 506 7 8 
1937 504 7 506 561 
1938 562 348 6 347 
1939 322 320 562 5 
1940 562 320 322 347 
1941 562 322 348 347 
1942 3 247 560 87 
1943 246 86 560 87 
1944 560 86 246 2 
1945 247 246 560 87 
1946 2 75 560 80 
1947 81 560 76 80 
1948 81 76 560 3 
1949 560 75 76 80 
1950 52 12 558 543 
1951 558 12 52 11 
1952 558 89 124 543 
1953 52 558 124 543 
1954 76 74 560 3 
1955 76 560 74 75 
1956 2 560 72 3 
1957 2 72 560 75 
1958 560 74 72 3 
1959 560 72 74 75 
1960 52 116 558 11 
1961 52 558 116 124 
1962 89 558 116 11 
1963 89 116 558 124 
1964 562 349 6 348 
1965 562 6 349 5 
1966 322 324 562 348 
1967 322 562 324 5 
1968 324 349 562 348 
1969 324 562 349 5 
1970 11 28 558 36 
1971 28 94 558 36 
1972 93 92 558 36 
1973 93 558 92 89 
1974 94 93 558 36 
1975 94 558 93 89 
1976 246 248 560 2 
1977 246 560 248 247 
1978 3 249 560 247 
1979 560 249 248 247 
1980 3 251 560 249 
1981 560 251 3 2 
1982 250 248 560 249 
1983 560 248 250 2 
1984 251 250 560 249 
1985 560 250 251 2 
1986 94 95 558 89 
1987 94 558 95 28 
1988 11 29 558 28 
1989 558 29 95 28 
1990 35 95 558 29 
1991 558 95 35 89 
1992 558 11 35 29 
1993 35 11 558 89 
$EndElements
